<svg xmlns="http://www.w3.org/2000/svg" width="17.042" height="16.183" viewBox="0 0 17.042 16.183"><defs><style>.a{fill:#23242c;stroke:#23242c;}</style></defs><g transform="translate(0.5 -8.101)"><g transform="translate(0 8.601)"><g transform="translate(0 0)"><path class="a" d="M134.772,82.531a.326.326,0,0,0-.219-.139,4.329,4.329,0,0,1-4.394-4.732.258.258,0,0,0-.517,0,4.325,4.325,0,0,1-4.374,4.732.226.226,0,0,0-.159.06c-.04.02-.06.06-.08.08a.3.3,0,0,0,0,.258.276.276,0,0,0,.239.139h.02a4.316,4.316,0,0,1,4.374,4.732.258.258,0,1,0,.517,0,4.331,4.331,0,0,1,4.374-4.732.3.3,0,0,0,.239-.139A.244.244,0,0,0,134.772,82.531ZM129.9,85.712a4.538,4.538,0,0,0-3.1-3.062,4.538,4.538,0,0,0,3.1-3.062A4.538,4.538,0,0,0,133,82.65,4.538,4.538,0,0,0,129.9,85.712Z" transform="translate(-118.787 -73.981)"/><path class="a" d="M51.547,11.981a.268.268,0,0,0,.258-.278.263.263,0,0,0-.258-.258,2.355,2.355,0,0,1-2.386-2.585.258.258,0,0,0-.517,0,2.355,2.355,0,0,1-2.386,2.585h-.02A.259.259,0,0,0,46,11.7a.263.263,0,0,0,.258.258,2.347,2.347,0,0,1,2.386,2.585.263.263,0,0,0,.258.258.229.229,0,0,0,.239-.239,2.355,2.355,0,0,1,2.386-2.585h.02Zm-2.664,1.133A2.666,2.666,0,0,0,47.451,11.7a2.675,2.675,0,0,0,1.431-1.412A2.666,2.666,0,0,0,50.314,11.7,2.675,2.675,0,0,0,48.883,13.114Z" transform="translate(-43.714 -8.601)"/><path class="a" d="M5.547,191.844a2.355,2.355,0,0,1-2.386-2.585.258.258,0,0,0-.517,0,2.355,2.355,0,0,1-2.386,2.585H.239A.259.259,0,0,0,0,192.1a.263.263,0,0,0,.258.258,2.347,2.347,0,0,1,2.386,2.585.263.263,0,0,0,.258.258c.119.04.239-.08.239-.239a2.355,2.355,0,0,1,2.386-2.585h.02a.268.268,0,0,0,.258-.278A.263.263,0,0,0,5.547,191.844Zm-2.664,1.69a2.732,2.732,0,0,0-1.431-1.412,2.675,2.675,0,0,0,1.431-1.412,2.666,2.666,0,0,0,1.431,1.412A2.675,2.675,0,0,0,2.883,193.534Z" transform="translate(0 -180.034)"/></g></g></g></svg>