<svg xmlns="http://www.w3.org/2000/svg" width="57" height="56" viewBox="0 0 57 56"><defs><style>.a,.b{fill:none;}.a{stroke:#fafafa;}.c{fill:#f8f8f8;}.d{stroke:none;}</style></defs><g transform="translate(0.011)"><g class="a" transform="translate(-0.011)"><ellipse class="d" cx="28.5" cy="28" rx="28.5" ry="28"/><ellipse class="b" cx="28.5" cy="28" rx="28" ry="27.5"/></g><g transform="translate(13.508 12.28)"><path class="b" d="M0,0H29.473V29.473H0Z"/><path class="c" d="M7.852,5.456A2.456,2.456,0,1,1,5.4,3,2.456,2.456,0,0,1,7.852,5.456ZM7.926,9.73H3.014V25.1H7.926Zm7.761,0H10.8V25.1h4.838V17.037c0-4.495,5.858-4.912,5.858,0V25.1h4.851V15.366c0-7.577-8.67-7.294-10.708-3.574Z" transform="translate(0.67 0.684)"/></g></g></svg>