<svg xmlns="http://www.w3.org/2000/svg" xmlns:xlink="http://www.w3.org/1999/xlink" width="45.164" height="49.622" viewBox="0 0 45.164 49.622"><defs><style>.a{fill:#000941;}.b{fill:none;}.c{fill:#fff;}.d{filter:url(#a);}</style><filter id="a" x="0" y="0" width="45.164" height="49.622" filterUnits="userSpaceOnUse"><feOffset dy="3" input="SourceAlpha"/><feGaussianBlur stdDeviation="3" result="b"/><feFlood flood-opacity="0.161"/><feComposite operator="in" in2="b"/><feComposite in="SourceGraphic"/></filter></defs><g transform="translate(0 6)"><g class="d" transform="matrix(1, 0, 0, 1, 0, -6)"><path class="a" d="M20.315,30.092l-1.124-2a3.035,3.035,0,0,1-.316-.814A13.587,13.587,0,0,1,9,14.211v-.629a13.582,13.582,0,1,1,27.164,0v.629a13.588,13.588,0,0,1-9.137,12.838,3.009,3.009,0,0,1-.359,1.046l-1.124,2a3,3,0,0,1-5.229,0Z" transform="translate(0 6)"/></g><g transform="translate(13.578 4.182)"><path class="b" d="M0,0H18.008V18.008H0Z"/><path class="c" d="M14.756,16.005H4.251v.75a.75.75,0,0,1-.75.75H2.75a.75.75,0,0,1-.75-.75V10L3.886,4.974A1.5,1.5,0,0,1,5.291,4h8.425a1.5,1.5,0,0,1,1.405.974L17.007,10v6.753a.75.75,0,0,1-.75.75h-.75a.75.75,0,0,1-.75-.75ZM3.6,10H15.4L13.716,5.5H5.291Zm1.774,3.752a1.125,1.125,0,1,0-1.125-1.125A1.125,1.125,0,0,0,5.376,13.754Zm8.254,0A1.125,1.125,0,1,0,12.5,12.629,1.125,1.125,0,0,0,13.63,13.754Z" transform="translate(-0.499 -0.999)"/></g></g></svg>