<svg xmlns="http://www.w3.org/2000/svg" width="20" height="20" viewBox="0 0 20 20"><defs><style>.a{fill:none;}.b{fill:#23242c;}</style></defs><path class="a" d="M0,0H20V20H0Z"/><path class="b" d="M10.333,2A8.333,8.333,0,1,1,2,10.333,8.333,8.333,0,0,1,10.333,2Zm0,1.667A6.667,6.667,0,1,0,17,10.333,6.667,6.667,0,0,0,10.333,3.667Zm3.194,2.781a.494.494,0,0,1,.688.689q-2.725,3.807-3,4.081A1.25,1.25,0,0,1,9.449,9.449q.467-.466,4.078-3ZM14.917,9.5a.833.833,0,1,1-.833.833A.834.834,0,0,1,14.917,9.5ZM5.75,9.5a.833.833,0,1,1-.833.833A.834.834,0,0,1,5.75,9.5Zm1.932-3A.833.833,0,1,1,6.5,6.5a.834.834,0,0,1,1.178,0Zm2.652-1.587A.833.833,0,1,1,9.5,5.75.834.834,0,0,1,10.333,4.917Z" transform="translate(-0.333 -0.333)"/></svg>