<svg xmlns="http://www.w3.org/2000/svg" width="20.139" height="20.139" viewBox="0 0 20.139 20.139"><defs><style>.a{fill:none;}.b{fill:#fe2f70;}</style></defs><path class="a" d="M0,0H20.139V20.139H0Z"/><path class="b" d="M14.587,2.678h3.357a.839.839,0,0,1,.839.839V16.944a.839.839,0,0,1-.839.839H2.839A.839.839,0,0,1,2,16.944V3.517a.839.839,0,0,1,.839-.839H6.2V1H7.874V2.678h5.035V1h1.678ZM17.1,9.391H3.678V16.1H17.1Zm-4.2-5.035H7.874V6.035H6.2V4.357H3.678V7.713H17.1V4.357H14.587V6.035H12.909ZM5.357,11.07H7.035v1.678H5.357Zm4.2,0H11.23v1.678H9.552Zm4.2,0h1.678v1.678H13.748Z" transform="translate(-0.322 -0.161)"/></svg>