<svg xmlns="http://www.w3.org/2000/svg" width="26.172" height="26.172" viewBox="0 0 26.172 26.172"><defs><style>.a{fill:none;}.b{fill:#000941;}</style></defs><path class="a" d="M0,0H26.172V26.172H0Z"/><path class="b" d="M12.905,23.81A10.905,10.905,0,1,1,23.81,12.905,10.9,10.9,0,0,1,12.905,23.81Zm6.93-6.6V17.1c0-1.005,0-1.465-.711-1.871q-.343-.194-.7-.354A2,2,0,0,1,17.4,14.05q-.064-.093-.126-.188a1.4,1.4,0,0,0-1.682-.821c-2.034.323-2.184.68-2.274,1.285l-.014.1c-.132.883-.156,1.18.213,1.567a13.418,13.418,0,0,1,2.457,3.1,3.636,3.636,0,0,1,.22,2.092,8.926,8.926,0,0,0,3.436-2.439,5.408,5.408,0,0,0,.207-1.531ZM12.905,4a8.883,8.883,0,0,0-6.43,2.744,1.378,1.378,0,0,1,.477.582,3.473,3.473,0,0,1,.222,1.467,2.376,2.376,0,0,0,.115.943c.157.336.835.48,1.434.6.215.046.435.092.636.147a2.991,2.991,0,0,1,1.321,1.047,3.04,3.04,0,0,0,.458.469,1.109,1.109,0,0,0,.316-.543.639.639,0,0,0-.049-.567,3.186,3.186,0,0,1-.388-2.616c.3-.806,1.224-.746,1.9-.7a3.9,3.9,0,0,0,.67.01c.678-.085.888-1.118,1.035-1.32a9.693,9.693,0,0,1,1.9-1.5A8.875,8.875,0,0,0,12.905,4Z" transform="translate(0.181 0.181)"/></svg>