<svg id="Group_8" data-name="Group 8" xmlns="http://www.w3.org/2000/svg" width="20.242" height="20.242" viewBox="0 0 20.242 20.242">
  <path id="Path_7" data-name="Path 7" d="M0,0H20.242V20.242H0Z" fill="none"/>
  <path id="Path_8" data-name="Path 8" d="M17.494,18.711H15.808V17.025a2.53,2.53,0,0,0-2.53-2.53H8.217a2.53,2.53,0,0,0-2.53,2.53v1.687H4V17.025a4.217,4.217,0,0,1,4.217-4.217h5.06a4.217,4.217,0,0,1,4.217,4.217Zm-6.747-7.591a5.06,5.06,0,1,1,5.06-5.06A5.06,5.06,0,0,1,10.747,11.121Zm0-1.687A3.374,3.374,0,1,0,7.374,6.06,3.374,3.374,0,0,0,10.747,9.434Z" transform="translate(-0.626 -0.157)" fill="#23242c"/>
</svg>
