<svg id="Group_64081" data-name="Group 64081" xmlns="http://www.w3.org/2000/svg" width="20.182" height="20.181" viewBox="0 0 20.182 20.181">
  <path id="Path_14524" data-name="Path 14524" d="M0,0H20.181V20.181H0Z" fill="none"/>
  <path id="Path_14525" data-name="Path 14525" d="M2,10.091a7.98,7.98,0,0,1,.256-2.008,2.432,2.432,0,0,0,2.229-1.2,2.388,2.388,0,0,0-.066-2.513A8.1,8.1,0,0,1,7.926,2.362a2.437,2.437,0,0,0,4.327,0A8.1,8.1,0,0,1,15.76,4.371a2.388,2.388,0,0,0-.066,2.514,2.432,2.432,0,0,0,2.23,1.2,8.01,8.01,0,0,1,0,4.015,2.432,2.432,0,0,0-2.23,1.2,2.388,2.388,0,0,0,.066,2.513,8.1,8.1,0,0,1-3.507,2.009,2.437,2.437,0,0,0-4.327,0,8.1,8.1,0,0,1-3.507-2.009A2.388,2.388,0,0,0,4.485,13.3a2.432,2.432,0,0,0-2.23-1.2A8,8,0,0,1,2,10.091ZM5.887,12.5a3.975,3.975,0,0,1,.456,2.826,6.493,6.493,0,0,0,1.049.6,4.074,4.074,0,0,1,5.4,0,6.493,6.493,0,0,0,1.049-.6,3.973,3.973,0,0,1,.456-2.826,4.032,4.032,0,0,1,2.241-1.8,6.459,6.459,0,0,0,0-1.2,4.032,4.032,0,0,1-2.242-1.8,3.973,3.973,0,0,1-.456-2.826,6.478,6.478,0,0,0-1.049-.6,4.073,4.073,0,0,1-5.4,0,6.479,6.479,0,0,0-1.049.6,3.973,3.973,0,0,1-.456,2.826,4.032,4.032,0,0,1-2.241,1.8,6.459,6.459,0,0,0,0,1.2,4.032,4.032,0,0,1,2.242,1.8Zm4.2,0a2.406,2.406,0,1,1,2.427-2.406A2.416,2.416,0,0,1,10.091,12.5Zm0-1.6a.8.8,0,1,0-.809-.8A.805.805,0,0,0,10.091,10.893Z" fill="#23242c"/>
</svg>
