<svg xmlns="http://www.w3.org/2000/svg" xmlns:xlink="http://www.w3.org/1999/xlink" width="53" height="53" viewBox="0 0 53 53"><defs><style>.a{fill:#fff;}.b{fill:none;}.c{fill:#c8c8c8;}.d{filter:url(#a);}</style><filter id="a" x="0" y="0" width="53" height="53" filterUnits="userSpaceOnUse"><feOffset dy="3" input="SourceAlpha"/><feGaussianBlur stdDeviation="3" result="b"/><feFlood flood-opacity="0.161"/><feComposite operator="in" in2="b"/><feComposite in="SourceGraphic"/></filter></defs><g transform="translate(-372 -767)"><g class="d" transform="matrix(1, 0, 0, 1, 372, 767)"><rect class="a" width="35" height="35" rx="17.5" transform="translate(9 6)"/></g><g transform="translate(387 777)"><path class="b" d="M0,0H24V24H0Z"/><path class="c" d="M19,20H5v1a1,1,0,0,1-1,1H3a1,1,0,0,1-1-1V12L4.513,5.3A2,2,0,0,1,6.386,4H17.614a2,2,0,0,1,1.873,1.3L22,12v9a1,1,0,0,1-1,1H20a1,1,0,0,1-1-1ZM4.136,12H19.864l-2.25-6H6.386ZM6.5,17A1.5,1.5,0,1,0,5,15.5,1.5,1.5,0,0,0,6.5,17Zm11,0A1.5,1.5,0,1,0,16,15.5,1.5,1.5,0,0,0,17.5,17Z"/></g></g></svg>