<svg xmlns="http://www.w3.org/2000/svg" xmlns:xlink="http://www.w3.org/1999/xlink" width="45" height="45" viewBox="0 0 45 45"><defs><style>.a{fill:#fff;}.b{filter:url(#a);}</style><filter id="a" x="0" y="0" width="45" height="45" filterUnits="userSpaceOnUse"><feOffset dy="3" input="SourceAlpha"/><feGaussianBlur stdDeviation="3" result="b"/><feFlood flood-opacity="0.161"/><feComposite operator="in" in2="b"/><feComposite in="SourceGraphic"/></filter></defs><g transform="translate(-372 -767)"><g class="b" transform="matrix(1, 0, 0, 1, 372, 767)"><path class="a" d="M13.5,27A13.5,13.5,0,0,1,3.954,3.954,13.5,13.5,0,1,1,23.046,23.046,13.412,13.412,0,0,1,13.5,27ZM7.532,14.512h.013l4.952.11a.085.085,0,0,1,.066.038.08.08,0,0,1,.007.072l-2.038,5.814a.374.374,0,0,0,.019.339.237.237,0,0,0,.206.1h.964a.645.645,0,0,0,.549-.3l3.963-5.923a.08.08,0,0,1,.069-.037l2.641.069c.135.008.6.012.732.012,1.7,0,2.942-.547,2.942-1.3S21.377,12.2,19.672,12.2c-.152,0-.606,0-.732.013l-2.641.068a.075.075,0,0,1-.069-.036L12.272,6.315a.653.653,0,0,0-.549-.3h-.965a.237.237,0,0,0-.206.1.373.373,0,0,0-.018.338l2.038,5.809a.082.082,0,0,1-.008.076.077.077,0,0,1-.065.034l-4.98.074H7.509a.329.329,0,0,1-.257-.126L5.747,10.489a.647.647,0,0,0-.512-.247H4.55a.162.162,0,0,0-.155.215l.81,2.8a.663.663,0,0,1,0,.484L4.4,16.53a.163.163,0,0,0,.155.216h.68a.659.659,0,0,0,.513-.248l1.534-1.859A.332.332,0,0,1,7.532,14.512Z" transform="translate(9 6)"/></g></g></svg>