<svg xmlns="http://www.w3.org/2000/svg" width="49.406" height="63.5" viewBox="0 0 49.406 63.5"><defs><style>.a{fill:#fe2f70;}.b{mix-blend-mode:luminosity;isolation:isolate;}.c{fill:#fd715c;}.d{fill:#ee5646;}.e{fill:#fed066;}.f{fill:#f5b556;}.g{fill:#f2f2f2;}</style></defs><g transform="translate(-12257.595 -11124.756)"><g transform="translate(12257.595 11124.756)"><path class="a" d="M12.476,266.417l-3.781-7.2-8.123.42a.542.542,0,0,1-.5-.809l15.294-26.85,13.353,7.606L13.427,266.432A.542.542,0,0,1,12.476,266.417Zm0,0" transform="translate(-0.001 -203.207)"/><path class="a" d="M73.879,293.277l-3.781-7.2,13.348-23.435,6.677,3.8L74.83,293.293A.542.542,0,0,1,73.879,293.277Zm0,0" transform="translate(-61.404 -230.068)"/><path class="a" d="M183.041,266.417l3.781-7.2,8.122.42a.542.542,0,0,0,.5-.809l-15.293-26.85L166.8,239.583l15.293,26.849A.542.542,0,0,0,183.041,266.417Zm0,0" transform="translate(-146.111 -203.207)"/><path class="a" d="M183.041,293.277l3.781-7.2-13.349-23.435-6.677,3.8,15.293,26.849A.542.542,0,0,0,183.041,293.277Zm0,0" transform="translate(-146.111 -230.068)"/><path class="a" d="M33.936,1.213,36.03.292a3.431,3.431,0,0,1,4.068,1l1.426,1.789a3.433,3.433,0,0,0,2.449,1.286l2.282.156A3.433,3.433,0,0,1,49.391,7.3l.431,2.246a3.431,3.431,0,0,0,1.572,2.276l1.948,1.2a3.433,3.433,0,0,1,1.486,3.917l-.663,2.19a3.432,3.432,0,0,0,.333,2.746l1.168,1.967a3.432,3.432,0,0,1-.505,4.159l-1.6,1.631a3.432,3.432,0,0,0-.981,2.587l.12,2.285a3.432,3.432,0,0,1-2.38,3.447l-2.178.7a3.434,3.434,0,0,0-2.071,1.834l-.956,2.078a3.433,3.433,0,0,1-3.71,1.947l-2.253-.394a3.433,3.433,0,0,0-2.686.662l-1.812,1.4a3.432,3.432,0,0,1-4.189,0l-1.812-1.4a3.431,3.431,0,0,0-2.686-.662l-2.253.394A3.433,3.433,0,0,1,20,42.566l-.956-2.078a3.434,3.434,0,0,0-2.071-1.834l-2.178-.7a3.433,3.433,0,0,1-2.38-3.448l.12-2.284a3.434,3.434,0,0,0-.981-2.587l-1.6-1.631a3.433,3.433,0,0,1-.505-4.159l1.168-1.967a3.432,3.432,0,0,0,.333-2.746l-.663-2.19a3.432,3.432,0,0,1,1.486-3.917l1.948-1.2A3.431,3.431,0,0,0,15.286,9.55L15.716,7.3a3.433,3.433,0,0,1,3.136-2.778l2.282-.157a3.432,3.432,0,0,0,2.449-1.285l1.426-1.789a3.432,3.432,0,0,1,4.067-1l2.094.922A3.431,3.431,0,0,0,33.936,1.213Zm0,0" transform="translate(-7.851 0)"/><path class="a" d="M33.936,1.213,36.03.292a3.431,3.431,0,0,1,4.068,1l1.426,1.789a3.433,3.433,0,0,0,2.449,1.286l2.282.156A3.433,3.433,0,0,1,49.391,7.3l.431,2.246a3.431,3.431,0,0,0,1.572,2.276l1.948,1.2a3.433,3.433,0,0,1,1.486,3.917l-.663,2.19a3.432,3.432,0,0,0,.333,2.746l1.168,1.967a3.432,3.432,0,0,1-.505,4.159l-1.6,1.631a3.432,3.432,0,0,0-.981,2.587l.12,2.285a3.432,3.432,0,0,1-2.38,3.447l-2.178.7a3.434,3.434,0,0,0-2.071,1.834l-.956,2.078a3.433,3.433,0,0,1-3.71,1.947l-2.253-.394a3.433,3.433,0,0,0-2.686.662l-1.812,1.4a3.432,3.432,0,0,1-4.189,0l-1.812-1.4a3.431,3.431,0,0,0-2.686-.662l-2.253.394A3.433,3.433,0,0,1,20,42.566l-.956-2.078a3.434,3.434,0,0,0-2.071-1.834l-2.178-.7a3.433,3.433,0,0,1-2.38-3.448l.12-2.284a3.434,3.434,0,0,0-.981-2.587l-1.6-1.631a3.433,3.433,0,0,1-.505-4.159l1.168-1.967a3.432,3.432,0,0,0,.333-2.746l-.663-2.19a3.432,3.432,0,0,1,1.486-3.917l1.948-1.2A3.431,3.431,0,0,0,15.286,9.55L15.716,7.3a3.433,3.433,0,0,1,3.136-2.778l2.282-.157a3.432,3.432,0,0,0,2.449-1.285l1.426-1.789a3.432,3.432,0,0,1,4.067-1l2.094.922A3.431,3.431,0,0,0,33.936,1.213Zm0,0" transform="translate(-7.851 0)"/><path class="a" d="M101.314,75.028A16.141,16.141,0,1,1,85.173,58.887,16.141,16.141,0,0,1,101.314,75.028Zm0,0" transform="translate(-60.47 -51.583)"/><path class="a" d="M175.87,58.891a16.209,16.209,0,0,0-3.3.338,16.145,16.145,0,0,1,0,31.606,16.143,16.143,0,1,0,3.3-31.945Zm0,0" transform="translate(-151.168 -51.587)"/><path class="a" d="M237.313,23.846l-1.168-1.967a3.432,3.432,0,0,1-.333-2.746l.663-2.19a3.433,3.433,0,0,0-1.486-3.917l-1.948-1.2a3.434,3.434,0,0,1-1.572-2.276L231.039,7.3A3.433,3.433,0,0,0,227.9,4.526l-2.282-.157a3.432,3.432,0,0,1-2.449-1.285l-1.426-1.789a3.432,3.432,0,0,0-4.068-1l-1.35.594a24.469,24.469,0,0,1,3.678,43.188,3.419,3.419,0,0,1,.788.045l2.254.394a3.433,3.433,0,0,0,3.71-1.947l.956-2.078a3.433,3.433,0,0,1,2.071-1.834l2.178-.7a3.432,3.432,0,0,0,2.38-3.448l-.119-2.284a3.432,3.432,0,0,1,.981-2.587l1.6-1.631A3.432,3.432,0,0,0,237.313,23.846Zm0,0" transform="translate(-189.499 0)"/><path class="a" d="M121.738,97.041l2.335,7.185a.388.388,0,0,0,.369.268H132a.388.388,0,0,1,.228.7l-6.112,4.441a.389.389,0,0,0-.141.434l2.335,7.185a.388.388,0,0,1-.6.434L121.6,113.25a.388.388,0,0,0-.456,0l-6.112,4.441a.388.388,0,0,1-.6-.434l2.335-7.185a.389.389,0,0,0-.141-.434l-6.112-4.441a.388.388,0,0,1,.228-.7h7.555a.388.388,0,0,0,.369-.268L121,97.041A.388.388,0,0,1,121.738,97.041Zm0,0" transform="translate(-96.665 -84.771)"/></g><g class="b" transform="translate(12257.595 11124.756)"><path class="c" d="M12.476,266.417l-3.781-7.2-8.123.42a.542.542,0,0,1-.5-.809l15.294-26.85,13.353,7.606L13.427,266.432A.542.542,0,0,1,12.476,266.417Zm0,0" transform="translate(-0.001 -203.207)"/><path class="d" d="M73.879,293.277l-3.781-7.2,13.348-23.435,6.677,3.8L74.83,293.293A.542.542,0,0,1,73.879,293.277Zm0,0" transform="translate(-61.404 -230.068)"/><path class="d" d="M183.041,266.417l3.781-7.2,8.122.42a.542.542,0,0,0,.5-.809l-15.293-26.85L166.8,239.583l15.293,26.849A.542.542,0,0,0,183.041,266.417Zm0,0" transform="translate(-146.111 -203.207)"/><path class="c" d="M183.041,293.277l3.781-7.2-13.349-23.435-6.677,3.8,15.293,26.849A.542.542,0,0,0,183.041,293.277Zm0,0" transform="translate(-146.111 -230.068)"/><path class="e" d="M33.936,1.213,36.03.292a3.431,3.431,0,0,1,4.068,1l1.426,1.789a3.433,3.433,0,0,0,2.449,1.286l2.282.156A3.433,3.433,0,0,1,49.391,7.3l.431,2.246a3.431,3.431,0,0,0,1.572,2.276l1.948,1.2a3.433,3.433,0,0,1,1.486,3.917l-.663,2.19a3.432,3.432,0,0,0,.333,2.746l1.168,1.967a3.432,3.432,0,0,1-.505,4.159l-1.6,1.631a3.432,3.432,0,0,0-.981,2.587l.12,2.285a3.432,3.432,0,0,1-2.38,3.447l-2.178.7a3.434,3.434,0,0,0-2.071,1.834l-.956,2.078a3.433,3.433,0,0,1-3.71,1.947l-2.253-.394a3.433,3.433,0,0,0-2.686.662l-1.812,1.4a3.432,3.432,0,0,1-4.189,0l-1.812-1.4a3.431,3.431,0,0,0-2.686-.662l-2.253.394A3.433,3.433,0,0,1,20,42.566l-.956-2.078a3.434,3.434,0,0,0-2.071-1.834l-2.178-.7a3.433,3.433,0,0,1-2.38-3.448l.12-2.284a3.434,3.434,0,0,0-.981-2.587l-1.6-1.631a3.433,3.433,0,0,1-.505-4.159l1.168-1.967a3.432,3.432,0,0,0,.333-2.746l-.663-2.19a3.432,3.432,0,0,1,1.486-3.917l1.948-1.2A3.431,3.431,0,0,0,15.286,9.55L15.716,7.3a3.433,3.433,0,0,1,3.136-2.778l2.282-.157a3.432,3.432,0,0,0,2.449-1.285l1.426-1.789a3.432,3.432,0,0,1,4.067-1l2.094.922A3.431,3.431,0,0,0,33.936,1.213Zm0,0" transform="translate(-7.851 0)"/><path class="e" d="M33.936,1.213,36.03.292a3.431,3.431,0,0,1,4.068,1l1.426,1.789a3.433,3.433,0,0,0,2.449,1.286l2.282.156A3.433,3.433,0,0,1,49.391,7.3l.431,2.246a3.431,3.431,0,0,0,1.572,2.276l1.948,1.2a3.433,3.433,0,0,1,1.486,3.917l-.663,2.19a3.432,3.432,0,0,0,.333,2.746l1.168,1.967a3.432,3.432,0,0,1-.505,4.159l-1.6,1.631a3.432,3.432,0,0,0-.981,2.587l.12,2.285a3.432,3.432,0,0,1-2.38,3.447l-2.178.7a3.434,3.434,0,0,0-2.071,1.834l-.956,2.078a3.433,3.433,0,0,1-3.71,1.947l-2.253-.394a3.433,3.433,0,0,0-2.686.662l-1.812,1.4a3.432,3.432,0,0,1-4.189,0l-1.812-1.4a3.431,3.431,0,0,0-2.686-.662l-2.253.394A3.433,3.433,0,0,1,20,42.566l-.956-2.078a3.434,3.434,0,0,0-2.071-1.834l-2.178-.7a3.433,3.433,0,0,1-2.38-3.448l.12-2.284a3.434,3.434,0,0,0-.981-2.587l-1.6-1.631a3.433,3.433,0,0,1-.505-4.159l1.168-1.967a3.432,3.432,0,0,0,.333-2.746l-.663-2.19a3.432,3.432,0,0,1,1.486-3.917l1.948-1.2A3.431,3.431,0,0,0,15.286,9.55L15.716,7.3a3.433,3.433,0,0,1,3.136-2.778l2.282-.157a3.432,3.432,0,0,0,2.449-1.285l1.426-1.789a3.432,3.432,0,0,1,4.067-1l2.094.922A3.431,3.431,0,0,0,33.936,1.213Zm0,0" transform="translate(-7.851 0)"/><path class="c" d="M101.314,75.028A16.141,16.141,0,1,1,85.173,58.887,16.141,16.141,0,0,1,101.314,75.028Zm0,0" transform="translate(-60.47 -51.583)"/><path class="d" d="M175.87,58.891a16.209,16.209,0,0,0-3.3.338,16.145,16.145,0,0,1,0,31.606,16.143,16.143,0,1,0,3.3-31.945Zm0,0" transform="translate(-151.168 -51.587)"/><path class="f" d="M237.313,23.846l-1.168-1.967a3.432,3.432,0,0,1-.333-2.746l.663-2.19a3.433,3.433,0,0,0-1.486-3.917l-1.948-1.2a3.434,3.434,0,0,1-1.572-2.276L231.039,7.3A3.433,3.433,0,0,0,227.9,4.526l-2.282-.157a3.432,3.432,0,0,1-2.449-1.285l-1.426-1.789a3.432,3.432,0,0,0-4.068-1l-1.35.594a24.469,24.469,0,0,1,3.678,43.188,3.419,3.419,0,0,1,.788.045l2.254.394a3.433,3.433,0,0,0,3.71-1.947l.956-2.078a3.433,3.433,0,0,1,2.071-1.834l2.178-.7a3.432,3.432,0,0,0,2.38-3.448l-.119-2.284a3.432,3.432,0,0,1,.981-2.587l1.6-1.631A3.432,3.432,0,0,0,237.313,23.846Zm0,0" transform="translate(-189.499 0)"/><path class="g" d="M121.738,97.041l2.335,7.185a.388.388,0,0,0,.369.268H132a.388.388,0,0,1,.228.7l-6.112,4.441a.389.389,0,0,0-.141.434l2.335,7.185a.388.388,0,0,1-.6.434L121.6,113.25a.388.388,0,0,0-.456,0l-6.112,4.441a.388.388,0,0,1-.6-.434l2.335-7.185a.389.389,0,0,0-.141-.434l-6.112-4.441a.388.388,0,0,1,.228-.7h7.555a.388.388,0,0,0,.369-.268L121,97.041A.388.388,0,0,1,121.738,97.041Zm0,0" transform="translate(-96.665 -84.771)"/></g></g></svg>