<svg xmlns="http://www.w3.org/2000/svg" width="47.851" height="39.569" viewBox="0 0 47.851 39.569"><defs><style>.a{fill:#fe2f70;}.b{mix-blend-mode:luminosity;isolation:isolate;}.c{fill:#fedb41;}.d{fill:#efbe25;}.e{fill:#fea832;}.f{fill:#e88f23;}.g{fill:#984b0e;}.h{fill:#753205;}</style></defs><g transform="translate(-12246.547 -11267.245)"><g transform="translate(12246.547 11267.245)"><path class="a" d="M43.71,123.077H4.141A4.146,4.146,0,0,0,0,127.218v23.925a4.146,4.146,0,0,0,4.141,4.141H43.71a4.146,4.146,0,0,0,4.141-4.141V127.218A4.146,4.146,0,0,0,43.71,123.077Z" transform="translate(0 -115.715)"/><path class="a" d="M275.784,123.077H256v32.207h19.785a4.146,4.146,0,0,0,4.141-4.141V127.218A4.146,4.146,0,0,0,275.784,123.077Z" transform="translate(-232.075 -115.715)"/><path class="a" d="M146.54,54.431a1.38,1.38,0,0,1-1.236-.763l-2.918-5.836a1.373,1.373,0,0,0-1.235-.763H129.841a1.373,1.373,0,0,0-1.235.763l-2.918,5.836a1.38,1.38,0,1,1-2.469-1.235l2.918-5.836a4.119,4.119,0,0,1,3.7-2.289h11.311a4.119,4.119,0,0,1,3.7,2.289l2.918,5.836a1.381,1.381,0,0,1-1.234,2Z" transform="translate(-111.571 -44.309)"/><path class="a" d="M265.359,46.6a4.118,4.118,0,0,0-3.7-2.289H256v2.761h5.655a1.373,1.373,0,0,1,1.235.763l2.918,5.836a1.38,1.38,0,0,0,2.469-1.235Z" transform="translate(-232.075 -44.308)"/><path class="a" d="M218.594,280.615h-5.521a1.38,1.38,0,0,0-1.38,1.38v4.6a2.3,2.3,0,0,0,2.3,2.3h3.681a2.3,2.3,0,0,0,2.3-2.3V282A1.38,1.38,0,0,0,218.594,280.615Z" transform="translate(-191.908 -258.53)"/><g transform="translate(23.925 18.106)"><path class="a" d="M258.761,280.615H256V288.9h1.84a2.3,2.3,0,0,0,2.3-2.3V282A1.38,1.38,0,0,0,258.761,280.615Z" transform="translate(-256 -276.636)"/><path class="a" d="M400.149,238.038a1.38,1.38,0,0,0-1.38,1.38V259.5h2.761V239.418A1.38,1.38,0,0,0,400.149,238.038Z" transform="translate(-385.426 -238.038)"/></g><path class="a" d="M85.073,238.038a1.38,1.38,0,0,0-1.38,1.38V259.5h2.761V239.418A1.38,1.38,0,0,0,85.073,238.038Z" transform="translate(-75.871 -219.932)"/><path class="a" d="M43.71,123.077H4.141A4.146,4.146,0,0,0,0,127.218v4.6a1.38,1.38,0,0,0,.832,1.267l17.024,7.362a1.38,1.38,0,0,0,.548.113H29.447a1.381,1.381,0,0,0,.548-.113l17.024-7.362a1.38,1.38,0,0,0,.832-1.267v-4.6A4.146,4.146,0,0,0,43.71,123.077Z" transform="translate(0 -115.715)"/><path class="a" d="M275.784,123.077H256v17.484h5.521a1.381,1.381,0,0,0,.548-.113l17.024-7.362a1.38,1.38,0,0,0,.832-1.267v-4.6A4.146,4.146,0,0,0,275.784,123.077Z" transform="translate(-232.075 -115.715)"/></g><g class="b" transform="translate(12246.547 11267.245)"><path class="c" d="M43.71,123.077H4.141A4.146,4.146,0,0,0,0,127.218v23.925a4.146,4.146,0,0,0,4.141,4.141H43.71a4.146,4.146,0,0,0,4.141-4.141V127.218A4.146,4.146,0,0,0,43.71,123.077Z" transform="translate(0 -115.715)"/><path class="d" d="M275.784,123.077H256v32.207h19.785a4.146,4.146,0,0,0,4.141-4.141V127.218A4.146,4.146,0,0,0,275.784,123.077Z" transform="translate(-232.075 -115.715)"/><path class="e" d="M146.54,54.431a1.38,1.38,0,0,1-1.236-.763l-2.918-5.836a1.373,1.373,0,0,0-1.235-.763H129.841a1.373,1.373,0,0,0-1.235.763l-2.918,5.836a1.38,1.38,0,1,1-2.469-1.235l2.918-5.836a4.119,4.119,0,0,1,3.7-2.289h11.311a4.119,4.119,0,0,1,3.7,2.289l2.918,5.836a1.381,1.381,0,0,1-1.234,2Z" transform="translate(-111.571 -44.309)"/><path class="f" d="M265.359,46.6a4.118,4.118,0,0,0-3.7-2.289H256v2.761h5.655a1.373,1.373,0,0,1,1.235.763l2.918,5.836a1.38,1.38,0,0,0,2.469-1.235Z" transform="translate(-232.075 -44.308)"/><path class="e" d="M218.594,280.615h-5.521a1.38,1.38,0,0,0-1.38,1.38v4.6a2.3,2.3,0,0,0,2.3,2.3h3.681a2.3,2.3,0,0,0,2.3-2.3V282A1.38,1.38,0,0,0,218.594,280.615Z" transform="translate(-191.908 -258.53)"/><g transform="translate(23.925 18.106)"><path class="f" d="M258.761,280.615H256V288.9h1.84a2.3,2.3,0,0,0,2.3-2.3V282A1.38,1.38,0,0,0,258.761,280.615Z" transform="translate(-256 -276.636)"/><path class="f" d="M400.149,238.038a1.38,1.38,0,0,0-1.38,1.38V259.5h2.761V239.418A1.38,1.38,0,0,0,400.149,238.038Z" transform="translate(-385.426 -238.038)"/></g><path class="e" d="M85.073,238.038a1.38,1.38,0,0,0-1.38,1.38V259.5h2.761V239.418A1.38,1.38,0,0,0,85.073,238.038Z" transform="translate(-75.871 -219.932)"/><path class="g" d="M43.71,123.077H4.141A4.146,4.146,0,0,0,0,127.218v4.6a1.38,1.38,0,0,0,.832,1.267l17.024,7.362a1.38,1.38,0,0,0,.548.113H29.447a1.381,1.381,0,0,0,.548-.113l17.024-7.362a1.38,1.38,0,0,0,.832-1.267v-4.6A4.146,4.146,0,0,0,43.71,123.077Z" transform="translate(0 -115.715)"/><path class="h" d="M275.784,123.077H256v17.484h5.521a1.381,1.381,0,0,0,.548-.113l17.024-7.362a1.38,1.38,0,0,0,.832-1.267v-4.6A4.146,4.146,0,0,0,275.784,123.077Z" transform="translate(-232.075 -115.715)"/></g></g></svg>