<svg xmlns="http://www.w3.org/2000/svg" width="51.361" height="69.4" viewBox="0 0 51.361 69.4"><defs><style>.a{fill:#fff;}.b{fill:#fe2f70;}.c{mix-blend-mode:luminosity;isolation:isolate;}.d{fill:#5a5a5a;}.e{fill:#444;}.f{fill:#ffd400;}.g{fill:#ff9f00;}.h,.i{stroke:none;}.i{fill:#e41556;}</style></defs><g transform="translate(-12253.595 -11516.8)"><g class="a" transform="translate(12254.22 11516.8)"><path class="h" d="M 38.61892318725586 67.89969635009766 L 12.18091487884521 67.89969635009766 C 9.921165466308594 67.89969635009766 7.824105262756348 67.62855529785156 6.116435050964355 67.11560821533203 C 4.142195224761963 66.52256774902344 2.708445072174072 65.62641906738281 1.85501503944397 64.45204925537109 C 0.6925733685493469 62.85244369506836 0.5669898390769958 60.60501098632812 1.481711506843567 57.77164077758789 L 18.03133201599121 12.64771175384521 C 19.35192680358887 9.257344245910645 20.92527198791504 6.596290111541748 22.70774459838867 4.738428115844727 C 24.7984447479248 2.559298276901245 27.12038421630859 1.499998211860657 29.80624580383301 1.499998211860657 L 38.61892318725586 1.499998211860657 C 44.47339630126953 1.499998211860657 49.23634338378906 6.262948036193848 49.23634338378906 12.11740779876709 L 49.23634338378906 57.28228759765625 C 49.23634338378906 63.13674926757812 44.47339630126953 67.89969635009766 38.61892318725586 67.89969635009766 Z"/><path class="i" d="M 29.80624389648438 3 C 27.55076217651367 3 25.5828800201416 3.908332824707031 23.79013824462891 5.776893615722656 C 22.1472053527832 7.489330291748047 20.68182182312012 9.979393005371094 19.43432235717773 13.17860794067383 L 2.900398254394531 58.25973892211914 C 2.477161407470703 59.57926177978516 2.308311462402344 60.73565292358398 2.398490905761719 61.69762420654297 C 2.467338562011719 62.43209457397461 2.686492919921875 63.04463577270508 3.068443298339844 63.57023620605469 C 4.355972290039062 65.34195709228516 7.762504577636719 66.39969635009766 12.18091583251953 66.39969635009766 L 38.61892700195312 66.39969635009766 C 43.64627838134766 66.39969635009766 47.7363395690918 62.30963516235352 47.7363395690918 57.28228378295898 L 47.7363395690918 12.11741256713867 C 47.7363395690918 7.090061187744141 43.64627838134766 3 38.61892700195312 3 L 29.80624389648438 3 M 29.80624389648438 0 L 38.61892700195312 0 C 45.31118392944336 0 50.7363395690918 5.425144195556641 50.7363395690918 12.11741256713867 L 50.7363395690918 57.28228378295898 C 50.7363395690918 63.97454071044922 45.31118392944336 69.39969635009766 38.61892700195312 69.39969635009766 L 12.18091583251953 69.39969635009766 C 5.488643646240234 69.39969635009766 -3.136920928955078 67.13950347900391 0.0634918212890625 57.28228378295898 L 16.62812614440918 12.11741256713867 C 19.07549095153809 5.827411651611328 23.11398506164551 0 29.80624389648438 0 Z"/></g><g transform="translate(12276.153 11548.5)"><path class="b" d="M97.525,0A6.536,6.536,0,0,0,91,6.525v3.638h3.559V6.525a2.966,2.966,0,0,1,5.932,0v3.638h3.559V6.525A6.536,6.536,0,0,0,97.525,0Z" transform="translate(-89.814)"/><path class="b" d="M262.525,6.525v3.638h-3.559V6.525A2.967,2.967,0,0,0,256,3.559V0A6.536,6.536,0,0,1,262.525,6.525Z" transform="translate(-248.289)"/><path class="b" d="M61,242v10.677H76.422V242Z" transform="translate(-61 -232.43)"/><rect class="b" width="7.694" height="10.528" transform="translate(7.711 9.719)"/><g transform="translate(5.932 11.942)"><path class="b" d="M212.78,302a1.78,1.78,0,1,0,1.779,1.78A1.777,1.777,0,0,0,212.78,302Z" transform="translate(-211 -302)"/><rect class="b" width="0.81" height="2.835" transform="translate(1.374 3.04)"/></g><g transform="translate(7.711 11.942)"><path class="b" d="M257.78,303.78a1.777,1.777,0,0,1-1.78,1.78V302A1.777,1.777,0,0,1,257.78,303.78Z" transform="translate(-256 -302)"/><rect class="b" width="0.405" height="2.835" transform="translate(0 3.04)"/></g><g class="c"><path class="d" d="M97.525,0A6.536,6.536,0,0,0,91,6.525v3.638h3.559V6.525a2.966,2.966,0,0,1,5.932,0v3.638h3.559V6.525A6.536,6.536,0,0,0,97.525,0Z" transform="translate(-89.814)"/><path class="e" d="M262.525,6.525v3.638h-3.559V6.525A2.967,2.967,0,0,0,256,3.559V0A6.536,6.536,0,0,1,262.525,6.525Z" transform="translate(-248.289)"/><path class="f" d="M61,242v10.677H76.422V242Z" transform="translate(-61 -232.43)"/><rect class="g" width="7.694" height="10.528" transform="translate(7.711 9.719)"/><g transform="translate(5.932 11.942)"><path class="d" d="M212.78,302a1.78,1.78,0,1,0,1.779,1.78A1.777,1.777,0,0,0,212.78,302Z" transform="translate(-211 -302)"/><rect class="d" width="0.81" height="2.835" transform="translate(1.374 3.04)"/></g><g transform="translate(7.711 11.942)"><path class="e" d="M257.78,303.78a1.777,1.777,0,0,1-1.78,1.78V302A1.777,1.777,0,0,1,257.78,303.78Z" transform="translate(-256 -302)"/><rect class="e" width="0.405" height="2.835" transform="translate(0 3.04)"/></g></g></g></g></svg>