<svg id="Group_63639" data-name="Group 63639" xmlns="http://www.w3.org/2000/svg" width="29" height="29" viewBox="0 0 29 29">
  <path id="Path_8827" data-name="Path 8827" d="M0,0H29V29H0Z" fill="none"/>
  <path id="Path_8828" data-name="Path 8828" d="M14,21.091A7.091,7.091,0,1,1,21.091,14,7.091,7.091,0,0,1,14,21.091ZM12.818,1h2.364V4.545H12.818Zm0,22.455h2.364V27H12.818ZM3.972,5.643,5.643,3.972,8.15,6.479,6.479,8.15,3.972,5.645ZM19.85,21.521l1.671-1.671,2.507,2.507-1.671,1.671Zm2.507-17.55,1.671,1.672L21.521,8.15,19.85,6.479l2.507-2.507ZM6.479,19.85,8.15,21.521,5.643,24.028,3.972,22.357,6.479,19.85ZM27,12.818v2.364H23.455V12.818Zm-22.455,0v2.364H1V12.818Z" transform="translate(0.5 0.5)" fill="#23242c"/>
</svg>
