<svg xmlns="http://www.w3.org/2000/svg" width="16" height="16" viewBox="0 0 16 16"><path d="M8.688,11.908V8.625h3.969A1.877,1.877,0,0,0,14.531,6.75V4.092a2.094,2.094,0,1,0-1.25,0V6.75a.626.626,0,0,1-.625.625H8.688V4.092a2.094,2.094,0,1,0-1.25,0V7.375H3.344a.626.626,0,0,1-.625-.625V4.092a2.094,2.094,0,1,0-1.25,0V6.75A1.867,1.867,0,0,0,1.948,8a1.867,1.867,0,0,0-.479,1.25v2.658a2.094,2.094,0,1,0,1.25,0V9.25a.626.626,0,0,1,.625-.625H7.438v3.283a2.094,2.094,0,1,0,1.25,0ZM13.906,1.25a.844.844,0,1,1-.844.844A.845.845,0,0,1,13.906,1.25Zm-5.844,0a.844.844,0,1,1-.844.844A.845.845,0,0,1,8.063,1.25Zm-5.969,0a.844.844,0,1,1-.844.844A.845.845,0,0,1,2.094,1.25Zm0,13.5a.844.844,0,1,1,.844-.844A.845.845,0,0,1,2.094,14.75Zm5.969,0a.844.844,0,1,1,.844-.844A.845.845,0,0,1,8.063,14.75Z"/></svg>