<svg xmlns="http://www.w3.org/2000/svg" width="24" height="24" viewBox="0 0 24 24"><defs><style>.a{fill:none;}.b{fill:#23242c;}</style></defs><path class="a" d="M0,0H24V24H0Z"/><path class="b" d="M12.485,3.121l7.758,1.94a1,1,0,0,1,.757.97V7h1a2.006,2.006,0,0,1,2,2v3a3,3,0,0,1-3,3h-.421a6,6,0,0,1-2.9,3.158l-4.789,2.4a2,2,0,0,1-1.788,0l-4.79-2.4A6.005,6.005,0,0,1,3.422,15H3a3,3,0,0,1-3-3V9A2,2,0,0,1,2,7H3V6.03a1,1,0,0,1,.757-.97l7.758-1.939a1.99,1.99,0,0,1,.97,0ZM12,5.061,5,6.811v5.98A4,4,0,0,0,7.211,16.37L12,18.764l4.789-2.394A4,4,0,0,0,19,12.792V6.812l-7-1.75ZM3,9H2v3a1,1,0,0,0,1,1ZM22,9H21v4a1,1,0,0,0,1-1Z"/></svg>