<svg xmlns="http://www.w3.org/2000/svg" width="24" height="24" viewBox="0 0 24 24"><defs><style>.a{fill:none;}.b{fill:#23242c;}</style></defs><path class="a" d="M0,0H24V24H0Z"/><path class="b" d="M8.495,20.667h1.551l.538-3.376a2.805,2.805,0,0,1,2.77-2.366h.5c2.677,0,4.06-.983,4.55-3.5a2.662,2.662,0,0,0-.171-2.1c-1.207,3.054-3.79,4.16-6.962,4.16h-.884a.813.813,0,0,0-.852.58Zm-4.944-.294a.551.551,0,0,1-.544-.637L5.68,2.776A.92.92,0,0,1,6.59,2h6.424c2.212,0,3.942.467,4.9,1.558a4.1,4.1,0,0,1,.871,3.692,3.217,3.217,0,0,1,.916.706,4.36,4.36,0,0,1,.668,3.85c-.74,3.805-3.276,5.12-6.514,5.12h-.5a.805.805,0,0,0-.794.679l-.7,4.383a.8.8,0,0,1-.794.679H6.72a.483.483,0,0,1-.477-.558l.274-1.736H3.55Zm6.836-8.894h.884c3.19,0,4.9-1.212,5.483-4.229.02-.1.037-.2.053-.309a2.172,2.172,0,0,0-.4-2.063c-.465-.53-1.6-.878-3.4-.878h-5.5L5.246,18.373H6.807l.73-4.628h.007A2.915,2.915,0,0,1,10.387,11.479Z"/></svg>