<svg xmlns="http://www.w3.org/2000/svg" width="22" height="22" viewBox="0 0 22 22"><defs><style>.a{fill:#fe2f70;}</style></defs><g transform="translate(0.173 0.385)"><path class="a" d="M11,22A11,11,0,0,1,3.222,3.222,11,11,0,1,1,18.778,18.778,10.928,10.928,0,0,1,11,22ZM6.137,11.825h.01l4.034.089a.07.07,0,0,1,.055.032.065.065,0,0,1,.006.058L8.581,16.741a.306.306,0,0,0,.015.276.193.193,0,0,0,.167.082h.786A.525.525,0,0,0,10,16.853l3.229-4.826A.062.062,0,0,1,13.281,12l2.152.057c.11.006.491.01.6.01,1.389,0,2.4-.446,2.4-1.061s-1.008-1.064-2.4-1.064c-.107,0-.49,0-.6.01l-2.152.057a.06.06,0,0,1-.056-.03L10,5.145A.534.534,0,0,0,9.552,4.9H8.767a.194.194,0,0,0-.168.082.3.3,0,0,0-.014.275l1.66,4.734a.067.067,0,0,1-.006.062.063.063,0,0,1-.053.028l-4.057.059H6.117a.268.268,0,0,1-.208-.1L4.683,8.546a.531.531,0,0,0-.418-.2H3.708a.132.132,0,0,0-.126.176l.66,2.277a.545.545,0,0,1,0,.394l-.66,2.278a.132.132,0,0,0,.126.175h.554a.535.535,0,0,0,.418-.2l1.25-1.515A.27.27,0,0,1,6.137,11.825Z" transform="translate(-0.173 -0.385)"/></g></svg>