<svg xmlns="http://www.w3.org/2000/svg" width="20" height="20" viewBox="0 0 20 20"><defs><style>.a{fill:none;}.b{fill:#23242c;}</style></defs><path class="a" d="M0,0H20V20H0Z"/><path class="b" d="M10.566,14.5a8.9,8.9,0,0,1,7.173,3.271L16.2,18.5a7.39,7.39,0,0,0-5.637-2.33A7.39,7.39,0,0,0,4.928,18.5L3.394,17.77A8.9,8.9,0,0,1,10.566,14.5Zm0-12.5a4.167,4.167,0,0,1,4.167,4.167v2.5a4.167,4.167,0,0,1-3.986,4.162l-.181,0A4.167,4.167,0,0,1,6.4,8.667v-2.5A4.167,4.167,0,0,1,10.385,2Zm0,1.667A2.5,2.5,0,0,0,8.07,6.02l0,.147v2.5a2.5,2.5,0,0,0,5,.147l0-.147v-2.5a2.5,2.5,0,0,0-2.5-2.5Z" transform="translate(-0.566 -0.333)"/></svg>