<svg xmlns="http://www.w3.org/2000/svg" width="125.564" height="106" viewBox="0 0 125.564 106">
  <g id="Group_1416" data-name="Group 1416" transform="translate(-438 -415)">
    <g id="Ellipse_39" data-name="Ellipse 39" transform="translate(438 415)" fill="#fff" stroke="#707070" stroke-width="1" opacity="0.47">
      <circle cx="53" cy="53" r="53" stroke="none"/>
      <circle cx="53" cy="53" r="52.5" fill="none"/>
    </g>
    <g id="icons8_checkmark_2" transform="translate(516.615 436.053) rotate(-1)" fill="#2acb1e">
      <path d="M 11.72028923034668 33.24266052246094 L 9.598969459533691 31.12130928039551 L -2.121330738067627 19.40086936950684 L -4.242671012878418 17.27949905395508 L -2.121280908584595 15.15819931030273 L 0.7827191352844238 12.254319190979 L 2.904029130935669 10.13309860229492 L 5.025299072265625 12.25433921813965 L 11.72028827667236 18.94922256469727 L 32.79096984863281 -2.121330976486206 L 34.91233062744141 -4.24268102645874 L 37.03363800048828 -2.121280908584595 L 39.93751907348633 0.7827190756797791 L 42.05875015258789 2.904039144515991 L 39.9374885559082 5.025309085845947 L 13.84162902832031 31.12130928039551 L 11.72028923034668 33.24266052246094 Z" stroke="none"/>
      <path d="M 34.91227722167969 -1.9073486328125e-06 L 11.72030067443848 23.19183349609375 L 2.904003143310547 14.37567710876465 L 0 17.27955436706543 L 11.72030067443848 29 L 37.81615829467773 2.903999328613281 L 34.91227722167969 -1.9073486328125e-06 M 34.91238021850586 -8.485357284545898 L 46.30133438110352 2.904077529907227 L 11.72029113769531 37.48532104492188 L -8.485343933105469 17.27944374084473 L 2.904056549072266 5.890522003173828 L 11.72028541564941 14.70659732818604 L 34.91238021850586 -8.485357284545898 Z" stroke="none" fill="#fff"/>
    </g>
    <path id="icons8_skiing_1" d="M41.551,2a4.283,4.283,0,1,0,4.283,4.283A4.285,4.285,0,0,0,41.551,2ZM11.737,4.871A.952.952,0,0,0,11.046,6.6l9.909,6.488-.152.1V13.2a5.227,5.227,0,0,0-.587,8.6l0,.022,7.173,5.064L22.77,32.177a2.341,2.341,0,0,0-.5,2.722L4.412,24.964a.922.922,0,0,0-.454-.123.945.945,0,0,0-.937.706A.957.957,0,0,0,3.49,26.63L36.609,45.054a.694.694,0,0,0,.074.037,9.3,9.3,0,0,0,2.874.68,5.768,5.768,0,0,0,5.176-2.231.967.967,0,0,0,.126-.963A.952.952,0,0,0,43.2,42.41a3.7,3.7,0,0,1-3.517,1.458,7.363,7.363,0,0,1-2.209-.509L24.685,36.242a2.359,2.359,0,0,0,1.64-.944l0,0,6.559-7.477,0-.019a2.331,2.331,0,0,0,.576-1.532,2.373,2.373,0,0,0-1.067-1.982l-6.139-4.8,2.328-1.406-7.626-4.99,1.722-1.149,7.715,5.049,1.164-.7v2.435a2.744,2.744,0,0,0,1.246,2.3l5.239,3.447,0,0a1.9,1.9,0,1,0,2.015-3.2l0-.007-4.7-2.934v-7.76A3.793,3.793,0,0,0,29.325,7.5l-6.648,4.443L12.087,5.012A.89.89,0,0,0,11.737,4.871Z" transform="translate(462.088 444.106)" fill="#989898" opacity="0.47"/>
  </g>
</svg>