<svg xmlns="http://www.w3.org/2000/svg" width="26.295" height="26.265" viewBox="0 0 26.295 26.265">
  <path id="icons8_add_administrator" d="M12.908,2c-2.1.047-3.614.656-4.5,1.813-.994,1.308-1.167,3.257-.53,5.955a1.962,1.962,0,0,0-.376,1.389,2.286,2.286,0,0,0,.979,1.87,5.466,5.466,0,0,0,1.206,2.524c0,.122,0,.239.006.357a10.51,10.51,0,0,1-.051,1.558A1.7,1.7,0,0,1,9,18.215l1.721,2.073,1.607-2a.621.621,0,0,1,.59-.282c.207-.064.445.1.59.282l.363.451a2.886,2.886,0,0,1,.314.391l1.05,1.27a6.636,6.636,0,0,0-.128,1.3h0a.554.554,0,0,1-.423-.205l-1.086-1.351-.4.353a10.729,10.729,0,0,1,1.24,3.392H11.408A11.249,11.249,0,0,1,12.645,20.5l-.415-.336-1.073,1.334a.555.555,0,0,1-.423.205h0a.552.552,0,0,1-.421-.2L8.018,18.743c-.331.15-.69.293-1.067.442-2.135.844-4.792,1.9-4.976,5.22l-.03.577H16a6.57,6.57,0,1,0,.389-7.156,1.293,1.293,0,0,1-.207-.319c-.032-.663-.088-1.723-.088-1.962a5.94,5.94,0,0,0,1.186-2.5c.393-.186.887-.669,1-1.919a1.885,1.885,0,0,0-.351-1.359c.361-1.133.975-3.646-.034-5.314a3.07,3.07,0,0,0-2.14-1.426A3.524,3.524,0,0,0,12.908,2Zm.011,1.094c1.035,0,1.78.261,2.043.714l.135.229.261.036a2.065,2.065,0,0,1,1.6.949c.7,1.158.344,3.27-.175,4.726l-.173.451.434.218a.737.737,0,0,1,.147.616c-.075.81-.331,1.026-.387,1.037H16.33l-.068.47a4.818,4.818,0,0,1-.988,2.283L15,14.979V15.3c0,.566,0,1.03.017,1.545l-2.1,1.165L10.79,16.825c.011-.323.006-.628,0-.938,0-.188-.006-.383-.006-.592l-.034-.308-.233-.162a4.276,4.276,0,0,1-.992-2.261l-.009-.492h-.5c-.079-.03-.323-.289-.427-1.035a.755.755,0,0,1,.2-.648l.325-.216-.1-.374c-.637-2.509-.549-4.251.267-5.324C9.952,3.6,11.179,3.133,12.919,3.094Zm8.755,13.132A5.472,5.472,0,1,1,16.2,21.7,5.471,5.471,0,0,1,21.674,16.227Zm-.547,2.189v2.736H18.391v1.094h2.736v2.736h1.094V22.246h2.736V21.152H22.221V18.416Z" transform="translate(-1.945 -2)" fill="#fff"/>
</svg>
