<?xml version="1.0" encoding="utf-8"?>
<svg width="30.55542px" height="28.008118px" viewBox="0 0 30.55542 28.008118" version="1.1" xmlns:xlink="http://www.w3.org/1999/xlink" xmlns="http://www.w3.org/2000/svg">
  <path d="M1.27325 25.4617C0.570068 25.4616 0 26.0316 0 26.7349C0 27.438 0.570068 28.0081 1.27325 28.0081C1.27325 28.0081 29.2823 28.008 29.2823 28.008C29.9855 28.0081 30.5555 27.438 30.5555 26.7349C30.5555 26.0316 29.9855 25.4616 29.2823 25.4616C29.2823 25.4616 1.27325 25.4617 1.27325 25.4617ZM28.0091 1.27213C27.6082 1.27203 27.2129 1.36658 26.8554 1.54816C26.8554 1.54816 5.09265 10.1841 5.09265 10.1841C5.09265 10.1841 2.81989 8.18234 2.81989 8.18234C2.17188 7.61075 1.24042 7.49078 0.46759 7.87653C0.46759 7.87653 0.00012207 8.11029 0.00012207 8.11029C0.00012207 8.11029 2.7254 13.6628 2.7254 13.6628C3.10834 14.6358 4.04706 15.2758 5.09265 15.2766C5.46588 15.2755 5.83429 15.1923 6.17188 15.033C6.17188 15.033 14.7257 11.7108 14.7257 11.7108L14.0046 21.6423C14.0046 21.6423 14.8228 21.6423 14.8228 21.6423C15.896 21.6423 16.8544 20.9684 17.2172 19.9588C17.2172 19.9588 21.0815 9.2417 21.0815 9.2417C21.0815 9.2417 28.9316 6.19061 28.9316 6.19061C28.9366 6.18896 28.9416 6.18732 28.9465 6.18564C28.9465 6.18564 28.9465 6.18314 28.9465 6.18314C29.9167 5.79901 30.5543 4.86185 30.5554 3.81839C30.5554 2.41214 29.4154 1.27213 28.0091 1.27213ZM9.07379 0.0213623C8.30389 -0.078949 7.51178 0.175873 6.94269 0.744965C6.94269 0.744965 6.36578 1.32184 6.36578 1.32184L11.0903 5.40732L16.3644 3.31363C16.3644 3.31363 9.82721 0.240173 9.82721 0.240173C9.58429 0.125916 9.33032 0.0548096 9.07373 0.0213623C9.07373 0.0213623 9.07379 0.0213623 9.07379 0.0213623Z" id="icons8_airplane_take_off_3" fill="#000941" fill-rule="evenodd" stroke="none" />
</svg>