<svg xmlns="http://www.w3.org/2000/svg" width="30.555" height="21.642" viewBox="0 0 30.555 21.642">
  <path id="icons8_airplane_take_off_3" d="M12.074,4.022a2.548,2.548,0,0,0-2.131.724l-.577.577L14.09,9.408l5.274-2.094L12.827,4.241A2.535,2.535,0,0,0,12.074,4.022ZM31.009,5.273a2.546,2.546,0,0,0-1.154.276L8.093,14.185l-2.273-2a2.124,2.124,0,0,0-2.352-.306L3,12.111l2.725,5.553a2.535,2.535,0,0,0,3.446,1.37l8.554-3.322L17,25.643h.818a2.545,2.545,0,0,0,2.395-1.683l3.864-10.717,7.85-3.051.015,0v0a2.545,2.545,0,0,0-.937-4.911Z" transform="translate(-3 -4.001)" fill="#000941"/>
</svg>
