<svg xmlns="http://www.w3.org/2000/svg" width="20.011" height="24.116" viewBox="0 0 20.011 24.116">
    <path id="icons8_airport_transfer" d="M11.644,2a.513.513,0,0,0-.417.811l1.62,2.268H9.908L9.024,3.31a.513.513,0,0,0-.459-.284H7.539a.513.513,0,0,0-.513.513V6.618c0,1.695,2.872,2.3,5.618,2.5l-1.938,2.858a.512.512,0,0,0,.425.8h2.245a.512.512,0,0,0,.351-.139L17.41,9.183h5.522a.508.508,0,0,0,.23-.054,1.388,1.388,0,0,0,.725-.955A1.629,1.629,0,0,0,23.3,6.768a5.524,5.524,0,0,0-4.468-1.69h-.963L14.213,2.115A.514.514,0,0,0,13.889,2Zm1,1.026h1.066l2.528,2.052H14.108ZM8.052,4.052h.2l.884,1.769a.513.513,0,0,0,.459.284h9.236A4.517,4.517,0,0,1,22.57,7.494c.307.307.311.471.3.514a.274.274,0,0,1-.1.149H17.208a.512.512,0,0,0-.351.139l-3.684,3.452H12.1L14,8.943a.513.513,0,0,0-.4-.8c-3.642-.15-5.547-.881-5.547-1.524ZM7.581,13.8A1.583,1.583,0,0,0,6,15.383V23a1.583,1.583,0,0,0,1.581,1.581H8.707a2.3,2.3,0,0,0,4.335,0h5.414a2.3,2.3,0,0,0,4.335,0H24.43A1.583,1.583,0,0,0,26.011,23V20.178a1.743,1.743,0,0,0-.317-1l-2.868-4.1a3.534,3.534,0,0,0-2.5-1.27Zm0,1.026H20.325a2.548,2.548,0,0,1,1.675.85l.134.192h-1.9a.513.513,0,0,0-.513.513v3.079a.513.513,0,0,0,.513.513h4.618a.484.484,0,0,0,.093-.019.726.726,0,0,1,.035.222V23a.556.556,0,0,1-.555.555H22.906a2.3,2.3,0,0,0-4.566,0H13.157a2.3,2.3,0,0,0-4.566,0H7.581A.556.556,0,0,1,7.026,23V15.383A.556.556,0,0,1,7.581,14.828ZM20.752,16.9h2.1l1.434,2.052H20.752Zm-9.877,5.628a1.284,1.284,0,0,1,1.283,1.283c0,.032-.008.063-.01.094a.5.5,0,0,0-.032.162c0,.011.006.021.007.032a1.282,1.282,0,1,1-1.248-1.571Zm9.749,0a1.284,1.284,0,0,1,1.283,1.283c0,.032-.008.063-.01.094a.5.5,0,0,0-.032.162c0,.011.006.021.007.032a1.282,1.282,0,1,1-1.248-1.571Z" transform="translate(-6 -2)" fill="#989898"/>
</svg>  