<svg xmlns="http://www.w3.org/2000/svg" width="28.797" height="26.996" viewBox="0 0 28.797 26.996">
  <path id="icons8_bedroom_interior" d="M3.675,19.8H5.8v-.2a2.8,2.8,0,0,1,2.8-2.8H12a2.8,2.8,0,0,1,2.8,2.8v.2H16v-.2a2.8,2.8,0,0,1,2.8-2.8h3.4A2.8,2.8,0,0,1,25,19.6v.2h2.123a2.068,2.068,0,0,1,1.476.619V16.437c0-3.085-1.568-6.239-13.2-6.239S2.2,13.353,2.2,16.437v3.977A2.07,2.07,0,0,1,3.675,19.8ZM2.2,24.6v4.8a.6.6,0,0,0,.6.6H7.6a.6.6,0,0,0,.6-.6v-.6H22.6v.6a.6.6,0,0,0,.6.6H28a.6.6,0,0,0,.6-.6V24.6ZM25,21H3.675a.876.876,0,0,0-.875.875V23.4H27.995V21.872A.876.876,0,0,0,27.119,21ZM6.306,3.5A.6.6,0,0,0,5.714,3H2.285a.6.6,0,0,0-.593.5L1.007,7.7a.6.6,0,0,0,.593.7H3.4V9.6a.6.6,0,1,0,1.2,0V8.4H6.4a.6.6,0,0,0,.593-.7Zm22.8,0A.6.6,0,0,0,28.51,3H25.081a.6.6,0,0,0-.593.5L23.8,7.7a.6.6,0,0,0,.593.7h1.8V9.6a.6.6,0,1,0,1.2,0V8.4h1.8a.6.6,0,0,0,.593-.7Z" transform="translate(-0.999 -2.999)" fill="#000941"/>
</svg>
