<svg xmlns="http://www.w3.org/2000/svg" width="112.417" height="106.5" viewBox="0 0 112.417 106.5">
    <g id="icons8_world_map" transform="translate(-1 -2)">
        <path id="Path_570" data-name="Path 570" d="M38.5,94.066,1.5,105.45V13.88L38.55,2.535l35.411,11.8,37-11.384V94.527L74,105.9Z" transform="translate(0.979 1.048)" fill="#ffeea3" />
        <path id="Path_571" data-name="Path 571" d="M39.509,5.136l34.515,11.5.9.3.905-.278,34.63-10.656V94.48L74.994,105.394l-34.6-11.535-.9-.3-.905.278L3.958,104.494V16.022L39.509,5.136M113.417,2,74.958,13.833,39.642,2.062V2l-.095.03L39.458,2v.056L1,13.833V108.5L39.458,96.667l35.5,11.833,38.458-11.833V2Z" transform="translate(0 0)" fill="#ba9b48" />
        <path id="Path_572" data-name="Path 572" d="M49.5,103.583,14,91.75V3L49.5,14.833Z" transform="translate(25.458 1.958)" fill="#fff" />
        <path id="Path_573" data-name="Path 573" d="M33.392,45.636c-1.873-.4-3.9-.136-5.668-1.006-.828-.414-1.535-.979-2.387-1.37-.568-.257-1.435-.488-2.231-.775-.861-1.781-1.281-3.63-2.1-5.4-.5-1.089-2.2-3.94.379-4.014.775-.018,3.346.79,3.71,1.322.956,1.438-.908,4.754,1.05,5.165,3.275.686,6.931-4.855,6.881-7.428-.006-.47-.382-.642-.429-1.08-.178-1.731.861-2.858.071-4.585a6.907,6.907,0,0,1-.988-3.352c.148-2.985.864-5.911.825-8.943a1.787,1.787,0,0,0-.7-1.66c-2.077-1.24-8.112,3.943-8.337,3.719-3.8-3.84-10.582-5.857-15.132-1.772-1.248,1.127-3.73,2.455-3.287,4.328s1.192,1.846,2.751.982c1.47-.817,3.183-1.367,4.828-.308,1.772,1.127.4,2.92-.571,4.133a15.674,15.674,0,0,0-2.952,5.23c-.559,1.71-.849,3.642.337,5.2,1.21,1.595,3.763,1.636,4.686,3.065.97,1.509,1.112,3.591,2.979,4.449,1.26.586,2.538-.056,3.994.553a9.682,9.682,0,0,1,1.308.672,6.563,6.563,0,0,1,1.056,3.512c-.033,1.748-1.047,1.976-2.355,2.793-1.846,1.151-5.576,3.316-5.106,6.032.37,2.127,2.781.825,3.435,2.467.518,1.3-.926,3.056-.982,4.284a6.978,6.978,0,0,1,5.426,7.236c-.027,5.1.775,8.9,4.736,11.866a1.689,1.689,0,0,0,1.571-1.737c.512-4.334-.34-8.15,2.908-11.694,1.4-1.527,1.121-2.13,1.012-4.05-.056-.976.136-3.31.914-3.837.976.473,2.949.737,3.819-.044.574-.527,1.24-3.482,1.358-4.281a8.139,8.139,0,0,0-1.914-6.39A8.734,8.734,0,0,0,33.392,45.636ZM41.571,7.2c-4.627-1.157-7.985,2.769-6.606,7.331C37.22,22.017,41.912,10.254,41.571,7.2ZM93.644,23.762c.311-1.529-.018-3.316-1.79-3.3-.124-1.89-1.364-6.31-3.34-7.3-1.852-.944-1.938.4-3.444,1.882-1.663,1.642-3.73,2.7-5.133,4.3-1.3,1.482-3.97,5.071-5.792,3.654-.976-.766-.754-3.5-1.482-4.618-.967-1.5-1.592-1.769-3.393-2.044.2-.334.237-1.166.473-1.547-.553.2-1.529.006-2.077.2-.086-2.337,3.423-2.426,4.227-4.026a6.267,6.267,0,0,0-4.281.71c-1.077.716-1.328,2.378-2.34,2.873-2.574,1.287-8.742-3.065-11.57-3.695-4.091-.914-6.269.84-7.9,4.689-1.077-.21-2.358-.571-3.2.317a3.838,3.838,0,0,0,2.671,1.426,3,3,0,0,1,0,1.266,13.873,13.873,0,0,0-3.736,2.234,4.264,4.264,0,0,0-1.6,3.3,16.343,16.343,0,0,0-.148,3.02c.1,1.994.722,3.929,2.577,4.364a2.994,2.994,0,0,0,3.287-1.562c1.029-1.858-1.8-6.786,1.387-6.55,2.287.172,2.381,3.781,3.089,5.34a.627.627,0,0,0,.58,0c.524-1.515.231-3.254.367-4.8,2.689-.745,4.165,3.3,4.787,5.313.515,1.671,1.568,2.231-1.139,2.881a3.11,3.11,0,0,1-3.5-1.183c-1.633,1.127-2.518,2.376-4.3,3.31-5.005,2.633-6.337,10.357-3.683,15.593,1.819,3.594,6.023.322,8.209-.772-.1,2.018,1.657,4.041,2.266,5.931,1.766,5.452.494,10.65.459,16.247-.006,1.127.266,5.423,1.677,5.683,1.618.3,3.02-4.787,3.375-5.97,1.473-4.887,1.494-9.928,4.156-14.457,1.027-1.754,2.893-3.225,2.038-5.44s-5.213-2.657-4.739-5.553c-.13.822,4.328,5.02,5.334,5.13,4.7.5.266-5.878,1.68-7.49,2.278-2.583,3.94,3.813,4.065,5.029.358,3.307-.322,6.594-.373,9.9-.018,1.382-.391,7.073,2.154,6.254,1.979-.639,1.009-5.05,1.275-6.594.246-1.432,1.728-6.863,2.935-7.517,2.642-1.417,4.059,4.648,7.3,4.52.772-2.8.083-4.153,2.192-6.192,1.553-1.5,3.926-2.473,4.846-4.719a13.968,13.968,0,0,0,.456-7.062c-.941-3.426-4.139-2.056-7.135-2.846-.133-1.757,1.663-2.606,1.731-4.435.038-.911-1.379-.917-1.231-2.071A8.026,8.026,0,0,1,87.526,24.9C89.106,22.774,91.342,21.472,93.644,23.762Zm-2.7,36.76c-.63.553-2.343,3.293-2.958,3.476-2.583.784-1.124-2.373-.45-3.4A11.861,11.861,0,0,0,81.5,66.049l.089-.355c-.106.219-.231.533-.355.858a12.508,12.508,0,0,0-1.518,6.538l.077-.3c-.16,1.964.083,3.618,1.257,3.858,3.334.666,4.71-4.861,8.011-4.05.293,1.609,1.5,2.026,2.414.707.571-.819-.068-3.432-.2-4.316C90.807,65.762,90.189,63.8,90.943,60.522Z" transform="translate(7.836 9.791)" fill="#ba9b48" />
        <path id="Path_574" data-name="Path 574" d="M16.325,14.535c2.257,7.482,6.946-4.281,6.606-7.331C18.3,6.048,14.946,9.973,16.325,14.535Zm3.319,34.388a8.681,8.681,0,0,0-4.893-3.287c-.077-.015-.154-.015-.231-.03v21.83c1.3-1.453,1.05-2.083.944-3.961-.056-.976.136-3.31.917-3.837.976.473,2.949.737,3.822-.044.574-.527,1.24-3.482,1.358-4.281A8.159,8.159,0,0,0,19.644,48.923ZM49.056,43.11a1.514,1.514,0,0,1,.964-.58V14.893a3.29,3.29,0,0,0-.994.095,2.051,2.051,0,0,1,.994-1.8V11.207a4.2,4.2,0,0,0-1.05.462c-1.077.716-1.328,2.378-2.34,2.873-2.574,1.287-8.742-3.065-11.57-3.695-4.091-.914-6.269.84-7.9,4.689-1.077-.21-2.358-.571-3.2.317a3.838,3.838,0,0,0,2.671,1.426,3,3,0,0,1,0,1.266A13.873,13.873,0,0,0,22.9,20.777a4.264,4.264,0,0,0-1.6,3.3,16.343,16.343,0,0,0-.148,3.02c.1,1.994.722,3.929,2.577,4.364a2.994,2.994,0,0,0,3.287-1.562c1.029-1.858-1.8-6.786,1.387-6.55,2.287.172,2.381,3.781,3.089,5.34a.627.627,0,0,0,.58,0c.524-1.515.231-3.254.367-4.8,2.689-.745,4.165,3.3,4.787,5.313.515,1.671,1.568,2.231-1.139,2.881a3.11,3.11,0,0,1-3.5-1.183c-1.633,1.127-2.518,2.376-4.3,3.31C23.28,36.844,21.948,44.568,24.6,49.8c1.819,3.594,6.023.322,8.212-.772-.1,2.018,1.657,4.041,2.266,5.931,1.766,5.452.494,10.65.459,16.247-.006,1.127.266,5.423,1.677,5.683,1.618.3,3.02-4.787,3.375-5.97,1.473-4.887,1.494-9.928,4.156-14.457,1.027-1.754,2.893-3.225,2.038-5.44s-5.213-2.657-4.739-5.553c-.13.822,4.328,5.023,5.334,5.13C52.079,51.1,47.641,44.722,49.056,43.11Z" transform="translate(26.477 9.791)" fill="#dbc567" />
    </g>
</svg>