<svg xmlns="http://www.w3.org/2000/svg" width="35.939" height="35.939" viewBox="0 0 35.939 35.939">
  <path id="icons8_scroll_down" d="M19.97,2a17.97,17.97,0,1,0,17.97,17.97A17.981,17.981,0,0,0,19.97,2Zm0,1.563A16.407,16.407,0,1,1,3.563,19.97,16.4,16.4,0,0,1,19.97,3.563ZM19.9,9.789a.91.91,0,0,0-.1.024.783.783,0,0,0-.61.781V27.441l-4.907-4.907a.787.787,0,0,0-.732-.22.776.776,0,0,0-.61.549.785.785,0,0,0,.22.794l6.153,6.128c.015.024.03.049.049.073l.049.049a.37.37,0,0,0,.049.049h.024a.831.831,0,0,0,.171.122h.024a.375.375,0,0,0,.049.024h.024a.687.687,0,0,0,.073.024.82.82,0,0,0,.244,0h.049a.757.757,0,0,0,.2-.073.813.813,0,0,0,.269-.22l6.2-6.177a.794.794,0,0,0-1.123-1.123l-4.908,4.907V10.594a.782.782,0,0,0-.854-.806Z" transform="translate(-2 -2)" fill="#000941"/>
</svg>
