<svg xmlns="http://www.w3.org/2000/svg" width="11.986" height="19.977" viewBox="0 0 11.986 19.977">
    <path id="icons8_cutlery" d="M10.325,0A.4.4,0,0,0,10,.4V5.993a2.979,2.979,0,0,0,1.149,2.4c.27.223.521.4.674.537s.175.193.175.262c0,.379-.1,1.5-.2,2.734s-.2,2.613-.2,3.658a8.335,8.335,0,0,0,.5,3.571,1.494,1.494,0,0,0,.624.674,1.592,1.592,0,0,0,1.348,0,1.494,1.494,0,0,0,.624-.674,8.335,8.335,0,0,0,.5-3.571c0-1.046-.1-2.422-.2-3.658s-.2-2.355-.2-2.734c0-.069.023-.128.175-.262s.4-.29.674-.512a3,3,0,0,0,1.149-2.422V.4a.4.4,0,0,0-.4-.4h-1.2a.4.4,0,0,0-.4.4v4.2a.2.2,0,0,1-.4,0V.4A.4.4,0,0,0,14,0H12.759A.4.4,0,0,0,12.4.4v4.2a.2.2,0,1,1-.4,0V.4a.4.4,0,0,0-.4-.4H10.325Zm7.591,0a.4.4,0,0,0-.325.4V5.194c0,6.375-.4,7.743-.4,9.989a10.772,10.772,0,0,0,.437,3.883,1.445,1.445,0,0,0,2.722,0,10.773,10.773,0,0,0,.437-3.883,5.675,5.675,0,0,0-.637-2.634,4.142,4.142,0,0,1-.562-1.361,1.212,1.212,0,0,1,.3-.774,8.97,8.97,0,0,1,.787-.824,3.777,3.777,0,0,0,1.311-2.8,12.561,12.561,0,0,0-.624-3.871A5.275,5.275,0,0,0,20.188.911,3.056,3.056,0,0,0,17.991,0h-.075ZM10.8.8h.4v3.8a1,1,0,1,0,2,0V.8h.4v3.8a1,1,0,1,0,2,0V.8h.4V5.993a2.03,2.03,0,0,1-.849,1.8c-.229.187-.476.353-.7.549A1.153,1.153,0,0,0,14,9.189c0,.5.1,1.565.2,2.8s.2,2.6.2,3.6a8.107,8.107,0,0,1-.412,3.209.652.652,0,0,1-.287.325.751.751,0,0,1-.6,0,.652.652,0,0,1-.287-.325,8.106,8.106,0,0,1-.412-3.209c0-.993.1-2.364.2-3.6s.2-2.3.2-2.8a1.191,1.191,0,0,0-.449-.861c-.222-.2-.47-.359-.7-.549A2.041,2.041,0,0,1,10.8,5.993ZM18.39.874a2.2,2.2,0,0,1,1.224.6,4.6,4.6,0,0,1,1,1.711,12.013,12.013,0,0,1,.574,3.608A2.861,2.861,0,0,1,20.1,9.015a8.856,8.856,0,0,0-.862.911,2.068,2.068,0,0,0-.449,1.261,3.857,3.857,0,0,0,.637,1.711,4.8,4.8,0,0,1,.562,2.285,10.9,10.9,0,0,1-.362,3.571.654.654,0,0,1-.275.362,1.082,1.082,0,0,1-.724,0,.654.654,0,0,1-.275-.362,10.9,10.9,0,0,1-.362-3.571c0-2.149.4-3.579.4-9.989Z" transform="translate(-10)" fill="#989898"/>
</svg>  