<svg xmlns="http://www.w3.org/2000/svg" width="14.398" height="17.435" viewBox="0 0 14.398 17.435">
    <path id="icons8_cafe" d="M13.572,1.984a.381.381,0,0,0-.373.385,2.243,2.243,0,0,1-1.008,2.01,3.134,3.134,0,0,0-1.26,2.537.379.379,0,1,0,.758,0A2.2,2.2,0,0,1,12.7,4.943a3.175,3.175,0,0,0,1.26-2.574.379.379,0,0,0-.385-.385Zm1.9,1.894a.381.381,0,0,0-.373.385,1.35,1.35,0,0,1-.632,1.252,2.24,2.24,0,0,0-.887,1.779.379.379,0,1,0,.758,0,1.313,1.313,0,0,1,.632-1.214,2.28,2.28,0,0,0,.887-1.818.379.379,0,0,0-.385-.385ZM7.894,8.431a.379.379,0,0,0-.379.379v4.547a3.778,3.778,0,0,0,1.526,3.031H16.6A3.787,3.787,0,0,0,18.045,14.1a2.3,2.3,0,0,0,1.86-1.029,4.4,4.4,0,0,0,.487-2.3.019.019,0,0,0,0-.009.36.36,0,0,0,0-.056,1.143,1.143,0,0,0-1.137-1.137H18.125V8.81a.379.379,0,0,0-.379-.379Zm10.23,1.894h1.137a.372.372,0,0,1,.379.379,3.924,3.924,0,0,1-.379,1.967,1.382,1.382,0,0,1-1.137.662ZM6.379,17.146A.379.379,0,0,0,6,17.525c0,1.049,1.45,1.894,2.652,1.894h8.336c1.227,0,2.652-.827,2.652-1.894a.379.379,0,0,0-.379-.379Z" transform="translate(-6 -1.984)"/>
</svg>  