<svg xmlns="http://www.w3.org/2000/svg" width="15.515" height="16.189" viewBox="0 0 15.515 16.189">
  <path id="icons8_calendar_1" d="M5.373,0A.679.679,0,0,0,4.7.675v.675H2.675A.652.652,0,0,0,2,2.024V4.385H17.515V2.024a.652.652,0,0,0-.675-.675H14.816V.675A.679.679,0,0,0,14.142,0h-.675a.679.679,0,0,0-.675.675v.675H6.722V.675A.679.679,0,0,0,6.047,0Zm0,.675h.675V2.7H5.373Zm8.095,0h.675V2.7h-.675ZM2,5.059V15.515a.652.652,0,0,0,.675.675H16.84a.652.652,0,0,0,.675-.675V5.059ZM5.373,7.083H7.059V8.769H5.373Zm2.361,0H9.42V8.769H7.734Zm2.361,0h1.686V8.769H10.095Zm2.361,0h1.686V8.769H12.455ZM5.373,9.444H7.059V11.13H5.373Zm2.361,0H9.42V11.13H7.734Zm2.361,0h1.686V11.13H10.095Zm2.361,0h1.686V11.13H12.455ZM5.373,11.8H7.059v1.686H5.373Zm2.361,0H9.42v1.686H7.734Zm2.361,0h1.686v1.686H10.095Zm2.361,0h1.686v1.686H12.455Z" transform="translate(-2)" fill="#989898"/>
</svg>
