<svg xmlns="http://www.w3.org/2000/svg" width="66" height="66" viewBox="0 0 66 66">
  <g id="Group_1403" data-name="Group 1403" transform="translate(-1715 -394)" opacity="0.68">
    <circle id="Ellipse_220" data-name="Ellipse 220" cx="33" cy="33" r="33" transform="translate(1715 394)" fill="#fff"/>
    <path id="icons8_camera" d="M15.116,4a2.561,2.561,0,0,0-2.292,1.416l-.506,1.011a2.565,2.565,0,0,1-2.292,1.416H4.563A2.562,2.562,0,0,0,2,10.406V27.063a2.562,2.562,0,0,0,2.563,2.563H32.751a2.562,2.562,0,0,0,2.563-2.563V10.406a2.562,2.562,0,0,0-2.563-2.563H27.288A2.561,2.561,0,0,1,25,6.427L24.49,5.416A2.565,2.565,0,0,0,22.2,4ZM7.125,5.281A1.282,1.282,0,0,0,5.844,6.563H9.688A1.282,1.282,0,0,0,8.406,5.281ZM18.657,9.125a8.969,8.969,0,1,1-8.969,8.969A8.979,8.979,0,0,1,18.657,9.125Zm11.532,1.281a1.281,1.281,0,1,1-1.281,1.281A1.282,1.282,0,0,1,30.189,10.406ZM18.657,11.688a6.406,6.406,0,1,0,6.406,6.406,6.406,6.406,0,0,0-6.406-6.406Z" transform="translate(1729.344 410.187)" fill="#000941"/>
  </g>
</svg>
