<svg version="1.2" xmlns="http://www.w3.org/2000/svg" viewBox="0 0 25 25" width="25" height="25">
	<title>chat_search_icon-svg</title>
	<style>
		.s0 { fill: #000941 } 
	</style>
	<path id="icons8_search" fill-rule="evenodd" class="s0" d="m15.3 1.5c1.6 1.1 2.9 2.5 3.7 4.2 0.8 1.7 1.2 3.6 0.9 5.5-0.2 1.9-1 3.7-2.2 5.1l6 6q0.3 0.3 0.3 0.7 0 0.4-0.3 0.7-0.3 0.3-0.7 0.3-0.4 0-0.7-0.3l-6-6c-2.5 2.1-5.9 2.8-9 1.9-3.1-0.8-5.6-3.2-6.7-6.2-1.1-3.1-0.7-6.5 1.2-9.2 1.9-2.6 4.9-4.2 8.2-4.2 1.9 0 3.7 0.5 5.3 1.5zm-8.4 1.1q-1.4 0.6-2.6 1.7-1.1 1.2-1.7 2.6-0.6 1.5-0.6 3.1c0 3.2 1.9 6.2 4.9 7.4 3 1.2 6.5 0.5 8.8-1.7 2.2-2.3 2.9-5.8 1.7-8.8-1.2-3-4.2-4.9-7.4-4.9q-1.6 0-3.1 0.6z"/>
</svg>