<svg xmlns="http://www.w3.org/2000/svg" width="32.209" height="33" viewBox="0 0 32.209 33">
  <path id="icons8_rainy_snowy_day" d="M12.162,3.314a1.187,1.187,0,0,0-1.1,1.468l.355,1.542a1.187,1.187,0,1,0,2.313-.533l-.357-1.542A1.187,1.187,0,0,0,12.162,3.314Zm7.759,1.3a1.187,1.187,0,0,0-.949.57l-.839,1.343a1.187,1.187,0,1,0,2.013,1.258l.837-1.343a1.187,1.187,0,0,0-1.063-1.828ZM5.761,7.891a1.187,1.187,0,0,0-.582,2.2l1.343.839A1.187,1.187,0,1,0,7.779,8.918L6.437,8.081A1.187,1.187,0,0,0,5.761,7.891Zm8.768.712A5.923,5.923,0,0,0,9.745,18.03a7.446,7.446,0,0,1,2.3-.674c.019-.076.045-.148.066-.222a3.548,3.548,0,0,1,4.3-5.61,9.439,9.439,0,0,1,2.449-1.034A5.913,5.913,0,0,0,14.529,8.6Zm6.724,3.164a7.853,7.853,0,0,0-7.75,7.119h-.556A5.929,5.929,0,0,0,12.6,30.735l-2.256,3.757a1.187,1.187,0,1,0,2.036,1.221l2.976-4.961h9.919a1.186,1.186,0,1,0,2.236,0h2.046a5.933,5.933,0,0,0,0-11.866H29A7.853,7.853,0,0,0,21.253,11.767Zm0,2.373a5.52,5.52,0,0,1,5.537,5.537v.4a1.187,1.187,0,0,0,1.186,1.187h1.582a3.56,3.56,0,0,1,0,7.119H12.947a3.56,3.56,0,1,1,0-7.119h1.582a1.187,1.187,0,0,0,1.187-1.186v-.4A5.52,5.52,0,0,1,21.253,14.14ZM6.1,15.3a1.187,1.187,0,0,0-.317.034l-1.542.357A1.187,1.187,0,1,0,4.776,18l1.542-.355A1.187,1.187,0,0,0,6.1,15.3ZM19.157,32.32a1.187,1.187,0,0,0-1.057.59l-.949,1.582a1.187,1.187,0,1,0,2.035,1.221l.949-1.582a1.187,1.187,0,0,0-.978-1.811Zm10.4.8a1.187,1.187,0,1,0,1.187,1.187A1.187,1.187,0,0,0,29.559,33.125Zm-5.537.791A1.187,1.187,0,1,0,25.209,35.1a1.187,1.187,0,0,0-1.187-1.187Z" transform="translate(-3.284 -3.313)" fill="#000941"/>
</svg>