<svg xmlns="http://www.w3.org/2000/svg" width="40.014" height="40.014" viewBox="0 0 40.014 40.014">
  <path id="icons8_disconnected" d="M42.471,3.986a1.5,1.5,0,0,0-1.031.453L39.451,6.426a10.588,10.588,0,0,0-13.846.846L22.5,10.379l-.94-.939a1.5,1.5,0,1,0-2.121,2.121l1.826,1.826a1.5,1.5,0,0,0,.346.346L23.379,15.5,18.44,20.44a1.5,1.5,0,1,0,2.121,2.121L25.5,17.621,30.379,22.5,25.44,27.44a1.5,1.5,0,1,0,2.121,2.121L32.5,24.621l1.766,1.766a1.5,1.5,0,0,0,.346.346l1.828,1.828a1.5,1.5,0,1,0,2.121-2.121l-.939-.94,3.107-3.105a10.588,10.588,0,0,0,.846-13.846l1.986-1.988a1.5,1.5,0,0,0-1.09-2.574Zm-9.3,3.145A7.662,7.662,0,0,1,38.539,9.35a1.5,1.5,0,0,0,.111.111,7.659,7.659,0,0,1-.045,10.811L35.5,23.379l-1.766-1.766a1.5,1.5,0,0,0-.346-.346l-6.654-6.654a1.5,1.5,0,0,0-.346-.346L24.621,12.5l3.107-3.105A7.669,7.669,0,0,1,33.168,7.131ZM10.484,18.984A1.5,1.5,0,0,0,9.439,21.56l.939.94L7.271,25.605a10.588,10.588,0,0,0-.846,13.846L4.439,41.439a1.5,1.5,0,1,0,2.121,2.121l1.988-1.987a10.588,10.588,0,0,0,13.846-.846L25.5,37.621l.94.939a1.5,1.5,0,1,0,2.121-2.121l-1.826-1.826a1.5,1.5,0,0,0-.346-.346L13.734,21.613a1.5,1.5,0,0,0-.346-.346L11.561,19.44A1.5,1.5,0,0,0,10.484,18.984ZM12.5,24.621,23.379,35.5l-3.107,3.105a7.659,7.659,0,0,1-10.811.045,1.5,1.5,0,0,0-.111-.111,7.659,7.659,0,0,1,.045-10.811Z" transform="translate(-4 -3.986)" fill="#000941"/>
</svg>
