<svg xmlns="http://www.w3.org/2000/svg" width="100.153" height="106.5" viewBox="0 0 100.153 106.5">
    <g id="icons8_two_tickets" transform="translate(-52.387 -21.582)">
        <path id="Path_575" data-name="Path 575" d="M301.065,232.535a1.031,1.031,0,0,1-1.358-.023,1.81,1.81,0,0,1-.294-.294,3.509,3.509,0,0,0-.7,1.562v.023l.136-.068a1.109,1.109,0,0,1,1.607-.611,1.359,1.359,0,0,1,.611-.453Q301.1,232.637,301.065,232.535ZM259,218v.5c.453-.158.906-.34,1.358-.5Z" transform="translate(-159.836 -151.948)" fill="#febf10" />
        <path id="Path_576" data-name="Path 576" d="M212.307,81.386c-1.2-1.97-3.849-2.649-5.954-3.1-2.694-.589-5.411-.974-8.083-1.7C185,73.054,172.71,66.805,159.782,62.323c-.023,0-.045-.023-.068-.023-1.879,6.271-3.487,12.678-6.317,18.61a77.589,77.589,0,0,0-6.5,18.338,5,5,0,0,0,2.106.86c1.064.294,2.151.543,3.215.838,1.924.5,3.8,1.132,5.705,1.743,1.789-.475,3.577-.974,5.366-1.517,2.83-.883,5.637-1.879,8.422-2.921a5.238,5.238,0,0,1-.792-.408,5.076,5.076,0,0,1-2.468-3.079c-.724-3.238,1.29-6.588,2.377-9.509.974-2.581,1.4-5.819,3.781-7.584,2.468-1.834,5.864-.181,6.7,2.558.475,1.54-1.992,1.992-2.445.453a2.1,2.1,0,0,0-2.219-1.29,3.576,3.576,0,0,0-1.924,2.2c-.838,1.947-1.336,4.03-2.151,5.977a36.579,36.579,0,0,0-1.381,3.713c-.294,1.064-.724,2.468-.068,3.487.906,1.4,2.739,1.494,4.166,2.106h.023c1.245-.453,2.468-.928,3.713-1.381.2-.657.408-1.29.634-1.924.566-1.675,1.223-3.328,1.766-5.026.725-2.264,1.2-4.777,2.468-6.815a2.476,2.476,0,0,1,.181-.34l.408-.543h0a2.407,2.407,0,0,1,.2-.249c.928-1.041,2.717.521,1.856,1.63l-.408.543c-.045.045-.091.113-.136.158a12.284,12.284,0,0,0-1.313,3.373c-.272.883-.521,1.743-.792,2.626,2.672-1.087,4.46-3.8,6.158-6,.974-1.268,3.056.113,2.083,1.381-1.9,2.445-3.8,5.049-6.543,6.52a5.567,5.567,0,0,1,.7,2.2c1.721-.521,3.441-1.019,5.185-1.449.589-2.287.838-4.664,1.834-6.815a1.389,1.389,0,0,1,2.151-.43c1.7-.679,3.668.136,5.185.883a1.247,1.247,0,0,1,.136,1.97,2.48,2.48,0,0,1-1.358.543,1.258,1.258,0,0,1-1.4-.951,2.542,2.542,0,0,0-1.494-.2,1.232,1.232,0,0,1-1.2-.136,27.671,27.671,0,0,0-.974,3.871c.362.2.77.408,1.177.611a1.2,1.2,0,0,1,1.426.928,1.754,1.754,0,0,1,.5,1.721.7.7,0,0,1-.136.294,9.233,9.233,0,0,0,3.781,5.049c.226-.589.453-1.2.657-1.811.86-2.581,2.06-5.162,2.309-7.879a.67.67,0,0,1,.045-.226c-.023,0-.068-.023-.091-.023a1.027,1.027,0,0,1-1.041-.2l-.362-.272a1.251,1.251,0,0,1,1.087-2.219,28.6,28.6,0,0,1,5.864,2.2c1.4.792,0,2.853-1.381,2.083a10.107,10.107,0,0,0-1.675-.77c-.34,2.717-1.449,5.253-2.309,7.833-.272.838-.589,1.675-.906,2.49a12.476,12.476,0,0,0,2.558.815,2.631,2.631,0,0,1,.408.091A44.221,44.221,0,0,1,208.1,96.6c1.245-2.536,2.694-5,3.69-7.652C212.692,86.729,213.62,83.582,212.307,81.386Zm-55.966,10.46a1.249,1.249,0,0,1-2.422-.475c0-.272.045-.543.068-.815a1.126,1.126,0,0,1,.521-.951c1.856-5.388,3.215-10.935,5.049-16.346h-.023c-.657.724-2.151.068-2.128-1.109a1.243,1.243,0,0,1,1.517-1.653c2.558.566,4.777,2.038,7.29,2.807,1.54.475.724,2.83-.792,2.355a34.771,34.771,0,0,1-3.577-1.449C159.873,80.05,158.446,86.072,156.341,91.845Zm11.931-8.264c-1.245,3.26-2.06,6.724-2.988,10.075-.43,1.562-2.785.747-2.355-.792.928-3.351,1.743-6.837,2.988-10.075.951-2.49,2.083-5.094,1.97-7.811-.068-1.607,2.4-1.4,2.49.181C170.491,78.08,169.291,80.91,168.272,83.582Z" transform="translate(-73.115 -31.499)" fill="#d6e5e5" />
        <path id="Path_577" data-name="Path 577" d="M172.183,254.161c-.815-3.215-1.653-6.43-2.581-9.6-.928-3.147-2.128-6.2-2.807-9.418-.589-2.762-.951-5.592-1.811-8.309-.7-2.241-1.9-5.3-4.279-6.2-2.151-.815-4.664.294-6.611,1.223-2.49,1.2-4.868,2.558-7.4,3.645-12.633,5.388-26.172,8.015-39.122,12.452-.023,0-.045.023-.068.023,2.377,6.113,5.049,12.135,6.475,18.542a77.573,77.573,0,0,0,6.158,18.452,5.258,5.258,0,0,0,2.2-.611c1.019-.408,2.038-.883,3.056-1.313,2.423-1.041,4.958-1.879,7.426-2.853,3.034-1.177,6.068-2.4,9.169-3.4,2.83-.906,5.705-1.675,8.558-2.468,2.988-.838,5.977-1.7,8.852-2.807,2.015-.77,3.939-1.743,5.886-2.649l4.619-2.106c.7-.34,1.426-.657,2.128-1,.136-.068.226-.113.34-.159A1.288,1.288,0,0,1,172.183,254.161Zm-51.37,10.256c-.158-.226-.294-.453-.453-.679a1.109,1.109,0,0,1-.181-1.064c-1.856-5.388-4.211-10.6-6.068-15.984h-.023c-.068.974-1.653,1.381-2.355.453a1.25,1.25,0,0,1,.181-2.241c2.377-1.132,5.026-1.336,7.471-2.264,1.494-.566,2.309,1.789.815,2.355a30.107,30.107,0,0,1-3.713,1.041c2.015,5.819,4.6,11.433,6.52,17.3A1.239,1.239,0,0,1,120.812,264.417Zm8.015-4.347c-1.336-3.215-2.83-6.452-3.849-9.781-.77-2.558-1.494-5.3-3.26-7.358-1.041-1.223,1.019-2.6,2.06-1.4,1.9,2.219,2.717,5.185,3.554,7.924,1.019,3.328,2.513,6.566,3.849,9.781C131.793,260.727,129.438,261.542,128.827,260.07Zm13.448-2.128a7.726,7.726,0,0,0-2.06.634,10.424,10.424,0,0,1-2.015.475,4.991,4.991,0,0,1-3.826-.906c-2.558-2.106-3.034-5.977-3.962-8.965-.838-2.649-2.468-5.434-1.7-8.286.815-2.966,4.505-3.758,6.86-2.105,1.313.928-.34,2.785-1.653,1.879a2.118,2.118,0,0,0-2.536.34,3.547,3.547,0,0,0-.158,2.921c.543,2.06,1.426,3.985,1.992,6.045a36.66,36.66,0,0,0,1.2,3.781c.43,1.041.951,2.4,2.106,2.807,1.585.543,3.079-.5,4.573-.906a1.191,1.191,0,0,1,.589-.136h.408C143.679,255.474,143.883,257.942,142.275,257.942Zm8.2-2.332a5.391,5.391,0,0,1-1.245-2.083,24.144,24.144,0,0,0-1.245-2.694c-.928-1.494-2.083-4.121-4.121-4.211.453,1.336.883,2.694,1.381,4.007.34.906.679,1.811,1.064,2.694.068.158.158.317.249.5a1.013,1.013,0,0,1,.543.974v.475c0,1.607-2.49,1.789-2.49.181a6.46,6.46,0,0,0-.657-1.313c-.158-.385-.317-.77-.475-1.177-.34-.883-.679-1.766-1-2.672-.589-1.675-1.087-3.373-1.7-5.049-.815-2.219-1.992-4.505-2.241-6.883a1.06,1.06,0,0,1-.045-.385v-.679h0v-.34c.091-1.4,2.468-1.245,2.468.136v.679a.627.627,0,0,1-.023.2,12.791,12.791,0,0,0,1.041,3.464c.34.86.679,1.7,1,2.558,1.426-2.49,1.177-5.751,1.177-8.513,0-1.607,2.49-1.789,2.49-.181,0,3.1.113,6.317-1.132,9.169a8.752,8.752,0,0,1,3.894,3.894,24.942,24.942,0,0,1,1.63,3.079c.249.566.5,1.155.77,1.721.113.226.317.566.317.566C153.391,254.682,151.739,256.539,150.471,255.61Zm8.467-2.468a18.4,18.4,0,0,1-3.487.747,1.248,1.248,0,0,1-1.29-1.109c-1.041-3.147-1.9-6.339-2.875-9.509-.883-2.9-2.739-5.366-3.441-8.332a1.375,1.375,0,0,1,1.426-1.653c.906-1.562,2.966-2.151,4.641-2.49a1.252,1.252,0,0,1,1.313,1.472,2.439,2.439,0,0,1-.747,1.268,1.234,1.234,0,0,1-1.675.113,2.773,2.773,0,0,0-1.313.747,1.183,1.183,0,0,1-1.041.634,27.423,27.423,0,0,0,1.607,3.645c1.562-.2,3.6-1.155,4.46.634a1.246,1.246,0,0,1-.77,1.585,1.071,1.071,0,0,1-1.109-.181.5.5,0,0,0-.181.023c-.226.023-.453.068-.7.113-.2.045-.408.091-.634.136a11.7,11.7,0,0,1,.475,1.426c.815,2.943,1.7,5.886,2.649,8.807.611-.136,1.2-.34,1.834-.475a1.285,1.285,0,0,1,1.585.77A1.238,1.238,0,0,1,158.938,253.143Zm6.113-4.166c-1.177-3.1-1.811-6.385-2.943-9.509-.906-2.558-1.54-5.343-3.034-7.63-.045-.068-.068-.136-.113-.2-.023.023-.068.023-.091.045a1.035,1.035,0,0,1-.951.5h-.453a1.252,1.252,0,0,1-.5-2.422,29.533,29.533,0,0,1,5.977-1.879c1.585-.226,1.766,2.241.181,2.49a12.4,12.4,0,0,0-1.811.43c1.4,2.332,2.083,5.026,3.011,7.584,1.155,3.238,1.834,6.611,3.056,9.8C167.972,249.656,165.617,250.471,165.051,248.977Z" transform="translate(-42.635 -153.765)" fill="#d6e5e5" />
        <path id="Path_578" data-name="Path 578" d="M148.857,221.226a1.025,1.025,0,0,1-1.064.815c-1.607,0-1.789-2.49-.181-2.49a1.113,1.113,0,0,1,.475.091c-.023-.136-.045-.272-.068-.43a2.52,2.52,0,0,1,.657-1.9,5.064,5.064,0,0,1-1.064-6.792,5.265,5.265,0,0,1-3.192-4.732,6.138,6.138,0,0,1,.5-2.173c-6-.566-11.863-4.121-13.018-10.279-.408.068-.792.158-1.2.249-.023.091-.068.181-.091.272h-1.087c-9.8,2.332-19.018,6.792-28.64,9.735-10.12,3.1-20.648,4.573-30.745,7.7v.226c-.113,1.857.158,3.713.113,5.569a16.228,16.228,0,0,1-.792,4.641c-.747,2.287-1.721,5.026-3.758,6.52,2.151,1.653,2.422,5.139,1.63,7.766,2.672,1.63,3.4,5.23,2.536,8.264a5.39,5.39,0,0,1,3.283,5.886c.43.181.883.294,1.313.43a1.157,1.157,0,0,1,.928.113c1.856,1.041,4.007,1.268,5.909,2.219a17.789,17.789,0,0,1,4.709,4.007c2.649.023,4.936-1.2,7.426-1.992,2.921-.928,5.864-1.766,8.784-2.672,2.785-.86,5.524-1.834,8.332-2.626,2.717-.792,5.479-1.494,8.2-2.287a76.939,76.939,0,0,0,7.992-2.672c1.924-.77,3.736-1.766,5.615-2.581,1.426-.634,2.853-1.268,4.256-1.924.634-.294,1.268-.589,1.879-.906.158-.091.317-.158.475-.249l.136-.068c.068-.091.113-.113.091-.091a1.055,1.055,0,0,1,.951-.249,13.919,13.919,0,0,1,3.69-1.789,29.75,29.75,0,0,1,4.1-13.267,1.107,1.107,0,0,1,.883-1.472,1.484,1.484,0,0,1,.2-.747A.958.958,0,0,1,148.857,221.226Zm-6.452-16.6c1.607,0,1.789,2.49.181,2.49C140.978,207.1,140.8,204.631,142.4,204.631Zm-73.354,22.64c1.607,0,1.789,2.49.181,2.49C67.624,229.739,67.443,227.271,69.051,227.271Zm2.694,7.471a1.293,1.293,0,0,1-.317.928,1.313,1.313,0,0,1-.838.43,1.26,1.26,0,0,1-.928-.317,1.215,1.215,0,0,1-.43-.838v-.226a1.293,1.293,0,0,1,.317-.928,1.312,1.312,0,0,1,.838-.43,1.26,1.26,0,0,1,.928.317,1.215,1.215,0,0,1,.43.838Zm1.562,7.9a1.26,1.26,0,0,1-.928-.317,1.215,1.215,0,0,1-.43-.838v-.226a1.293,1.293,0,0,1,.317-.928,1.312,1.312,0,0,1,.838-.43,1.26,1.26,0,0,1,.928.317,1.215,1.215,0,0,1,.43.838v.226a1.293,1.293,0,0,1-.317.928A1.133,1.133,0,0,1,73.307,242.644Zm2.717,7.471a1.265,1.265,0,0,1-.86-.272,1.151,1.151,0,0,1-.5-.249,1.312,1.312,0,0,1-.43-.838,1.26,1.26,0,0,1,.317-.928,1.215,1.215,0,0,1,.838-.43,2.38,2.38,0,0,1,.974.159,1.475,1.475,0,0,1,.815,1.2A1.267,1.267,0,0,1,76.024,250.115Zm66.449-15.622c-.475,1-2.309,1.472-3.215,1.9-1.7.792-3.419,1.562-5.117,2.355-2.083.951-4.1,1.992-6.226,2.807-2.9,1.087-5.864,1.97-8.852,2.807-3.124.86-6.271,1.7-9.35,2.717-3.1,1.041-6.158,2.264-9.192,3.441-2.581,1-5.207,1.9-7.743,3.034-1.562.7-3.758,1.992-5.524,1.54a1.28,1.28,0,0,1-.679-.408,1.069,1.069,0,0,1-.792-.566,3.851,3.851,0,0,1-.589-.974,1.748,1.748,0,0,1-.045-.34,84.258,84.258,0,0,1-5.841-17.772c-1.585-6.905-4.505-13.335-7.018-19.923a1.24,1.24,0,0,1,1.653-1.54,1.2,1.2,0,0,1,.475-.272c8.286-2.83,16.8-4.913,25.176-7.494a102.163,102.163,0,0,0,18.384-7.086c3.871-2.06,9.554-5.185,13.426-1.381,4.075,3.985,4.37,10.075,5.547,15.3.7,3.124,1.9,6.113,2.785,9.192,1.019,3.509,1.924,7.018,2.807,10.55a1.309,1.309,0,0,1-.113.928A1.14,1.14,0,0,1,142.473,234.494Zm1.97-24.655c1.607,0,1.789,2.49.181,2.49C143.016,212.306,142.835,209.839,144.442,209.839Zm.634,8.06a1.215,1.215,0,0,1-.43-.838v-.226a1.293,1.293,0,0,1,.317-.928,1.312,1.312,0,0,1,.838-.43,1.26,1.26,0,0,1,.928.317,1.215,1.215,0,0,1,.43.838v.226a1.293,1.293,0,0,1-.317.928,1.312,1.312,0,0,1-.838.43A1.228,1.228,0,0,1,145.076,217.9Zm-24.859-26.4c-.34.974-.7,1.947-1.041,2.943.657-.226,1.336-.453,1.992-.679A2.985,2.985,0,0,0,120.217,191.5Z" transform="translate(-10.299 -131.448)" fill="#febf10" />
        <path id="Path_579" data-name="Path 579" d="M167.468,116.8c-.045.068-.113.158-.2.317a2.053,2.053,0,0,1,.249-.362A.049.049,0,0,1,167.468,116.8Zm16.256-59.317c-9.758-4.913-20.6-7.109-30.768-11.026-9.871-3.781-19.086-9.1-28.979-12.86-.045.068-.091.113-.136.181-1.223,1.4-2.151,3.011-3.351,4.437A16.02,16.02,0,0,1,117,41.388c-1.992,1.336-4.46,2.9-6.973,2.83.679,2.626-1.245,5.524-3.509,7.132,1.109,2.943-.543,6.2-3.079,8.06a5.371,5.371,0,0,1-1.041,6.656c.226.408.521.77.77,1.155a1.1,1.1,0,0,1,.657.657c.815,1.97,2.377,3.464,3.305,5.388a17.912,17.912,0,0,1,1.245,6.068c1.743,1.4,3.849,1.924,5.909,2.6v.77l4.483-1.019c-1-.294-1.97-.589-2.966-.838-1.653-.408-4.188-.747-5.3-2.2a1.266,1.266,0,0,1-.272-.747,1.206,1.206,0,0,1-.294-.951,4.8,4.8,0,0,1,.113-1.132c.045-.113.113-.2.158-.294a84.175,84.175,0,0,1,6.339-17.591c2.988-6.407,4.664-13.29,6.724-20.014a1.248,1.248,0,0,1,2.264-.2,1.2,1.2,0,0,1,.543.068c8.286,2.875,16.278,6.475,24.451,9.6,6.113,2.355,12.384,4.619,18.859,5.728,4.324.747,10.709,1.789,11.433,7.177.747,5.66-2.762,10.618-5.049,15.486-.5,1.087-.951,2.2-1.381,3.305a2.256,2.256,0,0,1,1.29.43.865.865,0,0,1,.2.2c.158.045.294.091.475.158,1.313.611.521,2.513-.724,2.355a1.344,1.344,0,0,1-.091.181,4.139,4.139,0,0,0-.181.566,2.39,2.39,0,0,0-.068,1.2,3.684,3.684,0,0,0,2.785,2.377,1.29,1.29,0,0,1,1,.974,1.043,1.043,0,0,1,.838.249,1.18,1.18,0,0,1,.317.362c.068-.136.136-.249.2-.385a2.451,2.451,0,0,1,1.7-1.087,5.064,5.064,0,0,1,3.328-6,5.233,5.233,0,0,1,.408-5.683,6.087,6.087,0,0,1,1.743-1.4C183.27,69.462,180.848,63.032,183.723,57.485ZM106.475,67.47a1.261,1.261,0,0,1-1.721.34,1.235,1.235,0,0,1-.521-.747,1,1,0,0,1-.226-.521,1.225,1.225,0,0,1,.181-.928A1.29,1.29,0,0,1,105,65.07a1.335,1.335,0,0,1,.928.181,2.3,2.3,0,0,1,.679.724A1.588,1.588,0,0,1,106.475,67.47Zm2.581-7.743-.136.181a1.29,1.29,0,0,1-.815.543,1.225,1.225,0,0,1-.928-.181,1.29,1.29,0,0,1-.543-.815,1.335,1.335,0,0,1,.181-.928l.136-.181a1.29,1.29,0,0,1,.815-.543,1.225,1.225,0,0,1,.928.181,1.29,1.29,0,0,1,.543.815A1.118,1.118,0,0,1,109.056,59.727Zm1.9-6.837-.136.181a1.29,1.29,0,0,1-.815.543,1.225,1.225,0,0,1-.928-.181,1.29,1.29,0,0,1-.543-.815,1.335,1.335,0,0,1,.181-.928l.136-.181a1.29,1.29,0,0,1,.815-.543,1.225,1.225,0,0,1,.928.181,1.29,1.29,0,0,1,.543.815A1.134,1.134,0,0,1,110.958,52.889Zm.974-5.32c-1.268-.974.113-3.056,1.381-2.083C114.58,46.482,113.2,48.565,111.931,47.569ZM181.391,85.2l-.136.181a1.29,1.29,0,0,1-.815.543,1.225,1.225,0,0,1-.928-.181,1.29,1.29,0,0,1-.543-.815A1.335,1.335,0,0,1,179.15,84l.136-.181a1.29,1.29,0,0,1,.815-.543,1.225,1.225,0,0,1,.928.181,1.29,1.29,0,0,1,.543.815A1.206,1.206,0,0,1,181.391,85.2Zm.679-4.936c-1.268-.974.113-3.056,1.381-2.083S183.338,81.235,182.071,80.261Zm1.607-5.366c-1.268-.974.113-3.056,1.381-2.083C186.3,73.809,184.946,75.892,183.678,74.9ZM167.513,116.78l.045-.045Z" transform="translate(-38.69 -9.297)" fill="#febf10" />
        <path id="Path_580" data-name="Path 580" d="M161.28,252.792c.023-.023.023-.023.045-.023.023-.023.045-.023.045-.045C161.393,252.679,161.348,252.7,161.28,252.792Zm3.351-5.637a1.309,1.309,0,0,0,.113-.928c-.883-3.532-1.789-7.064-2.807-10.55-.883-3.079-2.083-6.068-2.785-9.192-1.2-5.23-1.472-11.32-5.547-15.3-3.871-3.8-9.554-.679-13.426,1.381-5.773,3.1-12.135,5.185-18.384,7.086-8.377,2.558-16.89,4.641-25.176,7.494a1.628,1.628,0,0,0-.475.272,1.236,1.236,0,0,0-1.653,1.54c2.513,6.588,5.434,13.018,7.018,19.923a84.257,84.257,0,0,0,5.841,17.772,1.748,1.748,0,0,0,.045.34,4.3,4.3,0,0,0,.589.974,1.109,1.109,0,0,0,.792.566,1.28,1.28,0,0,0,.679.408c1.789.453,3.962-.838,5.524-1.54,2.536-1.132,5.162-2.015,7.743-3.034,3.056-1.177,6.09-2.4,9.192-3.441,3.079-1.019,6.226-1.857,9.35-2.717,2.988-.838,5.954-1.721,8.852-2.807,2.128-.815,4.166-1.834,6.226-2.807,1.7-.792,3.419-1.562,5.117-2.355.906-.43,2.739-.906,3.215-1.9A1.14,1.14,0,0,0,164.631,247.155Zm-2.694.113c-.7.34-1.426.679-2.128,1l-4.619,2.106c-1.97.906-3.871,1.857-5.886,2.649-2.9,1.109-5.886,1.97-8.852,2.807-2.853.792-5.728,1.585-8.558,2.468-3.1,1-6.135,2.2-9.169,3.4-2.468.974-5,1.811-7.426,2.853-1.019.43-2.015.906-3.056,1.313a4.942,4.942,0,0,1-2.2.611,76.574,76.574,0,0,1-6.158-18.452c-1.426-6.407-4.1-12.452-6.475-18.542a.083.083,0,0,0,.068-.023c12.95-4.437,26.489-7.064,39.122-12.452,2.536-1.087,4.936-2.445,7.4-3.645,1.947-.951,4.437-2.038,6.611-1.223,2.4.906,3.577,3.962,4.279,6.2.86,2.694,1.223,5.547,1.811,8.309.679,3.215,1.879,6.271,2.807,9.418.951,3.17,1.766,6.385,2.581,9.6a1.225,1.225,0,0,0,.226,1.426C162.163,247.155,162.072,247.2,161.937,247.268Z" transform="translate(-32.502 -145.287)" fill="#010101" />
        <path id="Path_581" data-name="Path 581" d="M98.348,285.86c-1.9-5.864-4.483-11.479-6.52-17.3a30.106,30.106,0,0,0,3.713-1.041c1.494-.566.679-2.921-.815-2.355-2.445.928-5.094,1.132-7.471,2.264a1.25,1.25,0,0,0-.181,2.241c.7.928,2.287.521,2.355-.453h.023c1.856,5.388,4.211,10.6,6.068,15.984a1.109,1.109,0,0,0,.181,1.064c.158.226.294.453.453.679A1.238,1.238,0,0,0,98.348,285.86Zm8.15-4.075c-1.336-3.215-2.83-6.452-3.849-9.781-.838-2.739-1.63-5.705-3.555-7.924-1.041-1.2-3.1.181-2.06,1.4,1.789,2.06,2.49,4.822,3.26,7.358,1.019,3.328,2.513,6.566,3.849,9.781C104.755,284.094,107.11,283.279,106.5,281.785Zm10.913-3.758H117a1.191,1.191,0,0,0-.589.136c-1.517.408-3.011,1.472-4.573.906-1.155-.408-1.675-1.766-2.106-2.807a36.664,36.664,0,0,1-1.2-3.781c-.566-2.038-1.449-3.985-1.992-6.045a3.547,3.547,0,0,1,.158-2.921,2.123,2.123,0,0,1,2.536-.34c1.313.906,2.966-.951,1.653-1.879-2.355-1.653-6.045-.838-6.86,2.105-.792,2.853.86,5.66,1.7,8.286.928,2.988,1.426,6.86,3.962,8.965a4.9,4.9,0,0,0,3.826.906,12.409,12.409,0,0,0,2.015-.475,8.344,8.344,0,0,1,2.06-.634C119.2,280.494,119,278.027,117.411,278.027Zm10.007-1.743s-.2-.34-.317-.566c-.272-.566-.521-1.155-.77-1.721a28.67,28.67,0,0,0-1.63-3.079,8.984,8.984,0,0,0-3.894-3.894c1.245-2.83,1.155-6.068,1.132-9.169,0-1.607-2.49-1.4-2.49.181,0,2.762.272,6.022-1.177,8.513-.317-.86-.657-1.7-1-2.558a12.791,12.791,0,0,1-1.041-3.464c0-.068.023-.136.023-.2v-.679c0-1.4-2.377-1.539-2.468-.136v.34h0v.679a1.994,1.994,0,0,0,.045.385c.249,2.377,1.426,4.664,2.241,6.883.611,1.653,1.109,3.373,1.7,5.049.317.906.634,1.789,1,2.672.158.385.317.77.475,1.177A8.866,8.866,0,0,1,119.9,278c0,1.607,2.49,1.4,2.49-.181v-.475a1.061,1.061,0,0,0-.543-.974c-.091-.181-.181-.34-.249-.5-.385-.883-.724-1.789-1.064-2.694-.5-1.336-.928-2.672-1.381-4.007,2.038.091,3.192,2.717,4.121,4.211a22.4,22.4,0,0,1,1.245,2.694,4.892,4.892,0,0,0,1.245,2.083C127.056,279.091,128.709,277.234,127.418,276.283Zm7.607-2.2a1.285,1.285,0,0,0-1.585-.77c-.611.136-1.223.34-1.834.475-.951-2.921-1.856-5.864-2.649-8.807a13.167,13.167,0,0,0-.475-1.426c.2-.045.43-.091.634-.136a6.5,6.5,0,0,1,.7-.113c.068,0,.113-.023.181-.023a1.179,1.179,0,0,0,1.109.181,1.246,1.246,0,0,0,.77-1.585c-.883-1.789-2.9-.86-4.46-.634a27.432,27.432,0,0,1-1.607-3.645,1.258,1.258,0,0,0,1.041-.634,2.774,2.774,0,0,1,1.313-.747,1.233,1.233,0,0,0,1.675-.113,2.784,2.784,0,0,0,.747-1.268c.158-.724-.521-1.653-1.313-1.472-1.675.34-3.713.928-4.641,2.49a1.375,1.375,0,0,0-1.426,1.653c.7,2.966,2.558,5.456,3.441,8.332.974,3.17,1.856,6.362,2.875,9.509a1.233,1.233,0,0,0,1.29,1.109,18.784,18.784,0,0,0,3.487-.747A1.336,1.336,0,0,0,135.025,274.087Zm7.7-3.4c-1.2-3.215-1.9-6.588-3.056-9.8a40.719,40.719,0,0,0-3.011-7.584,12.389,12.389,0,0,1,1.811-.43c1.585-.226,1.4-2.717-.181-2.49a29.534,29.534,0,0,0-5.977,1.879,1.254,1.254,0,0,0,.5,2.423h.453a1.061,1.061,0,0,0,.951-.5c.023-.023.068-.023.091-.045a.917.917,0,0,0,.113.2c1.472,2.309,2.106,5.094,3.034,7.63,1.132,3.124,1.766,6.407,2.943,9.509A1.232,1.232,0,0,0,142.723,270.691ZM76.7,272.14c-1.607,0-1.4,2.49.181,2.49C78.493,274.608,78.289,272.14,76.7,272.14Zm2.264,6.407a1.26,1.26,0,0,0-.928-.317,1.215,1.215,0,0,0-.838.43,1.363,1.363,0,0,0-.317.928v.226a1.215,1.215,0,0,0,.43.838,1.26,1.26,0,0,0,.928.317,1.215,1.215,0,0,0,.838-.43,1.363,1.363,0,0,0,.317-.928v-.226A1.263,1.263,0,0,0,78.968,278.547Zm2.717,6.566a1.26,1.26,0,0,0-.928-.317,1.215,1.215,0,0,0-.838.43,1.363,1.363,0,0,0-.317.928v.226a1.215,1.215,0,0,0,.43.838,1.26,1.26,0,0,0,.928.317,1.215,1.215,0,0,0,.838-.43,1.362,1.362,0,0,0,.317-.928v-.226A1.263,1.263,0,0,0,81.685,285.113Zm2.332,7.335a2.056,2.056,0,0,0-.974-.159,1.215,1.215,0,0,0-.838.43,1.26,1.26,0,0,0-.317.928,1.215,1.215,0,0,0,.43.838,1.15,1.15,0,0,0,.5.249,1.3,1.3,0,0,0,.86.272,1.26,1.26,0,0,0,1.155-1.336A1.478,1.478,0,0,0,84.017,292.448ZM150.058,249.5c-1.607,0-1.4,2.49.181,2.49C151.847,251.968,151.643,249.5,150.058,249.5Zm2.038,5.207c-1.607,0-1.4,2.49.181,2.49C153.884,257.175,153.681,254.707,152.1,254.707Zm2.264,5.954a1.26,1.26,0,0,0-.928-.317,1.215,1.215,0,0,0-.838.43,1.362,1.362,0,0,0-.317.928v.226a1.215,1.215,0,0,0,.43.838,1.26,1.26,0,0,0,.928.317,1.215,1.215,0,0,0,.838-.43,1.363,1.363,0,0,0,.317-.928V261.5A1.263,1.263,0,0,0,154.36,260.662Z" transform="translate(-17.952 -176.317)" fill="#010101" />
        <path id="Path_582" data-name="Path 582" d="M152.391,64.942a1.825,1.825,0,0,0-.272-.408,1.559,1.559,0,0,0-.045-.294,3.14,3.14,0,0,0-1.223-1.54,15.262,15.262,0,0,1-3.939-5.683,9.237,9.237,0,0,1,.815-8.513,1.237,1.237,0,0,0-.679-1.856,1.356,1.356,0,0,0-.385-.43l-.362-.272a1.083,1.083,0,0,0-.724-.249c-9.6-4.664-20.127-6.973-30.111-10.731-10.3-3.871-19.855-9.509-30.179-13.312a1.236,1.236,0,0,0-1.426.5l-.272.362c-.045.045-.068.113-.113.158-2.06,2.355-3.509,5.207-6.068,7.041-1.789,1.29-4.256,3.034-6.588,2.649a1.045,1.045,0,0,0-1.177.611,1.444,1.444,0,0,0-1.155.838,3.114,3.114,0,0,0-.113,1.449,1.03,1.03,0,0,0,.679.928c-.091,1.7-2.219,3.668-3.4,4.256a1.285,1.285,0,0,0-.408,1.947c1.562,2.219-.838,5.207-2.785,6.2a1.274,1.274,0,0,0-.408,1.947c1.132,1.358,1.426,3.713-.408,4.619a1.261,1.261,0,0,0-.679,1.358,4.279,4.279,0,0,0,.792,1.721c.294.43.86.928.77,1.472a1.035,1.035,0,0,0,1.019,1.268c.747,1.29,1.721,2.445,2.468,3.758,1.064,1.879,1.019,4.075,1.245,6.181a1.093,1.093,0,0,0,.679.928l.023.023a12.755,12.755,0,0,0,4.166,2.309c-4.709,1.041-9.373,2.151-13.969,3.622a1.271,1.271,0,0,0-.838,1.268v.453a.627.627,0,0,0,.023.2c-.181,3.1.453,6.249-.43,9.282-.611,2.106-1.494,5-3.554,6.135a1.027,1.027,0,0,0-.543,1.2,1.409,1.409,0,0,0-.385,1.381,2.91,2.91,0,0,0,.815,1.2,1.05,1.05,0,0,0,1.109.317c.974,1.381.521,4.256-.045,5.456a1.264,1.264,0,0,0,.883,1.766c2.6.792,2.558,4.619,1.607,6.611a1.234,1.234,0,0,0,.883,1.766c1.721.385,3.4,2.06,2.513,3.894a1.246,1.246,0,0,0,.294,1.494,4.772,4.772,0,0,0,1.675.883c.5.158,1.245.2,1.494.7a1.022,1.022,0,0,0,1.585.362c1.381.543,2.875.86,4.256,1.449,1.992.815,3.305,2.6,4.777,4.1a1,1,0,0,0,1.109.294h.023c2.717.158,5.3-.906,7.766-1.856,2.943-1.109,6.045-1.879,9.056-2.807,2.921-.883,5.8-1.9,8.739-2.762,2.853-.838,5.728-1.562,8.581-2.4a77.253,77.253,0,0,0,8.354-2.853c1.834-.747,3.577-1.7,5.366-2.49,1.54-.679,3.056-1.381,4.573-2.106.475-.226,1.245-.475,1.879-.838a1.159,1.159,0,0,0,.815-.226,12.679,12.679,0,0,1,4.46-2.128,1.281,1.281,0,0,0,.838-1.268,26.92,26.92,0,0,1,4.211-13.561,1.394,1.394,0,0,0,.226-1.132,2.85,2.85,0,0,0,1.313-1.4,1.246,1.246,0,0,0-.294-1.494c-.385-.272-.838-.453-1.2-.724-.43-.34.906-1.064,1.064-1.155a1.216,1.216,0,0,0,.543-1.132v-.226a1.252,1.252,0,0,0-1-1.132,2.35,2.35,0,0,1-.7-.249c.2-.068.408-.136.589-.2a1.476,1.476,0,0,0,.883-.747,2.688,2.688,0,0,0,1.879-.294,1.246,1.246,0,0,0,.679-1.358c-.136-.43-.385-.883-.475-1.313-.136-.543,1.358-.272,1.54-.249a1.263,1.263,0,0,0,1.132-.543l.136-.181a1.3,1.3,0,0,0-.091-1.517,2.159,2.159,0,0,1,0-3.079c.974-1.019,2.513-.724,3.351-1.766a1.3,1.3,0,0,0-.091-1.517,3.741,3.741,0,0,1-.747-3.6,2.18,2.18,0,0,1,.792-.906,3.857,3.857,0,0,1,.5-.34,1.344,1.344,0,0,0,.181-.091C151.259,67.251,153.071,66.255,152.391,64.942Zm-13.9,25.674a1.1,1.1,0,0,0-.883,1.472,30.129,30.129,0,0,0-4.1,13.267,14.262,14.262,0,0,0-3.69,1.789,1.2,1.2,0,0,0-.951.249l-.045.045a1.132,1.132,0,0,0-.249.362.954.954,0,0,1,.2-.317.369.369,0,0,1-.136.068,4.79,4.79,0,0,1-.475.249c-.634.317-1.245.611-1.879.906-1.4.657-2.83,1.313-4.256,1.924-1.9.838-3.713,1.811-5.615,2.581a82.7,82.7,0,0,1-7.992,2.672c-2.717.792-5.479,1.494-8.2,2.287-2.807.815-5.547,1.766-8.332,2.626-2.921.906-5.864,1.766-8.784,2.672-2.49.792-4.777,2.015-7.426,1.992a17.38,17.38,0,0,0-4.709-4.007c-1.9-.928-4.053-1.155-5.909-2.219a1.157,1.157,0,0,0-.928-.113c-.43-.136-.883-.249-1.313-.43a5.39,5.39,0,0,0-3.283-5.886c.86-3.011.158-6.634-2.536-8.264.792-2.649.521-6.135-1.63-7.766,2.038-1.472,3.011-4.234,3.758-6.52a16.1,16.1,0,0,0,.792-4.641c.045-1.856-.2-3.713-.113-5.569v-.226c10.1-3.147,20.625-4.619,30.745-7.7,9.622-2.943,18.837-7.4,28.64-9.735h1.087a1.277,1.277,0,0,0,.091-.272c.385-.091.792-.181,1.2-.249,1.155,6.158,7.018,9.713,13.018,10.279a6.139,6.139,0,0,0-.5,2.173,5.265,5.265,0,0,0,3.192,4.732,5.068,5.068,0,0,0,1.064,6.792,2.435,2.435,0,0,0-.657,1.9c.023.136.045.294.068.43a1.48,1.48,0,0,0-.475-.091c-1.607,0-1.4,2.49.181,2.49a1.009,1.009,0,0,0,1.064-.815c.045.023.068.068.113.091A2.459,2.459,0,0,0,138.49,90.616ZM136.521,57a28.594,28.594,0,0,0-5.864-2.2,1.251,1.251,0,0,0-1.087,2.219l.362.272a1.08,1.08,0,0,0,1.041.2c.023,0,.068.023.091.023-.023.068-.023.136-.045.226-.249,2.717-1.472,5.3-2.309,7.879-.2.611-.43,1.2-.657,1.811a9.233,9.233,0,0,1-3.781-5.049.7.7,0,0,0,.136-.294,1.722,1.722,0,0,0-.5-1.721,1.212,1.212,0,0,0-1.426-.928,11.415,11.415,0,0,1-1.177-.611,28.489,28.489,0,0,1,.974-3.871,1.232,1.232,0,0,0,1.2.136,2.978,2.978,0,0,1,1.494.2,1.258,1.258,0,0,0,1.4.951,2.48,2.48,0,0,0,1.358-.543,1.246,1.246,0,0,0-.136-1.97c-1.54-.747-3.487-1.562-5.185-.883a1.391,1.391,0,0,0-2.151.43c-1,2.173-1.268,4.528-1.834,6.815-1.743.43-3.464.928-5.185,1.449a6.241,6.241,0,0,0-.7-2.2c2.739-1.472,4.641-4.075,6.543-6.52,1-1.268-1.087-2.649-2.083-1.381-1.7,2.173-3.487,4.913-6.158,6,.272-.86.521-1.743.792-2.626a12.569,12.569,0,0,1,1.313-3.373.984.984,0,0,0,.136-.158l.408-.543c.86-1.109-.928-2.672-1.856-1.63a2.4,2.4,0,0,1-.2.249h0l-.408.543a.832.832,0,0,0-.181.34c-1.268,2.038-1.743,4.551-2.468,6.815-.543,1.7-1.2,3.351-1.766,5.026-.226.634-.43,1.29-.634,1.924-1.245.453-2.468.906-3.713,1.381h-.023c-1.449-.611-3.26-.7-4.166-2.106-.657-1.019-.226-2.422.068-3.487a36.581,36.581,0,0,1,1.381-3.713c.815-1.97,1.313-4.03,2.151-5.977a3.577,3.577,0,0,1,1.924-2.2,2.149,2.149,0,0,1,2.219,1.29c.453,1.517,2.921,1.064,2.445-.453-.838-2.739-4.234-4.392-6.7-2.558-2.377,1.766-2.807,4.981-3.781,7.584-1.087,2.921-3.1,6.271-2.377,9.509a5,5,0,0,0,2.468,3.079,8.686,8.686,0,0,0,.792.408c-2.785,1.041-5.592,2.038-8.422,2.921-1.766.543-3.555,1.064-5.366,1.517-1.9-.611-3.781-1.223-5.705-1.743-1.064-.294-2.151-.543-3.215-.838a5.306,5.306,0,0,1-2.106-.86,77.589,77.589,0,0,1,6.5-18.338c2.807-5.932,4.415-12.339,6.317-18.61.023,0,.045.023.068.023,12.927,4.483,25.221,10.731,38.488,14.263,2.672.7,5.388,1.109,8.083,1.7,2.106.453,4.754,1.132,5.954,3.1,1.336,2.2.385,5.32-.43,7.539-1,2.649-2.445,5.117-3.69,7.652a44.213,44.213,0,0,0-1.834,4.415,2.632,2.632,0,0,1-.408-.091,14.033,14.033,0,0,1-2.558-.815c.317-.815.634-1.653.906-2.49.86-2.581,1.97-5.117,2.309-7.833a12.6,12.6,0,0,1,1.675.77C136.543,59.848,137.924,57.788,136.521,57Zm-25.629,5.3c-.657.226-1.336.453-1.992.679.34-.974.679-1.947,1.041-2.943A3.238,3.238,0,0,1,110.892,62.293Zm-10.369,3.758c-.453.158-.906.34-1.358.5v-.5ZM140.664,81.2a1.1,1.1,0,0,0-1.607.611l-.136.068v-.023a3.184,3.184,0,0,1,.7-1.562.911.911,0,0,0,.294.294,1.059,1.059,0,0,0,1.358.023c0,.045.023.091.023.158A1.273,1.273,0,0,0,140.664,81.2Zm6.566-15.486a5.278,5.278,0,0,0-.408,5.683,5.023,5.023,0,0,0-3.328,6,2.528,2.528,0,0,0-1.7,1.087,3.163,3.163,0,0,0-.2.385,1.18,1.18,0,0,0-.317-.362,1.022,1.022,0,0,0-.838-.249,1.26,1.26,0,0,0-1-.974,3.684,3.684,0,0,1-2.785-2.377,2.4,2.4,0,0,1,.068-1.2,4.141,4.141,0,0,1,.181-.566,1.344,1.344,0,0,1,.091-.181,1.257,1.257,0,0,0,.724-2.355,1.956,1.956,0,0,0-.475-.158l-.2-.2a2.436,2.436,0,0,0-1.29-.43c.43-1.109.86-2.241,1.381-3.305,2.287-4.868,5.8-9.826,5.049-15.486-.724-5.388-7.109-6.43-11.433-7.177-6.475-1.109-12.746-3.373-18.859-5.728-8.173-3.147-16.165-6.747-24.451-9.6a1.129,1.129,0,0,0-.543-.068,1.248,1.248,0,0,0-2.264.2c-2.083,6.724-3.736,13.607-6.724,20.014a84.175,84.175,0,0,0-6.339,17.591,1.22,1.22,0,0,0-.158.294,3.217,3.217,0,0,0-.113,1.132,1.109,1.109,0,0,0,.294.951,1.266,1.266,0,0,0,.272.747c1.132,1.449,3.645,1.789,5.3,2.2,1,.249,1.992.543,2.966.838l-4.483,1.019v-.815c-2.083-.679-4.166-1.223-5.909-2.6a18.025,18.025,0,0,0-1.245-6.068c-.928-1.9-2.49-3.419-3.305-5.388a1.046,1.046,0,0,0-.657-.657c-.249-.385-.543-.747-.77-1.155A5.376,5.376,0,0,0,64.8,50.09c2.536-1.856,4.188-5.117,3.079-8.06,2.241-1.607,4.188-4.505,3.509-7.132,2.513.091,4.981-1.494,6.973-2.83a15.469,15.469,0,0,0,3.487-3.17c1.177-1.426,2.106-3.056,3.351-4.437a1.256,1.256,0,0,0,.136-.181c9.894,3.736,19.108,9.079,28.979,12.86,10.165,3.894,21.01,6.113,30.768,11.026-2.875,5.569-.453,11.977,3.939,16.12A6.447,6.447,0,0,0,147.229,65.712Z" transform="translate(0 0)" fill="#010101" />
        <path id="Path_583" data-name="Path 583" d="M137.036,90.916c-2.49-.77-4.709-2.241-7.29-2.807a1.246,1.246,0,0,0-1.517,1.653c-.023,1.177,1.472,1.811,2.128,1.109h.023c-1.856,5.388-3.192,10.935-5.049,16.346a1.126,1.126,0,0,0-.521.951c0,.272-.045.543-.068.815a1.249,1.249,0,0,0,2.422.475c2.106-5.8,3.532-11.8,5.524-17.637a28.833,28.833,0,0,0,3.577,1.449A1.239,1.239,0,0,0,137.036,90.916Zm4.143,1.834c-.068-1.585-2.558-1.766-2.49-.181.136,2.717-1,5.32-1.97,7.811-1.245,3.238-2.06,6.724-2.988,10.075-.43,1.54,1.924,2.355,2.355.792.928-3.351,1.743-6.815,2.988-10.075C140.115,98.5,141.315,95.67,141.18,92.75ZM118.562,85.3c-1.268-1-2.626,1.087-1.381,2.083C118.449,88.357,119.83,86.275,118.562,85.3Zm-2.151,6.452a1.32,1.32,0,0,0-.543-.815,1.225,1.225,0,0,0-.928-.181,1.42,1.42,0,0,0-.815.543l-.136.181a1.225,1.225,0,0,0-.181.928,1.32,1.32,0,0,0,.543.815,1.225,1.225,0,0,0,.928.181,1.42,1.42,0,0,0,.815-.543l.136-.181A1.335,1.335,0,0,0,116.411,91.753Zm-1.9,6.837a1.32,1.32,0,0,0-.543-.815,1.225,1.225,0,0,0-.928-.181,1.42,1.42,0,0,0-.815.543l-.136.181a1.225,1.225,0,0,0-.181.928,1.32,1.32,0,0,0,.543.815,1.225,1.225,0,0,0,.928.181,1.42,1.42,0,0,0,.815-.543l.136-.181A1.311,1.311,0,0,0,114.51,98.591Zm-2.694,7.222a2.084,2.084,0,0,0-.679-.724,1.225,1.225,0,0,0-.928-.181,1.32,1.32,0,0,0-.815.543,1.225,1.225,0,0,0-.181.928,1.352,1.352,0,0,0,.226.521,1.235,1.235,0,0,0,.521.747,1.261,1.261,0,0,0,1.721-.34A1.393,1.393,0,0,0,111.815,105.813Zm78.493,6.792c-1.268-1-2.626,1.087-1.381,2.083C190.2,115.684,191.554,113.6,190.309,112.6Zm-1.607,5.366c-1.268-1-2.626,1.087-1.381,2.083C188.588,121.027,189.969,118.944,188.7,117.971Zm-1.879,6.113a1.32,1.32,0,0,0-.543-.815,1.225,1.225,0,0,0-.928-.181,1.42,1.42,0,0,0-.815.543l-.136.181a1.225,1.225,0,0,0-.181.928,1.32,1.32,0,0,0,.543.815,1.225,1.225,0,0,0,.928.181,1.42,1.42,0,0,0,.815-.543l.136-.181A1.245,1.245,0,0,0,186.822,124.083Z" transform="translate(-43.94 -49.089)" fill="#010101" />
    </g>
</svg>  