<svg xmlns="http://www.w3.org/2000/svg" width="18.945" height="18.968" viewBox="0 0 18.945 18.968">
  <path id="icons8_edit_property" d="M2.2,0A2.2,2.2,0,0,0,0,2.2V15.376a2.2,2.2,0,0,0,2.2,2.2h6.91l.412-1.464H2.2a.734.734,0,0,1-.732-.732V2.929H16.108V9.106a2.322,2.322,0,0,1,1.464-.183V2.2a2.2,2.2,0,0,0-2.2-2.2ZM3.661,5.857V7.322H5.125V5.857Zm2.929,0V7.322h7.322V5.857ZM3.661,8.786V10.25H5.125V8.786Zm2.929,0V10.25h7.322V8.786Zm10.456,1.533a.773.773,0,0,0-.549.229l-.892.892,2.219,2.242.892-.915a.774.774,0,0,0,0-1.1l-1.1-1.121A.818.818,0,0,0,17.046,10.319Zm-13.385,1.4v1.464H5.125V11.715Zm2.929,0v1.464h5.194l1.464-1.464Zm8.26.435-3.615,3.592a.344.344,0,0,0-.114.16l-.778,2.654a.329.329,0,0,0,.092.32.315.315,0,0,0,.229.092.331.331,0,0,0,.092-.023l2.631-.778a.32.32,0,0,0,.16-.092l3.615-3.592Zm-3.135,4.073,1.121.229.229,1.144-1.487.435-.3-.32Z"/>
</svg>
