<svg xmlns="http://www.w3.org/2000/svg" width="16.617" height="20.116" viewBox="0 0 16.617 20.116">
    <path id="icons8_elevator_doors" d="M6.437,2A.437.437,0,0,0,6,2.437V21.678a.437.437,0,0,0,.437.437H22.18a.437.437,0,0,0,.437-.437V2.437A.437.437,0,0,0,22.18,2Zm.437.875H21.743V21.241h-.875V6.373a.437.437,0,0,0-.437-.437H8.186a.437.437,0,0,0-.437.437V21.241H6.875ZM13,3.749l-.875,1.312h1.749Zm1.749,0,.875,1.312L16.5,3.749ZM8.624,6.81h5.248V21.241H8.624Zm6.122,0h5.248V21.241H14.746Z" transform="translate(-6 -2)" fill="#989898"/>
</svg>  