<svg xmlns="http://www.w3.org/2000/svg" width="44" height="55" viewBox="0 0 44 55">
  <path id="icons8_password" d="M30,4A11.031,11.031,0,0,0,19,15v5.5H14.188A6.219,6.219,0,0,0,8,26.688V52.813A6.219,6.219,0,0,0,14.188,59H45.813A6.219,6.219,0,0,0,52,52.813V26.688A6.219,6.219,0,0,0,45.813,20.5H41V15A11.031,11.031,0,0,0,30,4Zm0,4.125A6.844,6.844,0,0,1,36.875,15v5.5H23.125V15A6.844,6.844,0,0,1,30,8.125Zm-15.812,16.5H45.813a2.032,2.032,0,0,1,2.063,2.063V52.813a2.032,2.032,0,0,1-2.062,2.063H14.188a2.032,2.032,0,0,1-2.062-2.062V26.688A2.032,2.032,0,0,1,14.188,24.625ZM20.375,37a2.75,2.75,0,1,0,2.75,2.75A2.75,2.75,0,0,0,20.375,37ZM30,37a2.75,2.75,0,1,0,2.75,2.75A2.75,2.75,0,0,0,30,37Zm9.625,0a2.75,2.75,0,1,0,2.75,2.75A2.75,2.75,0,0,0,39.625,37Z" transform="translate(-8 -4)" fill="#000941"/>
</svg>
