<svg id="icons8_mail_2" xmlns="http://www.w3.org/2000/svg" xmlns:xlink="http://www.w3.org/1999/xlink" width="76.193" height="76.193" viewBox="0 0 76.193 76.193">
  <defs>
    <radialGradient id="radial-gradient" cx="0.5" cy="0.5" r="0.5" gradientTransform="matrix(1, 0, 0, -1, 0, 1.063)" gradientUnits="objectBoundingBox">
      <stop offset="0" stop-color="#989898"/>
      <stop offset="1" stop-color="#f2f2f2"/>
    </radialGradient>
    <linearGradient id="linear-gradient" x1="0.5" y1="-0.206" x2="0.5" y2="1.324" gradientUnits="objectBoundingBox">
      <stop offset="0" stop-color="#fe2f70"/>
      <stop offset="1" stop-color="#fd843d"/>
    </linearGradient>
  </defs>
  <path id="Path_437" data-name="Path 437" d="M3.572,3.572A3.572,3.572,0,1,1,7.143,7.143,3.571,3.571,0,0,1,3.572,3.572ZM71.431,69.05A3.572,3.572,0,1,0,75,72.622,3.571,3.571,0,0,0,71.431,69.05Zm.36-17.858H52.383V42.859H70.036a4.9,4.9,0,0,0,4.944-4.294,4.762,4.762,0,0,0-4.739-5.23H52.383V23.81H71.226a4.9,4.9,0,0,0,4.944-4.294,4.762,4.762,0,0,0-4.739-5.23H55.954a3.572,3.572,0,0,1,0-7.143h2.417a3.537,3.537,0,0,0,3.536-3.537V3.537A3.537,3.537,0,0,0,58.371,0H17.822a3.537,3.537,0,0,0-3.536,3.537v.07a3.536,3.536,0,0,0,3.536,3.536h1.821a4.167,4.167,0,0,1,0,8.334H4.4a4.326,4.326,0,0,0-4.4,3.943A4.166,4.166,0,0,0,4.167,23.81H23.81v5.953H5.953a4.762,4.762,0,0,0,0,9.524H23.81v9.524H4.967A4.9,4.9,0,0,0,.023,53.1a4.763,4.763,0,0,0,4.739,5.231H16.667A4.762,4.762,0,0,1,21.429,63.1v1.191a4.762,4.762,0,0,1-4.762,4.762H15.609a3.658,3.658,0,0,0-3.636,2.864,3.575,3.575,0,0,0,3.5,4.279H60.584a3.658,3.658,0,0,0,3.636-2.864,3.575,3.575,0,0,0-3.5-4.279H59.526a4.762,4.762,0,0,1,0-9.524h12.5a4.166,4.166,0,0,0,4.161-4.391A4.326,4.326,0,0,0,71.791,51.192Z" transform="translate(0)" fill="url(#radial-gradient)"/>
  <path id="Path_438" data-name="Path 438" d="M19.905,8H53.24A11.9,11.9,0,0,1,65.145,19.905V53.24A11.9,11.9,0,0,1,53.24,65.145H19.905A11.9,11.9,0,0,1,8,53.24V19.905A11.9,11.9,0,0,1,19.905,8Z" transform="translate(1.524 1.524)" fill="url(#linear-gradient)"/>
  <path id="Path_439" data-name="Path 439" d="M26.536,31.828,14.286,46.114a3.654,3.654,0,0,1-.286-1.4V23.28a3.576,3.576,0,0,1,.452-1.75Z" transform="translate(2.667 4.102)" fill="#fff"/>
  <path id="Path_440" data-name="Path 440" d="M33.385,35.132,15.92,20.25A3.3,3.3,0,0,1,17.206,20H52.921a3.4,3.4,0,0,1,1.345.274L37.933,35.06A3.544,3.544,0,0,1,33.385,35.132Z" transform="translate(3.033 3.81)" fill="#fff"/>
  <path id="Path_441" data-name="Path 441" d="M42.587,31.922l12.048,14.06a3.508,3.508,0,0,1-1.655.4H17.265a3.508,3.508,0,0,1-1.655-.4L28.039,31.47,31.9,34.756a5.87,5.87,0,0,0,3.786,1.393,5.8,5.8,0,0,0,3.9-1.512Z" transform="translate(2.974 5.996)" fill="#fff"/>
  <path id="Path_442" data-name="Path 442" d="M51.953,23.272V44.7a3.654,3.654,0,0,1-.286,1.4L39.75,32.213,51.524,21.57A3.541,3.541,0,0,1,51.953,23.272Z" transform="translate(7.573 4.11)" fill="#fff"/>
</svg>
