<svg xmlns="http://www.w3.org/2000/svg" width="30.05" height="18.129" viewBox="0 0 30.05 18.129">
    <g id="icons8_tripadvisor" transform="translate(0.005 -9.017)">
      <path id="Path_419" data-name="Path 419" d="M13.35,12.915a10.778,10.778,0,0,1,4.179-1.327c.57-.036,1.476-.13,2.047-.116a12.067,12.067,0,0,1,5.693,1.393,8.418,8.418,0,0,0-3.488,2.065c-1.161,1.379-2.033,3.763-1.9,4.624-.377-1.792-.964-3.538-2.6-4.627A12.053,12.053,0,0,0,13.35,12.915Z" transform="translate(-4.997 -0.918)" fill="#f3ad20"/>
      <path id="Path_420" data-name="Path 420" d="M36.269,15.332a6.872,6.872,0,0,0-3.354-1.745,7.219,7.219,0,0,0-8.244,3.552,7.876,7.876,0,0,0,1.53,8.8,7.977,7.977,0,0,0,5.393,2.491,6.227,6.227,0,0,0,5.273-2.5,9.409,9.409,0,0,0,1.071-2.362c.613-1.817,1.127-3.83.369-5.6A9.213,9.213,0,0,0,36.269,15.332Z" transform="translate(-8.956 -1.605)" fill="#d6e5e5"/>
      <path id="Path_421" data-name="Path 421" d="M14.793,18.8c-.616-1.948-2.645-3.537-4.491-4.4a6.607,6.607,0,0,0-2.85-.695,6,6,0,0,0-3.271,1.068A8.571,8.571,0,0,0,.6,20.01a6.33,6.33,0,0,0,2.064,5.907,8.835,8.835,0,0,0,3.584,1.669,7.984,7.984,0,0,0,4.347.107,6.332,6.332,0,0,0,3.777-3.759A7.394,7.394,0,0,0,14.793,18.8Z" transform="translate(-0.186 -1.752)" fill="#d6e5e5"/>
      <path id="Path_422" data-name="Path 422" d="M29.532,16.556a3.99,3.99,0,0,0-.879-1.416,11.928,11.928,0,0,1,1.213-3.083,22.426,22.426,0,0,1-3.9.277,4.877,4.877,0,0,1-1-.1,6.2,6.2,0,0,1-1.2-.479,22.051,22.051,0,0,0-9.056-2.236,16.2,16.2,0,0,0-9.1,2.649c-1-.118-2.476.039-3.477-.079a3.72,3.72,0,0,0-1.292,0c-.114.027-.241.079-.275.192a.383.383,0,0,0,.074.29c.7,1.219,1.225,1.756,1.044,3.148A10.814,10.814,0,0,0,.6,18.444a6.382,6.382,0,0,0,2.035,5.907A8.657,8.657,0,0,0,6.169,26.02a7.767,7.767,0,0,0,4.286.107,5.776,5.776,0,0,0,2.894-2.237c.509.771,1.142,1.654,1.591,2.371.038.06.088.128.156.125a.2.2,0,0,0,.122-.078,11.663,11.663,0,0,0,1.618-2.18c.116.136.235.269.36.4a8.2,8.2,0,0,0,5.5,2.491,6.39,6.39,0,0,0,5.373-2.5,9.306,9.306,0,0,0,1.091-2.362C29.78,20.335,30.3,18.322,29.532,16.556ZM10.276,11.4a14.342,14.342,0,0,1,4.808-.653,12.033,12.033,0,0,1,5.187,1.389,7.368,7.368,0,0,0-4.635,3.579,6.928,6.928,0,0,0-.751,3.345l-.009,0a6.253,6.253,0,0,0-.282-1.829c-.607-1.948-2.608-3.537-4.428-4.4a7.13,7.13,0,0,0-2-.632A7.079,7.079,0,0,0,10.276,11.4Zm-.13,13.469a6.136,6.136,0,0,1-3.973,0A8.119,8.119,0,0,1,2.855,22.7a4.876,4.876,0,0,1-.695-.895,4.359,4.359,0,0,1-.387-2.956,5.869,5.869,0,0,1,1.866-3.239,5.679,5.679,0,0,1,2.158-1.6,5.038,5.038,0,0,1,1.171-.141,7.748,7.748,0,0,1,3.622.78,5.907,5.907,0,0,1,2.61,2.515,3.818,3.818,0,0,1,.359.986A5.457,5.457,0,0,1,13.6,19.61a8.273,8.273,0,0,1-.387,2.212A5.154,5.154,0,0,1,10.146,24.874Zm17.263-2.137a4.559,4.559,0,0,1-1.062,1.613,4.234,4.234,0,0,1-1.481.78,6.218,6.218,0,0,1-1.527.332,5.481,5.481,0,0,1-2.622-.518,7.116,7.116,0,0,1-4.05-5.475,4.4,4.4,0,0,1,.02-1.413,6.382,6.382,0,0,1,.374-1.132,5.031,5.031,0,0,1,2.261-2.886,7.379,7.379,0,0,1,3.094-.556A7.727,7.727,0,0,1,24.481,14a7.855,7.855,0,0,1,1.862.847,4.886,4.886,0,0,1,1.95,3.7A8.893,8.893,0,0,1,27.409,22.736Z" transform="translate(-0.187 -0.186)" fill="#373837"/>
      <path id="Path_423" data-name="Path 423" d="M11.994,23.588a2.77,2.77,0,0,0-.948.041.74.74,0,0,0-.45.156,1.532,1.532,0,0,0-.209.644,1.192,1.192,0,0,0,.33,1.132,1.384,1.384,0,0,0,1.219.476,1.241,1.241,0,0,0,.979-1.373A.965.965,0,0,0,11.994,23.588Z" transform="translate(-3.876 -5.44)" fill="#f58420"/>
      <path id="Path_424" data-name="Path 424" d="M11.576,26.173a1.709,1.709,0,0,1-1.285-.6,1.487,1.487,0,0,1-.4-1.4l.013-.07a1.314,1.314,0,0,1,.295-.745,1.029,1.029,0,0,1,.636-.233c.134-.009.232-.025.319-.039a1.762,1.762,0,0,1,.707,0,1.275,1.275,0,0,1,1.178,1.369,1.549,1.549,0,0,1-1.249,1.7A1.641,1.641,0,0,1,11.576,26.173Zm-.074-2.49a1.57,1.57,0,0,0-.248.026c-.1.016-.217.034-.374.045a.451.451,0,0,0-.265.078,2.429,2.429,0,0,0-.094.392l-.015.079a.879.879,0,0,0,.26.866,1.058,1.058,0,0,0,.939.37.939.939,0,0,0,.708-1.051c-.02-.52-.163-.688-.665-.779h0A1.333,1.333,0,0,0,11.5,23.683Z" transform="translate(-3.688 -5.253)" fill="#010101"/>
      <path id="Path_425" data-name="Path 425" d="M35.693,24.061a2.894,2.894,0,0,0-.77-.438,1.361,1.361,0,0,0-1.085.086.829.829,0,0,0-.339.489,1.5,1.5,0,0,0,1.072,1.826,1.224,1.224,0,0,0,1.316-.6A1.073,1.073,0,0,0,35.693,24.061Z" transform="translate(-12.516 -5.437)" fill="#38b47b"/>
      <path id="Path_426" data-name="Path 426" d="M34.628,26.174a1.591,1.591,0,0,1-.306-.031,1.709,1.709,0,0,1-1.108-.814,1.767,1.767,0,0,1-.2-1.408,1.126,1.126,0,0,1,.48-.668,1.652,1.652,0,0,1,1.362-.108,3.209,3.209,0,0,1,.841.479h0a1.377,1.377,0,0,1,.285,1.754A1.514,1.514,0,0,1,34.628,26.174Zm-.324-2.5a1.006,1.006,0,0,0-.493.118.529.529,0,0,0-.2.31,1.14,1.14,0,0,0,.14.906,1.085,1.085,0,0,0,.693.523.9.9,0,0,0,.975-.434.78.78,0,0,0-.1-.973h0a2.642,2.642,0,0,0-.7-.4A.874.874,0,0,0,34.3,23.672Z" transform="translate(-12.329 -5.249)" fill="#010101"/>
      <path id="Path_427" data-name="Path 427" d="M8.726,27.936a6.819,6.819,0,0,1-2.13-.348,8.432,8.432,0,0,1-3.448-2.256,5.109,5.109,0,0,1-.738-.953,4.7,4.7,0,0,1-.424-3.169A6.145,6.145,0,0,1,3.95,17.795c.142-.128.28-.263.419-.4a4.327,4.327,0,0,1,1.869-1.269,5.294,5.294,0,0,1,1.243-.151,8.027,8.027,0,0,1,3.769.814A6.224,6.224,0,0,1,14,19.44a4.065,4.065,0,0,1,.387,1.067,5.732,5.732,0,0,1,.048,1.54,8.6,8.6,0,0,1-.4,2.3,5.449,5.449,0,0,1-3.256,3.242A6,6,0,0,1,8.726,27.936ZM7.658,16.6l-.163,0a4.708,4.708,0,0,0-1.1.131,3.81,3.81,0,0,0-1.59,1.112c-.145.141-.289.282-.437.415h0A5.519,5.519,0,0,0,2.6,21.322a4.085,4.085,0,0,0,.35,2.745A4.517,4.517,0,0,0,3.6,24.9a7.82,7.82,0,0,0,3.189,2.09,5.79,5.79,0,0,0,3.768,0,4.82,4.82,0,0,0,2.881-2.864A8.032,8.032,0,0,0,13.812,22a5.2,5.2,0,0,0-.038-1.373,3.482,3.482,0,0,0-.33-.9,5.6,5.6,0,0,0-2.473-2.379A7.381,7.381,0,0,0,7.658,16.6Zm-3.5,1.428h0Z" transform="translate(-0.708 -2.603)" fill="#010101"/>
      <path id="Path_428" data-name="Path 428" d="M32.478,27.964a5.969,5.969,0,0,1-2.436-.556,7.44,7.44,0,0,1-4.231-5.721,4.685,4.685,0,0,1,.024-1.513,6.647,6.647,0,0,1,.391-1.187,5.1,5.1,0,0,1,2.429-3.058h0a7.593,7.593,0,0,1,3.235-.581,7.987,7.987,0,0,1,2.149.538,8.108,8.108,0,0,1,1.936.884A5.188,5.188,0,0,1,38.06,20.7a9.076,9.076,0,0,1-.911,4.338,4.876,4.876,0,0,1-1.141,1.72,4.552,4.552,0,0,1-1.588.842,6.528,6.528,0,0,1-1.6.347C32.7,27.96,32.592,27.964,32.478,27.964ZM28.9,16.5a4.616,4.616,0,0,0-2.093,2.714,6.128,6.128,0,0,0-.357,1.076,4.079,4.079,0,0,0-.016,1.312A6.8,6.8,0,0,0,30.3,26.837a5.142,5.142,0,0,0,2.471.491,5.909,5.909,0,0,0,1.449-.315,4,4,0,0,0,1.372-.718,4.32,4.32,0,0,0,.983-1.505,8.458,8.458,0,0,0,.858-4.04,4.557,4.557,0,0,0-1.815-3.461,7.6,7.6,0,0,0-1.79-.81,7.512,7.512,0,0,0-1.98-.5A7.112,7.112,0,0,0,28.9,16.5Z" transform="translate(-9.641 -2.365)" fill="#010101"/>
      <path id="Path_429" data-name="Path 429" d="M29.631,16.244a5.478,5.478,0,0,0-.827-1.323c.077-.237.15-.468.216-.687a7.875,7.875,0,0,1,.921-2.193.312.312,0,0,0,0-.341.3.3,0,0,0-.312-.138,22.258,22.258,0,0,1-3.843.272,4.666,4.666,0,0,1-.932-.094,5.327,5.327,0,0,1-1.038-.408l-.1-.049a22.2,22.2,0,0,0-9.186-2.266A16.582,16.582,0,0,0,5.34,11.657a15.7,15.7,0,0,0-1.665-.029A13.877,13.877,0,0,1,1.98,11.59a3.989,3.989,0,0,0-1.4,0,.62.62,0,0,0-.5.4.671.671,0,0,0,.1.538c.118.205.23.392.335.566a3.159,3.159,0,0,1,.669,2.386.112.112,0,0,0,0,.014A8.1,8.1,0,0,0,.1,18.2a6.733,6.733,0,0,0,2.139,6.2A8.814,8.814,0,0,0,5.9,26.137a10.528,10.528,0,0,0,2.614.377,5.986,5.986,0,0,0,1.846-.274,6,6,0,0,0,2.787-1.987c.2.3.391.587.581.861.247.354.493.708.756,1.128a.491.491,0,0,0,.416.272h.021a.485.485,0,0,0,.336-.179,6.91,6.91,0,0,0,1.361-1.957c.055.059.106.122.163.18a8.478,8.478,0,0,0,5.709,2.585c.071,0,.143,0,.215,0a6.691,6.691,0,0,0,5.425-2.639,9.647,9.647,0,0,0,1.131-2.439C29.93,20.131,30.436,18.086,29.631,16.244Zm-.546-3.97a10.306,10.306,0,0,0-.665,1.78c-.031.1-.068.216-.1.322-.105-.111-.209-.221-.319-.335-.161-.167-.329-.34-.5-.527a4.892,4.892,0,0,0-1.433-1.052A22.859,22.859,0,0,0,29.085,12.274Zm-6.62-.859a7.487,7.487,0,0,0-2.2.173,11.726,11.726,0,0,0-5.675-1.347c-.431-.011-1.019.036-1.539.077-.2.015-.378.03-.536.039A11.016,11.016,0,0,0,8.2,11.722c-.006,0-.01.01-.016.014a5.811,5.811,0,0,0-1.023-.1,5.413,5.413,0,0,0-.693.057,15.928,15.928,0,0,1,8.045-2.048A21.07,21.07,0,0,1,22.465,11.415Zm-7.827,5.369a8.831,8.831,0,0,0-4.525-4.425,8.177,8.177,0,0,0-1-.393,9.881,9.881,0,0,1,3.443-.984c.161-.011.347-.025.546-.04.506-.039,1.086-.086,1.474-.075a11.557,11.557,0,0,1,4.808.979A7.552,7.552,0,0,0,15.17,15.39,7.047,7.047,0,0,0,14.638,16.784ZM1.049,12.779c-.1-.17-.213-.352-.328-.554L.71,12.206l.012,0a3.5,3.5,0,0,1,1.184.008,14.1,14.1,0,0,0,1.779.041c.323-.005.65-.009.961,0a6.506,6.506,0,0,0-.879.509A9.222,9.222,0,0,0,1.812,14.6,4.52,4.52,0,0,0,1.049,12.779Zm9.123,12.865a7.3,7.3,0,0,1-4.112-.112,8.212,8.212,0,0,1-3.408-1.6A6.09,6.09,0,0,1,.72,18.317a8.234,8.234,0,0,1,3.4-5.044,5.555,5.555,0,0,1,3.05-1.012h.053a6.154,6.154,0,0,1,2.62.665c1.675.8,3.674,2.321,4.264,4.213a7.159,7.159,0,0,1-.407,4.93A5.968,5.968,0,0,1,10.172,25.644Zm4.756.125c-.235-.369-.459-.691-.683-1.012s-.46-.663-.7-1.046a7.642,7.642,0,0,0,.74-1.413A11.86,11.86,0,0,0,14.71,21a8.462,8.462,0,0,0,1.455,2.836A5.863,5.863,0,0,1,14.928,25.768Zm13.744-3.9a9.1,9.1,0,0,1-1.052,2.284,6.053,6.053,0,0,1-5.107,2.368A7.925,7.925,0,0,1,15,18.914c0-.037,0-.074,0-.111a6.658,6.658,0,0,1,.723-3.126,7.125,7.125,0,0,1,6.213-3.664,6.193,6.193,0,0,1,1.818.267l.1.032a6.608,6.608,0,0,1,3.179,1.628c.176.19.347.367.512.536a6.547,6.547,0,0,1,1.507,2.02C29.777,18.14,29.3,20.048,28.672,21.864Z" transform="translate(0)" fill="#010101"/>
      <path id="Path_430" data-name="Path 430" d="M35.236,21.732a2.678,2.678,0,0,1,.366,2.786,2.322,2.322,0,0,1-2.356,1.316,3.485,3.485,0,0,1-1.059-.379A2.867,2.867,0,0,1,30.8,24.216a2.487,2.487,0,0,1,.186-2.171,2.4,2.4,0,0,1,1.68-1.233A2.682,2.682,0,0,1,35.236,21.732ZM31.458,19.92a2.823,2.823,0,0,0-1.73,1.615,4.384,4.384,0,0,0,.068,3.118,9.582,9.582,0,0,0,1.1,1.448,4.013,4.013,0,0,0,4.437.563,3.686,3.686,0,0,0,1.538-4.052c-.61-2.391-1.632-2.667-2.644-2.86A4.663,4.663,0,0,0,31.458,19.92Z" transform="translate(-11.03 -3.969)" fill="#373837"/>
      <path id="Path_431" data-name="Path 431" d="M34.037,26.659a2.286,2.286,0,0,1-.333-.024,3.816,3.816,0,0,1-1.156-.409,3.21,3.21,0,0,1-1.525-1.386,2.782,2.782,0,0,1,.194-2.451A2.725,2.725,0,0,1,33.108,21h0a2.971,2.971,0,0,1,3.281,4.147A2.666,2.666,0,0,1,34.037,26.659Zm-.8-5.049a2.088,2.088,0,0,0-1.471,1.075,2.161,2.161,0,0,0-.178,1.891,2.508,2.508,0,0,0,1.242,1.092,3.219,3.219,0,0,0,.963.349,2.024,2.024,0,0,0,2.028-1.14,2.345,2.345,0,0,0-2.584-3.266Z" transform="translate(-11.534 -4.46)" fill="#010101"/>
      <path id="Path_432" data-name="Path 432" d="M33.36,27.223a4.16,4.16,0,0,1-2.878-1.085,9.682,9.682,0,0,1-1.153-1.526,4.675,4.675,0,0,1-.082-3.377,3.149,3.149,0,0,1,1.9-1.787,4.913,4.913,0,0,1,2.946-.19c1.163.222,2.259.624,2.889,3.09a3.694,3.694,0,0,1-3.62,4.875Zm-.555-7.472a3.5,3.5,0,0,0-1.411.272h0a2.509,2.509,0,0,0-1.563,1.442,4.088,4.088,0,0,0,.054,2.858,9.3,9.3,0,0,0,1.036,1.369,3.676,3.676,0,0,0,4.066.513,3.383,3.383,0,0,0,1.387-3.7c-.584-2.284-1.507-2.46-2.4-2.63A6.2,6.2,0,0,0,32.805,19.75Zm-1.535-.016h0Z" transform="translate(-10.842 -3.782)" fill="#010101"/>
      <path id="Path_433" data-name="Path 433" d="M11.645,21.16a1.7,1.7,0,0,1,.924,1.2,3.419,3.419,0,0,1,.068.78,3.3,3.3,0,0,1-.342,1.811,1.934,1.934,0,0,1-1.7.812,4.868,4.868,0,0,1-1.861-.545,1.67,1.67,0,0,1-.426-.252,1.887,1.887,0,0,1-.468-.921,4.1,4.1,0,0,1-.123-.514A3.2,3.2,0,0,1,8.1,21.583a2.436,2.436,0,0,1,1.807-.833A3.1,3.1,0,0,1,11.645,21.16ZM8.727,19.62a2.162,2.162,0,0,0-.7.217,2.052,2.052,0,0,0-.5.412,4.284,4.284,0,0,0-1.112,2.995,4.025,4.025,0,0,0,.111.772c.436,1.918,1.844,2.779,3.955,2.879a4.354,4.354,0,0,0,.664-.01,3.009,3.009,0,0,0,2.23-1.585,4.691,4.691,0,0,0,.471-2.8,4.124,4.124,0,0,0-.2-.9,3.032,3.032,0,0,0-1.628-1.749,4.825,4.825,0,0,0-1.207-.307A13.85,13.85,0,0,0,8.727,19.62Z" transform="translate(-2.404 -3.932)" fill="#373837"/>
      <path id="Path_434" data-name="Path 434" d="M11.23,26.619h-.072a5.176,5.176,0,0,1-1.983-.574,1.98,1.98,0,0,1-.5-.3,2.153,2.153,0,0,1-.561-1.068,4.4,4.4,0,0,1-.132-.554,3.523,3.523,0,0,1,.434-2.17,2.7,2.7,0,0,1,2.042-.974h0a3.367,3.367,0,0,1,1.9.442,2.018,2.018,0,0,1,1.085,1.409,3.6,3.6,0,0,1,.077.851,3.553,3.553,0,0,1-.392,1.982A2.232,2.232,0,0,1,11.23,26.619ZM10.508,21.6a2.162,2.162,0,0,0-1.573.693A2.9,2.9,0,0,0,8.6,24.026a3.777,3.777,0,0,0,.115.475,1.648,1.648,0,0,0,.375.774,1.406,1.406,0,0,0,.349.2,4.629,4.629,0,0,0,1.739.517,1.616,1.616,0,0,0,1.428-.667,3.014,3.014,0,0,0,.293-1.64,3.1,3.1,0,0,0-.059-.708,1.39,1.39,0,0,0-.761-1,2.775,2.775,0,0,0-1.568-.377Z" transform="translate(-2.976 -4.471)" fill="#010101"/>
      <path id="Path_435" data-name="Path 435" d="M10.594,27.028c-.112,0-.215,0-.3-.008-2.371-.112-3.8-1.162-4.245-3.122a4.228,4.228,0,0,1-.119-.831,4.578,4.578,0,0,1,1.2-3.217,2.3,2.3,0,0,1,.573-.474,2.465,2.465,0,0,1,.8-.252h0a13.771,13.771,0,0,1,2.191-.08,5.178,5.178,0,0,1,1.285.329,3.359,3.359,0,0,1,1.8,1.931,4.448,4.448,0,0,1,.216.974,5,5,0,0,1-.508,2.986A3.323,3.323,0,0,1,11,27.008,3.883,3.883,0,0,1,10.594,27.028Zm-2-7.286a1.894,1.894,0,0,0-.6.181,1.713,1.713,0,0,0-.418.351,3.946,3.946,0,0,0-1.03,2.774,3.733,3.733,0,0,0,.1.711c.381,1.676,1.58,2.538,3.664,2.637a4.412,4.412,0,0,0,.616-.009,2.7,2.7,0,0,0,1.99-1.424,4.4,4.4,0,0,0,.434-2.611,3.85,3.85,0,0,0-.183-.837,2.73,2.73,0,0,0-1.457-1.566,4.611,4.611,0,0,0-1.13-.285,14.259,14.259,0,0,0-1.995.078Z" transform="translate(-2.218 -3.745)" fill="#010101"/>
    </g>
 </svg>
  