<svg xmlns="http://www.w3.org/2000/svg" width="25.734" height="25.743" viewBox="0 0 25.734 25.743">
  <path id="icons8_facebook" d="M7.064,4A3.073,3.073,0,0,0,4,7.064V26.671a3.073,3.073,0,0,0,3.064,3.064H17.377a.613.613,0,0,0,.2,0h3.476a.613.613,0,0,0,.2,0h5.418a3.073,3.073,0,0,0,3.064-3.064V7.064A3.073,3.073,0,0,0,26.671,4Zm0,1.225H26.671a1.829,1.829,0,0,1,1.838,1.838V26.671a1.829,1.829,0,0,1-1.838,1.838h-4.9V19.931H24.11l.858-4.289h-3.2V14.416c0-.342.033-.368.147-.443a2.391,2.391,0,0,1,1.078-.17h1.838v-3.45l-.349-.166a8.452,8.452,0,0,0-3.327-.673A4.032,4.032,0,0,0,17.92,10.97a5.448,5.448,0,0,0-1.053,3.447v1.225H15.029v4.289h1.838v8.578h-9.8a1.829,1.829,0,0,1-1.838-1.838V7.064A1.829,1.829,0,0,1,7.064,5.225ZM21.156,10.74a6.448,6.448,0,0,1,2.451.43v1.409h-.613a3.087,3.087,0,0,0-1.746.367,1.731,1.731,0,0,0-.7,1.471v2.451h2.928L23.1,18.705H20.543v9.8H18.093v-9.8H16.254V16.867h1.838V14.416a4.276,4.276,0,0,1,.785-2.681A2.7,2.7,0,0,1,21.156,10.74Z" transform="translate(-4 -4)" fill="#000941"/>
</svg>
