<?xml version="1.0" encoding="utf-8"?>
<svg width="25.057861px" height="26.376892px" viewBox="0 0 25.057861 26.376892" version="1.1" xmlns:xlink="http://www.w3.org/1999/xlink" xmlns="http://www.w3.org/2000/svg">
  <path d="M8.57243 17.4747C8.57243 15.8386 7.24107 14.5073 5.60506 14.5073C5.60506 14.5073 5.27534 14.5073 5.27534 14.5073C5.27534 14.5073 5.27534 0.989197 5.27534 0.989197C5.27545 0.442871 4.83255 0 4.28622 0C3.73988 0 3.29698 0.442871 3.29698 0.989258C3.29698 0.989258 3.29709 14.5073 3.29709 14.5073C3.29709 14.5073 2.96738 14.5073 2.96738 14.5073C1.33136 14.5073 0 15.8386 0 17.4747C0 19.1107 1.33136 20.4421 2.96738 20.4421C2.96738 20.4421 3.29709 20.4421 3.29709 20.4421C3.29709 20.4421 3.29709 25.3877 3.29709 25.3877C3.29698 25.934 3.73987 26.3769 4.28621 26.3769C4.83253 26.3769 5.27542 25.934 5.27542 25.3877C5.27542 25.3877 5.27533 20.4421 5.27533 20.4421C5.27533 20.4421 5.60504 20.4421 5.60504 20.4421C7.24104 20.4421 8.57242 19.1107 8.57242 17.4747C8.57242 17.4747 8.57243 17.4747 8.57243 17.4747ZM16.8151 7.58337C16.8151 5.94739 15.4838 4.61603 13.8478 4.61603C13.8478 4.61603 13.5181 4.61603 13.5181 4.61603C13.5181 4.61603 13.5181 0.989197 13.5181 0.989197C13.5182 0.442871 13.0753 0 12.5289 0C11.9826 0 11.5397 0.442871 11.5397 0.989258C11.5397 0.989258 11.5398 4.61603 11.5398 4.61603C11.5398 4.61603 11.2101 4.61603 11.2101 4.61603C9.57408 4.61603 8.24271 5.94739 8.24271 7.58344C8.24271 9.21942 9.57407 10.5508 11.2101 10.5508C11.2101 10.5508 11.5398 10.5508 11.5398 10.5508C11.5398 10.5508 11.5398 25.3877 11.5398 25.3877C11.5397 25.934 11.9826 26.3769 12.5289 26.3769C13.0753 26.3769 13.5182 25.934 13.5182 25.3877C13.5182 25.3877 13.5181 10.5508 13.5181 10.5508C13.5181 10.5508 13.8478 10.5508 13.8478 10.5508C15.4838 10.5508 16.8151 9.21942 16.8151 7.58344C16.8151 7.58344 16.8151 7.58337 16.8151 7.58337ZM25.0579 18.7935C25.0579 17.1575 23.7265 15.8261 22.0905 15.8261C22.0905 15.8261 21.7608 15.8261 21.7608 15.8261C21.7608 15.8261 21.7608 0.989258 21.7608 0.989258C21.7609 0.442871 21.318 0 20.7717 0C20.2253 0 19.7824 0.442871 19.7824 0.989258C19.7824 0.989258 19.7825 15.8261 19.7825 15.8261C19.7825 15.8261 19.4528 15.8261 19.4528 15.8261C17.8168 15.8261 16.4854 17.1575 16.4854 18.7935C16.4854 20.4295 17.8168 21.7609 19.4528 21.7609C19.4528 21.7609 19.7825 21.7609 19.7825 21.7609C19.7825 21.7609 19.7825 25.3877 19.7825 25.3877C19.7824 25.934 20.2253 26.3769 20.7717 26.3769C21.318 26.3769 21.7609 25.934 21.7609 25.3877C21.7609 25.3877 21.7608 21.7609 21.7608 21.7609C21.7608 21.7609 22.0905 21.7609 22.0905 21.7609C23.7265 21.7609 25.0579 20.4295 25.0579 18.7935C25.0579 18.7935 25.0579 18.7935 25.0579 18.7935Z" id="icons8_slider" fill="#FFFFFF" fill-rule="evenodd" stroke="none" />
</svg>