<svg xmlns="http://www.w3.org/2000/svg" width="25.255" height="21.919" viewBox="0 0 25.255 21.919">
    <path id="icons8_fitness" d="M13.19,3.594a2.878,2.878,0,0,0-.71,5.665A2.492,2.492,0,0,0,10.965,10l-.016.016L6.057,14.908H2.538a2.535,2.535,0,0,0-2.462,3.03l1.31,6.139v.032H1.4a1.722,1.722,0,0,0,1.689,1.4,1.768,1.768,0,0,0,1.7-2.115v-.016L3.722,18.443h.931a1.49,1.49,0,0,0-.095.5,1.523,1.523,0,0,0,1.515,1.515h4.545a.5.5,0,0,0,.363-.142l4.8-4.813.915.473.063.032V16a1.506,1.506,0,0,0,.773.221,1.424,1.424,0,0,0,1.026-.395l1.373-1.389a.483.483,0,0,0,.063.079l1.752,1.752a.5.5,0,0,0,.71,0l.931-.931.458.473.726-.694-.473-.489,1.042-1.042a.5.5,0,0,0,0-.71l-1.752-1.752a.5.5,0,0,0-.079-.079.5.5,0,0,0-.331-.079.511.511,0,0,0-.316.158l-.679.679a1.417,1.417,0,0,0-.394-1.136,1.435,1.435,0,0,0-1.2-.395l.694-.694a.505.505,0,0,0,0-.726L19.329,7.1a.475.475,0,0,0-.063-.063.5.5,0,0,0-.647.063L17.593,8.123l-.5-.537-.726.694.521.552-.947.947a.5.5,0,0,0,0,.71l1.752,1.752a.475.475,0,0,0,.174.11l-.363.379L14.705,10a2.612,2.612,0,0,0-1.184-.663,2.881,2.881,0,0,0-.331-5.744Zm0,1.01a1.87,1.87,0,1,1,0,3.74,1.87,1.87,0,0,1,0-3.74ZM18.966,8.17l1.042,1.042-1.973,1.957-1.026-1.026Zm-6.139,2.051a1.649,1.649,0,0,1,1.168.5l3.14,3.077a.5.5,0,0,0,.71,0l2.414-2.43a.456.456,0,0,1,.6,0,.516.516,0,0,1,0,.663.126.126,0,0,1-.016.016L17.83,15.114a.579.579,0,0,1-.3.095.542.542,0,0,1-.268-.063c-.016-.012-.032-.022-.047-.032l-3.282-1.673a.507.507,0,0,0-.584.095l-.032.032-.032-.032-3.33,3.33a3.025,3.025,0,0,1-1.61.568H3.091a.511.511,0,0,0-.393.191.5.5,0,0,0-.1.424l1.215,5.539V23.6a.709.709,0,0,1-.726.9.666.666,0,0,1-.71-.584v-.032L1.055,17.733h.016a1.494,1.494,0,0,1,1.468-1.815h3.74a.505.505,0,0,0,.347-.142l5.05-5.05.016-.016A1.556,1.556,0,0,1,12.827,10.222Zm10.194,1.973,1.042,1.026L22.09,15.192l-1.026-1.042Zm-9.216,2.32,1.026.521L10.4,19.453H6.073a.5.5,0,1,1,0-1.01H9.608a.5.5,0,0,0,.363-.142l.773-.757c.1-.079.2-.164.284-.252Z" transform="translate(-0.027 -3.594)" fill="#989898"/>
</svg>  