<svg xmlns="http://www.w3.org/2000/svg" width="16.978" height="17" viewBox="0 0 16.978 17">
    <path id="icons8_flower_bouquet" d="M5.9,0A2.1,2.1,0,0,0,4.61.446s-.008,0-.011,0V.457a2.174,2.174,0,0,0-.638.8,4.13,4.13,0,0,0-1-.51A6.474,6.474,0,0,0,.731.34H.7A.34.34,0,0,0,.476.914,7.76,7.76,0,0,1,1.964,3.453c-.025.017-.05.035-.074.053,0,0-.008,0-.011,0v.011A2.264,2.264,0,0,0,1.04,4.909,3.183,3.183,0,0,0,1.05,6.1,2.624,2.624,0,0,0,.2,8.9v.011a2.563,2.563,0,0,0,2.21,1.721,3.052,3.052,0,0,0,.722,1.041,2.281,2.281,0,0,0,1.541.595c.061,0,.122-.007.181-.011,1.153.264,2.55,1.786,2.677,4.42a.353.353,0,0,0,.011.064.159.159,0,0,0,.011.021v.011a.157.157,0,0,0,.011.021v.011a.159.159,0,0,0,.021.021v.011a.161.161,0,0,0,.021.021v.011l.021.011v.011a.32.32,0,0,0,.043.043H7.68a.434.434,0,0,0,.053.032A.365.365,0,0,0,7.84,17h.053a8.852,8.852,0,0,0,2.964-.85,7.075,7.075,0,0,0,3.91-4.856c.46-2.043.746-3.435,1.052-4.4a3.474,3.474,0,0,1,1.1-1.87.34.34,0,0,0-.159-.606,3.653,3.653,0,0,0-1.031-.032,4.071,4.071,0,0,0-2.093,1.02c-.069-.08-.139-.151-.212-.223a3.551,3.551,0,0,0-.011-1.339,2.3,2.3,0,0,0-.935-1.4,2.2,2.2,0,0,0-1.275-.4c-.044,0-.085.008-.127.011A2.288,2.288,0,0,0,8.785,0,2.858,2.858,0,0,0,7.33.446,2.8,2.8,0,0,0,5.9,0Zm0,.68a2.376,2.376,0,0,1,1.233.414A.338.338,0,0,0,7.51,1.1,2.437,2.437,0,0,1,8.785.68,1.559,1.559,0,0,1,9.72.956a1.542,1.542,0,0,1,.691,1.222,3.709,3.709,0,0,0-.669.308A2.978,2.978,0,0,0,8.275,2.04a2.1,2.1,0,0,0-1.286.446s-.008,0-.011,0V2.5a2.169,2.169,0,0,0-.531.6,2.083,2.083,0,0,0-.34-.032,2.9,2.9,0,0,0-1.466.446c-.076-.044-.161-.086-.244-.128a.342.342,0,0,0,.064-.3,2.8,2.8,0,0,1-.053-1.031.344.344,0,0,0,.043-.2A1.518,1.518,0,0,1,5.013.988L5.024.977A1.384,1.384,0,0,1,5.9.68Zm-4.431.4a5.944,5.944,0,0,1,1.264.3,2.841,2.841,0,0,1,1.009.6A3.315,3.315,0,0,0,3.77,3.028l-.106.1a2.355,2.355,0,0,0-.489-.064,2.041,2.041,0,0,0-.606.1A9.245,9.245,0,0,0,1.465,1.084ZM8.275,2.72a2.629,2.629,0,0,1,1.286.425.341.341,0,0,0,.361,0,2.743,2.743,0,0,1,.914-.393h.011a1.924,1.924,0,0,1,.361-.032A1.515,1.515,0,0,1,12.1,3a1.57,1.57,0,0,1,.659,1,3.118,3.118,0,0,1-.021,1.243.341.341,0,0,0,.106.319,2.044,2.044,0,0,1,.786,2.114A1.762,1.762,0,0,1,11.8,8.978a.34.34,0,0,0-.308.213,2.573,2.573,0,0,1-.637.967c-.009.009-.023.013-.032.021a.34.34,0,0,0-.17.128,1.612,1.612,0,0,1-1.966-.149,2.113,2.113,0,0,1-.255-.287.339.339,0,0,0-.17-.255,3.021,3.021,0,0,1-.213-.425.341.341,0,0,0-.3-.213,1.893,1.893,0,0,1-1.573-.807.161.161,0,0,0-.011-.021s0-.008,0-.011a.328.328,0,0,0-.085-.149s-.008-.007-.011-.011l-.011-.011a2.31,2.31,0,0,1-.117-.287A1.9,1.9,0,0,1,5.885,6.7L5.9,6.694s0-.008,0-.011a.343.343,0,0,0,.1-.287,2.31,2.31,0,0,1,.733-.924.34.34,0,0,0,.117-.351A2.724,2.724,0,0,1,6.8,4.016a1.547,1.547,0,0,1,.595-.988L7.4,3.017A1.384,1.384,0,0,1,8.275,2.72Zm-5.1,1.02a2.629,2.629,0,0,1,1.286.425.341.341,0,0,0,.361,0A2.475,2.475,0,0,1,6.108,3.74c.023,0,.05.009.074.011-.012.046-.033.092-.043.138a3.183,3.183,0,0,0,.011,1.19,3.023,3.023,0,0,0-.68.861A1.662,1.662,0,0,0,4.78,5.78a1.7,1.7,0,0,0,0,3.4,1.566,1.566,0,0,0,1.041-.4,2.728,2.728,0,0,0,1.689.839c.025.057.057.113.085.17-.031.013-.064.02-.1.032a.227.227,0,0,0-.043,0,.34.34,0,0,0-.234.1A2.949,2.949,0,0,1,6.692,10a.341.341,0,0,0-.3.212,2.573,2.573,0,0,1-.638.967,1.539,1.539,0,0,1-.861.393.292.292,0,0,0-.032-.011.385.385,0,0,0-.1,0,.337.337,0,0,0-.149.032,1.547,1.547,0,0,1-1.031-.414,2.572,2.572,0,0,1-.638-.967.341.341,0,0,0-.3-.212A1.837,1.837,0,0,1,.848,8.7a1.935,1.935,0,0,1,.776-2.21.34.34,0,0,0,.117-.351A2.724,2.724,0,0,1,1.7,5.036a1.547,1.547,0,0,1,.595-.988L2.3,4.037a1.344,1.344,0,0,1,.17-.106.329.329,0,0,0,.149-.085A1.427,1.427,0,0,1,3.175,3.74ZM9.848,4.76a1.7,1.7,0,1,0,1.626,1.7A1.675,1.675,0,0,0,9.848,4.76ZM16,5.068a5.028,5.028,0,0,0-.829,1.626c-.324,1.024-.615,2.415-1.073,4.452a6.3,6.3,0,0,1-3.538,4.388,7.4,7.4,0,0,1-1.392.489,7.042,7.042,0,0,0,.924-1.222,8.761,8.761,0,0,0,1.169-4.1c.017-.015.037-.028.053-.043a3.063,3.063,0,0,0,.722-1.031,2.463,2.463,0,0,0,2.253-1.785V7.831a2.478,2.478,0,0,0-.244-1.849A3.086,3.086,0,0,1,16,5.068ZM9.848,5.44a.978.978,0,0,1,.946,1.02.953.953,0,1,1-1.9,0A.986.986,0,0,1,9.848,5.44ZM4.78,6.46a.989.989,0,0,1,.457.117A2.514,2.514,0,0,0,5.3,7.884v.011a2.637,2.637,0,0,0,.128.308.889.889,0,0,1-.648.3,1.022,1.022,0,0,1,0-2.04Zm3.315,4.059c.045.046.089.094.138.138a2.3,2.3,0,0,0,2.327.457,7.99,7.99,0,0,1-1.052,3.347,6.579,6.579,0,0,1-.606.861c.009-.422.007-.947-.032-1.53A8.216,8.216,0,0,0,8.095,10.519Zm-.754.053a7.269,7.269,0,0,1,.85,3.262,16.052,16.052,0,0,1,0,2.2c-.009.008-.023.013-.032.021a5.393,5.393,0,0,0-2.295-4.112,2.411,2.411,0,0,0,.351-.266,3.063,3.063,0,0,0,.723-1.031A3.817,3.817,0,0,0,7.34,10.572Z" transform="translate(-0.078)" fill="#989898"/>
</svg>  