<?xml version="1.0" encoding="utf-8"?>
<svg width="24.55664px" height="24.556519px" viewBox="0 0 24.55664 24.556519" version="1.1" xmlns:xlink="http://www.w3.org/1999/xlink" xmlns="http://www.w3.org/2000/svg">
  <path d="M4.69772 0.00183105C3.45468 0.00183105 2.41254 0.613647 1.62476 1.15845C0.837006 1.70325 0.287781 2.25378 0.287781 2.25378C-0.0959473 2.63721 -0.0959473 3.25916 0.287628 3.6427C0.671204 4.02625 1.29312 4.02625 1.6767 3.6427C1.67657 3.64258 2.1088 3.21094 2.74115 2.77356C3.37354 2.3363 4.18869 1.96606 4.69772 1.96606C4.76874 1.96606 5.31677 2.11938 5.91003 2.45325C6.50327 2.78711 7.1861 3.25745 7.81863 3.73267C7.91415 3.80444 7.9733 3.85889 8.0661 3.9303C8.0661 3.9303 6.87488 3.9303 6.87488 3.9303C6.33243 3.93018 5.89267 4.37 5.89267 4.91235C5.89267 5.45483 6.33243 5.89465 6.87488 5.89465C6.87488 5.89465 11.7855 5.89453 11.7855 5.89453C11.7855 5.89453 21.1156 5.89453 21.1156 5.89453C21.9414 5.89453 22.5888 6.54187 22.5888 7.36768C22.5888 8.19348 21.9414 8.84094 21.1156 8.84094C21.1156 8.84094 13.7497 8.84094 13.7497 8.84094C13.7497 8.84094 7.85699 8.84094 7.85699 8.84094C7.31454 8.84082 6.87479 9.28052 6.87479 9.823C6.87479 10.3655 7.31454 10.8053 7.85699 10.8053C7.85699 10.8053 12.7676 10.8052 12.7676 10.8052L12.7676 13.7515C12.7676 13.7515 8.34805 13.7515 8.34805 13.7515C7.8056 13.7515 7.36584 14.1912 7.36584 14.7336C7.36584 15.2761 7.8056 15.7158 8.34805 15.7158C9.17383 15.7157 9.82126 16.3632 9.82126 17.189C9.82126 18.0146 9.17383 18.6621 8.34805 18.6621C8.34805 18.6621 7.85699 18.6621 7.85699 18.6621C7.31454 18.662 6.87479 19.1018 6.87479 19.6443C6.87479 20.1868 7.31454 20.6265 7.85699 20.6265C8.4119 20.6263 8.83914 21.0536 8.83914 21.6085C8.83914 22.1635 8.4119 22.5906 7.85699 22.5906C7.85699 22.5906 0.982178 22.5906 0.982178 22.5906C0.439697 22.5905 -6.10352e-05 23.0303 -6.10352e-05 23.5728C-6.10352e-05 24.1152 0.439697 24.5549 0.982178 24.5549C0.982178 24.5549 7.85699 24.5548 7.85699 24.5548C9.4726 24.5548 10.8034 23.2241 10.8034 21.6085C10.8034 20.9983 10.4726 20.5101 10.1493 20.0375C11.1085 19.4252 11.7855 18.4021 11.7855 17.189C11.7855 16.657 11.6385 16.1671 11.4192 15.7158C11.4192 15.7158 12.7676 15.7158 12.7676 15.7158C12.7676 15.7158 12.7676 20.6263 12.7676 20.6263C12.7676 21.7117 13.6466 22.5906 14.7318 22.5906C14.7318 22.5906 16.4793 22.5906 16.4793 22.5906C17.0185 21.9916 17.7911 21.6085 18.6603 21.6085C19.5295 21.6085 20.3021 21.9916 20.8413 22.5906C20.8413 22.5906 22.5888 22.5906 22.5888 22.5906C23.674 22.5906 24.553 21.7117 24.553 20.6263C24.553 20.6263 24.553 7.3678 24.553 7.3678C24.553 7.3678 24.553 2.94824 24.553 2.94824C24.553 1.86292 23.674 0.984009 22.5888 0.984009C22.5888 0.984009 20.8413 0.984009 20.8413 0.984009C20.3021 1.58301 19.5295 1.96606 18.6603 1.96606C17.7911 1.96606 17.0185 1.58301 16.4793 0.984009C16.4793 0.984009 14.7318 0.984009 14.7318 0.984009C13.6466 0.984009 12.7676 1.86292 12.7676 2.94824C12.7676 2.94824 12.7676 3.9303 12.7676 3.9303L11.7855 3.9303C11.7855 3.9303 11.1525 3.9303 11.1525 3.9303C10.9203 3.72327 10.1784 3.05029 8.99832 2.1637C8.32373 1.65674 7.58865 1.14502 6.87299 0.74231C6.15732 0.339478 5.50278 0.00183105 4.69772 0.00183105C4.69772 0.00183105 4.69772 0.00183105 4.69772 0.00183105Z" id="icons8_giving_tickets" fill="#000941" fill-rule="evenodd" stroke="none" />
</svg>