<svg xmlns="http://www.w3.org/2000/svg" width="61" height="61" viewBox="0 0 61 61">
  <g id="Group_1685" data-name="Group 1685" transform="translate(-1234 -9146)">
    <circle id="Ellipse_277" data-name="Ellipse 277" cx="30.5" cy="30.5" r="30.5" transform="translate(1234 9146)" fill="#eee"/>
    <path id="icons8_cancel" d="M20,4A16,16,0,1,0,36,20,16,16,0,0,0,20,4Zm6.049,20.351a1.2,1.2,0,0,1-1.7,1.7L20,21.7l-4.351,4.351a1.2,1.2,0,1,1-1.7-1.7L18.3,20l-4.351-4.351a1.2,1.2,0,0,1,1.7-1.7L20,18.3l4.351-4.351a1.2,1.2,0,0,1,1.7,1.7L21.7,20Z" transform="translate(1245 9157)" fill="#ff0c0c"/>
  </g>
</svg>
