<svg xmlns="http://www.w3.org/2000/svg" width="61" height="61" viewBox="0 0 61 61">
  <g id="Group_1683" data-name="Group 1683" transform="translate(-1234 -8947)">
    <circle id="Ellipse_275" data-name="Ellipse 275" cx="30.5" cy="30.5" r="30.5" transform="translate(1234 8947)" fill="#eee"/>
    <path id="icons8_user_clock" d="M13.076,3a6.7,6.7,0,0,0,0,13.393h.082A6.7,6.7,0,0,0,13.159,3h-.082ZM24.429,17.062a7.366,7.366,0,1,0,7.366,7.366A7.366,7.366,0,0,0,24.429,17.062ZM5.493,19.071A2.586,2.586,0,0,0,3,21.736v1.019A6.22,6.22,0,0,0,6.2,28.13a12.587,12.587,0,0,0,6.512,1.656,13.812,13.812,0,0,0,4.374-.7,8.666,8.666,0,0,1,.493-10.017Zm18.266.67a.67.67,0,0,1,.67.67v4.018h3.348a.67.67,0,1,1,0,1.339H23.759a.67.67,0,0,1-.67-.67V20.411A.67.67,0,0,1,23.759,19.741Z" transform="translate(1249.103 8958.103)" fill="#000941"/>
  </g>
</svg>
