<svg id="Group_751" data-name="Group 751" xmlns="http://www.w3.org/2000/svg" width="50" height="50" viewBox="0 0 50 50">
  <circle id="Ellipse_41" data-name="Ellipse 41" cx="25" cy="25" r="25" fill="#989898"/>
  <path id="icons8_expand_arrow" d="M18.629,10a.456.456,0,0,1-.316-.14L9.547,1.1.78,9.863A.457.457,0,0,1,.456,10a.461.461,0,0,1-.422-.284.455.455,0,0,1,.1-.5L9.226.133a.454.454,0,0,1,.643,0l9.088,9.088a.455.455,0,0,1-.327.783Z" transform="translate(17.998 34.548) rotate(-90)" fill="#fff" stroke="#fff" stroke-width="1"/>
</svg>
