<svg xmlns="http://www.w3.org/2000/svg" width="19.739" height="21" viewBox="0 0 19.739 21">
    <path id="icons8_account" d="M15.746,3.313c-2.308.052-3.768.986-4.4,2.429a7.961,7.961,0,0,0-.046,4.9,1.574,1.574,0,0,0-.369,1.214v.031a2.752,2.752,0,0,0,.492,1.322c.111.146.277.15.415.231a5.688,5.688,0,0,0,.4,1.476,4.29,4.29,0,0,0,.354.646,2.273,2.273,0,0,0,.215.215v1.768a2.183,2.183,0,0,1-1.122.984c-.615.311-1.418.6-2.229.953a7.033,7.033,0,0,0-2.291,1.476,4.281,4.281,0,0,0-1.2,2.829l-.031.523H25.677l-.031-.523a4.281,4.281,0,0,0-1.2-2.829,7.056,7.056,0,0,0-2.306-1.476c-.815-.356-1.622-.64-2.245-.953a2.218,2.218,0,0,1-1.138-.984V15.765a2.182,2.182,0,0,0,.2-.2,4.3,4.3,0,0,0,.369-.646,5.669,5.669,0,0,0,.4-1.46c.158-.081.338-.086.461-.246a2.586,2.586,0,0,0,.43-1.353,1.577,1.577,0,0,0-.338-1.184,9.021,9.021,0,0,0,.461-3.336,3.894,3.894,0,0,0-.661-2,2.85,2.85,0,0,0-1.768-1.061,3.063,3.063,0,0,0-2.552-.969Zm.015.984h.015c.982,0,1.61.281,1.814.63l.123.215.246.031a1.775,1.775,0,0,1,1.322.738,2.989,2.989,0,0,1,.477,1.507,8.823,8.823,0,0,1-.477,3.2l-.154.415.384.2a.837.837,0,0,1,.138.538v.015a1.73,1.73,0,0,1-.246.83c-.083.108-.125.092-.108.092h-.446l-.046.446a4.578,4.578,0,0,1-.384,1.353,3.577,3.577,0,0,1-.261.507c-.085.123-.184.194-.138.169l-.246.138v2.352a.987.987,0,0,1-.446.4,3.4,3.4,0,0,1-1.522.338,3.466,3.466,0,0,1-1.522-.323c-.356-.183-.446-.373-.446-.415a.488.488,0,0,0-.046-.215V15.319l-.246-.138c.046.025-.054-.046-.138-.169a3.461,3.461,0,0,1-.277-.507,4.576,4.576,0,0,1-.384-1.353l-.031-.446H12.3a.286.286,0,0,1-.108-.092,1.918,1.918,0,0,1-.277-.83v-.015c0-.008,0-.008,0-.015A.9.9,0,0,1,12.1,11.2l.277-.2-.077-.338a7.442,7.442,0,0,1-.046-4.52C12.734,5.042,13.7,4.346,15.761,4.3Zm-2.46,14.3a2.361,2.361,0,0,0,.538.369,4.331,4.331,0,0,0,1.968.43,4.294,4.294,0,0,0,1.983-.446,2.623,2.623,0,0,0,.507-.338,4.206,4.206,0,0,0,1.168.815c.713.357,1.526.634,2.291.969a6.153,6.153,0,0,1,1.983,1.245,3.226,3.226,0,0,1,.8,1.691H7.075a3.226,3.226,0,0,1,.8-1.691,6.153,6.153,0,0,1,1.983-1.245c.763-.334,1.568-.609,2.275-.969A4.04,4.04,0,0,0,13.3,18.594Z" transform="translate(-5.938 -3.313)" fill="#000941"/>
</svg>  