<svg xmlns="http://www.w3.org/2000/svg" width="21.21" height="22.174" viewBox="0 0 21.21 22.174">
    <path id="icons8_brown_long_curly_hair_lady" d="M10.954,14.533a.723.723,0,1,1-.723.723A.741.741,0,0,1,10.954,14.533Zm5.3,0a.723.723,0,1,1-.723.723A.741.741,0,0,1,16.256,14.533Zm7.038,1.253a2.771,2.771,0,0,0,.916-2.073A2.826,2.826,0,0,0,23.2,11.544a3.048,3.048,0,0,0,.386-2.507A2.4,2.4,0,0,0,22.04,7.4a4.961,4.961,0,0,0-5.013-3.953H16.69A6.873,6.873,0,0,0,12.4,2C10.038,2,6.037,3.35,5.458,6.869a1.021,1.021,0,0,1-.145.337.865.865,0,0,1-.337.241A2.648,2.648,0,0,0,3.482,9.52,2.575,2.575,0,0,0,4.109,11.5,2.857,2.857,0,0,0,3,13.713a2.745,2.745,0,0,0,.916,2.025A2.737,2.737,0,0,0,3,17.714a2.624,2.624,0,0,0,2.555,2.651A2.676,2.676,0,0,0,9.99,22.053l.048.048A4.921,4.921,0,0,0,13.6,24.174,5.006,5.006,0,0,0,17.22,22.1h0a2.615,2.615,0,0,0,1.735.675,2.662,2.662,0,0,0,2.651-2.362,2.657,2.657,0,0,0,2.555-2.651A2.693,2.693,0,0,0,23.294,15.786Zm-6.7,5.543h0A4.056,4.056,0,0,1,13.6,23.21a2.252,2.252,0,0,1-.819-.145,2.528,2.528,0,0,1-.868-.482A7.049,7.049,0,0,1,11,21.812a9.008,9.008,0,0,1-2.6-4.772,8.657,8.657,0,0,1-.1-1.06A2.607,2.607,0,0,1,9.99,13.328a21.068,21.068,0,0,1,3.278-.964,6.155,6.155,0,0,0,3.663-2.989,7.612,7.612,0,0,1,2.025,5.3,11.991,11.991,0,0,1-2.362,6.652ZM21.51,19.4c-.241,0-.482-.1-.675.1-.193.145-.193.337-.193.578a1.708,1.708,0,0,1-1.687,1.687,1.683,1.683,0,0,1-1.157-.482c.1-.145.193-.241.145-.241a12.722,12.722,0,0,0,1.928-6.363,8.592,8.592,0,0,0-2.7-6.363c-.145-.145-.241-.241-.434-.241a.452.452,0,0,0-.434.241c-.145.289-.241.578-.386.868a2.941,2.941,0,0,1-.578.771A4.346,4.346,0,0,1,13.8,11.062a4.17,4.17,0,0,1-.819.337H12.93a22.352,22.352,0,0,0-3.422,1.06,3.756,3.756,0,0,0-2.169,3.519,8.566,8.566,0,0,0,1.735,5.013,2.254,2.254,0,0,1,.241.289,1.683,1.683,0,0,1-1.157.482,1.708,1.708,0,0,1-1.687-1.687.69.69,0,0,0-.145-.53c-.193-.193-.434-.145-.675-.145a1.708,1.708,0,0,1-1.687-1.687,1.615,1.615,0,0,1,.916-1.446.452.452,0,0,0,.386-.289.478.478,0,0,0-.241-.627,1.734,1.734,0,0,1-1.06-1.639,1.815,1.815,0,0,1,1.157-1.687A.5.5,0,0,0,5.41,11.4a.581.581,0,0,0-.241-.241,1.813,1.813,0,0,1-.675-1.543,1.669,1.669,0,0,1,.916-1.3,2.173,2.173,0,0,0,.675-.482,1.834,1.834,0,0,0,.386-.819c.482-2.94,3.9-4.049,5.977-4.049a6.079,6.079,0,0,1,3.76,1.253.047.047,0,0,1,.048.048.375.375,0,0,0,.337.145h.434a4.084,4.084,0,0,1,4.145,3.422h0a.463.463,0,0,0,.386.434,1.515,1.515,0,0,1,1.157,1.06,1.827,1.827,0,0,1-.482,1.928.547.547,0,0,0-.145.386.492.492,0,0,0,.241.386,2.029,2.029,0,0,1,.964,1.687,1.782,1.782,0,0,1-1.06,1.639.478.478,0,0,0-.241.627.362.362,0,0,0,.337.241A1.7,1.7,0,0,1,21.51,19.4Z" transform="translate(-3 -2)" fill="#989898"/>
</svg>  