<?xml version="1.0" encoding="utf-8"?>
<svg width="32.170654px" height="35.218018px" viewBox="0 0 32.170654 35.218018" version="1.1" xmlns:xlink="http://www.w3.org/1999/xlink" xmlns="http://www.w3.org/2000/svg">
  <g id="Group-472">
    <path d="M23.7413 20.6715C24.163 20.6715 24.5069 21.0124 24.5069 21.4371C24.5069 21.4371 24.5069 25.2651 24.5069 25.2651C24.5069 25.6898 24.163 26.0307 23.7413 26.0307C23.3196 26.0307 22.9757 25.6898 22.9757 25.2651C22.9757 25.2651 22.9757 21.4371 22.9757 21.4371C22.9757 21.0124 23.3196 20.6715 23.7413 20.6715ZM23.7415 17.9918C24.3755 17.9918 24.8899 18.5062 24.8899 19.1402C24.8899 19.7742 24.3755 20.2887 23.7415 20.2887C23.4035 20.2887 23.0895 20.1391 22.8802 19.9059C22.8802 19.9059 8.42929 19.9059 8.42929 19.9059C8.00759 19.9059 7.66368 19.5649 7.66368 19.1402C7.66368 18.7156 8.00759 18.3746 8.42929 18.3746C8.42929 18.3746 22.8802 18.3746 22.8802 18.3746C23.0895 18.1414 23.4035 17.9918 23.7415 17.9918ZM9.19474 10.7185C8.34836 10.7185 7.66352 11.4034 7.66352 12.2497C7.66352 12.2497 3.83547 12.2497 3.83547 12.2497C3.45566 12.2497 3.12369 12.5189 3.06986 12.8958C3.06986 12.8958 0.00741828 33.5672 0.00741828 33.5672C-0.0254817 33.7855 0.0522783 34.0188 0.198818 34.1893C0.345368 34.3567 0.551718 34.4524 0.773028 34.4524C0.773028 34.4524 3.06986 34.4524 3.06986 34.4524L3.06986 35.218L5.36669 35.218L5.36669 34.4524L26.8037 34.4524L26.8037 35.218L29.1006 35.218L29.1006 34.4524C29.1006 34.4524 31.3974 34.4524 31.3974 34.4524C31.6187 34.4524 31.8251 34.3567 31.9716 34.1893C32.1181 34.0188 32.1959 33.7855 32.163 33.5672C32.163 33.5672 29.1006 12.8958 29.1006 12.8958C29.0468 12.5189 28.7148 12.2497 28.335 12.2497C28.335 12.2497 24.5069 12.2497 24.5069 12.2497C24.5069 11.4034 23.8221 10.7185 22.9757 10.7185C22.1293 10.7185 21.4445 11.4034 21.4445 12.2497C21.4445 12.2497 10.726 12.2497 10.726 12.2497C10.726 11.4034 10.0411 10.7185 9.19474 10.7185ZM16.0854 2.68752e-05C11.8656 2.68752e-05 8.42931 3.4363 8.42931 7.65612C8.42931 7.65612 8.42931 9.18734 8.42931 9.18734C8.42632 9.4625 8.56988 9.71967 8.80913 9.86023C9.04838 9.99781 9.34146 9.99781 9.58071 9.86023C9.81996 9.71966 9.96351 9.4625 9.96053 9.18734C9.96053 9.18734 9.96053 7.65612 9.96053 7.65612C9.96053 4.26471 12.694 1.53125 16.0854 1.53125C19.4768 1.53125 22.2103 4.26471 22.2103 7.65612C22.2103 7.65612 22.2103 9.18734 22.2103 9.18734C22.2073 9.4625 22.3508 9.71967 22.5901 9.86023C22.8293 9.99781 23.1224 9.99781 23.3617 9.86023C23.6009 9.71966 23.7445 9.4625 23.7415 9.18734C23.7415 9.18734 23.7415 7.65612 23.7415 7.65612C23.7415 3.4363 20.3052 2.68752e-05 16.0854 2.68752e-05Z" id="icons8_handbag" fill="#000941" fill-rule="evenodd" stroke="none" />
  </g>
</svg>