<?xml version="1.0" encoding="utf-8"?>
<svg width="32.170654px" height="35.218018px" viewBox="0 0 32.170654 35.218018" version="1.1" xmlns:xlink="http://www.w3.org/1999/xlink" xmlns="http://www.w3.org/2000/svg">
  <path d="M-989.588 -1877.33C-989.166 -1877.33 -988.822 -1876.99 -988.822 -1876.56C-988.822 -1876.56 -988.822 -1872.73 -988.822 -1872.73C-988.822 -1872.31 -989.166 -1871.97 -989.588 -1871.97C-990.01 -1871.97 -990.354 -1872.31 -990.354 -1872.73C-990.354 -1872.73 -990.354 -1876.56 -990.354 -1876.56C-990.354 -1876.99 -990.01 -1877.33 -989.588 -1877.33ZM-989.588 -1880.01C-988.954 -1880.01 -988.44 -1879.49 -988.44 -1878.86C-988.44 -1878.23 -988.954 -1877.71 -989.588 -1877.71C-989.926 -1877.71 -990.24 -1877.86 -990.449 -1878.09C-990.449 -1878.09 -1004.9 -1878.09 -1004.9 -1878.09C-1005.32 -1878.09 -1005.67 -1878.44 -1005.67 -1878.86C-1005.67 -1879.28 -1005.32 -1879.63 -1004.9 -1879.63C-1004.9 -1879.63 -990.449 -1879.63 -990.449 -1879.63C-990.24 -1879.86 -989.926 -1880.01 -989.588 -1880.01ZM-1004.13 -1887.28C-1004.98 -1887.28 -1005.67 -1886.6 -1005.67 -1885.75C-1005.67 -1885.75 -1009.49 -1885.75 -1009.49 -1885.75C-1009.87 -1885.75 -1010.21 -1885.48 -1010.26 -1885.1C-1010.26 -1885.1 -1013.32 -1864.43 -1013.32 -1864.43C-1013.35 -1864.21 -1013.28 -1863.98 -1013.13 -1863.81C-1012.98 -1863.64 -1012.78 -1863.55 -1012.56 -1863.55C-1012.56 -1863.55 -1010.26 -1863.55 -1010.26 -1863.55L-1010.26 -1862.78L-1007.96 -1862.78L-1007.96 -1863.55L-986.526 -1863.55L-986.526 -1862.78L-984.229 -1862.78L-984.229 -1863.55C-984.229 -1863.55 -981.932 -1863.55 -981.932 -1863.55C-981.711 -1863.55 -981.504 -1863.64 -981.358 -1863.81C-981.211 -1863.98 -981.133 -1864.21 -981.166 -1864.43C-981.166 -1864.43 -984.229 -1885.1 -984.229 -1885.1C-984.283 -1885.48 -984.615 -1885.75 -984.994 -1885.75C-984.994 -1885.75 -988.822 -1885.75 -988.822 -1885.75C-988.822 -1886.6 -989.507 -1887.28 -990.354 -1887.28C-991.2 -1887.28 -991.885 -1886.6 -991.885 -1885.75C-991.885 -1885.75 -1002.6 -1885.75 -1002.6 -1885.75C-1002.6 -1886.6 -1003.29 -1887.28 -1004.13 -1887.28ZM-997.244 -1898C-1001.46 -1898 -1004.9 -1894.56 -1004.9 -1890.34C-1004.9 -1890.34 -1004.9 -1888.81 -1004.9 -1888.81C-1004.9 -1888.54 -1004.76 -1888.28 -1004.52 -1888.14C-1004.28 -1888 -1003.99 -1888 -1003.75 -1888.14C-1003.51 -1888.28 -1003.37 -1888.54 -1003.37 -1888.81C-1003.37 -1888.81 -1003.37 -1890.34 -1003.37 -1890.34C-1003.37 -1893.74 -1000.64 -1896.47 -997.244 -1896.47C-993.853 -1896.47 -991.119 -1893.74 -991.119 -1890.34C-991.119 -1890.34 -991.119 -1888.81 -991.119 -1888.81C-991.122 -1888.54 -990.979 -1888.28 -990.739 -1888.14C-990.5 -1888 -990.207 -1888 -989.968 -1888.14C-989.729 -1888.28 -989.585 -1888.54 -989.588 -1888.81C-989.588 -1888.81 -989.588 -1890.34 -989.588 -1890.34C-989.588 -1894.56 -993.024 -1898 -997.244 -1898Z" id="icons8_handbag" fill="#000941" fill-rule="evenodd" stroke="none" />
</svg>