<svg xmlns="http://www.w3.org/2000/svg" width="125.564" height="106" viewBox="0 0 125.564 106">
  <g id="Group_1414" data-name="Group 1414" transform="translate(-438 -415)">
    <g id="Ellipse_39" data-name="Ellipse 39" transform="translate(438 415)" fill="#fff" stroke="#707070" stroke-width="1" opacity="0.47">
      <circle cx="53" cy="53" r="53" stroke="none"/>
      <circle cx="53" cy="53" r="52.5" fill="none"/>
    </g>
    <g id="icons8_checkmark_2" transform="translate(516.615 436.053) rotate(-1)" fill="#2acb1e">
      <path d="M 11.72028923034668 33.24266052246094 L 9.598969459533691 31.12130928039551 L -2.121330738067627 19.40086936950684 L -4.242671012878418 17.27949905395508 L -2.121280908584595 15.15819931030273 L 0.7827191352844238 12.254319190979 L 2.904029130935669 10.13309860229492 L 5.025299072265625 12.25433921813965 L 11.72028827667236 18.94922256469727 L 32.79096984863281 -2.121330976486206 L 34.91233062744141 -4.24268102645874 L 37.03363800048828 -2.121280908584595 L 39.93751907348633 0.7827190756797791 L 42.05875015258789 2.904039144515991 L 39.9374885559082 5.025309085845947 L 13.84162902832031 31.12130928039551 L 11.72028923034668 33.24266052246094 Z" stroke="none"/>
      <path d="M 34.91227722167969 -1.9073486328125e-06 L 11.72030067443848 23.19183349609375 L 2.904003143310547 14.37567710876465 L 0 17.27955436706543 L 11.72030067443848 29 L 37.81615829467773 2.903999328613281 L 34.91227722167969 -1.9073486328125e-06 M 34.91238021850586 -8.485357284545898 L 46.30133438110352 2.904077529907227 L 11.72029113769531 37.48532104492188 L -8.485343933105469 17.27944374084473 L 2.904056549072266 5.890522003173828 L 11.72028541564941 14.70659732818604 L 34.91238021850586 -8.485357284545898 Z" stroke="none" fill="#fff"/>
    </g>
    <path id="icons8_hotel" d="M8.674,0,7.551,2.332,5,2.639,6.939,4.361,6.43,7,8.674,5.682,10.918,7l-.51-2.639,1.939-1.723L9.8,2.332Zm2.244,7H9.3A5.247,5.247,0,0,0,4,12.3V45a1,1,0,0,0,1,1H22V36h6V46H45a1,1,0,0,0,1-1V12.3A5.247,5.247,0,0,0,40.7,7H10.918Zm3.674,0,2.246-1.318L19.082,7,18.57,4.361l1.94-1.723-2.551-.307L16.838,0,15.715,2.332l-2.553.307L15.1,4.361Zm8.164,0L25,5.682,27.244,7l-.51-2.639,1.939-1.723-2.553-.307L25,0,23.879,2.332l-2.553.307,1.939,1.723Zm8.162,0,2.244-1.318L35.408,7,34.9,4.361l1.939-1.723-2.553-.307L33.162,0,32.041,2.332l-2.551.307,1.94,1.723Zm8.164,0,2.244-1.318L43.57,7l-.51-2.639L45,2.639l-2.551-.307L41.326,0,40.2,2.332l-2.551.307,1.939,1.723ZM10,12h6v4H10Zm12,0h6v4H22Zm12,0h6v4H34ZM10,20h6v4H10Zm12,0h6v4H22Zm12,0h6v4H34ZM10,28h6v4H10Zm12,0h6v4H22Zm12,0h6v4H34ZM10,36h6v4H10Zm24,0h6v4H34Z" transform="translate(466 445)" fill="#989898" opacity="0.47"/>
  </g>
</svg>