<svg xmlns="http://www.w3.org/2000/svg" width="26.957" height="31" viewBox="0 0 26.957 31">
    <path id="icons8_hotel_star" d="M9.041,3a.3.3,0,0,0-.292.211l-.708,2.1-2.217.024a.311.311,0,0,0-.182.561L7.419,7.22,6.759,9.334a.31.31,0,0,0,.476.345L9.044,8.4l1.809,1.279a.31.31,0,0,0,.476-.345L10.668,7.22,12.445,5.9a.311.311,0,0,0-.184-.561l-2.217-.024-.708-2.1A.3.3,0,0,0,9.041,3Zm9.437,0a.3.3,0,0,0-.295.211l-.708,2.1-2.217.024a.311.311,0,0,0-.182.561l1.78,1.324L16.2,9.334a.309.309,0,0,0,.474.345L18.478,8.4l1.809,1.279a.31.31,0,0,0,.476-.345L20.1,7.22,21.879,5.9a.311.311,0,0,0-.182-.561l-2.217-.024-.708-2.1A.3.3,0,0,0,18.478,3Zm9.435,0a.3.3,0,0,0-.295.211l-.708,2.1-2.217.024a.311.311,0,0,0-.182.561l1.78,1.324-.661,2.114a.309.309,0,0,0,.474.345L27.913,8.4l1.809,1.279a.31.31,0,0,0,.476-.345L29.537,7.22,31.314,5.9a.311.311,0,0,0-.182-.561l-2.217-.024-.708-2.1A.3.3,0,0,0,27.913,3ZM6.348,12.435a1.348,1.348,0,1,0,0,2.7V34h8.087V27.261h8.087V34h8.087V15.13a1.348,1.348,0,1,0,0-2.7Zm2.7,4.043h2.7v2.7h-2.7Zm5.391,0h2.7v2.7h-2.7Zm5.391,0h2.7v2.7h-2.7Zm5.391,0h2.7v2.7h-2.7ZM9.044,21.87h2.7v2.7h-2.7Zm5.391,0h2.7v2.7h-2.7Zm5.391,0h2.7v2.7h-2.7Zm5.391,0h2.7v2.7h-2.7ZM9.044,27.261h2.7v2.7h-2.7Zm16.174,0h2.7v2.7h-2.7Z" transform="translate(-5 -3)" fill="#000941" />
</svg>  