<svg xmlns="http://www.w3.org/2000/svg" width="30.26" height="27.977" viewBox="0 0 30.26 27.977">
  <path id="icons8_external" d="M9.533,3.51a1.513,1.513,0,0,0-.81.269,15.13,15.13,0,1,0,16.815,0,1.513,1.513,0,1,0-1.684,2.515,12.1,12.1,0,1,1-13.446,0A1.513,1.513,0,0,0,9.533,3.51Zm7.6.742a1.514,1.514,0,0,0-1.513,1.513v9.078H12.24a.771.771,0,0,0-.547,1.315L15.936,20.4a1.688,1.688,0,0,0,2.388,0l4.244-4.244a.771.771,0,0,0-.547-1.315H18.643V5.765A1.514,1.514,0,0,0,17.13,4.252Z" transform="translate(-2 -3.509)" fill="#000941"/>
</svg>
