<svg xmlns="http://www.w3.org/2000/svg" width="24.86" height="24.86" viewBox="0 0 24.86 24.86">
  <path id="icons8_holiday" d="M13.187,2l-4.2,8.7h2.952v5.788l.388.35,2.1-1.165V10.7h2.952ZM11.206,3.321,2,8.215,7.516,10.7Zm3.962,0,3.69,7.38,5.516-2.486Zm6.1,8.623a1.865,1.865,0,1,0,1.865,1.865A1.865,1.865,0,0,0,21.267,11.944Zm-2.6,2.719c-1.549,1.131-5.132,3.1-5.788,3.457a1.1,1.1,0,0,1-.932.039c-1.015-.437-1.695-1.462-2.292-1.9a2.335,2.335,0,0,0-3.03.039c-.966.612-3.807,2.525-3.807,2.525l1.437,1.9,3.923-2.486a13.081,13.081,0,0,0,2.8,2.214,3.6,3.6,0,0,0,3.108-.155c1.015-.554,5.637-3.3,6.06-3.613ZM25,15.829l-10.876,6.06H2v2.486H4.486V26.86H6.972V24.374H21.888V26.86h2.486V24.374H26.86V21.888H25.54l-.855-3.03L26.239,18ZM22.432,20.1l.544,1.787H19.208Z" transform="translate(-2 -2)" fill="#000941"/>
</svg>
