<svg xmlns="http://www.w3.org/2000/svg" width="20.04" height="17.017" viewBox="0 0 20.04 17.017">
  <path id="icons8_bedroom" d="M8.244,7A2.764,2.764,0,0,0,5.492,9.753v4.1a2.738,2.738,0,0,0-1.5,2.411v5.382a.751.751,0,0,0,0,.243v1.381a.751.751,0,1,0,1.5,0v-.751H22.509v.751a.751.751,0,1,0,1.5,0V21.888a.751.751,0,0,0,0-.243V16.259a2.738,2.738,0,0,0-1.5-2.411v-4.1A2.764,2.764,0,0,0,19.756,7Zm0,1.5H19.756a1.24,1.24,0,0,1,1.251,1.251v3.754h-1v-.25A2.764,2.764,0,0,0,17.253,10.5H16a2.726,2.726,0,0,0-2,.9,2.726,2.726,0,0,0-2-.9H10.747a2.764,2.764,0,0,0-2.753,2.753v.25h-1V9.753A1.24,1.24,0,0,1,8.244,8.5Zm2.5,3.5H12a1.24,1.24,0,0,1,1.251,1.251v.25H9.5v-.25A1.24,1.24,0,0,1,10.747,12ZM16,12h1.251A1.24,1.24,0,0,1,18.5,13.256v.25H14.751v-.25A1.24,1.24,0,0,1,16,12Zm-9.259,3H21.257a1.24,1.24,0,0,1,1.251,1.251v4.755H5.492V16.259A1.24,1.24,0,0,1,6.743,15.008Z" transform="translate(-3.98 -7)" fill="#000941"/>
</svg>
