<svg xmlns="http://www.w3.org/2000/svg" width="28.619" height="22.015" viewBox="0 0 28.619 22.015">
  <path id="icons8_in_air" d="M0,3l28.619,8.806-2.2-6.6,2.2-2.2ZM7.808,6.509l-2.3,9.7H6.6l2.3-9.356Zm3.2,2a2.2,2.2,0,1,0,2.2,2.2A2.2,2.2,0,0,0,11.007,8.5Zm2.649.1,1.307,4.3,1.2.344-1.2-4.2ZM13,13.457a1.842,1.842,0,0,0-1.651.894L8.806,17.31H5.5a1.1,1.1,0,0,0,0,2.2H9.356a1.027,1.027,0,0,0,.894-.447L12.108,17.1l5.71,1.651,6.742,5.916a1,1,0,0,0,1.514,0,1.035,1.035,0,0,0,0-1.514s-6.045-6.721-6.157-7.052A2.62,2.62,0,0,0,18.609,15L13.553,13.56A2.015,2.015,0,0,0,13,13.457Z" transform="translate(0 -3)" fill="#000941"/>
</svg>
