<svg xmlns="http://www.w3.org/2000/svg" width="19.405" height="20.377" viewBox="0 0 19.405 20.377">
  <path id="icons8_settings" d="M22.37,15.352a1.42,1.42,0,0,1,0-2.29l1.678-1.23a.766.766,0,0,0,.274-.858,10.124,10.124,0,0,0-2.031-3.52.766.766,0,0,0-.88-.194l-1.89.831a1.42,1.42,0,0,1-1.983-1.145l-.227-2.074a.765.765,0,0,0-.607-.666,10.265,10.265,0,0,0-4.06-.005.763.763,0,0,0-.609.666l-.225,2.061A1.421,1.421,0,0,1,9.825,8.074l-1.9-.835a.765.765,0,0,0-.879.192A10.12,10.12,0,0,0,5,10.944a.765.765,0,0,0,.273.86l1.667,1.223a1.42,1.42,0,0,1,0,2.29l-1.678,1.23a.766.766,0,0,0-.274.858,10.124,10.124,0,0,0,2.031,3.52.764.764,0,0,0,.88.194l1.89-.831a1.42,1.42,0,0,1,1.983,1.145L12,23.507a.765.765,0,0,0,.607.666,10.222,10.222,0,0,0,4.059,0,.763.763,0,0,0,.609-.666l.226-2.061A1.421,1.421,0,0,1,19.49,20.3l1.9.835a.763.763,0,0,0,.879-.192,10.12,10.12,0,0,0,2.042-3.513.765.765,0,0,0-.273-.86Zm-7.712,2.4a3.566,3.566,0,1,1,3.566-3.566A3.566,3.566,0,0,1,14.657,17.756Z" transform="translate(-4.955 -4.001)" fill="#000941"/>
</svg>
