<svg xmlns="http://www.w3.org/2000/svg" width="24" height="24" viewBox="0 0 24 24">
  <path id="icons8_checked" d="M13,1A12,12,0,1,0,25,13,12.013,12.013,0,0,0,13,1Zm0,2A10,10,0,1,1,3,13,9.984,9.984,0,0,1,13,3Zm4.188,4.063a.544.544,0,0,0-.375.25l-4.906,7.281L9.594,12.313a.514.514,0,0,0-.781-.125l-.906.906a.758.758,0,0,0,0,.906l3.5,3.5a1.807,1.807,0,0,0,.781.313.9.9,0,0,0,.719-.406l6-8.813c.2-.3.086-.582-.312-.781l-1-.719A.724.724,0,0,0,17.188,7.063Z" transform="translate(-1 -1)" fill="#32bf09"/>
</svg>
