<svg xmlns="http://www.w3.org/2000/svg" width="25.457" height="26.018" viewBox="0 0 25.457 26.018">
  <path id="icons8_skiing_1" d="M25.9,2a2.545,2.545,0,1,0,2.545,2.545A2.546,2.546,0,0,0,25.9,2ZM8.188,3.706a.566.566,0,0,0-.411,1.03L13.665,8.59l-.091.062v0a3.106,3.106,0,0,0-.349,5.112l0,.013,4.262,3.009-2.742,3.139a1.391,1.391,0,0,0-.3,1.617l-10.611-5.9a.548.548,0,0,0-.27-.073.562.562,0,0,0-.557.42.569.569,0,0,0,.278.643L22.966,27.582a.412.412,0,0,0,.044.022,5.527,5.527,0,0,0,1.708.4,3.427,3.427,0,0,0,3.075-1.326.575.575,0,0,0,.075-.572.566.566,0,0,0-.985-.1,2.2,2.2,0,0,1-2.09.866,4.375,4.375,0,0,1-1.312-.3l-7.6-4.229a1.4,1.4,0,0,0,.974-.561l0,0,3.9-4.443,0-.011a1.385,1.385,0,0,0,.342-.91,1.41,1.41,0,0,0-.634-1.178L16.813,12.39l1.383-.835L13.665,8.59l1.023-.683,4.584,3,.692-.415V11.94a1.63,1.63,0,0,0,.74,1.365l3.113,2.048,0,0a1.127,1.127,0,1,0,1.2-1.9l0,0L22.226,11.7V7.09a2.254,2.254,0,0,0-3.588-1.825l-3.95,2.64L8.4,3.79A.529.529,0,0,0,8.188,3.706Z" transform="translate(-2.991 -2)" fill="#000941"/>
</svg>
