<svg xmlns="http://www.w3.org/2000/svg" width="52" height="51" viewBox="0 0 52 51">
  <g id="Group_1098" data-name="Group 1098" transform="translate(0.215 -0.137)">
    <ellipse id="Ellipse_70" data-name="Ellipse 70" cx="26" cy="25.5" rx="26" ry="25.5" transform="translate(-0.215 0.137)" fill="#e8eaf8"/>
    <path id="icons8_love" d="M9.933,7A5.946,5.946,0,0,0,4,12.933c0,2.21,1.665,4.29,3.7,6.423s4.529,4.294,6.52,6.285a.809.809,0,0,0,1.144,0c1.991-1.991,4.49-4.152,6.52-6.285s3.7-4.214,3.7-6.423A5.946,5.946,0,0,0,19.643,7a6.208,6.208,0,0,0-4.855,2.717A6.208,6.208,0,0,0,9.933,7Z" transform="translate(10.937 9.286)" fill="none" stroke="#fe2f70" stroke-width="2"/>
  </g>
</svg>
