<svg xmlns="http://www.w3.org/2000/svg" width="22.095" height="19.34" viewBox="0 0 22.095 19.34">
  <path id="icons8_airplane_take_off" d="M9.153,6A1.854,1.854,0,0,0,7.815,9.117l3.5,3.786L8.841,13.985,6.785,12.779a1.845,1.845,0,0,0-2.5,2.575l1.37,2.175a3.726,3.726,0,0,0,4.635,1.423L24.573,12.7h0A2.562,2.562,0,0,0,22.52,8.007l-5,2.186L10.048,6.219h0A1.855,1.855,0,0,0,9.153,6Zm.021,1.657a.2.2,0,0,1,.095.024l7.826,4.162a.829.829,0,0,0,.721.028l5.368-2.346a.9.9,0,0,1,.724,1.658L9.629,17.433a2.05,2.05,0,0,1-2.568-.788l-1.37-2.174a.175.175,0,0,1,.073-.268h0a.184.184,0,0,1,.179.005h0l2.421,1.42a.829.829,0,0,0,.751.044l3.933-1.718a.829.829,0,0,0,.276-1.322l-4.3-4.642a.182.182,0,0,1,.047-.307A.2.2,0,0,1,9.174,7.659ZM5.939,23.684a.829.829,0,1,0,0,1.658H24.175a.829.829,0,1,0,0-1.658Z" transform="translate(-4.011 -6.002)" fill="#000941"/>
</svg>
