<svg xmlns="http://www.w3.org/2000/svg" width="25.837" height="31.5" viewBox="0 0 25.837 31.5">
  <path id="icons8_trekking" d="M18.781,3a3.281,3.281,0,1,0,3.281,3.281A3.281,3.281,0,0,0,18.781,3ZM9.594,9.562A3.277,3.277,0,0,0,6.4,12.118l-1.3,5.2a3.244,3.244,0,0,0,3.889,3.968,5.492,5.492,0,0,1-.054-.569,6,6,0,0,1,.118-1.172l1.989-9.623A3.174,3.174,0,0,0,9.594,9.562Zm19.677,1.3a.656.656,0,0,0-.646.666v1.31l-3.386,3-3.156-1.969c-.009.066-.011.129-.023.195l-.631,3.492a28.886,28.886,0,0,0,3.994,1.187,1.314,1.314,0,0,0,.872-.331l2.33-2.069V33.844a.656.656,0,1,0,1.313,0V15.187l.459-.408a1.314,1.314,0,0,0,.11-1.853,1.286,1.286,0,0,0-.569-.351V11.531a.656.656,0,0,0-.666-.666Zm-13.117.01a3.275,3.275,0,0,0-3.22,2.7l-.005.005-1.3,6.47,0,.01v.005a3.3,3.3,0,0,0-.067.656,3.259,3.259,0,0,0,1.19,2.507l.01.031,5.109,4.025,1.459,5.5.123.618a1.313,1.313,0,1,0,2.584-.467l-1.312-6.562a1.313,1.313,0,0,0-.21-.495L18.058,21.38c0-.012,0-.024,0-.036l1.289-6.45,0,0a3.257,3.257,0,0,0-3.194-4.017ZM11.506,24.951l-.674,2.228-2.925,5.17-.1.164,0,0q-.023.038-.044.077l-.01.02A1.312,1.312,0,0,0,10,33.959h0l.021-.031,0,0L14.39,27.3Z" transform="translate(-5 -3)" fill="#000941"/>
</svg>
