<svg xmlns="http://www.w3.org/2000/svg" width="25.851" height="25.851" viewBox="0 0 25.851 25.851">
  <path id="icons8_facebook" d="M26.773,4H7.077A3.079,3.079,0,0,0,4,7.077v19.7a3.079,3.079,0,0,0,3.077,3.077h19.7a3.079,3.079,0,0,0,3.077-3.077V7.077A3.079,3.079,0,0,0,26.773,4Zm-2.462,9.232H23.08c-1.317,0-1.846.308-1.846,1.231V16.31h3.077L23.7,19.387H21.234V28.62H18.156V19.387H15.694V16.31h2.462V14.463c0-2.462,1.231-4.308,3.693-4.308a3.8,3.8,0,0,1,2.462.615Z" transform="translate(-4 -4)" fill="#000941"/>
</svg>
