<svg xmlns="http://www.w3.org/2000/svg" width="20.386" height="20.378" viewBox="0 0 20.386 20.378">
  <path id="icons8_login" d="M14.2,4a10.2,10.2,0,0,0-9.389,6.226,1.019,1.019,0,1,0,1.877.794,8.151,8.151,0,1,1,0,6.338,1.019,1.019,0,1,0-1.877.794A10.19,10.19,0,1,0,14.2,4Zm-.528,6.1a1.019,1.019,0,0,0-.709,1.749l1.317,1.317H5.019a1.019,1.019,0,1,0,0,2.038h9.258l-1.317,1.317A1.019,1.019,0,1,0,14.4,17.966l3.057-3.057a1.019,1.019,0,0,0,0-1.441L14.4,10.412A1.019,1.019,0,0,0,13.668,10.1Z" transform="translate(-4 -4)" fill="#000941"/>
</svg>
