<svg xmlns="http://www.w3.org/2000/svg" width="29.597" height="29.597" viewBox="0 0 29.597 29.597">
  <path id="icons8_happy" d="M17.8,3A14.8,14.8,0,1,0,32.6,17.8,14.817,14.817,0,0,0,17.8,3Zm0,2.466A12.332,12.332,0,1,1,5.466,17.8,12.313,12.313,0,0,1,17.8,5.466Zm-5.549,9.866a1.85,1.85,0,1,0,1.85,1.85A1.85,1.85,0,0,0,12.249,15.332Zm11.1,0a1.85,1.85,0,1,0,1.85,1.85A1.85,1.85,0,0,0,23.348,15.332Zm-9.256,7.39a1.233,1.233,0,0,0-.641,2.24,7.167,7.167,0,0,0,8.7,0,1.234,1.234,0,1,0-1.452-1.994,4.7,4.7,0,0,1-5.793,0,1.233,1.233,0,0,0-.686-.246q-.061,0-.123,0Z" transform="translate(-3 -3)" fill="#989898" opacity="0.5"/>
</svg>
