<svg xmlns="http://www.w3.org/2000/svg" width="32.093" height="36.923" viewBox="0 0 32.093 36.923">
  <path id="icons8_attach" d="M29.321,4a8.264,8.264,0,0,0-5.87,2.454L9.016,20.889a11.738,11.738,0,0,0,16.6,16.6l9.623-9.623L33.075,25.7l-9.623,9.623a8.676,8.676,0,0,1-12.27-12.27L25.616,8.619a5.274,5.274,0,1,1,7.458,7.458L18.639,30.513a1.871,1.871,0,0,1-2.646-2.647L29.225,14.634,27.06,12.469,13.828,25.7A4.933,4.933,0,0,0,20.8,32.678L35.24,18.243A8.348,8.348,0,0,0,29.321,4Z" transform="translate(-5.583 -4)" fill="#989898" opacity="0.5"/>
</svg>
