<svg xmlns="http://www.w3.org/2000/svg" width="25" height="25" viewBox="0 0 25 25">
  <path id="icons8_country" d="M15,3A6,6,0,0,0,9,9c0,3.946,3.852,5.758,4.285,6.3a5.745,5.745,0,0,1,.752,1.969,1,1,0,0,0,1.926,0,5.7,5.7,0,0,1,.752-1.969C17.147,14.758,21,12.946,21,9A6,6,0,0,0,15,3Zm0,4a2,2,0,1,1-2,2A2,2,0,0,1,15,7Zm7.736,0A7.953,7.953,0,0,1,23,9h2v4.383l-1.447.723a1,1,0,0,0-.447,1.342l1.816,3.631-.869,2.605A.977.977,0,0,0,24,22v2.322l-3.91,1.564-4.576-2.744a1,1,0,0,0-1.221.15L12.586,25H7.414L5.873,23.461,5.08,21.076l.814-1.629a1,1,0,0,0,0-.895l-1.8-3.6,1.691-4.229,1.295-.648A7.589,7.589,0,0,1,7,9a8.009,8.009,0,0,1,.1-1.166L4.553,9.105a1,1,0,0,0-.48.523l-2,5a1,1,0,0,0,.033.816L3.883,19l-.777,1.553a1,1,0,0,0-.053.764l1,3a1,1,0,0,0,.242.391l2,2A1,1,0,0,0,7,27h6a1,1,0,0,0,.707-.293l1.447-1.447,4.332,2.6a1,1,0,0,0,.885.072l5-2A1,1,0,0,0,26,25V22.162l.949-2.846a1,1,0,0,0-.055-.764l-1.553-3.105,1.105-.553A1,1,0,0,0,27,14V8a1,1,0,0,0-1-1ZM9.5,19A1.5,1.5,0,1,0,11,20.5,1.5,1.5,0,0,0,9.5,19Z" transform="translate(-2.001 -3)" fill="#000941"/>
</svg>
