<svg xmlns="http://www.w3.org/2000/svg" width="25" height="25.614" viewBox="0 0 25 25.614">
  <path id="icons8_rainy_snowy_day" d="M10.175,3.314A.921.921,0,0,0,9.32,4.453L9.6,5.65a.921.921,0,1,0,1.8-.414l-.277-1.2A.921.921,0,0,0,10.175,3.314ZM16.2,4.324a.921.921,0,0,0-.736.443L14.81,5.808a.921.921,0,1,0,1.563.976l.65-1.042A.921.921,0,0,0,16.2,4.324ZM5.207,6.866a.921.921,0,0,0-.452,1.709L5.8,9.226a.921.921,0,1,0,.976-1.563l-1.042-.65a.921.921,0,0,0-.524-.148Zm6.806.553A4.6,4.6,0,0,0,8.3,14.737a5.779,5.779,0,0,1,1.787-.523c.015-.059.035-.115.052-.173a2.754,2.754,0,0,1,3.335-4.354,7.327,7.327,0,0,1,1.9-.8A4.589,4.589,0,0,0,12.013,7.419Zm5.219,2.456A6.1,6.1,0,0,0,11.216,15.4h-.432a4.6,4.6,0,0,0-.267,9.2L8.766,27.514a.921.921,0,0,0,1.581.947l2.31-3.851h7.7a.92.92,0,1,0,1.735,0h1.588a4.605,4.605,0,0,0,0-9.21h-.432A6.1,6.1,0,0,0,17.232,9.875Zm0,1.842a4.285,4.285,0,0,1,4.3,4.3v.307a.921.921,0,0,0,.921.921h1.228a2.763,2.763,0,0,1,0,5.526H10.784a2.763,2.763,0,0,1,0-5.526h1.228a.921.921,0,0,0,.921-.921v-.307A4.285,4.285,0,0,1,17.232,11.717Zm-11.761.9a.921.921,0,0,0-.246.026l-1.2.277a.921.921,0,1,0,.414,1.794l1.2-.276a.921.921,0,0,0-.168-1.822ZM15.6,25.828a.921.921,0,0,0-.82.458l-.736,1.228a.921.921,0,1,0,1.579.947l.736-1.228a.921.921,0,0,0-.759-1.406Zm8.074.625a.921.921,0,1,0,.921.921A.921.921,0,0,0,23.679,26.453Zm-4.3.614a.921.921,0,1,0,.921.921.921.921,0,0,0-.921-.921Z" transform="translate(-3.283 -3.313)" fill="#000941"/>
</svg>
