<svg xmlns="http://www.w3.org/2000/svg" width="23.797" height="15.865" viewBox="0 0 23.797 15.865">
  <path id="icons8_eye" d="M11.9,5C4.824,5,.255,12.307.172,12.44a.791.791,0,0,0-.043.925l0,0c.014.028,3.849,7.5,11.767,7.5,7.884,0,11.714-7.394,11.761-7.485l.009-.016a.792.792,0,0,0-.042-.923l0,0C23.542,12.307,18.973,5,11.9,5Zm0,2.38a5.553,5.553,0,1,1-5.553,5.553A5.553,5.553,0,0,1,11.9,7.38Zm0,3.173a2.38,2.38,0,1,0,2.38,2.38A2.38,2.38,0,0,0,11.9,10.553Z" transform="translate(0 -5)" fill="#fff"/>
</svg>
