<svg xmlns="http://www.w3.org/2000/svg" width="19.898" height="13.112" viewBox="0 0 19.898 13.112">
  <path id="icons8_airplane_take_off" d="M17.151,11a5.122,5.122,0,0,0-2.088.46L3.827,16.481a.221.221,0,0,1-.087.025c-.093,0-.255-.129-.4-.236-.538-.4-1.321-.965-1.566-1.156a1.192,1.192,0,0,0-.721-.224,1.081,1.081,0,0,0-.932.435.779.779,0,0,0-.05.758l1.417,3.144c.171.384.614.845,1.752.845A16.39,16.39,0,0,0,9.06,18.358l.522-.236-.907,4.86a1.065,1.065,0,0,0,.062.932.515.515,0,0,0,.41.2.6.6,0,0,0,.249-.05l.621-.273a2.99,2.99,0,0,0,1.193-1.342l2.958-6.4c5.66-2.65,5.915-3.211,5.668-3.766A2.925,2.925,0,0,0,17.151,11Zm-11.633.771a2.069,2.069,0,0,0-.8.137l-.621.273a.549.549,0,0,0-.348.472c-.012.384.378.628.646.771l1.827,1.119,3.6-1.616L6.5,11.907A3.432,3.432,0,0,0,5.518,11.771Z" transform="translate(0.001 -11)" fill="#000941"/>
</svg>
