<svg xmlns="http://www.w3.org/2000/svg" width="20.664" height="20.667" viewBox="0 0 20.664 20.667">
  <path id="icons8_flag_2" d="M5.369,0C1.846,0,.6.61.242.852a.4.4,0,0,0-.116.09H.113L.1.969a.22.22,0,0,0-.039.039L0,1.059v.1A.311.311,0,0,0,0,1.24V20.248a.413.413,0,0,0,.621.363.416.416,0,0,0,.205-.363v-7.58a12.391,12.391,0,0,1,4.546-.684,12.894,12.894,0,0,1,3.848.7,19.648,19.648,0,0,0,6.069.956,11.428,11.428,0,0,0,5.165-1.291l.207-.116V.956l-.607.336a10.517,10.517,0,0,1-4.765,1.188,11.324,11.324,0,0,1-4.8-1.214A12.159,12.159,0,0,0,5.369,0Z" transform="translate(0.006)"/>
</svg>
