<svg xmlns="http://www.w3.org/2000/svg" width="27.493" height="32.729" viewBox="0 0 27.493 32.729">
  <path id="icons8_notification" d="M17.746,0a2.616,2.616,0,0,0-2.434,3.58,8.135,8.135,0,0,0-6.075,8.2c0,5.127-1.258,7.461-2.455,8.776a10.411,10.411,0,0,1-1.7,1.432,3.972,3.972,0,0,0-.7.614A1.514,1.514,0,0,0,4,23.565a2.641,2.641,0,0,0,1.33,2.168,8.946,8.946,0,0,0,3.027,1.084,37.017,37.017,0,0,0,5.728.593A3.923,3.923,0,1,0,21.674,28.8a3.868,3.868,0,0,0-.266-1.391,37.017,37.017,0,0,0,5.728-.593,8.946,8.946,0,0,0,3.027-1.084,2.641,2.641,0,0,0,1.33-2.168A1.514,1.514,0,0,0,31.1,22.6a3.975,3.975,0,0,0-.7-.614,10.411,10.411,0,0,1-1.7-1.432c-1.2-1.314-2.455-3.649-2.455-8.776a8.146,8.146,0,0,0-6.075-8.2A2.616,2.616,0,0,0,17.746,0Zm0,1.309a1.309,1.309,0,1,1-1.309,1.309A1.3,1.3,0,0,1,17.746,1.309Zm1.534,3.4c3.49.621,5.666,3.319,5.666,7.078,0,5.347,1.36,8.093,2.782,9.655a11.649,11.649,0,0,0,1.9,1.616,3.73,3.73,0,0,1,.491.409c.079.089.061.082.061.1,0,.409-.189.708-.736,1.064a7.884,7.884,0,0,1-2.577.921,49.083,49.083,0,0,1-9.123.634,49.083,49.083,0,0,1-9.123-.634,7.885,7.885,0,0,1-2.577-.921c-.547-.355-.736-.655-.736-1.064,0-.02-.018-.013.061-.1a3.726,3.726,0,0,1,.491-.409,11.651,11.651,0,0,0,1.9-1.616c1.422-1.562,2.782-4.309,2.782-9.655,0-3.756,2.179-6.433,5.666-7.057a2.572,2.572,0,0,0,1.534.511A2.545,2.545,0,0,0,19.281,4.7ZM15.5,27.452c.734.015,1.48.041,2.25.041s1.516-.026,2.25-.041a2.656,2.656,0,0,1,.368,1.35,2.618,2.618,0,1,1-4.868-1.35Z" transform="translate(-4)" fill="#fff"/>
</svg>
