<svg xmlns="http://www.w3.org/2000/svg" width="21.008" height="21.921" viewBox="0 0 21.008 21.921">
  <path id="icons8_calendar_1" d="M6.567,0a.92.92,0,0,0-.913.913v.913H2.913A.883.883,0,0,0,2,2.74v3.2H23.008V2.74a.883.883,0,0,0-.913-.913h-2.74V.913A.92.92,0,0,0,18.441,0h-.913a.92.92,0,0,0-.913.913v.913H8.394V.913A.92.92,0,0,0,7.48,0Zm0,.913H7.48v2.74H6.567Zm10.961,0h.913v2.74h-.913ZM2,6.85V21.008a.883.883,0,0,0,.913.913H22.094a.883.883,0,0,0,.913-.913V6.85Zm4.567,2.74H8.85v2.283H6.567Zm3.2,0h2.283v2.283H9.764Zm3.2,0h2.283v2.283H12.961Zm3.2,0h2.283v2.283H16.157Zm-9.591,3.2H8.85v2.283H6.567Zm3.2,0h2.283v2.283H9.764Zm3.2,0h2.283v2.283H12.961Zm3.2,0h2.283v2.283H16.157Zm-9.591,3.2H8.85v2.283H6.567Zm3.2,0h2.283v2.283H9.764Zm3.2,0h2.283v2.283H12.961Zm3.2,0h2.283v2.283H16.157Z" transform="translate(-2)"/>
</svg>
