<svg xmlns="http://www.w3.org/2000/svg" width="23.561" height="24.87" viewBox="0 0 23.561 24.87">
  <path id="icons8_export_1" d="M10.6,5A3.615,3.615,0,0,0,7,8.6V26.27a3.615,3.615,0,0,0,3.6,3.6h7.854a3.615,3.615,0,0,0,3.6-3.6V20.053H20.089V26.27a1.622,1.622,0,0,1-1.636,1.636H10.6A1.622,1.622,0,0,1,8.963,26.27V8.6A1.622,1.622,0,0,1,10.6,6.963h7.854A1.622,1.622,0,0,1,20.089,8.6v6.217h1.963V8.6a3.615,3.615,0,0,0-3.6-3.6Zm14.388,6.862a.982.982,0,0,0-.684,1.686l2.905,2.906H12.563a.982.982,0,1,0,0,1.963H27.209L24.3,21.322a.982.982,0,1,0,1.388,1.388l4.581-4.581a.982.982,0,0,0,0-1.388L25.692,12.16A.982.982,0,0,0,24.988,11.862Z" transform="translate(-7 -5)" fill="#000941"/>
</svg>
