<svg xmlns="http://www.w3.org/2000/svg" width="22.775" height="19.34" viewBox="0 0 22.775 19.34">
  <path id="icons8_bedroom_1" d="M8.826,7A3.142,3.142,0,0,0,5.7,10.128v4.655a3.111,3.111,0,0,0-1.706,2.74V23.64a.853.853,0,0,0,0,.277v1.57a.853.853,0,1,0,1.707,0v-.853h19.34v.853a.853.853,0,1,0,1.707,0V23.92a.853.853,0,0,0,0-.277v-6.12a3.111,3.111,0,0,0-1.706-2.74V10.128A3.142,3.142,0,0,0,21.909,7Zm0,1.706H21.909a1.409,1.409,0,0,1,1.422,1.422v4.266H22.194V14.11a3.142,3.142,0,0,0-3.128-3.128H17.643A3.1,3.1,0,0,0,15.368,12a3.1,3.1,0,0,0-2.275-1.019H11.67A3.142,3.142,0,0,0,8.542,14.11v.284H7.4V10.128A1.409,1.409,0,0,1,8.826,8.706Zm2.844,3.982h1.422a1.409,1.409,0,0,1,1.422,1.422v.284H10.248V14.11A1.409,1.409,0,0,1,11.67,12.688Zm5.973,0h1.422a1.409,1.409,0,0,1,1.422,1.422v.284H16.221V14.11A1.409,1.409,0,0,1,17.643,12.688ZM7.12,16.1h16.5a1.409,1.409,0,0,1,1.422,1.422v5.4H5.7v-5.4A1.409,1.409,0,0,1,7.12,16.1Z" transform="translate(-3.98 -7)" fill="#000941"/>
</svg>
