<svg xmlns="http://www.w3.org/2000/svg" width="25.851" height="25.851" viewBox="0 0 25.851 25.851">
  <path id="icons8_linkedin" d="M21,0H4.847A4.848,4.848,0,0,0,0,4.847V21a4.848,4.848,0,0,0,4.847,4.847H21A4.848,4.848,0,0,0,25.851,21V4.847A4.848,4.848,0,0,0,21,0ZM7.993,21.944H3.977L3.954,9.919H7.97ZM5.884,8.346H5.861a2.035,2.035,0,1,1,.05-4.059,2.036,2.036,0,1,1-.027,4.059Zm16.032,13.6H17.866V15.411c0-1.581-.419-2.657-1.833-2.657a2.05,2.05,0,0,0-1.942,1.429,2.623,2.623,0,0,0-.132.952v6.808H9.888L9.865,9.919h4.07l.023,1.7a3.764,3.764,0,0,1,3.46-1.942c2.571,0,4.494,1.678,4.494,5.286v6.983Z" fill="#000941"/>
</svg>
