<svg xmlns="http://www.w3.org/2000/svg" width="24" height="24" viewBox="0 0 24 24">
  <path id="icons8_time_machine" d="M15,3a12,12,0,1,0,6.7,2.043l1.146-1.471L18,3.4,19.4,8l1.063-1.365A9.97,9.97,0,0,1,24.945,14a1,1,0,0,0,.006,2A9.986,9.986,0,0,1,16,24.951a1,1,0,0,0-2,0A9.986,9.986,0,0,1,5.049,16a1,1,0,0,0,0-2A9.985,9.985,0,0,1,15,5a1,1,0,1,0,0-2Zm-.016,4.986A1,1,0,0,0,14,9v5.5l-3.6,2.7a1,1,0,0,0,1.2,1.6l4-3A1,1,0,0,0,16,15V9a1,1,0,0,0-1.016-1.014Z" transform="translate(-3 -3)" fill="#989898"/>
</svg>
