<svg xmlns="http://www.w3.org/2000/svg" width="33.621" height="27.082" viewBox="0 0 33.621 27.082">
  <path id="icons8_twitter_1" d="M39.618,12.2a13.987,13.987,0,0,1-3.966,1.085A6.891,6.891,0,0,0,38.688,9.5a13.848,13.848,0,0,1-4.383,1.659A6.88,6.88,0,0,0,22.559,17.4,19.657,19.657,0,0,1,8.342,10.248a6.752,6.752,0,0,0-.934,3.442,6.822,6.822,0,0,0,3.068,5.693,7.023,7.023,0,0,1-3.127-.854v.08a6.857,6.857,0,0,0,5.531,6.706,6.86,6.86,0,0,1-1.813.246,7.329,7.329,0,0,1-1.3-.126,6.91,6.91,0,0,0,6.442,4.75,13.938,13.938,0,0,1-8.567,2.927A13.645,13.645,0,0,1,6,33.014a19.713,19.713,0,0,0,10.575,3.068A19.4,19.4,0,0,0,36.2,16.626c0-.3-.009-.591-.023-.882A13.571,13.571,0,0,0,39.618,12.2" transform="translate(-5.997 -9)" fill="#000941"/>
</svg>
