<svg xmlns="http://www.w3.org/2000/svg" width="24" height="25.333" viewBox="0 0 24 25.333">
  <path id="icons8_import_2" d="M10.667,5A3.682,3.682,0,0,0,7,8.667v18a3.682,3.682,0,0,0,3.667,3.667h8.667A3.682,3.682,0,0,0,23,26.667V20.333H21v6.333a1.652,1.652,0,0,1-1.667,1.667H10.667A1.652,1.652,0,0,1,9,26.667v-18A1.652,1.652,0,0,1,10.667,7h8.667A1.652,1.652,0,0,1,21,8.667V15h2V8.667A3.682,3.682,0,0,0,19.333,5Zm5.98,6.991a1,1,0,0,0-.687.3L11.293,16.96a1,1,0,0,0,0,1.414L15.96,23.04a1,1,0,1,0,1.414-1.414l-2.96-2.96H30a1,1,0,1,0,0-2H14.414l2.96-2.96a1,1,0,0,0-.727-1.716Z" transform="translate(-7 -5)" fill="#000941"/>
</svg>
