<svg xmlns="http://www.w3.org/2000/svg" width="21.454" height="19.308" viewBox="0 0 21.454 19.308">
  <path id="icons8_people" d="M14.727,6a3.194,3.194,0,0,0-2.411,1.024,3.386,3.386,0,0,0,0,4.387,3.35,3.35,0,0,0,4.823,0,3.386,3.386,0,0,0,0-4.387A3.194,3.194,0,0,0,14.727,6ZM7.754,7.073a2.676,2.676,0,0,0-2.009.857,2.812,2.812,0,0,0,0,3.65,2.676,2.676,0,0,0,2.009.857,2.676,2.676,0,0,0,2.009-.857,2.812,2.812,0,0,0,0-3.65A2.676,2.676,0,0,0,7.754,7.073Zm13.945,0a2.676,2.676,0,0,0-2.009.857,2.812,2.812,0,0,0,0,3.65,2.784,2.784,0,0,0,4.018,0,2.812,2.812,0,0,0,0-3.65A2.676,2.676,0,0,0,21.7,7.073Zm-6.972.536a1.483,1.483,0,0,1,1.209.484,1.782,1.782,0,0,1,0,2.25,1.483,1.483,0,0,1-1.209.484,1.483,1.483,0,0,1-1.209-.484,1.782,1.782,0,0,1,0-2.25A1.483,1.483,0,0,1,14.727,7.609ZM7.754,8.682A.966.966,0,0,1,8.561,9a1.208,1.208,0,0,1,0,1.513.966.966,0,0,1-.807.316.966.966,0,0,1-.807-.316A1.208,1.208,0,0,1,6.948,9,.966.966,0,0,1,7.754,8.682Zm13.945,0A.966.966,0,0,1,22.506,9a1.208,1.208,0,0,1,0,1.513,1.187,1.187,0,0,1-1.613,0,1.208,1.208,0,0,1,0-1.513A.966.966,0,0,1,21.7,8.682ZM5.877,13.509A1.879,1.879,0,0,0,4,15.386v3.486a4.3,4.3,0,0,0,4.291,4.291A4.192,4.192,0,0,0,9.4,23.018a5.99,5.99,0,0,1-.483-1.54,2.636,2.636,0,0,1-.622.075,2.683,2.683,0,0,1-2.682-2.682V15.386a.266.266,0,0,1,.268-.268H8.843a2.9,2.9,0,0,1,.66-1.609Zm5.9,0A1.89,1.89,0,0,0,9.9,15.386v5.1a4.827,4.827,0,1,0,9.654,0v-5.1a1.89,1.89,0,0,0-1.877-1.877Zm8.174,0a2.9,2.9,0,0,1,.66,1.609h2.966a.266.266,0,0,1,.268.268v3.486a2.683,2.683,0,0,1-2.682,2.682,2.636,2.636,0,0,1-.622-.075,5.99,5.99,0,0,1-.483,1.54,4.192,4.192,0,0,0,1.105.145,4.3,4.3,0,0,0,4.291-4.291V15.386a1.879,1.879,0,0,0-1.877-1.877Zm-8.174,1.609h5.9a.256.256,0,0,1,.268.268v5.1a3.218,3.218,0,1,1-6.436,0v-5.1A.256.256,0,0,1,11.777,15.118Z" transform="translate(-4 -6)" fill="#000941"/>
</svg>
