<svg xmlns="http://www.w3.org/2000/svg" width="25.909" height="24.366" viewBox="0 0 25.909 24.366">
  <path id="icons8_airplane_take_off" d="M5.21,0A1.879,1.879,0,0,0,3.854,3.156L7.4,6.991l-2.509,1.1L2.811,6.866a1.871,1.871,0,0,0-1.8-.054A1.885,1.885,0,0,0,.283,9.474l1.388,2.2a3.774,3.774,0,0,0,4.7,1.441L20.831,6.788h0a2.6,2.6,0,0,0-2.081-4.756L13.684,4.246,6.116.22h0A1.88,1.88,0,0,0,5.21,0ZM5.23,1.679a.2.2,0,0,1,.1.024l7.928,4.216a.84.84,0,0,0,.73.028L19.424,3.57a.916.916,0,0,1,.734,1.679L5.692,11.58a2.077,2.077,0,0,1-2.6-.8L1.7,8.58a.177.177,0,0,1,.074-.271h0a.186.186,0,0,1,.182.005h0L4.412,9.753a.84.84,0,0,0,.761.045L9.158,8.057a.84.84,0,0,0,.28-1.339l-4.352-4.7A.184.184,0,0,1,5.134,1.7.2.2,0,0,1,5.23,1.679Z" transform="matrix(0.788, 0.616, -0.616, 0.788, 8.27, 0)" fill="#000941"/>
</svg>
