<svg xmlns="http://www.w3.org/2000/svg" width="18.239" height="18.238" viewBox="0 0 18.239 18.238">
  <path id="icons8_no_audio" d="M4.658,3.984a.684.684,0,0,0-.476,1.174l4.3,4.3H6.493a2.054,2.054,0,0,0-2.051,2.051V14.7a2.054,2.054,0,0,0,2.051,2.051H9.51l4.2,3.737a1.262,1.262,0,0,0,.843.324,1.285,1.285,0,0,0,.529-.114,1.263,1.263,0,0,0,.752-1.163V16.814l5.21,5.21a.684.684,0,1,0,.967-.967L5.149,4.192a.684.684,0,0,0-.491-.207ZM14.547,5.4a1.275,1.275,0,0,0-.834.325l-2.7,2.4,4.822,4.822V6.676a1.263,1.263,0,0,0-.752-1.163A1.28,1.28,0,0,0,14.547,5.4Zm5.228,2.242a.684.684,0,0,0-.552,1,8.978,8.978,0,0,1,.4,8.1l1.03,1.03a10.423,10.423,0,0,0-.219-9.759A.68.68,0,0,0,19.775,7.641ZM17.753,9.922a.687.687,0,0,0-.6.97,5,5,0,0,1,.291,3.66l1.067,1.067a6.379,6.379,0,0,0-.114-5.3A.683.683,0,0,0,17.753,9.922Z" transform="translate(-3.975 -3.985)" fill="#989898"/>
</svg>
