<svg xmlns="http://www.w3.org/2000/svg" width="22" height="22" viewBox="0 0 22 22">
  <path id="icons8_location_1" d="M15,4a11.09,11.09,0,1,0,10.847,9.254c-.107.147-.22.291-.339.43-.108.123-.589.664-1.159,1.291,0,.009,0,.016,0,.025a9.291,9.291,0,0,1-.417,2.75H11.33a21.044,21.044,0,0,1,0-5.5H14.55a6.489,6.489,0,0,1-.542-1.65H11.629c.708-3.045,2.09-4.95,3.371-4.95.04,0,.081.007.121.011A6.62,6.62,0,0,1,16.65,4.137,10.954,10.954,0,0,0,15,4Zm5.5,0A5.48,5.48,0,0,0,15,9.433a5.381,5.381,0,0,0,1.323,3.53l0,0,0,0s2.149,2.426,2.981,3.208a1.745,1.745,0,0,0,2.376,0c.931-.876,2.983-3.21,2.983-3.21l0,0,0,0A5.384,5.384,0,0,0,26,9.433,5.48,5.48,0,0,0,20.5,4Zm0,1.65a3.805,3.805,0,0,1,3.85,3.783,3.712,3.712,0,0,1-.918,2.447v0c-.008.01-2.148,2.413-2.872,3.095a.076.076,0,0,1-.115,0h0c-.59-.555-2.865-3.089-2.874-3.1a3.712,3.712,0,0,1-.918-2.445A3.805,3.805,0,0,1,20.5,5.65ZM11.607,6.3a13,13,0,0,0-1.662,4.3H6.754A9.4,9.4,0,0,1,11.607,6.3ZM20.5,8.125A1.375,1.375,0,1,0,21.875,9.5,1.375,1.375,0,0,0,20.5,8.125ZM6.065,12.25H9.674a21.95,21.95,0,0,0,0,5.5H6.067a9.3,9.3,0,0,1,0-5.5Zm.7,7.15H9.954a13.083,13.083,0,0,0,1.652,4.3A9.411,9.411,0,0,1,6.762,19.4Zm4.868,0h6.735c-.707,3.043-2.085,4.95-3.366,4.95S12.338,22.445,11.63,19.4Zm8.42,0h3.188a9.411,9.411,0,0,1-4.845,4.3A13.03,13.03,0,0,0,20.05,19.4Z" transform="translate(-4 -4)" fill="#000941"/>
</svg>
