<svg xmlns="http://www.w3.org/2000/svg" width="31.5" height="24.231" viewBox="0 0 31.5 24.231">
  <path id="icons8_camera" d="M14.4,4a2.422,2.422,0,0,0-2.167,1.339l-.478.956A2.426,2.426,0,0,1,9.589,7.635H4.423A2.422,2.422,0,0,0,2,10.058v15.75a2.422,2.422,0,0,0,2.423,2.423H31.077A2.422,2.422,0,0,0,33.5,25.808V10.058a2.422,2.422,0,0,0-2.423-2.423H25.911A2.422,2.422,0,0,1,23.744,6.3l-.478-.956A2.426,2.426,0,0,0,21.1,4ZM6.846,5.212A1.212,1.212,0,0,0,5.635,6.423H9.269A1.212,1.212,0,0,0,8.058,5.212Zm10.9,3.635a8.481,8.481,0,1,1-8.481,8.481A8.49,8.49,0,0,1,17.75,8.846Zm10.9,1.212a1.212,1.212,0,1,1-1.212,1.212A1.212,1.212,0,0,1,28.654,10.058Zm-10.9,1.212a6.058,6.058,0,1,0,6.058,6.058,6.058,6.058,0,0,0-6.058-6.058Z" transform="translate(-2 -4)" fill="#fff"/>
</svg>
