<svg xmlns="http://www.w3.org/2000/svg" width="15.059" height="16.494" viewBox="0 0 15.059 16.494">
  <path id="icons8_hotel" d="M5.676,0l-.4.836-.915.11.7.618-.183.946.8-.473.8.473L6.3,1.564l.7-.618L6.079.836Zm.8,2.51H5.9A1.881,1.881,0,0,0,4,4.411V16.135a.36.36,0,0,0,.359.359h6.1V12.908h2.151v3.586h6.1a.36.36,0,0,0,.359-.359V4.411a1.881,1.881,0,0,0-1.9-1.9H6.481Zm1.317,0L8.6,2.037l.8.473-.183-.946.7-.618L9.005.836,8.6,0,8.2.836l-.915.11.7.618Zm2.927,0,.8-.473.8.473-.183-.946.7-.618-.915-.11L11.53,0l-.4.836-.915.11.7.618Zm2.927,0,.8-.473.805.473-.183-.946.7-.618-.915-.11L14.456,0l-.4.836-.915.11.7.618Zm2.927,0,.8-.473.8.473-.183-.946.7-.618-.915-.11L17.384,0l-.4.836-.915.11.7.618ZM6.151,4.3H8.3V5.737H6.151Zm4.3,0h2.151V5.737H10.454Zm4.3,0h2.151V5.737H14.757ZM6.151,7.171H8.3V8.605H6.151Zm4.3,0h2.151V8.605H10.454Zm4.3,0h2.151V8.605H14.757ZM6.151,10.04H8.3v1.434H6.151Zm4.3,0h2.151v1.434H10.454Zm4.3,0h2.151v1.434H14.757ZM6.151,12.908H8.3v1.434H6.151Zm8.605,0h2.151v1.434H14.757Z" transform="translate(-4)" fill="#000941"/>
</svg>
