<svg xmlns="http://www.w3.org/2000/svg" width="20.513" height="21.921" viewBox="0 0 20.513 21.921">
  <path id="icons8_user_5" d="M19.92,19.579a21.958,21.958,0,0,1-.048-2.273,4.438,4.438,0,0,0,1.219-2.638c.31-.025.8-.327.943-1.52a1.117,1.117,0,0,0-.418-1.115c.5-1.516,1.552-6.208-1.936-6.693a2.747,2.747,0,0,0-2.473-.949C12.425,4.479,11.85,8,12.9,12.032a1.117,1.117,0,0,0-.418,1.115c.146,1.193.633,1.495.943,1.52a4.424,4.424,0,0,0,1.248,2.638,21.979,21.979,0,0,1-.051,2.273C13.676,22.122,7.3,21.407,7,26.312H27.513C27.217,21.407,20.864,22.122,19.92,19.579Z" transform="translate(-7 -4.391)"/>
</svg>
