<svg xmlns="http://www.w3.org/2000/svg" width="21.525" height="17.435" viewBox="0 0 21.525 17.435">
  <path id="icons8_dining" d="M5.819,7A2.83,2.83,0,0,0,3,9.819V21.606a2.83,2.83,0,0,0,2.819,2.819h4.23a.769.769,0,0,0,.249,0H17.48a.769.769,0,0,0,.249,0h3.977a2.83,2.83,0,0,0,2.819-2.819V9.819A2.83,2.83,0,0,0,21.706,7Zm0,1.537H21.706a1.27,1.27,0,0,1,1.281,1.281V21.606a1.27,1.27,0,0,1-1.281,1.281H18.375v-3.7a2.824,2.824,0,0,0,2.05-2.71V12.125a.513.513,0,1,0-1.025,0v3.331a.25.25,0,0,1-.256.256h-.769a.25.25,0,0,1-.256-.256V12.125a.513.513,0,1,0-1.025,0v3.331a.25.25,0,0,1-.256.256h-.769a.25.25,0,0,1-.256-.256V12.125a.513.513,0,1,0-1.025,0v4.356a2.824,2.824,0,0,0,2.05,2.71v3.7H10.944V19.2a3.1,3.1,0,0,0,2.306-3c0-1.868-1.2-4.581-3.075-4.581S7.1,14.326,7.1,16.194a3.1,3.1,0,0,0,2.306,3v3.69H5.819a1.27,1.27,0,0,1-1.281-1.281V9.819A1.27,1.27,0,0,1,5.819,8.537Z" transform="translate(-3 -7)" fill="#000941"/>
</svg>
