<svg xmlns="http://www.w3.org/2000/svg" width="22.485" height="18.281" viewBox="0 0 22.485 18.281">
  <path id="icons8_night" d="M17.08,2.926l.757,1.608a3.851,3.851,0,0,1,.224,1.589A3.616,3.616,0,0,1,16.525,9.25a5.85,5.85,0,0,0-9.615,1.3,5.339,5.339,0,0,0,.443,10.661H18.06a4.262,4.262,0,0,0,3.216-7.083A5.883,5.883,0,0,0,18.853,3.007Zm3.009,2.539a3.7,3.7,0,0,1,2.254,3.419,3.741,3.741,0,0,1-3.758,3.758V12.7a4.222,4.222,0,0,0-.525-.054.239.239,0,0,0-.027,0,5.822,5.822,0,0,0-.389-1.573A5.82,5.82,0,0,0,20.2,6.123C20.2,5.921,20.1,5.678,20.089,5.465Z" transform="translate(-2 -2.926)" fill="#000941"/>
</svg>
