<svg xmlns="http://www.w3.org/2000/svg" width="13.967" height="19.954" viewBox="0 0 13.967 19.954">
  <path id="icons8_call" d="M13.432,4.094l-1.074.343a3.253,3.253,0,0,0-2.144,2.4q-.939,4.084,2.253,9.945t6.987,7.037a3.013,3.013,0,0,0,3.045-.776l.816-.819a2.316,2.316,0,0,0,.258-2.909l-1.23-1.806a2.029,2.029,0,0,0-2.325-.818l-1.869.624a.763.763,0,0,1-.731-.13,8.744,8.744,0,0,1-1.935-2.325,8.144,8.144,0,0,1-1.028-2.777.756.756,0,0,1,.234-.666l1.6-1.52A2.312,2.312,0,0,0,16.8,7.333L15.945,5.31A2.057,2.057,0,0,0,13.432,4.094Z" transform="translate(-10 -4)" fill="#000941"/>
</svg>
