<svg xmlns="http://www.w3.org/2000/svg" xmlns:xlink="http://www.w3.org/1999/xlink" width="1641" height="650" viewBox="0 0 1641 650">
    <defs>
        <linearGradient id="linear-gradient" x1="0.037" y1="-0.023" x2="0.803" y2="1.087" gradientUnits="objectBoundingBox">
            <stop offset="0" stop-color="#eb054d" />
            <stop offset="1" stop-color="#fd843d" />
        </linearGradient>
        <clipPath id="clip-path">
            <rect id="Rectangle_505" data-name="Rectangle 505" width="1640" height="641.927" transform="translate(177.021 296.009)" fill="none" stroke="#fff" stroke-width="1" />
        </clipPath>
    </defs>
    <g id="Group_1565" data-name="Group 1565" transform="translate(-140 -2561)">
        <path id="Path_720" data-name="Path 720" d="M22,0H1618a22,22,0,0,1,22,22V628a22,22,0,0,1-22,22H22A22,22,0,0,1,0,628V22A22,22,0,0,1,22,0Z" transform="translate(140 2561)" fill="url(#linear-gradient)" />
        <g id="Group_775" data-name="Group 775" transform="translate(-36.021 2268.99)" opacity="0.45">
            <g id="Group_746" data-name="Group 746" clip-path="url(#clip-path)">
                <path id="Path_455" data-name="Path 455" d="M449.9,231.2c-89.8-37.755-134.183-135.449-139.338-206.986" transform="translate(590.828 -242.926)" fill="none" stroke="#fff" stroke-miterlimit="10" stroke-width="1.103" stroke-dasharray="5.517 5.517" />
                <path id="Path_456" data-name="Path 456" d="M818.326,12.933c-2.395,55.686-20.779,110.917-54.125,155.58s-81.788,78.3-135.881,91.732c-52.354,13-115.32,3.291-146.925-40.425-9.352-12.933-15.531-29.283-12.039-44.855,4.9-21.87,29.64-36.272,51.649-32.04s39.09,24.668,41.946,46.9-7.288,45.061-23.945,60.052c-15.975,14.379-84.522,31.971-166.276,15.139" transform="translate(709.102 -264.396)" fill="none" stroke="#fff" stroke-miterlimit="10" stroke-width="1.103" stroke-dasharray="5.517 5.517" />
                <path id="Path_457" data-name="Path 457" d="M595.98,21.918a258.294,258.294,0,0,1,47.136,112.5c3.718,23.455,3.991,48.332-5.732,70s-31.344,39.215-55.08,38.4c-14.17-.488-29.3-9.477-31.289-23.516-1.866-13.192,8.794-25.646,21.359-30.069s26.409-2.627,39.465.023c91.822,18.637,174.409,78.688,220.444,160.291,14.512,25.724,25.591,57.071,14.135,84.293-5.93,14.094-17.322,25.275-29.907,33.962-57.881,39.961-196.911-39.439-234.376,19.8-26.166,41.38,15.743,93.865,48.143,115.457C717.977,661.506,823.042,689,924.724,716.71" transform="translate(1047.876 -247.302)" fill="none" stroke="#fff" stroke-miterlimit="10" stroke-width="1.103" stroke-dasharray="5.517 5.517" />
                <path id="Path_458" data-name="Path 458" d="M1076.23,714.984C951.4,674.855,819.375,601.678,756.818,486.445c-34.063-62.748-14.7-127.577,33.436-132.363s97.438,66.031,84.888,130.573C865,536.805,832.851,559.221,796.9,567.328s-74.233.4-107.423-15.609C606.224,511.545,512.1,398.6,449.709,347.4c-55.9-45.87-149.157-33.062-176.051,32.374s49.847,216.61,102.19,288.64" transform="translate(510.057 215.04)" fill="none" stroke="#fff" stroke-miterlimit="10" stroke-width="1.103" stroke-dasharray="5.517 5.517" />
                <path id="Path_459" data-name="Path 459" d="M538.572,564.744c99.516-45.235,142.757-141,119.558-185.153-14.236-27.094-42.251-28.015-58.406-14.57-10.295,8.565-26.557,26.973-10.417,53.484,10.756,17.67,35,22.694,55.681,23.208s41.029-4.96,60.708-11.343a640.67,640.67,0,0,0,153.1-73.345" transform="translate(1024.609 284.296)" fill="none" stroke="#fff" stroke-miterlimit="10" stroke-width="1.103" stroke-dasharray="5.517 5.517" />
                <path id="Path_460" data-name="Path 460" d="M190.4,381.159c12.135-1.048,24.578-1.9,37.453-2.389,184.509-7.007,104.915,209.122,102.895,252.075" transform="translate(362.237 326.276)" fill="none" stroke="#fff" stroke-miterlimit="10" stroke-width="1.103" stroke-dasharray="5.517 5.517" />
                <path id="Path_461" data-name="Path 461" d="M16.918,266.549c2.868,54.787,87.9,245.992,188.468,294.785,104.819,50.854,176.928,47.458,252.911,39.444" transform="translate(32.186 113.097)" fill="none" stroke="#fff" stroke-miterlimit="10" stroke-width="1.103" stroke-dasharray="5.517 5.517" />
                <path id="Path_462" data-name="Path 462" d="M.346,155.913c84.209-67.735,367.9-101.679,607.368-4.748,135.545,54.865,170.83,159.185,97.192,200.609-54.97,30.92-165.75,5.163-116.594-98.187C648.142,127.788,829.5,26.281,934.608.536" transform="translate(0.658 -287.98)" fill="none" stroke="#fff" stroke-miterlimit="10" stroke-width="1.103" stroke-dasharray="5.517 5.517" />
                <path id="Path_463" data-name="Path 463" d="M565.26,76.624s-44.527,43.482-48.944,48.306c-5.683,6.208,1.347,14.274,8.144,8.858,6.342-5.05,44.288-43.525,49.443-49.211S571.137,70.976,565.26,76.624Z" transform="translate(978.306 -146.921)" fill="none" stroke="#fff" stroke-miterlimit="10" stroke-width="0.708" />
                <path id="Path_464" data-name="Path 464" d="M540.3,98.079s-22.935-13.023-26.621-15.444-.935-4.894,1.959-4.38c12.33,2.191,35.726,9.45,35.726,9.45" transform="translate(973.876 -140.254)" fill="none" stroke="#fff" stroke-miterlimit="10" stroke-width="0.708" />
                <path id="Path_465" data-name="Path 465" d="M525.123,95.29s13.023,22.935,15.444,26.621,4.894.935,4.38-1.959c-2.191-12.33-9.45-35.726-9.45-35.726" transform="translate(999.022 -128.764)" fill="none" stroke="#fff" stroke-miterlimit="10" stroke-width="0.708" />
                <path id="Path_466" data-name="Path 466" d="M525.233,92.092s-8.153-1.889-10.022-2.357c-2.621-.656-4.955,1.974-2.032,4.061,3.669,2.621,6.353,4.455,6.353,4.455" transform="translate(973.722 -118.478)" fill="none" stroke="#fff" stroke-miterlimit="10" stroke-width="0.708" />
                <path id="Path_467" data-name="Path 467" d="M523.593,93.434s1.889,8.153,2.357,10.022c.656,2.621-1.974,4.954-4.06,2.032-2.621-3.669-4.455-6.353-4.455-6.353" transform="translate(984.394 -111.246)" fill="none" stroke="#fff" stroke-miterlimit="10" stroke-width="0.708" />
                <path id="Path_468" data-name="Path 468" d="M244.265,396.969s-61.538,53.852-67.676,59.866c-7.9,7.738.74,18.825,10.051,12.2,8.681-6.171,61.224-53.925,68.4-61.018S252.38,389.983,244.265,396.969Z" transform="translate(330.061 356.954)" fill="none" stroke="#fff" stroke-miterlimit="10" stroke-width="0.784" />
                <path id="Path_469" data-name="Path 469" d="M207.482,425.794s-29.155-18.73-33.819-22.172-.877-6.487,2.882-5.6c16.022,3.759,46.2,14.962,46.2,14.962" transform="translate(326.271 362.918)" fill="none" stroke="#fff" stroke-miterlimit="10" stroke-width="0.784" />
                <path id="Path_470" data-name="Path 470" d="M188.188,420.693s15.441,31.024,18.352,36.037,6.353,1.576,5.886-2.258c-1.988-16.335-9.836-47.551-9.836-47.551" transform="translate(358.019 380.148)" fill="none" stroke="#fff" stroke-miterlimit="10" stroke-width="0.784" />
                <path id="Path_471" data-name="Path 471" d="M188.14,416.878s-10.562-3.065-12.98-3.814c-3.393-1.045-6.641,2.235-2.958,5.184,4.627,3.7,8.02,6.3,8.02,6.3" transform="translate(324.508 391.458)" fill="none" stroke="#fff" stroke-miterlimit="10" stroke-width="0.784" />
                <path id="Path_472" data-name="Path 472" d="M186.06,418.347s1.9,10.832,2.374,13.319c.673,3.486-2.943,6.356-5.474,2.371-3.175-5-5.387-8.655-5.387-8.655" transform="translate(337.824 401.886)" fill="none" stroke="#fff" stroke-miterlimit="10" stroke-width="0.784" />
                <path id="Path_473" data-name="Path 473" d="M156.33,94.215S84.527,44.8,76.7,40.032C66.633,33.9,57.45,45.744,66.732,53.621c8.658,7.346,71.8,49.08,81.01,54.624S165.682,100.763,156.33,94.215Z" transform="translate(119.638 -216.074)" fill="none" stroke="#fff" stroke-miterlimit="10" stroke-width="0.992" />
                <path id="Path_474" data-name="Path 474" d="M79.026,75.065S90.714,40.023,93.042,34.3s6.472-2.609,6.548,1.506c.331,17.54-3.315,51.655-3.315,51.655" transform="translate(150.343 -229.699)" fill="none" stroke="#fff" stroke-miterlimit="10" stroke-width="0.992" />
                <path id="Path_475" data-name="Path 475" d="M98.278,51.826s-27.991,24.1-32.406,28.43.044,6.978,3.878,5.486c16.355-6.345,46.541-22.657,46.541-22.657" transform="translate(121.832 -190.403)" fill="none" stroke="#fff" stroke-miterlimit="10" stroke-width="0.992" />
                <path id="Path_476" data-name="Path 476" d="M76.691,52.737s.389-11.714.528-14.411c.189-3.779-4.058-6.272-6.136-1.692-2.606,5.75-4.4,9.938-4.4,9.938" transform="translate(126.861 -224.014)" fill="none" stroke="#fff" stroke-miterlimit="10" stroke-width="0.992" />
                <path id="Path_477" data-name="Path 477" d="M78.95,50.169s-10.693,4.809-13.134,5.956c-3.425,1.611-7.343-1.373-3.892-5.03,4.333-4.595,7.526-7.842,7.526-7.842" transform="translate(115.262 -206.715)" fill="none" stroke="#fff" stroke-miterlimit="10" stroke-width="0.992" />
                <path id="Path_478" data-name="Path 478" d="M373.321,369.079s-57.141-24.665-63.279-26.914c-7.9-2.9-12.7,6.667-5.1,10.9,7.082,3.947,57.088,24.427,64.307,27.034S380.778,372.37,373.321,369.079Z" transform="translate(572.87 255.929)" fill="none" stroke="#fff" stroke-miterlimit="10" stroke-width="0.708" />
                <path id="Path_479" data-name="Path 479" d="M313.187,367.136s3.332-26.163,4.168-30.493,4.171-2.725,4.795.148c2.661,12.237,4.836,36.638,4.836,36.638" transform="translate(595.824 241.372)" fill="none" stroke="#fff" stroke-miterlimit="10" stroke-width="0.708" />
                <path id="Path_480" data-name="Path 480" d="M324.577,349.717s-16.265,20.761-18.756,24.4.993,4.882,3.471,3.306c10.579-6.711,29.457-22.317,29.457-22.317" transform="translate(580.176 271.321)" fill="none" stroke="#fff" stroke-miterlimit="10" stroke-width="0.708" />
                <path id="Path_481" data-name="Path 481" d="M311.316,350.929s-1.35-8.26-1.628-10.167c-.389-2.673-3.706-3.831-4.528-.334-1.03,4.388-1.707,7.57-1.707,7.57" transform="translate(577.305 249.501)" fill="none" stroke="#fff" stroke-miterlimit="10" stroke-width="0.708" />
                <path id="Path_482" data-name="Path 482" d="M312.73,348.931s-6.824,4.847-8.374,5.991c-2.177,1.6-5.332.055-3.422-2.987,2.4-3.817,4.185-6.533,4.185-6.533" transform="translate(571.392 263.112)" fill="none" stroke="#fff" stroke-miterlimit="10" stroke-width="0.708" />
                <path id="Path_483" data-name="Path 483" d="M505.738,377.2l37.833,37.668S551.585,383.592,505.738,377.2Z" transform="translate(962.143 323.613)" fill="none" stroke="#fff" stroke-miterlimit="10" stroke-width="0.708" />
                <path id="Path_484" data-name="Path 484" d="M506.05,484.867s33.744-51.849,36.928-94.684c9.468,29.326-15.046,84.572-25.237,98.985Z" transform="translate(962.737 348.305)" fill="none" stroke="#fff" stroke-miterlimit="10" stroke-width="0.708" />
                <path id="Path_485" data-name="Path 485" d="M518.777,409.629S517.72,383.44,544.7,379.96A268.912,268.912,0,0,1,518.777,409.629Z" transform="translate(986.938 328.857)" fill="none" stroke="#fff" stroke-miterlimit="10" stroke-width="0.708" />
                <path id="Path_486" data-name="Path 486" d="M571.275,388.275l-52.5,14.3S545.513,372.413,571.275,388.275Z" transform="translate(986.942 335.907)" fill="none" stroke="#fff" stroke-miterlimit="10" stroke-width="0.708" />
                <path id="Path_487" data-name="Path 487" d="M550.576,397.818s-26.63-23.3-48.52-4C527.3,396.75,550.576,397.818,550.576,397.818Z" transform="translate(955.139 340.667)" fill="none" stroke="#fff" stroke-miterlimit="10" stroke-width="0.708" />
                <path id="Path_488" data-name="Path 488" d="M508.473,417.953l32.11-27.771S500,397.978,508.473,417.953Z" transform="translate(965.132 348.303)" fill="none" stroke="#fff" stroke-miterlimit="10" stroke-width="0.708" />
                <path id="Path_489" data-name="Path 489" d="M552.021,417.152l-33.248-26.97S560.322,391.37,552.021,417.152Z" transform="translate(986.942 348.305)" fill="none" stroke="#fff" stroke-miterlimit="10" stroke-width="0.708" />
                <path id="Path_490" data-name="Path 490" d="M537.1,426.488c6.321,3.73,12.573,9.581,18.045,18.541l-57.852-21.284a48.763,48.763,0,0,1,28.5-1.887" transform="translate(946.07 406.06)" fill="none" stroke="#fff" stroke-miterlimit="10" stroke-width="0.708" />
                <path id="Path_491" data-name="Path 491" d="M339.616,78.421l-53.074-5.764S299.829,102.085,339.616,78.421Z" transform="translate(545.133 -150.773)" fill="none" stroke="#fff" stroke-miterlimit="10" stroke-width="0.708" />
                <path id="Path_492" data-name="Path 492" d="M283.831,39.237s6.057,61.567,30.339,97c-25.719-16.979-41.1-75.429-42.152-93.05Z" transform="translate(517.502 -214.353)" fill="none" stroke="#fff" stroke-miterlimit="10" stroke-width="0.708" />
                <path id="Path_493" data-name="Path 493" d="M287.749,72.656s17.188,19.786-1.692,39.36A268.346,268.346,0,0,1,287.749,72.656Z" transform="translate(543.923 -150.775)" fill="none" stroke="#fff" stroke-miterlimit="10" stroke-width="0.708" />
                <path id="Path_494" data-name="Path 494" d="M275.5,116.634l32.049-43.978S305.525,112.916,275.5,116.634Z" transform="translate(524.124 -150.775)" fill="none" stroke="#fff" stroke-miterlimit="10" stroke-width="0.708" />
                <path id="Path_495" data-name="Path 495" d="M286.541,90.484s35.352,1.55,40.376-27.2C305.381,76.773,286.541,90.484,286.541,90.484Z" transform="translate(545.131 -168.603)" fill="none" stroke="#fff" stroke-miterlimit="10" stroke-width="0.708" />
                <path id="Path_496" data-name="Path 496" d="M294.256,58.273l-7.715,41.749S313.354,68.574,294.256,58.273Z" transform="translate(545.131 -178.138)" fill="none" stroke="#fff" stroke-miterlimit="10" stroke-width="0.708" />
                <path id="Path_497" data-name="Path 497" d="M271.792,72.56l42.811.279S281.422,97.875,271.792,72.56Z" transform="translate(517.072 -150.958)" fill="none" stroke="#fff" stroke-miterlimit="10" stroke-width="0.708" />
                <path id="Path_498" data-name="Path 498" d="M289.182,57.4c-7.265,1.039-15.8.377-25.672-3.2l58.461-19.536A48.718,48.718,0,0,1,300.9,53.951" transform="translate(501.316 -223.048)" fill="none" stroke="#fff" stroke-miterlimit="10" stroke-width="0.708" />
                <path id="Path_499" data-name="Path 499" d="M602.077,317.3c-24.555,11.07-8.739,87.1-8.739,87.1l79.8-35.982S626.631,306.23,602.077,317.3Z" transform="translate(1119.261 207.138)" fill="none" stroke="#fff" stroke-miterlimit="10" stroke-width="0.708" />
                <path id="Path_500" data-name="Path 500" d="M644.123,406.468l55.138-24.862S637.595,285.8,613.04,296.871c-13.238,5.967-10.333,40.6-4.847,71.244" transform="translate(1148.276 169.088)" fill="none" stroke="#fff" stroke-miterlimit="10" stroke-width="0.708" />
                <path id="Path_501" data-name="Path 501" d="M604.114,351.006c5.207.163,9.442-4.182,12.083-8.673,2.708-4.6,4.536-9.709,7.555-14.112a22.985,22.985,0,0,1,4.206-4.661c-9.52-6.272-18.918-9.6-26.322-6.261-7.988,3.6-11.7,14.083-13.078,26.584.052.012.1.02.157.035C594.231,345.39,598.408,350.829,604.114,351.006Z" transform="translate(1119.703 207.138)" fill="none" stroke="#fff" stroke-miterlimit="10" stroke-width="0.708" />
                <path id="Path_502" data-name="Path 502" d="M605.842,336c2.514,1.382,4.58,3.463,7.05,4.923s5.695,2.22,8.162.755c2.415-1.431,3.306-4.49,3.506-7.291s-.067-5.7.9-8.339,3.741-4.937,6.423-4.11c1.553.479,2.633,1.831,3.817,2.94a6.528,6.528,0,0,0,4.9,2.116c3.712-.377,5.007-5.01,5.709-8.673.226-1.19.505-2.386.827-3.579-13.067-13.012-25.73-21.638-34.092-17.868-8.5,3.831-10.341,19.461-9.125,38.266A14.127,14.127,0,0,1,605.842,336Z" transform="translate(1148.277 169.089)" fill="none" stroke="#fff" stroke-miterlimit="10" stroke-width="0.708" />
                <line id="Line_193" data-name="Line 193" y1="66.803" x2="148.159" transform="translate(1707.005 547.258)" fill="none" stroke="#fff" stroke-miterlimit="10" stroke-width="0.708" />
                <path id="Path_503" data-name="Path 503" d="M380.486,397.53c-25.388-9-66.579,56.83-66.579,56.83L396.415,483.6S405.874,406.527,380.486,397.53Z" transform="translate(597.194 360.675)" fill="none" stroke="#fff" stroke-miterlimit="10" stroke-width="0.708" />
                <path id="Path_504" data-name="Path 504" d="M342.333,492.963l57.01,20.207s21.777-111.837-3.608-120.835c-13.691-4.853-35.555,22.157-52.8,48.079" transform="translate(651.273 351.316)" fill="none" stroke="#fff" stroke-miterlimit="10" stroke-width="0.708" />
                <path id="Path_505" data-name="Path 505" d="M333.556,423.577c3.646,3.721,9.712,3.512,14.724,2.1,5.14-1.445,9.993-3.866,15.221-4.957a22.96,22.96,0,0,1,6.261-.456c-2.534-11.114-7.015-20.021-14.669-22.732-8.26-2.929-18.2,2.066-27.837,10.138.029.046.061.087.087.134C330.308,412.684,329.56,419.5,333.556,423.577Z" transform="translate(622.588 360.674)" fill="none" stroke="#fff" stroke-miterlimit="10" stroke-width="0.708" />
                <path id="Path_506" data-name="Path 506" d="M350.136,415.6c.859,2.737.911,5.669,1.683,8.432s2.574,5.544,5.37,6.194c2.734.636,5.494-.955,7.578-2.839s3.9-4.162,6.414-5.4,6.118-.975,7.482,1.477c.789,1.419.633,3.143.72,4.763a6.545,6.545,0,0,0,2.075,4.92c2.94,2.293,7.079-.154,10.121-2.313.987-.7,2.017-1.373,3.074-2.009-.429-18.436-3.6-33.428-12.245-36.49-8.786-3.114-20.935,6.893-33.071,21.31A13.928,13.928,0,0,1,350.136,415.6Z" transform="translate(664.6 351.316)" fill="none" stroke="#fff" stroke-miterlimit="10" stroke-width="0.708" />
                <line id="Line_194" data-name="Line 194" x2="153.186" y2="54.296" transform="translate(905.315 812.984)" fill="none" stroke="#fff" stroke-miterlimit="10" stroke-width="0.708" />
                <path id="Path_507" data-name="Path 507" d="M654.508,127.429a37.753,37.753,0,1,1-51.664-13.464A37.753,37.753,0,0,1,654.508,127.429Z" transform="translate(1111.383 -82.069)" fill="none" stroke="#fff" stroke-linecap="round" stroke-linejoin="round" stroke-width="0.708" />
                <path id="Path_508" data-name="Path 508" d="M638.773,125.878a27.388,27.388,0,1,1-37.482-9.767A27.384,27.384,0,0,1,638.773,125.878Z" transform="translate(1118.178 -75.274)" fill="none" stroke="#fff" stroke-linecap="round" stroke-linejoin="round" stroke-width="0.708" />
                <path id="Path_509" data-name="Path 509" d="M603.5,122.4a4.155,4.155,0,1,1-5.686-1.48A4.157,4.157,0,0,1,603.5,122.4Z" transform="translate(1133.408 -60.042)" fill="none" stroke="#fff" stroke-linecap="round" stroke-linejoin="round" stroke-width="0.708" />
                <path id="Path_510" data-name="Path 510" d="M605.754,130.577l-12.576-15.734,7.7,18.918" transform="translate(1128.494 -70.517)" fill="none" stroke="#fff" stroke-linecap="round" stroke-linejoin="round" stroke-width="0.708" />
                <path id="Path_511" data-name="Path 511" d="M601.876,122.2l7.48,18.376-12.431-15.548" transform="translate(1135.621 -56.517)" fill="none" stroke="#fff" stroke-linecap="round" stroke-linejoin="round" stroke-width="0.708" />
                <path id="Path_512" data-name="Path 512" d="M290.929,116.052A37.753,37.753,0,1,1,270.548,165.4,37.753,37.753,0,0,1,290.929,116.052Z" transform="translate(509.191 -73.731)" fill="none" stroke="#fff" stroke-linecap="round" stroke-linejoin="round" stroke-width="0.708" />
                <path id="Path_513" data-name="Path 513" d="M288.109,118.828a27.388,27.388,0,1,1-14.785,35.8A27.387,27.387,0,0,1,288.109,118.828Z" transform="translate(515.987 -66.935)" fill="none" stroke="#fff" stroke-linecap="round" stroke-linejoin="round" stroke-width="0.708" />
                <path id="Path_514" data-name="Path 514" d="M281.79,125.051a4.155,4.155,0,1,1-2.244,5.43A4.155,4.155,0,0,1,281.79,125.051Z" transform="translate(531.219 -51.703)" fill="none" stroke="#fff" stroke-linecap="round" stroke-linejoin="round" stroke-width="0.708" />
                <path id="Path_515" data-name="Path 515" d="M290.542,125.643l-17.3,10.315,19.792-5.05" transform="translate(519.828 -49.971)" fill="none" stroke="#fff" stroke-linecap="round" stroke-linejoin="round" stroke-width="0.708" />
                <path id="Path_516" data-name="Path 516" d="M281.274,128.013l19.223-4.905L283.4,133.3" transform="translate(535.11 -54.792)" fill="none" stroke="#fff" stroke-linecap="round" stroke-linejoin="round" stroke-width="0.708" />
                <path id="Path_517" data-name="Path 517" d="M91.38,405.9a43.488,43.488,0,1,1-8.852,60.862A43.488,43.488,0,0,1,91.38,405.9Z" transform="translate(140.578 361.783)" fill="none" stroke="#fff" stroke-linecap="round" stroke-linejoin="round" stroke-width="0.816" />
                <path id="Path_518" data-name="Path 518" d="M90.692,407.645A31.548,31.548,0,1,1,84.269,451.8,31.547,31.547,0,0,1,90.692,407.645Z" transform="translate(148.403 369.609)" fill="none" stroke="#fff" stroke-linecap="round" stroke-linejoin="round" stroke-width="0.816" />
                <path id="Path_519" data-name="Path 519" d="M89.152,411.552a4.786,4.786,0,1,1-.975,6.7A4.789,4.789,0,0,1,89.152,411.552Z" transform="translate(165.947 387.153)" fill="none" stroke="#fff" stroke-linecap="round" stroke-linejoin="round" stroke-width="0.816" />
                <path id="Path_520" data-name="Path 520" d="M97.861,412.081l-16.416,16.4,20.68-11.221" transform="translate(154.946 389.965)" fill="none" stroke="#fff" stroke-linecap="round" stroke-linejoin="round" stroke-width="0.816" />
                <path id="Path_521" data-name="Path 521" d="M89.177,417.7l20.088-10.9L93.04,423.006" transform="translate(169.656 379.915)" fill="none" stroke="#fff" stroke-linecap="round" stroke-linejoin="round" stroke-width="0.816" />
                <path id="Path_522" data-name="Path 522" d="M406.838,94.087c0,13.775-24.941,46.889-24.941,46.889s-24.944-33.114-24.944-46.889a24.942,24.942,0,0,1,49.884,0Z" transform="translate(679.089 -157.453)" fill="none" stroke="#fff" stroke-linecap="round" stroke-linejoin="round" stroke-width="1.5" />
                <path id="Path_523" data-name="Path 523" d="M383.919,84.638a11.1,11.1,0,1,1-11.1-11.1A11.1,11.1,0,0,1,383.919,84.638Z" transform="translate(688.163 -149.09)" fill="none" stroke="#fff" stroke-linecap="round" stroke-linejoin="round" stroke-width="1.5" />
                <path id="Path_524" data-name="Path 524" d="M376.747,102.67a6.764,6.764,0,1,1-6.766-6.766,6.763,6.763,0,0,1,6.766,6.766" transform="translate(691.008 -106.547)" stroke="#fff" stroke-width="1" />
                <path id="Path_525" data-name="Path 525" d="M221.327,375.438c0,13.775-24.941,46.892-24.941,46.892s-24.944-33.117-24.944-46.892a24.942,24.942,0,0,1,49.884,0Z" transform="translate(326.162 272.805)" fill="none" stroke="#fff" stroke-linecap="round" stroke-linejoin="round" stroke-width="1.5" />
                <path id="Path_526" data-name="Path 526" d="M198.408,365.99a11.1,11.1,0,1,1-11.1-11.1A11.1,11.1,0,0,1,198.408,365.99Z" transform="translate(335.237 281.17)" fill="none" stroke="#fff" stroke-linecap="round" stroke-linejoin="round" stroke-width="1.5" />
                <path id="Path_527" data-name="Path 527" d="M191.235,384.022a6.764,6.764,0,1,1-6.766-6.766,6.765,6.765,0,0,1,6.766,6.766" transform="translate(338.079 323.712)" fill="none" stroke="#fff" stroke-width="1" />
                <path id="Path_528" data-name="Path 528" d="M452.995,147.605s74.094-8.664,137.385-82.917" transform="translate(861.802 -165.934)" fill="none" stroke="#fff" stroke-miterlimit="10" stroke-width="1.103" stroke-dasharray="5.517 5.517" />
                <path id="Path_529" data-name="Path 529" d="M416.271,150.686c-24.624-24.624-25.173-76.61,18.6-97.406" transform="translate(759.972 -187.637)" fill="none" stroke="#fff" stroke-miterlimit="10" stroke-width="1.103" stroke-dasharray="5.517 5.517" />
                <path id="Path_530" data-name="Path 530" d="M582.834,35.569s21,54.508,17,96.515" transform="translate(1108.815 -221.332)" fill="none" stroke="#fff" stroke-miterlimit="10" stroke-width="1.103" stroke-dasharray="5.517 5.517" />
                <path id="Path_531" data-name="Path 531" d="M552.875,189.084c-5.5,34.005,17,84.514,58.511,111.518" transform="translate(1050.261 70.724)" fill="none" stroke="#fff" stroke-miterlimit="10" stroke-width="1.103" stroke-dasharray="5.517 5.517" />
                <path id="Path_532" data-name="Path 532" d="M261.14,446.385c-5.1-30.595-1.913-95.61,41.43-128.753" transform="translate(493.338 210.28)" fill="none" stroke="#fff" stroke-miterlimit="10" stroke-width="1.103" stroke-dasharray="5.517 5.517" />
                <path id="Path_533" data-name="Path 533" d="M284.98,318.243s45.255-14.022,77.763-7.648" transform="translate(542.161 193.732)" fill="none" stroke="#fff" stroke-miterlimit="10" stroke-width="1.103" stroke-dasharray="5.517 5.517" />
                <path id="Path_534" data-name="Path 534" d="M440.828,384.1c-2.85-24.926,12.82-54.836,49.139-34.185" transform="translate(838.031 258.568)" fill="none" stroke="#fff" stroke-miterlimit="10" stroke-width="1.103" stroke-dasharray="5.517 5.517" />
                <path id="Path_535" data-name="Path 535" d="M219.762,76.7c-21.089,29.085-42.176,81.443-21.089,113.437" transform="translate(361.35 -143.08)" fill="none" stroke="#fff" stroke-miterlimit="10" stroke-width="1.103" stroke-dasharray="5.517 5.517" />
                <path id="Path_536" data-name="Path 536" d="M72.693,349.28s58.9,53.083,132.343,61.808" transform="translate(138.295 270.489)" fill="none" stroke="#fff" stroke-miterlimit="10" stroke-width="1.103" stroke-dasharray="5.517 5.517" />
                <path id="Path_537" data-name="Path 537" d="M466.5,80.134a3.931,3.931,0,1,1-3.933-3.933A3.934,3.934,0,0,1,466.5,80.134Z" transform="translate(872.536 -144.031)" fill="none" stroke="#fff" stroke-miterlimit="10" stroke-width="0.708" />
                <circle id="Ellipse_104" data-name="Ellipse 104" cx="12.452" cy="12.452" r="12.452" transform="translate(1350.29 -98.814) rotate(-22.5)" fill="none" stroke="#fff" stroke-miterlimit="10" stroke-width="0.708" />
                <circle id="Ellipse_105" data-name="Ellipse 105" cx="6.67" cy="6.67" r="6.67" transform="matrix(0.924, -0.383, 0.383, 0.924, 916.56, -22.216)" fill="none" stroke="#fff" stroke-miterlimit="10" stroke-width="0.708" />
                <path id="Path_538" data-name="Path 538" d="M324.78,115.851a8.575,8.575,0,1,1-8.574-8.574A8.574,8.574,0,0,1,324.78,115.851Z" transform="translate(585.25 -84.91)" fill="none" stroke="#fff" stroke-miterlimit="10" stroke-width="0.708" />
                <path id="Path_539" data-name="Path 539" d="M578.4,111.024a5.716,5.716,0,1,1-5.718-5.718A5.718,5.718,0,0,1,578.4,111.024Z" transform="translate(1078.632 -88.66)" fill="none" stroke="#fff" stroke-miterlimit="10" stroke-width="0.708" />
                <path id="Path_540" data-name="Path 540" d="M585.832,72.392A12.386,12.386,0,1,1,573.445,60,12.388,12.388,0,0,1,585.832,72.392Z" transform="translate(1067.391 -174.845)" fill="none" stroke="#fff" stroke-miterlimit="10" stroke-width="0.708" />
                <path id="Path_541" data-name="Path 541" d="M592.911,196.079a4.764,4.764,0,1,1-4.763-4.763A4.762,4.762,0,0,1,592.911,196.079Z" transform="translate(1109.858 74.97)" fill="none" stroke="#fff" stroke-miterlimit="10" stroke-width="0.708" />
                <path id="Path_542" data-name="Path 542" d="M557.3,215.371a11.91,11.91,0,1,1-11.912-11.909A11.912,11.912,0,0,1,557.3,215.371Z" transform="translate(1014.929 98.077)" fill="none" stroke="#fff" stroke-miterlimit="10" stroke-width="0.708" />
                <path id="Path_543" data-name="Path 543" d="M547.872,229.2a5.716,5.716,0,1,1-5.718-5.718A5.718,5.718,0,0,1,547.872,229.2Z" transform="translate(1020.551 136.172)" fill="none" stroke="#fff" stroke-miterlimit="10" stroke-width="0.708" />
                <path id="Path_544" data-name="Path 544" d="M571.934,345.3a4.288,4.288,0,1,1-4.287-4.287A4.286,4.286,0,0,1,571.934,345.3Z" transform="translate(1071.761 254.756)" fill="none" stroke="#fff" stroke-miterlimit="10" stroke-width="0.708" />
                <path id="Path_545" data-name="Path 545" d="M566.824,350.293a11.91,11.91,0,1,1-11.909-11.909A11.911,11.911,0,0,1,566.824,350.293Z" transform="translate(1033.04 249.76)" fill="none" stroke="#fff" stroke-miterlimit="10" stroke-width="0.708" />
                <path id="Path_546" data-name="Path 546" d="M594.255,404.387a4.287,4.287,0,1,1-4.287-4.287A4.286,4.286,0,0,1,594.255,404.387Z" transform="translate(1114.231 367.172)" fill="none" stroke="#fff" stroke-miterlimit="10" stroke-width="0.708" />
                <path id="Path_547" data-name="Path 547" d="M430.085,389.763A4.764,4.764,0,1,1,425.322,385,4.764,4.764,0,0,1,430.085,389.763Z" transform="translate(800.088 338.445)" fill="none" stroke="#fff" stroke-miterlimit="10" stroke-width="0.708" />
                <circle id="Ellipse_106" data-name="Ellipse 106" cx="13.34" cy="13.34" r="13.34" transform="translate(1163.18 683.851) rotate(-5.655)" fill="none" stroke="#fff" stroke-miterlimit="10" stroke-width="0.708" />
                <path id="Path_548" data-name="Path 548" d="M482.216,327.359a5.716,5.716,0,1,1-5.718-5.718A5.718,5.718,0,0,1,482.216,327.359Z" transform="translate(895.643 217.907)" fill="none" stroke="#fff" stroke-miterlimit="10" stroke-width="0.708" />
                <path id="Path_549" data-name="Path 549" d="M351.01,314.609a9.051,9.051,0,1,1-9.053-9.053A9.053,9.053,0,0,1,351.01,314.609Z" transform="translate(633.34 187.306)" fill="none" stroke="#fff" stroke-miterlimit="10" stroke-width="0.708" />
                <path id="Path_550" data-name="Path 550" d="M335.18,294.053a5.24,5.24,0,1,1-5.242-5.239A5.242,5.242,0,0,1,335.18,294.053Z" transform="translate(617.725 155.455)" fill="none" stroke="#fff" stroke-miterlimit="10" stroke-width="0.708" />
                <circle id="Ellipse_107" data-name="Ellipse 107" cx="14.292" cy="14.292" r="14.292" transform="translate(685.167 636.737)" fill="none" stroke="#fff" stroke-miterlimit="10" stroke-width="0.708" />
                <circle id="Ellipse_108" data-name="Ellipse 108" cx="6.194" cy="6.194" r="6.194" transform="translate(679.448 589.096)" fill="none" stroke="#fff" stroke-miterlimit="10" stroke-width="0.708" />
                <path id="Path_551" data-name="Path 551" d="M311.025,394.411a8.1,8.1,0,1,1-8.1-8.1A8.1,8.1,0,0,1,311.025,394.411Z" transform="translate(560.893 340.943)" fill="none" stroke="#fff" stroke-miterlimit="10" stroke-width="0.708" />
                <circle id="Ellipse_109" data-name="Ellipse 109" cx="6.67" cy="6.67" r="6.67" transform="translate(770.919 749.168)" fill="none" stroke="#fff" stroke-miterlimit="10" stroke-width="0.708" />
                <path id="Path_552" data-name="Path 552" d="M251.093,428.3a15.721,15.721,0,1,1-15.723-15.723A15.721,15.721,0,0,1,251.093,428.3Z" transform="translate(417.876 390.903)" fill="none" stroke="#fff" stroke-miterlimit="10" stroke-width="0.708" />
                <circle id="Ellipse_110" data-name="Ellipse 110" cx="34.301" cy="34.301" r="34.301" transform="translate(102.999 692.953)" fill="none" stroke="#fff" stroke-miterlimit="10" stroke-width="0.708" />
                <path id="Path_553" data-name="Path 553" d="M88.124,383.578a8.1,8.1,0,1,1-8.1-8.1A8.1,8.1,0,0,1,88.124,383.578Z" transform="translate(136.834 320.333)" fill="none" stroke="#fff" stroke-miterlimit="10" stroke-width="0.708" />
                <circle id="Ellipse_111" data-name="Ellipse 111" cx="7.146" cy="7.146" r="7.146" transform="translate(190.658 537.644)" fill="none" stroke="#fff" stroke-miterlimit="10" stroke-width="0.708" />
                <path id="Path_554" data-name="Path 554" d="M106.915,323.052a36.207,36.207,0,1,1-36.208-36.208A36.209,36.209,0,0,1,106.915,323.052Z" transform="translate(65.638 151.708)" fill="none" stroke="#fff" stroke-miterlimit="10" stroke-width="0.708" />
                <path id="Path_555" data-name="Path 555" d="M159.032,367.82a8.1,8.1,0,1,1-8.1-8.1A8.1,8.1,0,0,1,159.032,367.82Z" transform="translate(271.733 290.355)" fill="none" stroke="#fff" stroke-miterlimit="10" stroke-width="0.708" />
                <circle id="Ellipse_112" data-name="Ellipse 112" cx="7.622" cy="7.622" r="7.622" transform="translate(504.655 -106.579) rotate(-22.5)" fill="none" stroke="#fff" stroke-miterlimit="10" stroke-width="0.708" />
                <circle id="Ellipse_113" data-name="Ellipse 113" cx="34.301" cy="34.301" r="34.301" transform="matrix(0.189, -0.982, 0.982, 0.189, 388.691, -136.238)" fill="none" stroke="#fff" stroke-miterlimit="10" stroke-width="0.708" />
                <path id="Path_556" data-name="Path 556" d="M173.276,78.673a6.194,6.194,0,1,1-6.194-6.194A6.194,6.194,0,0,1,173.276,78.673Z" transform="translate(306.082 -151.112)" fill="none" stroke="#fff" stroke-miterlimit="10" stroke-width="0.708" />
                <path id="Path_557" data-name="Path 557" d="M84.432,147.344a19.056,19.056,0,1,1-19.058-19.058A19.057,19.057,0,0,1,84.432,147.344Z" transform="translate(88.122 -44.942)" fill="none" stroke="#fff" stroke-miterlimit="10" stroke-width="0.708" />
                <path id="Path_558" data-name="Path 558" d="M64.384,113.681a4.764,4.764,0,1,1-4.763-4.763A4.762,4.762,0,0,1,64.384,113.681Z" transform="translate(104.359 -81.789)" fill="none" stroke="#fff" stroke-miterlimit="10" stroke-width="0.708" />
                <path id="Path_559" data-name="Path 559" d="M77.515,132.721a4.764,4.764,0,1,1-4.763-4.763A4.764,4.764,0,0,1,77.515,132.721Z" transform="translate(129.34 -45.566)" fill="none" stroke="#fff" stroke-miterlimit="10" stroke-width="0.708" />
                <circle id="Ellipse_114" data-name="Ellipse 114" cx="9.529" cy="9.529" r="9.529" transform="translate(490.728 32.285) rotate(-67.5)" fill="none" stroke="#fff" stroke-miterlimit="10" stroke-width="0.708" />
                <circle id="Ellipse_115" data-name="Ellipse 115" cx="7.622" cy="7.622" r="7.622" transform="translate(1244.037 31.578) rotate(-22.5)" fill="none" stroke="#fff" stroke-miterlimit="10" stroke-width="0.708" />
            </g>
        </g>
    </g>
</svg>  