<svg xmlns="http://www.w3.org/2000/svg" width="26.96" height="26.96" viewBox="0 0 26.96 26.96">
  <path id="icons8_instagram_logo_1" d="M10.965,3A7.975,7.975,0,0,0,3,10.965V21.994a7.975,7.975,0,0,0,7.965,7.965H21.994a7.975,7.975,0,0,0,7.965-7.965V10.965A7.975,7.975,0,0,0,21.994,3Zm0,1.225H21.994a6.731,6.731,0,0,1,6.74,6.74V21.994a6.731,6.731,0,0,1-6.74,6.74H10.965a6.731,6.731,0,0,1-6.74-6.74V10.965A6.731,6.731,0,0,1,10.965,4.225ZM23.832,7.9a1.225,1.225,0,1,0,1.225,1.225A1.225,1.225,0,0,0,23.832,7.9ZM16.48,9.74a6.74,6.74,0,1,0,6.74,6.74A6.749,6.749,0,0,0,16.48,9.74Zm0,1.225a5.515,5.515,0,1,1-5.514,5.515A5.505,5.505,0,0,1,16.48,10.965Z" transform="translate(-3 -3)" fill="#000941"/>
</svg>
