<svg xmlns="http://www.w3.org/2000/svg" width="27.092" height="25" viewBox="0 0 27.092 25">
  <path id="icons8_kitesurfing" d="M19.179,3a.521.521,0,0,0-.321.12L13.707,7.274a.521.521,0,0,0,.057.85L15,8.875l-2.718,1.361-3.607-.8a2.587,2.587,0,0,0-.74-.165,1.042,1.042,0,0,0-.2-.02H7.729l-.012,0a1.042,1.042,0,0,0-.193.018,2.6,2.6,0,0,0-2.4,2.583V17.06A2.592,2.592,0,0,0,6.4,19.29a1.042,1.042,0,0,0,.181.167L10.5,22.4c-.4.331-.789.633-1.206,1,.3-.109.553-.214.694-.283a3.154,3.154,0,0,1,2.781.006,7.549,7.549,0,0,0,2.769.712,7.554,7.554,0,0,0,2.783-.718,3.154,3.154,0,0,1,2.781.006c.057.027.137.063.228.1.869-.78,1.568-1.464,1.78-1.678,1.041-1.058,1.8-2,1.8-3.261a2.11,2.11,0,0,0-2.325-1.741,13.7,13.7,0,0,0-6.072,1.772L13.04,15.706a1.042,1.042,0,0,0-.486-.2l-2.221-.543V12.374H12.4a1.042,1.042,0,0,0,.484-.11l4.166-2.083.051-.028,1.816,1.1a.521.521,0,0,0,.6-.041l6.343-5.161a.521.521,0,0,0-.657-.81l-6.058,4.929-1.507-.915a1.042,1.042,0,0,0-1.52-.942l-.016.008L14.938,7.62l4.575-3.694A.521.521,0,0,0,19.179,3ZM7.729,3a2.6,2.6,0,1,0,2.6,2.6A2.6,2.6,0,0,0,7.729,3Zm3.727,14.9,3.068,1.552c-.747.469-1.528,1.008-2.351,1.623A1.042,1.042,0,0,0,12.1,21L9.952,18.4c.009-.014.016-.03.024-.045Zm-8.45,6.963a1.042,1.042,0,0,0-.429,1.979A11.318,11.318,0,0,0,7.208,28a9.9,9.9,0,0,0,4.166-.96A9.9,9.9,0,0,0,15.54,28a9.9,9.9,0,0,0,4.166-.96,9.9,9.9,0,0,0,4.166.96A11.318,11.318,0,0,0,28.5,26.845a1.042,1.042,0,1,0-.932-1.863,10.3,10.3,0,0,1-3.7.932,10.3,10.3,0,0,1-3.7-.932,1.042,1.042,0,0,0-.932,0,10.3,10.3,0,0,1-3.7.932,10.3,10.3,0,0,1-3.7-.932,1.042,1.042,0,0,0-.932,0,10.3,10.3,0,0,1-3.7.932,10.3,10.3,0,0,1-3.7-.932,1.042,1.042,0,0,0-.5-.116Z" transform="translate(-1.987 -2.996)" fill="#000941"/>
</svg>
