<svg xmlns="http://www.w3.org/2000/svg" width="22.974" height="17" viewBox="0 0 22.974 17">
  <path id="icons8_iron" d="M7.351,13a.813.813,0,0,0-.632.3.888.888,0,0,0-.158.617,2.161,2.161,0,0,0,.574,1.22,5,5,0,0,0,3.891,1.536,10.474,10.474,0,0,0,3.561-.488,4.521,4.521,0,0,1,1.565-.431,3.794,3.794,0,0,1,2.24.818,3.961,3.961,0,0,1,1.364,3.316H17V19.36a1.318,1.318,0,0,0-1.306-1.307H13.252a1.318,1.318,0,0,0-1.307,1.307v.546c-3.553.16-6.979,2.161-10.337,6.977a.433.433,0,0,0-.043.057.493.493,0,0,0-.086.115.566.566,0,0,0-.029.057c-.443.648-.881,1.348-1.321,2.1-.011.014-.02.029-.029.043s-.011.009-.014.014l-.014.014c-.005.009-.009.02-.014.029l-.014.014v.029a.212.212,0,0,0-.014.029L.014,29.4v.043L0,29.453v.187a.217.217,0,0,0,.014.029v.014a.214.214,0,0,0,.014.029.215.215,0,0,0,.014.029v.014l.014.014a.436.436,0,0,0,.043.057.214.214,0,0,0,.014.029l.014.014H.144a.217.217,0,0,0,.014.029H.172a.22.22,0,0,0,.029.029H.215l.029.014c.014.011.029.02.043.029A.486.486,0,0,0,.373,30H.431a.691.691,0,0,0,.086,0H22.052a.925.925,0,0,0,.919-.919v-1.22a.481.481,0,0,0,0-.072V27.7a.346.346,0,0,0,0-.086V20.437a.346.346,0,0,0,0-.086v-.057a.308.308,0,0,0,0-.057A7.434,7.434,0,0,0,20.99,14.68,6.932,6.932,0,0,0,16.08,13Zm.144.919H16.08a6.012,6.012,0,0,1,4.278,1.421,6.3,6.3,0,0,1,1.68,4.551H20.674a4.971,4.971,0,0,0-1.708-4.034,4.587,4.587,0,0,0-2.814-1.019,5.1,5.1,0,0,0-1.866.488,9.4,9.4,0,0,1-3.259.431,4.116,4.116,0,0,1-3.2-1.22A1.355,1.355,0,0,1,7.494,13.919Zm5.757,5.054h2.441a.386.386,0,0,1,.388.388v.531H12.864V19.36A.386.386,0,0,1,13.252,18.973Zm-.833,1.838h9.634v5.972H2.814C6.032,22.391,9.163,20.81,12.419,20.81Zm-1.393,2.3a.919.919,0,1,0,.919.919A.918.918,0,0,0,11.026,23.107Zm3.216,0a.919.919,0,1,0,.919.919A.918.918,0,0,0,14.242,23.107Zm3.216,0a.919.919,0,1,0,.919.919A.918.918,0,0,0,17.458,23.107ZM2.168,27.7H22.052V29.08H1.278C1.572,28.6,1.875,28.136,2.168,27.7Z" transform="translate(0 -13)" fill="#989898"/>
</svg>