<svg xmlns="http://www.w3.org/2000/svg" width="51" height="48" viewBox="0 0 51 48">
  <g id="Group_1422" data-name="Group 1422" transform="translate(-216 -1828)">
    <rect id="Rectangle_513" data-name="Rectangle 513" width="51" height="48" rx="10" transform="translate(216 1828)" fill="#fe2f70"/>
    <path id="icons8_hotel_star" d="M8.325,3a.248.248,0,0,0-.24.173L7.5,4.9l-1.824.019a.256.256,0,0,0-.149.461l1.462,1.09L6.447,8.212a.255.255,0,0,0,.392.284L8.327,7.443,9.815,8.5a.255.255,0,0,0,.392-.284L9.664,6.472l1.462-1.09a.256.256,0,0,0-.152-.461L9.15,4.9,8.568,3.173A.251.251,0,0,0,8.325,3Zm7.766,0a.251.251,0,0,0-.243.173L15.266,4.9l-1.824.019a.256.256,0,0,0-.149.461l1.464,1.09-.544,1.739a.254.254,0,0,0,.39.284l1.488-1.053L17.579,8.5a.255.255,0,0,0,.392-.284l-.544-1.739,1.462-1.09a.256.256,0,0,0-.149-.461L16.916,4.9l-.583-1.729A.251.251,0,0,0,16.091,3Zm7.764,0a.251.251,0,0,0-.243.173L23.029,4.9l-1.824.019a.256.256,0,0,0-.149.461l1.464,1.09-.544,1.739a.254.254,0,0,0,.39.284l1.488-1.053L25.343,8.5a.255.255,0,0,0,.392-.284l-.544-1.739,1.462-1.09a.256.256,0,0,0-.149-.461L24.68,4.9,24.1,3.173A.251.251,0,0,0,23.854,3ZM6.109,10.764a1.109,1.109,0,1,0,0,2.218V28.509h6.654V22.963h6.654v5.545h6.654V12.982a1.109,1.109,0,1,0,0-2.218Zm2.218,3.327h2.218v2.218H8.327Zm4.436,0h2.218v2.218H12.764Zm4.436,0h2.218v2.218H17.2Zm4.436,0h2.218v2.218H21.636ZM8.327,18.527h2.218v2.218H8.327Zm4.436,0h2.218v2.218H12.764Zm4.436,0h2.218v2.218H17.2Zm4.436,0h2.218v2.218H21.636ZM8.327,22.963h2.218v2.218H8.327Zm13.309,0h2.218v2.218H21.636Z" transform="translate(225.409 1836.246)" fill="#fff"/>
  </g>
</svg>
