<svg xmlns="http://www.w3.org/2000/svg" width="51" height="48" viewBox="0 0 51 48">
  <g id="Group_1421" data-name="Group 1421" transform="translate(-157 -1828)">
    <rect id="Rectangle_512" data-name="Rectangle 512" width="51" height="48" rx="10" transform="translate(157 1828)" fill="#fd843d"/>
    <path id="icons8_airport" d="M21.379.187c-1.719,0-4.652,2.056-5.255,2.7L13.04,5.971,2.072,4.486a.459.459,0,0,0-.386.143L.13,6.228a.451.451,0,0,0-.114.414.443.443,0,0,0,.271.328l8.454,3.313L4.386,14.725h-2.1a.465.465,0,0,0-.3.114L.159,16.381a.462.462,0,0,0-.143.457.455.455,0,0,0,.328.343L4.7,18.252l1.071,4.355a.469.469,0,0,0,.314.328.441.441,0,0,0,.428-.1L8.07,21.465a.462.462,0,0,0,.157-.343V18.58l4.484-4.37,3.27,8.454a.443.443,0,0,0,.328.271.483.483,0,0,0,.1.014.445.445,0,0,0,.314-.128l1.6-1.557a.459.459,0,0,0,.143-.386L16.981,9.912l3.085-3.085C20.7,6.2,23.8,2.01,22.393.545A1.414,1.414,0,0,0,21.379.187Z" transform="translate(171.121 1840.428)" fill="#fff"/>
  </g>
</svg>
