<svg xmlns="http://www.w3.org/2000/svg" width="48" height="48" viewBox="0 0 48 48">
  <g id="Group_1423" data-name="Group 1423" transform="translate(-469 -1826)">
    <circle id="Ellipse_117" data-name="Ellipse 117" cx="24" cy="24" r="24" transform="translate(469 1826)" fill="#fff"/>
    <path id="icons8_love" d="M16.5,3A5.98,5.98,0,0,0,12,5.09,5.98,5.98,0,0,0,7.5,3,5.5,5.5,0,0,0,2,8.5C2,14,12,21,12,21S22,14,22,8.5A5.5,5.5,0,0,0,16.5,3ZM12,18.518C8.517,15.845,4,11.406,4,8.5A3.5,3.5,0,0,1,7.5,5C9.9,5,12,7.907,12,7.907S14.14,5,16.5,5A3.5,3.5,0,0,1,20,8.5C20,11.406,15.483,15.845,12,18.518Z" transform="translate(481 1840)"/>
  </g>
</svg>
