<svg xmlns="http://www.w3.org/2000/svg" width="23.641" height="23.641" viewBox="0 0 23.641 23.641">
  <path id="icons8_language" d="M4.97,5A1.97,1.97,0,0,0,3,6.97V21.745a1.97,1.97,0,0,0,1.97,1.97H8.91v3.94a.984.984,0,0,0,1.81.535l3.361-4.475H24.671a1.97,1.97,0,0,0,1.97-1.97V6.97A1.97,1.97,0,0,0,24.671,5ZM8.91,7.955a.984.984,0,0,1,.906.6l2.955,6.9a.987.987,0,0,1-.518,1.295.966.966,0,0,1-.389.079.985.985,0,0,1-.906-.6l-.165-.389H7.027l-.165.389a.986.986,0,0,1-1.812-.775L8,8.553A.985.985,0,0,1,8.91,7.955Zm11.82,2.957a.985.985,0,0,1,.985.985v.985h1.97a.984.984,0,1,1,0,1.968h-.108a9.028,9.028,0,0,1-1.441,3.271l1.154.866a.985.985,0,0,1-1.181,1.576l-1.3-.977a4.718,4.718,0,0,1-3.03,1.176.985.985,0,1,1,0-1.97,2.627,2.627,0,0,0,1.391-.435l-1-.746a.985.985,0,1,1,1.181-1.576l1.227.92a7.054,7.054,0,0,0,.985-2.1H17.775a.985.985,0,1,1,0-1.97h1.97V11.9A.985.985,0,0,1,20.73,10.912Zm-11.82.529L7.871,13.865H9.949Z" transform="translate(-3 -5)" fill="#000941"/>
</svg>