<svg xmlns="http://www.w3.org/2000/svg" width="24" height="24" viewBox="0 0 24 24">
  <path id="icons8_language" d="M5,5A2,2,0,0,0,3,7V22a2,2,0,0,0,2,2H9v4a1,1,0,0,0,1.838.543L14.25,24H25a2,2,0,0,0,2-2V7a2,2,0,0,0-2-2ZM9,8a1,1,0,0,1,.92.605l3,7a1,1,0,0,1-.525,1.314A.98.98,0,0,1,12,17a1,1,0,0,1-.92-.605L10.912,16H7.088l-.168.395a1,1,0,0,1-1.84-.787l3-7A1,1,0,0,1,9,8Zm12,3a1,1,0,0,1,1,1v1h2a1,1,0,1,1,0,2h-.109a9.165,9.165,0,0,1-1.463,3.32L23.6,19.2a1,1,0,0,1-1.2,1.6l-1.324-.992A4.79,4.79,0,0,1,18,21a1,1,0,0,1,0-2,2.667,2.667,0,0,0,1.412-.441L18.4,17.8a1,1,0,1,1,1.2-1.6l1.246.934a7.162,7.162,0,0,0,1-2.133H18a1,1,0,0,1,0-2h2V12A1,1,0,0,1,21,11ZM9,11.539,7.945,14h2.109Z" transform="translate(-3 -5)"/>
</svg>
