<?xml version="1.0" encoding="utf-8"?>
<svg width="41.132812px" height="40.818115px" viewBox="0 0 41.132812 40.818115" version="1.1" xmlns:xlink="http://www.w3.org/1999/xlink" xmlns="http://www.w3.org/2000/svg">
  <g id="Group-471">
    <path d="M29.1357 8.41166C29.1357 8.41166 29.1357 10.2832 29.1357 10.2832C29.1357 15.0083 25.2915 18.8525 20.5664 18.8525C15.8413 18.8525 11.9971 15.0083 11.9971 10.2832C11.9971 10.2832 11.9971 8.41166 11.9971 8.41166C11.0013 8.0586 10.2832 7.11598 10.2832 5.99853C10.2832 4.57945 11.4349 3.42773 12.854 3.42773C14.2731 3.42773 15.4248 4.57945 15.4248 5.99853C15.4248 5.99853 15.4248 10.2832 15.4248 10.2832C15.4248 13.1179 17.7317 15.4248 20.5664 15.4248C23.4011 15.4248 25.708 13.1179 25.708 10.2832C25.708 10.2832 25.708 5.99853 25.708 5.99853C25.708 4.57945 26.8597 3.42773 28.2788 3.42773C29.6979 3.42773 30.8496 4.57945 30.8496 5.99853C30.8496 7.11597 30.1315 8.0586 29.1357 8.41166C29.1357 8.41166 29.1357 8.41166 29.1357 8.41166ZM41.0522 33.5507C41.0522 33.5507 37.7051 3.42773 37.7051 3.42773C37.7051 1.53391 36.1712 0 34.2773 0C34.2773 0 20.5664 0 20.5664 0C20.5664 0 6.85546 0 6.85546 0C4.96164 0 3.42773 1.53391 3.42773 3.42773C3.42773 3.42773 0.08055 33.5507 0.08055 33.5507C0.03085 33.7854 0 34.0271 0 34.2773C0 36.1712 1.53391 37.7051 3.42773 37.7051C3.42773 37.7051 20.5664 37.7051 20.5664 37.7051C20.5664 37.7051 37.7051 37.7051 37.7051 37.7051C39.5989 37.7051 41.1328 36.1712 41.1328 34.2773C41.1328 34.0271 41.1019 33.7854 41.0522 33.5507Z" id="icons8_shopping_bag" fill="#000941" fill-rule="evenodd" stroke="none" />
  </g>
</svg>