<svg xmlns="http://www.w3.org/2000/svg" width="22.174" height="22.174" viewBox="0 0 22.174 22.174">
  <path id="icons8_front_desk" d="M11.087,0a2.661,2.661,0,1,0,2.661,2.661A2.668,2.668,0,0,0,11.087,0Zm0,.887A1.774,1.774,0,1,1,9.313,2.661,1.766,1.766,0,0,1,11.087.887ZM9.756,5.765a3.117,3.117,0,0,0-3.1,3.1V10.2h.887V8.869A2.222,2.222,0,0,1,9.756,6.652h2.661a2.222,2.222,0,0,1,2.217,2.217V10.2h.887V8.869a3.117,3.117,0,0,0-3.1-3.1Zm8.869,2.661v.443h.887V8.426Zm.443.443a2.235,2.235,0,0,0-2.176,1.774H.4a.442.442,0,0,0-.4.443v1.774a.444.444,0,0,0,.443.443H.887V21.73a.444.444,0,0,0,.443.443H20.843a.444.444,0,0,0,.443-.443V13.3h.443a.444.444,0,0,0,.443-.443V11.087a.444.444,0,0,0-.443-.443h-.485A2.235,2.235,0,0,0,19.069,8.869Zm0,.887a1.332,1.332,0,0,1,1.247.887H17.822A1.332,1.332,0,0,1,19.069,9.756ZM.887,11.53h20.4v.887H1.414a.451.451,0,0,0-.18,0H.887ZM1.774,13.3H20.4v7.982H1.774Z" transform="translate(0)" fill="#000941"/>
</svg>
