<?xml version="1.0" encoding="utf-8"?>
<svg width="16.244385px" height="24.366455px" viewBox="0 0 16.244385 24.366455" version="1.1" xmlns:xlink="http://www.w3.org/1999/xlink" xmlns="http://www.w3.org/2000/svg">
  <path d="M8.12213 5.58398C9.80371 5.58398 11.168 6.94824 11.168 8.62976C11.168 10.3113 9.80371 11.6757 8.12213 11.6757C6.44061 11.6757 5.07635 10.3113 5.07635 8.62976C5.07635 6.94824 6.44061 5.58398 8.12213 5.58398ZM8.12213 0C3.64465 0 0 3.64465 0 8.12219C0 15.2866 7.42615 23.8311 7.74146 24.192C7.83862 24.303 7.9754 24.3665 8.12219 24.3665C8.27881 24.3566 8.40576 24.303 8.50293 24.192C8.81818 23.8252 16.2443 15.1339 16.2443 8.12219C16.2443 3.64465 12.5997 0 8.12219 0C8.12219 0 8.12213 0 8.12213 0Z" id="icons8_marker_4" fill="#FE2F70" fill-rule="evenodd" stroke="none" />
</svg>