<svg xmlns="http://www.w3.org/2000/svg" width="13.775" height="19" viewBox="0 0 13.775 19">
  <path id="icons8_marker_3" d="M9.888,1A6.9,6.9,0,0,0,3,7.888a8.3,8.3,0,0,0,1.039,3.465A32.075,32.075,0,0,0,6.218,15.06c1.571,2.362,3.137,4.283,3.137,4.283L9.888,20l.533-.657s1.566-1.921,3.142-4.283a32.819,32.819,0,0,0,2.174-3.707,8.3,8.3,0,0,0,1.039-3.465A6.9,6.9,0,0,0,9.888,1Zm0,1.378a5.5,5.5,0,0,1,5.51,5.51,7.687,7.687,0,0,1-.9,2.863A32.942,32.942,0,0,1,12.417,14.3c-1.265,1.894-2.125,2.938-2.529,3.444-.4-.506-1.265-1.55-2.529-3.444A32.925,32.925,0,0,1,5.276,10.75a7.686,7.686,0,0,1-.9-2.863A5.5,5.5,0,0,1,9.888,2.378Zm0,4.133a1.378,1.378,0,1,0,1.378,1.378A1.38,1.38,0,0,0,9.888,6.51Z" transform="translate(-3 -1)" fill="#000941"/>
</svg>