<svg xmlns="http://www.w3.org/2000/svg" xmlns:xlink="http://www.w3.org/1999/xlink" width="106.5" height="106.5" viewBox="0 0 106.5 106.5">
    <defs>
        <linearGradient id="linear-gradient" x1="0.146" y1="16.204" x2="0.86" y2="15.49" gradientUnits="objectBoundingBox">
            <stop offset="0" stop-color="#00bffe" />
            <stop offset="1" stop-color="#1d55c4" />
        </linearGradient>
        <linearGradient id="linear-gradient-2" x1="0.155" y1="16.581" x2="0.866" y2="15.855" gradientUnits="objectBoundingBox">
            <stop offset="0" stop-color="#84e1fe" />
            <stop offset="1" stop-color="#167cf7" />
        </linearGradient>
        <linearGradient id="linear-gradient-3" x1="-0.298" y1="1.329" x2="0.902" y2="0.093" gradientUnits="objectBoundingBox">
            <stop offset="0.301" stop-color="#0f89e1" />
            <stop offset="0.342" stop-color="#138be3" />
            <stop offset="0.385" stop-color="#2092e9" />
            <stop offset="0.429" stop-color="#359ef3" />
            <stop offset="0.451" stop-color="#42a5fa" />
            <stop offset="0.511" stop-color="#68b6fa" />
            <stop offset="0.592" stop-color="#94cbfa" />
            <stop offset="0.674" stop-color="#b8dbf9" />
            <stop offset="0.756" stop-color="#d5e8f9" />
            <stop offset="0.838" stop-color="#e9f2f9" />
            <stop offset="0.919" stop-color="#f5f7f9" />
            <stop offset="1" stop-color="#f9f9f9" />
        </linearGradient>
    </defs>
    <g id="icons8_around_the_globe" transform="translate(-4 -4)">
        <path id="Path_560" data-name="Path 560" d="M110.5,57.25A53.25,53.25,0,1,1,57.25,4,53.252,53.252,0,0,1,110.5,57.25Z" transform="translate(0 0)" fill="url(#linear-gradient)" />
        <path id="Path_561" data-name="Path 561" d="M56.638,85.228a8.1,8.1,0,0,1-.61,5.471c-.6,1.821-1.209,4.252-2.431,5.461a12.589,12.589,0,0,1-3.64,2.442c-1.821,1.209-3.041,3.64-4.862,5.471,0,.6-2.431,3.69-3.041,3.69-.226.12-.442.229-.66.338a52.858,52.858,0,0,1-10.216-4.444c-.021-.064-.045-.125-.069-.192,0-.61-.6-4.26-.6-4.862-.61-1.829-1.222-4.26-1.829-6.081-1.209-3.041-3.64-6.081-3.64-9.721,0-3.043.6-6.071-1.222-8.512-2.431-3.041-7.293-3.041-9.723-4.862A27.65,27.65,0,0,1,4.982,59.7a11.406,11.406,0,0,1-.966-2.045c0-.141-.016-.272-.016-.41A53.015,53.015,0,0,1,18.772,20.507c4.995-4.039,14.737-5.9,20.65-4.114,1.821.6,8.374,4.518,8.374,6.339,0,.61,0,.61-.61,1.222a2.213,2.213,0,0,1-1.821.61c-1.821,0-7.559-1.323-8.171-1.936-3.653-1.219-9.114,6.683-9.721,9.114-.61,1.829-.61,6.081,2.431,6.691,1.821,0,10.155-7.072,11.377-7.681,4.862-.6,8.619,3.568,9.841,7.83,1.821,4.862-8.453,9.561-12.106,10.783-1.209.61-1.818-.61-3.041,0-3.03,1.209-4.822,3.925-5.184,7.559C30.484,60,30.18,63,29.581,66.039c-.61,0-1.858-.008-1.858-.618V64.212c0-1.834-.61-4.263-2.431-4.872-.61-.6-1.47.362-2.079.362-1.821,0-3.64-1.829-5.461-.61a7.461,7.461,0,0,0-2.431,4.862,2.236,2.236,0,0,0,.6,1.821c1.222.61,2.431-.6,3.653,0,1.209,0,1.209,1.222,1.209,1.829,1.222,1.821,2.431,4.252,4.26,4.862H37.193c1.821.61,4.862,1.209,6.081,2.431.6,1.209.6,2.431,1.209,3.64,3.041,3.041,6.68,3.041,10.33,4.26C56.028,83.406,56.64,84.005,56.638,85.228ZM90.6,15.768a6.891,6.891,0,0,0-.8.266c-1.821.61-6.574,9.385-7.79,11.2-.61.61-1.209,1.821-.61,2.431,0,.61.61.61,1.222.61,1.209.61,1.374.863,2.593,1.462.61,0,1.209.61.61,1.222a.6.6,0,0,1-.61.61c-3.041,3.041-6.081,5.471-9.114,8.5a4.246,4.246,0,0,0-1.02,2.434c0,.61.407.61.407,1.222s-.61.61-1.222,1.209a13.588,13.588,0,0,0-3.041,1.829c-.6,1.209,0,3.041-.6,4.252-.612,3.041-2.442,5.471-3.653,8.512-1.222,1.821-2.311,3.64-3.533,5.471,0,2.431-.61,4.252.61,6.071,3.041,4.26,9.127.184,13.379,2,1.209.61,2.25.722,3.041,1.821,1.51,2.1,1.693,6.51,2.306,8.342A33.423,33.423,0,0,0,85.2,92.531c.6,3.014,1.8,6.025,2.412,8.432A53.183,53.183,0,0,0,90.6,15.768ZM69.519,18.263a10.478,10.478,0,0,0,3.629-5.221c.594-1.166,2.415-3.483,1.811-5.221-.471-.905-2.388-1.448-3.789-1.92A53.243,53.243,0,0,0,57.25,4c-1.225,0-2.426.1-3.629.184a3.319,3.319,0,0,0-2.218,1.9c-.607,2.9,1.811,2.316,4.223,2.9,0,0,.607,4.638.607,5.221.607,2.9-1.211,4.638-1.211,7.53,0,1.747,0,4.646,1.211,5.8h.607c.607,0,1.2-.583,2.415-1.153,1.811-1.166,3.629-2.9,5.437-4.066A34.511,34.511,0,0,0,69.519,18.263Z" transform="translate(0 0)" fill="url(#linear-gradient-2)" />
        <path id="Path_562" data-name="Path 562" d="M39.262,67.562a3.976,3.976,0,0,1-3.323-1.781l-3.605-5.4a7.892,7.892,0,0,1-6.821-6.821L20.1,49.95A3.992,3.992,0,0,1,19.5,43.8l1.422-1.422a5.307,5.307,0,0,1,5.45-1.283l5.352,1.781,4.292-4.3L20.667,26.309a4,4,0,0,1-.327-5.945l1.491-1.488A5.331,5.331,0,0,1,27.51,17.67l21.244,8.171L59.769,14.829a7.988,7.988,0,0,1,11.3,11.3L60.048,37.14l8.174,21.244a5.336,5.336,0,0,1-1.206,5.676l-1.491,1.491a4,4,0,0,1-5.943-.327L47.308,49.878l-4.295,4.295L44.8,59.521a5.306,5.306,0,0,1-1.286,5.45L42.09,66.393A3.971,3.971,0,0,1,39.262,67.562Z" transform="translate(23.813 14.116)" opacity="0.05" />
        <path id="Path_563" data-name="Path 563" d="M38.429,65.4a2.658,2.658,0,0,1-2.215-1.187l-3.959-5.935a6.572,6.572,0,0,1-6.3-6.307l-5.94-3.959a2.664,2.664,0,0,1-.4-4.1l1.422-1.422a3.986,3.986,0,0,1,4.09-.961l6.132,2.042,5.929-5.929-16.5-13.2a2.666,2.666,0,0,1-.218-3.962l1.491-1.491a3.994,3.994,0,0,1,4.26-.905l22.051,8.483L59.88,14.941A6.658,6.658,0,1,1,69.3,24.356L57.67,35.983l8.485,22.051a4,4,0,0,1-.905,4.257L63.76,63.782a2.644,2.644,0,0,1-1.882.78h0a2.647,2.647,0,0,1-2.077-1L46.594,47.056l-5.929,5.929,2.045,6.129a3.974,3.974,0,0,1-.964,4.087l-1.422,1.422A2.707,2.707,0,0,1,38.429,65.4Z" transform="translate(24.647 14.949)" opacity="0.07" />
        <path id="Path_564" data-name="Path 564" d="M10.923,57.994q2.029,1.757,4.22,3.309L44.931,31.516l-3.765-3.765Z" transform="translate(11.509 39.486)" fill="url(#linear-gradient-3)" />
        <path id="Path_565" data-name="Path 565" d="M23.282,28.787l6.63,9.944a1.332,1.332,0,0,0,2.05.2l1.422-1.422a2.662,2.662,0,0,0,.642-2.726l-2.3-6.909Z" transform="translate(32.056 39.694)" fill="#fdb700" />
        <path id="Path_566" data-name="Path 566" d="M29.293,30.915,43.426,48.58a1.33,1.33,0,0,0,1.981.109L46.9,47.2a2.663,2.663,0,0,0,.6-2.838L38.7,21.5Z" transform="translate(42.05 29.094)" fill="#fdb700" />
        <path id="Path_567" data-name="Path 567" d="M30.772,26.572l-6.909-2.3a2.668,2.668,0,0,0-2.726.642l-1.422,1.422a1.334,1.334,0,0,0,.2,2.05l9.944,6.63Z" transform="translate(25.477 33.469)" fill="#fdb700" />
        <path id="Path_568" data-name="Path 568" d="M47.221,24.272l-22.86-8.792a2.663,2.663,0,0,0-2.838.6l-1.491,1.491a1.33,1.33,0,0,0,.109,1.981L37.807,33.687Z" transform="translate(26.004 18.792)" fill="#fdb700" />
        <path id="Path_569" data-name="Path 569" d="M63.087,15.049a5.324,5.324,0,0,0-7.53,0L23.549,47.055a5.324,5.324,0,0,0,7.53,7.53L63.084,22.578A5.321,5.321,0,0,0,63.087,15.049Z" transform="translate(29.907 15.776)" fill="#fad500" />
    </g>
</svg>