<svg xmlns="http://www.w3.org/2000/svg" width="27.687" height="30.31" viewBox="0 0 27.687 30.31">
  <g id="Group_1708" data-name="Group 1708" transform="translate(-905.239 -748.739)">
    <path id="icons8_handbag" d="M17.834,2a6.6,6.6,0,0,0-6.589,6.589V9.907a.659.659,0,1,0,1.318,0V8.589a5.271,5.271,0,0,1,10.543,0V9.907a.659.659,0,1,0,1.318,0V8.589A6.6,6.6,0,0,0,17.834,2ZM11.9,11.225a1.317,1.317,0,0,0-1.318,1.318H7.291a.658.658,0,0,0-.659.556L4,30.889a.685.685,0,0,0,.165.535.654.654,0,0,0,.494.226H6.632v.659H8.609v-.659H27.058v.659h1.977v-.659h1.977a.654.654,0,0,0,.494-.226.685.685,0,0,0,.165-.535L29.035,13.1a.658.658,0,0,0-.659-.556H25.082a1.318,1.318,0,1,0-2.636,0H13.221A1.317,1.317,0,0,0,11.9,11.225Zm12.519,6.26a.988.988,0,0,1,0,1.977,1,1,0,0,1-.741-.329H11.245a.659.659,0,0,1,0-1.318H23.682A1,1,0,0,1,24.423,17.484Zm0,2.306a.659.659,0,0,1,.659.659v3.295a.659.659,0,1,1-1.318,0V20.449A.659.659,0,0,1,24.423,19.79Z" transform="translate(901.249 746.739)" fill="#000941"/>
    <rect id="Rectangle_287" data-name="Rectangle 287" width="18.934" height="13.77" transform="translate(909.616 761.998)" fill="#000941"/>
  </g>
</svg>