<?xml version="1.0" encoding="utf-8"?>
<svg width="32.170654px" height="35.218018px" viewBox="0 0 32.170654 35.218018" version="1.1" xmlns:xlink="http://www.w3.org/1999/xlink" xmlns="http://www.w3.org/2000/svg">
  <path d="M23.7414 20.6715C24.1631 20.6715 24.507 21.0123 24.507 21.437C24.507 21.437 24.507 25.2651 24.507 25.2651C24.507 25.6898 24.1631 26.0308 23.7414 26.0308C23.3197 26.0308 22.9758 25.6898 22.9758 25.2651C22.9758 25.2651 22.9758 21.437 22.9758 21.437C22.9758 21.0123 23.3197 20.6715 23.7414 20.6715ZM23.7414 17.9918C24.3754 17.9918 24.8898 18.5062 24.8898 19.1403C24.8898 19.7742 24.3754 20.2887 23.7414 20.2887C23.4034 20.2887 23.0894 20.1392 22.8801 19.9059C22.8801 19.9059 8.4292 19.9059 8.4292 19.9059C8.00748 19.9059 7.66357 19.5649 7.66357 19.1403C7.66357 18.7156 8.00748 18.3746 8.4292 18.3746C8.4292 18.3746 22.8801 18.3746 22.8801 18.3746C23.0894 18.1414 23.4034 17.9918 23.7414 17.9918ZM9.19479 10.7185C8.34842 10.7185 7.66357 11.4033 7.66357 12.2498C7.66357 12.2498 3.83554 12.2498 3.83554 12.2498C3.45572 12.2498 3.12375 12.5189 3.06992 12.8958C3.06992 12.8958 0.00747681 33.5673 0.00747681 33.5673C-0.0254211 33.7855 0.0523376 34.0188 0.198883 34.1892C0.345428 34.3567 0.551788 34.4524 0.773102 34.4524C0.773102 34.4524 3.06992 34.4524 3.06992 34.4524L3.06992 35.218L5.36676 35.218L5.36676 34.4524L26.8038 34.4524L26.8038 35.218L29.1006 35.218L29.1006 34.4524C29.1006 34.4524 31.3975 34.4524 31.3975 34.4524C31.6188 34.4524 31.8251 34.3567 31.9717 34.1892C32.1182 34.0188 32.196 33.7855 32.1631 33.5673C32.1631 33.5673 29.1006 12.8958 29.1006 12.8958C29.0468 12.5189 28.7148 12.2498 28.335 12.2498C28.335 12.2498 24.507 12.2498 24.507 12.2498C24.507 11.4033 23.8221 10.7185 22.9758 10.7185C22.1294 10.7185 21.4445 11.4033 21.4445 12.2498C21.4445 12.2498 10.726 12.2498 10.726 12.2498C10.726 11.4033 10.0412 10.7185 9.19479 10.7185ZM16.0853 0C11.8655 0 8.4292 3.43628 8.4292 7.65613C8.4292 7.65613 8.4292 9.18726 8.4292 9.18726C8.42621 9.46252 8.56976 9.7196 8.80902 9.86023C9.04825 9.9978 9.34134 9.9978 9.5806 9.86023C9.81982 9.7196 9.96338 9.46252 9.96042 9.18726C9.96042 9.18726 9.96042 7.65613 9.96042 7.65613C9.96042 4.26465 12.6938 1.53125 16.0853 1.53125C19.4767 1.53125 22.2101 4.26465 22.2101 7.65613C22.2101 7.65613 22.2101 9.18726 22.2101 9.18726C22.2072 9.46252 22.3507 9.7196 22.59 9.86023C22.8292 9.9978 23.1223 9.9978 23.3615 9.86023C23.6008 9.7196 23.7444 9.46252 23.7414 9.18726C23.7414 9.18726 23.7414 7.65613 23.7414 7.65613C23.7414 3.43628 20.3051 0 16.0853 0Z" id="icons8_handbag" fill="#000941" fill-rule="evenodd" stroke="none" />
</svg>