<?xml version="1.0" encoding="utf-8"?>
<svg width="22.34082px" height="33.51123px" viewBox="0 0 22.34082 33.51123" version="1.1" xmlns:xlink="http://www.w3.org/1999/xlink" xmlns="http://www.w3.org/2000/svg">
  <path d="M8.77676 9.57458C9.439 9.57458 9.97357 10.1093 9.97357 10.7715C9.97357 11.4337 9.439 11.9683 8.77676 11.9683C8.77676 11.9683 6.38309 11.9683 6.38309 11.9683C5.72083 11.9683 5.18625 11.4337 5.18625 10.7715C5.18625 10.1093 5.72083 9.57458 6.38309 9.57458C6.38309 9.57458 8.77676 9.57458 8.77676 9.57458ZM15.9577 9.57458C16.62 9.57458 17.1546 10.1093 17.1546 10.7715C17.1546 11.4337 16.62 11.9683 15.9577 11.9683C15.9577 11.9683 13.5641 11.9683 13.5641 11.9683C12.9018 11.9683 12.3672 11.4337 12.3672 10.7715C12.3672 10.1093 12.9018 9.57458 13.5641 9.57458C13.5641 9.57458 15.9577 9.57458 15.9577 9.57458ZM6.80597 1.11707C6.76608 0.486694 6.23947 0 5.60913 0C5.60913 0 2.7926 0 2.7926 0C1.25269 0 0 1.25269 0 2.7926C0 2.7926 0 9.57458 0 9.57458C0 9.57458 1.59576 9.57458 1.59576 9.57458C2.25803 9.57458 2.7926 10.1093 2.7926 10.7715C2.7926 11.4337 2.25803 11.9683 1.59576 11.9683C1.59576 11.9683 0 11.9683 0 11.9683C0 11.9683 0 30.7186 0 30.7186C0 32.2585 1.25269 33.5112 2.7926 33.5112C2.7926 33.5112 5.60913 33.5112 5.60913 33.5112C6.23947 33.5112 6.76608 33.0245 6.80597 32.3942C6.94958 30.1122 8.8725 28.325 11.1704 28.325C13.4683 28.325 15.3912 30.1122 15.5349 32.3942C15.5747 33.0245 16.1013 33.5112 16.7317 33.5112C16.7317 33.5112 19.5482 33.5112 19.5482 33.5112C21.0881 33.5112 22.3408 32.2585 22.3408 30.7186C22.3408 30.7186 22.3408 11.9683 22.3408 11.9683C22.3408 11.9683 20.7451 11.9683 20.7451 11.9683C20.0828 11.9683 19.5482 11.4337 19.5482 10.7715C19.5482 10.1093 20.0828 9.57458 20.7451 9.57458C20.7451 9.57458 22.3408 9.57458 22.3408 9.57458C22.3408 9.57458 22.3408 2.7926 22.3408 2.7926C22.3408 1.25269 21.0881 0 19.5482 0C19.5482 0 16.7317 0 16.7317 0C16.1013 0 15.5747 0.486694 15.5349 1.11707C15.3912 3.39905 13.4683 5.18628 11.1704 5.18628C8.8725 5.18628 6.94958 3.39905 6.80597 1.11707Z" id="icons8_ticket_2" fill="#000941" fill-rule="evenodd" stroke="none" />
</svg>