<svg id="Group_1478" data-name="Group 1478" xmlns="http://www.w3.org/2000/svg" width="34.217" height="32.729" viewBox="0 0 34.217 32.729">
  <path id="icons8_delete_message" d="M19.109,4C9.683,4,2,10.6,2,18.874a14.188,14.188,0,0,0,6.666,11.7,4.306,4.306,0,0,1-.2,1.2A12.513,12.513,0,0,1,6.6,35.64l-.761,1.09H7.172a10.289,10.289,0,0,0,7.68-3.484,18.474,18.474,0,0,0,4.257.5c9.423,0,17.109-6.6,17.109-14.871S28.534,4,19.109,4Zm0,1.488c8.612,0,15.621,6,15.621,13.386S27.721,32.258,19.109,32.258a17.02,17.02,0,0,1-3.917-.459l-.883-.206-.587.686a8.773,8.773,0,0,1-5.038,2.836,12.929,12.929,0,0,0,1.212-2.949,5.9,5.9,0,0,0,.256-1.525l.035-.828L9.5,29.346A12.736,12.736,0,0,1,3.488,18.874C3.488,11.491,10.5,5.488,19.109,5.488Z" transform="translate(-2 -4)" fill="#fff"/>
  <g id="Group_1476" data-name="Group 1476" transform="translate(7.613 13.687)">
    <ellipse id="Ellipse_263" data-name="Ellipse 263" cx="2.127" cy="2.127" rx="2.127" ry="2.127" transform="translate(0 0)" fill="#fff"/>
    <ellipse id="Ellipse_264" data-name="Ellipse 264" cx="2.127" cy="2.127" rx="2.127" ry="2.127" transform="translate(7.445 0)" fill="#fff"/>
    <ellipse id="Ellipse_265" data-name="Ellipse 265" cx="2.127" cy="2.127" rx="2.127" ry="2.127" transform="translate(14.89 0)" fill="#fff"/>
  </g>
</svg>
