<svg xmlns="http://www.w3.org/2000/svg" width="29.439" height="29.378" viewBox="0 0 29.439 29.378">
    <path id="icons8_registration" d="M12.53.156C8.911.156,5.8,2.6,5.8,7.278a12.118,12.118,0,0,0,3.312,8.083c.73,1.918-.583,2.644-.855,2.742C4.469,19.475.031,21.976.031,24.442v.926c0,3.165,5.791,4.006,11.5,4.1a2.961,2.961,0,0,1,.036-1.353L12.993,23.3a2.849,2.849,0,0,1,.855-1.318l3.6-3.6c-.289-.107-.57-.191-.855-.285-.183-.058-1.322-.565-.605-2.742a12.189,12.189,0,0,0,3.276-8.083C19.261,2.6,16.149.156,12.53.156ZM25.991,13.795a1.412,1.412,0,0,0-1,.427l-.605.605,4.06,4.06.605-.605a1.443,1.443,0,0,0,0-2.03l-2.03-2.03A1.483,1.483,0,0,0,25.991,13.795Zm-2.279,1.6-.961.926,4.2,4.2,1-.89Zm-1.6,1.6-6.73,6.659a.573.573,0,0,0-.214.285l-1.389,4.807a.614.614,0,0,0,.142.605.607.607,0,0,0,.427.178.4.4,0,0,0,.142-.036l4.843-1.389a.53.53,0,0,0,.249-.214L26.347,21.2,23.605,18.46ZM16.2,24.656l.356.32,1.567.142.107,1.567.392.392-2.6.748-.57-.57Z" transform="translate(-0.031 -0.156)" fill="#989898" />
</svg>  