<svg xmlns="http://www.w3.org/2000/svg" width="26.759" height="29.013" viewBox="0 0 26.759 29.013">
    <path id="icons8_notification" d="M18.857,4.013A11.35,11.35,0,0,0,8.236,15.442v5.406L6.264,24.816l-.01.022A2.637,2.637,0,0,0,8.609,28.55h6.322a4.464,4.464,0,0,0,8.927,0h6.32a2.638,2.638,0,0,0,2.357-3.712l-.01-.022-1.972-3.967v-5.69A11.178,11.178,0,0,0,18.857,4.013Zm.1,2.229a8.908,8.908,0,0,1,9.36,8.917V21.11a1.116,1.116,0,0,0,.116.5l2.078,4.182a.346.346,0,0,1-.337.529H8.609a.345.345,0,0,1-.336-.529h0l2.078-4.18a1.116,1.116,0,0,0,.116-.5V15.442A9.109,9.109,0,0,1,18.961,6.242Zm-1.8,22.308h4.464a2.232,2.232,0,1,1-4.464,0Z" transform="translate(-6.015 -4.001)" fill="#989898" />
</svg>  