<svg xmlns="http://www.w3.org/2000/svg" width="47" height="45.881" viewBox="0 0 47 45.881">
  <path id="icons8_urgent_message" d="M11.274,5A7.288,7.288,0,0,0,4,12.274V33.536a7.288,7.288,0,0,0,7.274,7.274H24.311a14.736,14.736,0,0,1-.168-2.238,9.252,9.252,0,0,1,.057-1.119H11.274a3.921,3.921,0,0,1-3.917-3.917V17.327L25.583,27.18a1.679,1.679,0,0,0,1.6,0L45.4,17.327V25.67a14.313,14.313,0,0,1,3.357,2.417V12.274A7.288,7.288,0,0,0,41.488,5Zm0,3.357H41.488A3.921,3.921,0,0,1,45.4,12.274v1.237L26.381,23.794,7.357,13.511V12.274A3.921,3.921,0,0,1,11.274,8.357Zm27.417,17.9A12.31,12.31,0,1,0,51,38.571,12.31,12.31,0,0,0,38.69,26.262Zm0,4.476a1.119,1.119,0,0,1,1.119,1.119V40.81a1.119,1.119,0,1,1-2.238,0V31.857A1.119,1.119,0,0,1,38.69,30.738Zm0,13.149a1.4,1.4,0,1,1-1.4,1.4A1.4,1.4,0,0,1,38.69,43.887Z" transform="translate(-4 -5)" fill="#000941"/>
</svg>
