<svg xmlns="http://www.w3.org/2000/svg" width="27.638" height="21" viewBox="0 0 27.638 21">
    <path id="icons8_night" d="M7.918,5.967a.7.7,0,0,0-.075.019.6.6,0,0,0-.468.6v.6H6.72a.6.6,0,0,0,.056,1.2h.6v.6a.6.6,0,1,0,1.2,0v-.6h.6a.6.6,0,1,0,0-1.2h-.6v-.6a.6.6,0,0,0-.656-.618Zm14.535,0-.787.15a6.613,6.613,0,0,0-4.87,4.1.6.6,0,0,0,1.124.431,5.391,5.391,0,0,1,3.315-3.128,6.563,6.563,0,0,0,6.518,6.256c.129,0,.248-.03.375-.037a5.356,5.356,0,0,1-1.386,2.679.6.6,0,0,0,.843.862A6.6,6.6,0,0,0,29.534,13.1l.056-.787-.787.15A5.352,5.352,0,0,1,22.36,7.184c0-.133.007-.274.019-.431ZM15.167,11.98a6,6,0,0,0-5.994,5.994,5.51,5.51,0,0,0,.075.712,4.155,4.155,0,0,0-3.671,4.083,4.2,4.2,0,0,0,4.2,4.2H22.36a5.394,5.394,0,0,0,0-10.789,5.212,5.212,0,0,0-1.48.3A5.932,5.932,0,0,0,15.167,11.98ZM3.123,13.16a.7.7,0,0,0-.075.019.6.6,0,0,0-.468.6H2.524a.6.6,0,0,0,.056,1.2.6.6,0,1,0,1.2,0,.6.6,0,1,0,0-1.2.6.6,0,0,0-.656-.618Zm12.044.019a4.791,4.791,0,0,1,4.739,4.065l.112.768.712-.3a4.193,4.193,0,1,1,1.63,8.054H9.773a3,3,0,1,1,0-5.994s.035,0,.112,0l.787.037-.169-.768a4.753,4.753,0,0,1,4.664-5.863Z" transform="translate(-1.952 -5.964)" fill="#000941"/>
</svg>  