<svg id="Group_815" data-name="Group 815" xmlns="http://www.w3.org/2000/svg" width="125.564" height="106" viewBox="0 0 125.564 106">
  <g id="Ellipse_39" data-name="Ellipse 39" fill="#fff" stroke="#707070" stroke-width="1" opacity="0.47">
    <circle cx="53" cy="53" r="53" stroke="none"/>
    <circle cx="53" cy="53" r="52.5" fill="none"/>
  </g>
  <path id="icons8_airplane_take_off_3" d="M18.213,4.037A4.272,4.272,0,0,0,14.64,5.25l-.967.967,7.921,6.85,8.843-3.51L19.476,4.4A4.25,4.25,0,0,0,18.213,4.037Zm31.748,2.1a4.269,4.269,0,0,0-1.934.463L11.538,21.076,7.728,17.72a3.561,3.561,0,0,0-3.944-.513L3,17.6l4.569,9.31a4.251,4.251,0,0,0,5.778,2.3l14.342-5.57L26.48,40.287h1.372a4.267,4.267,0,0,0,4.015-2.823L38.346,19.5,51.507,14.38l.025-.008v0a4.266,4.266,0,0,0-1.572-8.234Z" transform="translate(24.385 35.673)" fill="#989898" opacity="0.47"/>
  <g id="icons8_checkmark_2" transform="translate(78.615 21.053) rotate(-1)" fill="#2acb1e">
    <path d="M 11.72028923034668 33.24266052246094 L 9.598969459533691 31.12130928039551 L -2.121330738067627 19.40086936950684 L -4.242671012878418 17.27949905395508 L -2.121280908584595 15.15819931030273 L 0.7827191352844238 12.254319190979 L 2.904029130935669 10.13309860229492 L 5.025299072265625 12.25433921813965 L 11.72028827667236 18.94922256469727 L 32.79096984863281 -2.121330976486206 L 34.91233062744141 -4.24268102645874 L 37.03363800048828 -2.121280908584595 L 39.93751907348633 0.7827190756797791 L 42.05875015258789 2.904039144515991 L 39.9374885559082 5.025309085845947 L 13.84162902832031 31.12130928039551 L 11.72028923034668 33.24266052246094 Z" stroke="none"/>
    <path d="M 34.91227722167969 -1.9073486328125e-06 L 11.72030067443848 23.19183349609375 L 2.904003143310547 14.37567710876465 L 0 17.27955436706543 L 11.72030067443848 29 L 37.81615829467773 2.903999328613281 L 34.91227722167969 -1.9073486328125e-06 M 34.91238021850586 -8.485357284545898 L 46.30133438110352 2.904077529907227 L 11.72029113769531 37.48532104492188 L -8.485343933105469 17.27944374084473 L 2.904056549072266 5.890522003173828 L 11.72028541564941 14.70659732818604 L 34.91238021850586 -8.485357284545898 Z" stroke="none" fill="#fff"/>
  </g>
</svg>