<svg xmlns="http://www.w3.org/2000/svg" width="125.564" height="106" viewBox="0 0 125.564 106">
  <g id="Group_1540" data-name="Group 1540" transform="translate(-438 -415)">
    <g id="Ellipse_39" data-name="Ellipse 39" transform="translate(438 415)" fill="#fff" stroke="#707070" stroke-width="1" opacity="0.47">
      <circle cx="53" cy="53" r="53" stroke="none"/>
      <circle cx="53" cy="53" r="52.5" fill="none"/>
    </g>
    <path id="icons8_holiday" d="M20.284,2,13.427,16.221h4.825V25.68l.635.571,3.428-1.9V16.221H27.14ZM17.046,4.159,2,12.158l9.015,4.063Zm6.476,0,6.031,12.062,9.015-4.063Zm9.967,14.094A3.047,3.047,0,1,0,36.536,21.3,3.048,3.048,0,0,0,33.489,18.252ZM29.235,22.7c-2.532,1.849-8.388,5.063-9.459,5.65a1.8,1.8,0,0,1-1.524.063c-1.659-.714-2.77-2.389-3.746-3.111-1.254-.929-2.643-1.4-4.952.063-1.579,1-6.222,4.127-6.222,4.127L5.682,32.6l6.412-4.063S14.9,31.4,16.665,32.156a5.88,5.88,0,0,0,5.079-.254c1.659-.9,9.213-5.4,9.9-5.9Zm10.348,1.9L21.808,34.5H2v4.063H6.063v4.063h4.063V38.568H34.5v4.063h4.063V38.568h4.063V34.5H40.472l-1.4-4.952,2.539-1.4Zm-4.19,6.983.889,2.92H30.124Z" transform="translate(468.685 442.733)" fill="#989898" opacity="0.47"/>
    <g id="icons8_checkmark_2" transform="translate(516.615 436.053) rotate(-1)" fill="#2acb1e">
      <path d="M 11.72028923034668 33.24266052246094 L 9.598969459533691 31.12130928039551 L -2.121330738067627 19.40086936950684 L -4.242671012878418 17.27949905395508 L -2.121280908584595 15.15819931030273 L 0.7827191352844238 12.254319190979 L 2.904029130935669 10.13309860229492 L 5.025299072265625 12.25433921813965 L 11.72028827667236 18.94922256469727 L 32.79096984863281 -2.121330976486206 L 34.91233062744141 -4.24268102645874 L 37.03363800048828 -2.121280908584595 L 39.93751907348633 0.7827190756797791 L 42.05875015258789 2.904039144515991 L 39.9374885559082 5.025309085845947 L 13.84162902832031 31.12130928039551 L 11.72028923034668 33.24266052246094 Z" stroke="none"/>
      <path d="M 34.91227722167969 -1.9073486328125e-06 L 11.72030067443848 23.19183349609375 L 2.904003143310547 14.37567710876465 L 0 17.27955436706543 L 11.72030067443848 29 L 37.81615829467773 2.903999328613281 L 34.91227722167969 -1.9073486328125e-06 M 34.91238021850586 -8.485357284545898 L 46.30133438110352 2.904077529907227 L 11.72029113769531 37.48532104492188 L -8.485343933105469 17.27944374084473 L 2.904056549072266 5.890522003173828 L 11.72028541564941 14.70659732818604 L 34.91238021850586 -8.485357284545898 Z" stroke="none" fill="#fff"/>
    </g>
  </g>
</svg>
