<?xml version="1.0" encoding="utf-8"?>
<svg width="15.632568px" height="17.113403px" viewBox="0 0 15.632568 17.113403" version="1.1" xmlns:xlink="http://www.w3.org/1999/xlink" xmlns="http://www.w3.org/2000/svg">
  <path d="M0.689575 11.6841C0.689575 11.6841 0.00366211 16.3112 0.00366211 16.3112C-0.0123291 16.4173 0.0254517 16.5307 0.0966797 16.6135C0.167847 16.6949 0.268127 16.7414 0.375671 16.7414C0.375671 16.7414 1.49176 16.7414 1.49176 16.7414L1.49176 17.1134L2.60785 17.1134L2.60785 16.7414L13.0247 16.7414L13.0247 17.1134L14.1408 17.1134L14.1408 16.7414C14.1408 16.7414 15.2569 16.7414 15.2569 16.7414C15.3644 16.7414 15.4647 16.6949 15.5359 16.6135C15.6071 16.5307 15.6449 16.4173 15.6289 16.3112C15.6289 16.3112 14.943 11.6841 14.943 11.6841C13.8749 11.9661 11.5366 12.5052 8.87427 12.6258C8.72748 13.072 8.31183 13.3931 7.81628 13.3931C7.32074 13.3931 6.90509 13.072 6.75836 12.6258C4.09601 12.5052 1.75769 11.966 0.689575 11.6841C0.689575 11.6841 0.689575 11.6841 0.689575 11.6841ZM4.46802 5.20844C4.0567 5.20844 3.72394 5.5412 3.72394 5.95251C3.72394 5.95251 1.86377 5.95251 1.86377 5.95251C1.68939 5.95251 1.5412 6.07452 1.50342 6.24316C1.50342 6.24316 0.550049 10.4401 0.550049 10.4401C0.497742 10.6668 0.627075 10.892 0.852356 10.9517C2.00769 11.2554 4.8197 11.905 7.81628 11.905C10.8158 11.905 13.6264 11.2554 14.7803 10.9517C15.0055 10.892 15.1348 10.6668 15.0825 10.4401C15.0825 10.4401 14.1292 6.24316 14.1292 6.24316C14.0914 6.07312 13.9432 5.95251 13.7688 5.95251C13.7688 5.95251 11.9086 5.95251 11.9086 5.95251C11.9086 5.5412 11.5759 5.20844 11.1646 5.20844C10.7533 5.20844 10.4205 5.5412 10.4205 5.95251C10.4205 5.95251 5.2121 5.95251 5.2121 5.95251C5.2121 5.5412 4.87933 5.20844 4.46802 5.20844C4.46802 5.20844 4.46802 5.20844 4.46802 5.20844ZM7.81628 0C5.76575 0 4.09601 1.6698 4.09601 3.72034C4.09601 3.72034 4.09601 4.46436 4.09601 4.46436C4.09454 4.59808 4.16431 4.72302 4.28052 4.79132C4.39679 4.85822 4.53918 4.85822 4.65546 4.79132C4.77173 4.72302 4.84149 4.59808 4.84003 4.46436C4.84003 4.46436 4.84003 3.72034 4.84003 3.72034C4.84003 2.07233 6.16827 0.74408 7.81628 0.74408C9.46429 0.74408 10.7925 2.07233 10.7925 3.72034C10.7925 3.72034 10.7925 4.46436 10.7925 4.46436C10.7911 4.59808 10.8608 4.72302 10.9771 4.79132C11.0933 4.85822 11.2358 4.85822 11.3521 4.79132C11.4683 4.72302 11.538 4.59808 11.5366 4.46436C11.5366 4.46436 11.5366 3.72034 11.5366 3.72034C11.5366 1.6698 9.86676 0 7.81628 0C7.81628 0 7.81628 0 7.81628 0Z" id="icons8_bag" fill="#989898" fill-rule="evenodd" stroke="none" />
</svg>