<?xml version="1.0" encoding="utf-8"?>
<svg width="17.612549px" height="17.612549px" viewBox="0 0 17.612549 17.612549" version="1.1" xmlns:xlink="http://www.w3.org/1999/xlink" xmlns="http://www.w3.org/2000/svg">
  <path d="M14.2175 8.43536C14.1427 8.51013 14.044 8.54755 13.9468 8.54755C13.848 8.54755 13.7509 8.51013 13.6761 8.43536C13.6761 8.43536 13.5385 8.29779 13.5385 8.29779C12.1774 9.42993 10.1464 9.76349 10.1464 9.76349L9.35815 11.4969C9.35815 11.4969 9.45984 11.5986 9.45984 11.5986C9.60944 11.7482 9.60944 11.9905 9.45984 12.14C9.38507 12.2148 9.28784 12.2522 9.18915 12.2522C9.09045 12.2522 8.99323 12.2148 8.91846 12.14C8.91846 12.14 7.46619 10.6878 7.46619 10.6878L4.36725 13.7867L3.82581 13.2453L6.92474 10.1464C6.92474 10.1464 5.47253 8.69409 5.47253 8.69409C5.32294 8.54456 5.32294 8.30225 5.47253 8.15271C5.62207 8.00311 5.86438 8.00311 6.01392 8.15271C6.01392 8.15271 6.11566 8.25439 6.11566 8.25439L7.84906 7.46619C7.84906 7.46619 8.18262 5.43512 9.31476 4.0741C9.31476 4.0741 9.19513 3.95441 9.19513 3.95441C9.04559 3.80487 9.04559 3.56256 9.19513 3.41302C9.34473 3.26343 9.58698 3.26343 9.73657 3.41302C9.73657 3.41302 14.2175 7.89392 14.2175 7.89392C14.367 8.04346 14.367 8.28577 14.2175 8.43536C14.2175 8.43536 14.2175 8.43536 14.2175 8.43536ZM8.80627 0C3.94995 0 0 3.94995 0 8.80627C0 13.6626 3.94995 17.6125 8.80627 17.6125C13.6626 17.6125 17.6125 13.6626 17.6125 8.80627C17.6125 3.94995 13.6626 0 8.80627 0Z" id="icons8_pin_in_circle" fill="#989898" fill-rule="evenodd" stroke="none" />
</svg>