<?xml version="1.0" encoding="utf-8"?>
<svg width="15.632568px" height="14.911011px" viewBox="0 0 15.632568 14.911011" version="1.1" xmlns:xlink="http://www.w3.org/1999/xlink" xmlns="http://www.w3.org/2000/svg">
  <path d="M14.9221 13.0013L14.9221 14.2004C14.9221 14.2004 13.6564 14.2004 13.6564 14.2004C13.8771 13.9117 13.9534 13.5259 14.1005 13.3788C14.2476 13.2317 14.6334 13.1623 14.9221 13.0013C14.9221 13.0013 14.9221 13.0013 14.9221 13.0013ZM0.710571 12.9791C0.999268 13.1429 1.38367 13.2303 1.53217 13.3788C1.67926 13.5259 1.75287 13.9117 1.96521 14.2004C1.96521 14.2004 0.710571 14.2004 0.710571 14.2004C0.710571 14.2004 0.710571 12.9791 0.710571 12.9791ZM7.46106 9.22638L7.46106 11.3581L8.17163 11.3581L8.17163 9.22638L7.46106 9.22638ZM7.46106 7.48328C7.46106 7.48328 7.46106 8.51581 7.46106 8.51581L8.17163 8.51581C8.17163 8.51581 8.17163 7.49438 8.17163 7.49438C8.36591 7.5332 8.56299 7.5943 8.74896 7.68311C8.74896 7.68311 9.20416 8.12726 9.20416 8.12726C9.20416 8.12726 9.99249 8.90442 9.99249 8.90442C10.1882 9.29718 10.3033 9.776 10.3033 10.2922C10.3033 11.7551 9.35822 12.9056 8.17163 13.1013C8.17163 13.1013 8.17163 12.0687 8.17163 12.0687L7.46106 12.0687C7.46106 12.0687 7.46106 13.1013 7.46106 13.1013C6.27448 12.9056 5.32928 11.7551 5.32928 10.2922C5.32928 8.82947 6.27448 7.67896 7.46106 7.48328ZM13.6675 6.38409C13.6675 6.38409 14.9221 6.38409 14.9221 6.38409C14.9221 6.38409 14.9221 7.57208 14.9221 7.57208C14.6334 7.41107 14.249 7.33197 14.1005 7.20569C13.9534 7.05853 13.8798 6.67273 13.6675 6.38409ZM0.710571 6.38409C0.710571 6.38409 1.93188 6.38409 1.93188 6.38409C1.71259 6.67273 1.63489 7.05853 1.48773 7.20569C1.36285 7.33063 0.995056 7.40411 0.710571 7.56097C0.710571 7.56097 0.710571 6.38409 0.710571 6.38409ZM7.81635 4.60767C7.59979 4.60767 7.42773 4.77972 7.42773 4.99628C7.42773 5.21271 7.59979 5.38483 7.81635 5.38483C8.03284 5.38483 8.20496 5.21271 8.20496 4.99628C8.20496 4.77972 8.03284 4.60767 7.81635 4.60767ZM10.8141 1.46558C10.6808 1.46558 10.5545 1.51416 10.4477 1.62097C10.4477 1.62097 10.0924 1.97632 10.0924 1.97632C9.91479 2.15393 9.91479 2.50641 10.0924 2.72015C10.3061 2.9339 10.6226 2.9339 10.8363 2.72015C10.8363 2.72015 11.1916 2.36487 11.1916 2.36487C11.4053 2.15112 11.4053 1.83472 11.1916 1.62097C11.0847 1.51416 10.9473 1.46558 10.8141 1.46558C10.8141 1.46558 10.8141 1.46558 10.8141 1.46558ZM4.8186 1.46558C4.68536 1.46558 4.54797 1.51416 4.4411 1.62097C4.22736 1.83472 4.22736 2.15118 4.4411 2.36487C4.4411 2.36487 4.79639 2.72015 4.79639 2.72015C4.974 2.89783 5.32654 2.89783 5.54028 2.72015C5.75397 2.50641 5.75397 2.19 5.54028 1.97632C5.54028 1.97632 5.185 1.62097 5.185 1.62097C5.07813 1.51416 4.95178 1.46558 4.8186 1.46558ZM4.59656 0.732788C4.86713 0.732788 5.14337 0.83551 5.36261 1.05475C5.36261 1.05475 6.07324 1.76532 6.07324 1.76532C6.30914 2.00128 6.41321 2.35516 6.36188 2.66467C6.34247 2.7785 6.37988 2.89368 6.46179 2.97559C6.46179 2.97559 11.558 8.07172 11.558 8.07172C11.9091 8.39374 12.0798 8.81281 12.0798 9.29303C12.0798 9.29303 12.0798 9.95917 12.0798 9.95917L10.5587 8.44922L10.5587 8.43811L10.5143 8.40479L9.81482 7.71643C9.81482 7.71643 5.76233 3.68616 5.76233 3.68616C5.68042 3.60425 5.56525 3.56677 5.45148 3.58618C5.14197 3.63751 4.78809 3.52234 4.55212 3.28644C4.55212 3.28644 3.84155 2.57587 3.84155 2.57587C3.40436 2.13867 3.40436 1.49194 3.84155 1.05475C4.06079 0.83551 4.32593 0.732788 4.59656 0.732788C4.59656 0.732788 4.59656 0.732788 4.59656 0.732788ZM11.0361 0.688354C11.3068 0.688354 11.5718 0.802185 11.7911 1.02142C12.2283 1.45862 12.2283 2.10535 11.7911 2.54254C11.7911 2.54254 11.0806 3.25311 11.0806 3.25311C10.8446 3.48907 10.4907 3.59314 10.1812 3.54181C10.0674 3.52234 9.95221 3.55981 9.87036 3.64172C9.87036 3.64172 9.00433 4.50775 9.00433 4.50775L8.30487 3.80823C8.30487 3.80823 9.17084 2.9422 9.17084 2.9422C9.25275 2.86035 9.29022 2.74518 9.27081 2.63135C9.21942 2.32184 9.32355 1.96796 9.55945 1.73206C9.55945 1.73206 10.27 1.02142 10.27 1.02142C10.4893 0.802185 10.7655 0.688354 11.0361 0.688354C11.0361 0.688354 11.0361 0.688354 11.0361 0.688354ZM11.0361 0C10.5795 0 10.1202 0.172119 9.77045 0.521851C9.77045 0.521851 9.05981 1.23242 9.05981 1.23242C8.70874 1.58356 8.56299 2.05542 8.58246 2.53143C8.58246 2.53143 7.80524 3.30865 7.80524 3.30865C7.80524 3.30865 7.05023 2.56476 7.05023 2.56476C7.06549 2.0929 6.9212 1.61407 6.57281 1.26575C6.57281 1.26575 5.86224 0.555115 5.86224 0.555115C5.51251 0.205383 5.05316 0.0333252 4.59656 0.0333252C4.13989 0.0333252 3.69165 0.205383 3.34192 0.555115C2.64246 1.25464 2.64246 2.38708 3.34192 3.08661C3.34192 3.08661 4.05249 3.79718 4.05249 3.79718C4.39807 4.1427 4.86163 4.27594 5.32935 4.26349C5.32935 4.26349 6.75049 5.67352 6.75049 5.67352L0 5.67352L0 14.911L15.6327 14.911L15.6327 5.67352L10.1701 5.67352L9.51508 5.01849C9.51508 5.01849 10.3033 4.23016 10.3033 4.23016C10.7711 4.24268 11.2346 4.09833 11.5802 3.75275C11.5802 3.75275 12.2908 3.04218 12.2908 3.04218C12.9902 2.34271 12.9902 1.22131 12.2908 0.521851C11.941 0.172119 11.4927 0 11.0361 0C11.0361 0 11.0361 0 11.0361 0Z" id="icons8_tax" fill="#989898" fill-rule="evenodd" stroke="none" />
</svg>