<?xml version="1.0" encoding="utf-8"?>
<svg width="15.632568px" height="15.631592px" viewBox="0 0 15.632568 15.631592" version="1.1" xmlns:xlink="http://www.w3.org/1999/xlink" xmlns="http://www.w3.org/2000/svg">
  <path d="M10.8719 5.46954C10.6727 5.47607 10.4846 5.56305 10.3506 5.71057C10.2165 5.85815 10.1479 6.05371 10.1605 6.25262C10.1605 6.25262 10.1605 7.03418 10.1605 7.03418C10.1605 7.03418 8.93323 7.03418 8.93323 7.03418C8.28979 7.0639 7.79077 7.60718 7.8158 8.25079C7.8158 8.25079 7.8158 11.2887 7.8158 11.2887C7.79083 11.9323 8.28979 12.4756 8.93323 12.5052C8.93323 12.5052 14.5142 12.5052 14.5142 12.5052C15.1576 12.4756 15.6566 11.9323 15.6316 11.2887C15.6316 11.2887 15.6316 8.25079 15.6316 8.25079C15.6566 7.60718 15.1576 7.0639 14.5142 7.03418C14.5142 7.03418 13.2869 7.03418 13.2869 7.03418C13.2869 7.03418 13.2869 6.25262 13.2869 6.25262C13.3 6.04156 13.222 5.83502 13.0724 5.68549C12.9229 5.53595 12.7164 5.45782 12.5052 5.47107C12.5052 5.47107 10.9421 5.47107 10.9421 5.47107C10.9188 5.46942 10.8953 5.46893 10.8719 5.46954C10.8719 5.46954 10.8719 5.46954 10.8719 5.46954ZM3.9079 1.56317C4.32654 1.56317 4.66852 1.63562 4.95355 1.75854C4.94153 1.76941 4.92981 1.78058 4.91846 1.79211C4.91846 1.79211 3.35529 3.35529 3.35529 3.35529C3.04993 3.6604 3.04993 4.15533 3.35516 4.46063C3.66046 4.76587 4.15533 4.76587 4.46063 4.46063C4.46063 4.46063 6.02362 2.89734 6.02362 2.89734C6.02832 2.89282 6.0329 2.88824 6.03741 2.88361C6.17316 3.20087 6.25262 3.55042 6.25262 3.9079C6.25262 4.51581 6.04578 5.11316 5.66797 5.53821C5.29016 5.96326 4.75458 6.25262 3.9079 6.25262C3.06116 6.25262 2.52563 5.96326 2.14783 5.53821C1.77002 5.11316 1.56317 4.51581 1.56317 3.9079C1.56317 3.29999 1.77002 2.70258 2.14783 2.27759C2.52563 1.85254 3.06116 1.56317 3.9079 1.56317C3.9079 1.56317 3.9079 1.56317 3.9079 1.56317ZM3.9079 0C2.67041 0 1.64282 0.492188 0.978516 1.23956C0.314209 1.98688 0 2.95264 0 3.9079C0 4.86316 0.314209 5.82892 0.978516 6.57623C1.49689 7.15942 2.2384 7.5827 3.12634 7.74255C3.12634 7.74255 3.12634 15.6316 3.12634 15.6316L15.6316 15.6316L15.6316 14.0684L4.68945 14.0684C4.68945 14.0684 4.68945 7.74255 4.68945 7.74255C5.57739 7.5827 6.31891 7.15942 6.83728 6.57623C7.50159 5.82892 7.8158 4.86316 7.8158 3.9079C7.8158 2.95264 7.50159 1.98688 6.83728 1.23956C6.17297 0.492188 5.14539 0 3.9079 0Z" id="icons8_baggage_weight" fill="#989898" fill-rule="evenodd" stroke="none" />
</svg>