<?xml version="1.0" encoding="utf-8"?>
<svg width="15.632568px" height="14.329834px" viewBox="0 0 15.632568 14.329834" version="1.1" xmlns:xlink="http://www.w3.org/1999/xlink" xmlns="http://www.w3.org/2000/svg">
  <path d="M11.0731 3.19684C11.0731 3.19684 11.0731 3.90814 11.0731 3.90814C11.0731 5.70392 9.61206 7.16492 7.81628 7.16492C6.02051 7.16492 4.55951 5.70392 4.55951 3.90814C4.55951 3.90814 4.55951 3.19684 4.55951 3.19684C4.18103 3.06268 3.90814 2.70441 3.90814 2.27972C3.90814 1.74042 4.34583 1.30273 4.88519 1.30273C5.4245 1.30273 5.86224 1.74042 5.86224 2.27972C5.86224 2.27972 5.86224 3.90814 5.86224 3.90814C5.86224 4.98547 6.73895 5.86218 7.81628 5.86218C8.89362 5.86218 9.77039 4.98547 9.77039 3.90814C9.77039 3.90814 9.77039 2.27972 9.77039 2.27972C9.77039 1.74042 10.2081 1.30273 10.7474 1.30273C11.2867 1.30273 11.7244 1.74042 11.7244 2.27972C11.7244 2.70447 11.4515 3.06268 11.0731 3.19684C11.0731 3.19684 11.0731 3.19684 11.0731 3.19684ZM15.6019 12.751C15.6019 12.751 14.3298 1.30273 14.3298 1.30273C14.3298 0.582947 13.7469 0 13.0272 0C13.0272 0 7.81628 0 7.81628 0C7.81628 0 2.60541 0 2.60541 0C1.88568 0 1.30273 0.582947 1.30273 1.30273C1.30273 1.30273 0.0306396 12.751 0.0306396 12.751C0.0117188 12.8402 0 12.9321 0 13.0272C0 13.7469 0.582947 14.3298 1.30273 14.3298C1.30273 14.3298 7.81628 14.3298 7.81628 14.3298C7.81628 14.3298 14.3298 14.3298 14.3298 14.3298C15.0496 14.3298 15.6326 13.7469 15.6326 13.0272C15.6326 12.932 15.6208 12.8402 15.602 12.751C15.602 12.751 15.6019 12.751 15.6019 12.751Z" id="icons8_shopping_bag_1" fill="#989898" fill-rule="evenodd" stroke="none" />
</svg>