<svg xmlns="http://www.w3.org/2000/svg" width="20.32" height="12.87" viewBox="0 0 20.32 12.87">
  <path id="icons8_users" d="M10.16,6A2.794,2.794,0,0,0,7.112,9.048a3.023,3.023,0,0,0,.269,1.125.6.6,0,0,0-.242.61c.083.652.366.816.546.83a2.655,2.655,0,0,0,.951,1.5v.909c-.508,1.524-4.572,1.293-4.572,4.849H16.256c0-3.556-4.064-3.325-4.572-4.849v-.909a2.651,2.651,0,0,0,.951-1.5c.18-.014.463-.178.546-.83a.6.6,0,0,0-.242-.61,2.681,2.681,0,0,0,.269-1.125c0-1.233-.484-2.286-1.524-2.286A1.616,1.616,0,0,0,10.16,6Zm5.08,1.353a2.848,2.848,0,0,0-.913.152,5,5,0,0,1,.236,1.543,3.861,3.861,0,0,1-.128.967,2.094,2.094,0,0,1,.09.938,2.423,2.423,0,0,1-.749,1.572,4.192,4.192,0,0,1-.406.73,2.38,2.38,0,0,0,.6.818v.008c1.38.647,3.641,1.734,3.641,4.789H20.32c0-3.358-3.387-2.876-3.81-4.315v-.483a2.553,2.553,0,0,0,.792-1.417c.15-.013.386-.167.455-.783a.6.6,0,0,0-.2-.575,2.81,2.81,0,0,0,.224-1.062c0-1.165-.4-2.159-1.27-2.159A1.335,1.335,0,0,0,15.24,7.353Zm-10.16,0a1.335,1.335,0,0,0-1.27.72c-.866,0-1.27,1-1.27,2.16A2.8,2.8,0,0,0,2.764,11.3a.593.593,0,0,0-.2.575c.069.616.305.772.455.784a2.553,2.553,0,0,0,.792,1.417v.482C3.387,15.993,0,15.511,0,18.87H2.709c0-3.055,2.261-4.141,3.641-4.789v-.009a2.364,2.364,0,0,0,.6-.816,4.2,4.2,0,0,1-.406-.732,2.416,2.416,0,0,1-.749-1.57A2.106,2.106,0,0,1,5.888,10a3.8,3.8,0,0,1-.131-.955A5.243,5.243,0,0,1,5.981,7.5,2.838,2.838,0,0,0,5.08,7.355Z" transform="translate(0 -6)" fill="#989898"/>
</svg>
