<svg xmlns="http://www.w3.org/2000/svg" width="55.067" height="44.054" viewBox="0 0 55.067 44.054">
  <path id="icons8_wallet_1" d="M11.572,8A7.6,7.6,0,0,0,4,15.572v28.91a7.6,7.6,0,0,0,7.572,7.572H51.5a7.6,7.6,0,0,0,7.572-7.572V15.572A7.6,7.6,0,0,0,51.5,8Zm0,4.13H51.5a3.411,3.411,0,0,1,3.442,3.442V17.1A7.478,7.478,0,0,0,51.5,16.26H11.572A7.478,7.478,0,0,0,8.13,17.1V15.572A3.411,3.411,0,0,1,11.572,12.13Zm0,8.26H51.5a3.411,3.411,0,0,1,3.442,3.442v1.533A7.478,7.478,0,0,0,51.5,24.52H40.043A4.91,4.91,0,0,0,35.451,27.9a4.133,4.133,0,0,1-7.832,0,4.916,4.916,0,0,0-4.593-3.382H11.572a7.478,7.478,0,0,0-3.442.844V23.832A3.411,3.411,0,0,1,11.572,20.39Zm0,8.26H23.026a.711.711,0,0,1,.678.57,8.264,8.264,0,0,0,15.662,0s0,0,0,0a.711.711,0,0,1,.677-.567H51.5a3.411,3.411,0,0,1,3.442,3.442v12.39A3.411,3.411,0,0,1,51.5,47.924H11.572A3.411,3.411,0,0,1,8.13,44.482V32.092A3.411,3.411,0,0,1,11.572,28.65Z" transform="translate(-4 -8)" fill="#000941"/>
</svg>
