<svg xmlns="http://www.w3.org/2000/svg" width="25.311" height="19.235" viewBox="0 0 25.311 19.235">
  <path id="icons8_people" d="M13.571,5A5.475,5.475,0,0,0,8.794,7.215a4.2,4.2,0,0,0-.427.854l-.127-.253A.505.505,0,0,0,7.8,7.531,4.292,4.292,0,0,0,4.049,9.3a3.764,3.764,0,0,0-.269,3.322c-.032.051-.1.079-.127.142a1.5,1.5,0,0,0-.111.791v.016a2.121,2.121,0,0,0,.364,1.044c.081.107.21.107.316.174a4.523,4.523,0,0,0,.332,1.06,3.447,3.447,0,0,0,.285.49c.034.049.091.083.127.127,0,.388-.014.736-.047,1.186a1.385,1.385,0,0,1-.728.649c-.425.217-.995.419-1.582.68A5.249,5.249,0,0,0,.9,20.075,3.337,3.337,0,0,0,0,22.226a.507.507,0,0,0,.506.538H3.653A4.665,4.665,0,0,0,3.5,23.7.507.507,0,0,0,4,24.235H21.307a.507.507,0,0,0,.506-.538,4.672,4.672,0,0,0-.174-.981H24.8a.507.507,0,0,0,.506-.538,3.362,3.362,0,0,0-.9-2.151,5.145,5.145,0,0,0-1.677-1.091c-.581-.261-1.145-.463-1.566-.68a1.412,1.412,0,0,1-.712-.649c-.034-.409-.047-.773-.047-1.186.034-.043.093-.079.127-.127a3.251,3.251,0,0,0,.269-.49,3.87,3.87,0,0,0,.3-1.012c.1-.065.223-.071.3-.174a2.121,2.121,0,0,0,.364-1.044,1.585,1.585,0,0,0-.079-.759c-.024-.061-.111-.1-.142-.158a2.682,2.682,0,0,0,.269-.823,4.435,4.435,0,0,0-.127-1.519,3,3,0,0,0-.775-1.424A2.341,2.341,0,0,0,19.6,8.306l-.206-.475a.508.508,0,0,0-.459-.3,7.238,7.238,0,0,0-2.136.285,3.454,3.454,0,0,0-.743-1.091,2.936,2.936,0,0,0-1.74-.743L14.03,5.3A.508.508,0,0,0,13.571,5Zm-.332,1.044.269.585a.508.508,0,0,0,.459.3,1.886,1.886,0,0,1,1.392.522,2.767,2.767,0,0,1,.712,1.3A4.52,4.52,0,0,1,16.2,10.3a2.179,2.179,0,0,1-.3.965.505.505,0,0,0,.19.775c-.008,0,0,0,.016.032a.992.992,0,0,1,.047.4c0,.016,0,.016,0,.032a1.86,1.86,0,0,1-.269.775.318.318,0,0,1-.079.079.505.505,0,0,0-.459.443,4.415,4.415,0,0,1-.364,1.25,2.878,2.878,0,0,1-.269.459c-.059.081-.119.127-.111.127a.5.5,0,0,0-.269.459c0,.658,0,1.186.047,1.961a.5.5,0,0,0,.032.142,2.869,2.869,0,0,0,1.55,1.471c.668.33,1.424.577,2.135.886a5.764,5.764,0,0,1,1.851,1.171,2.969,2.969,0,0,1,.728,1.5H4.634a2.968,2.968,0,0,1,.728-1.5A5.763,5.763,0,0,1,7.212,20.55c.712-.308,1.467-.556,2.136-.886a2.869,2.869,0,0,0,1.55-1.471.5.5,0,0,0,.032-.142c.051-.728.047-1.3.047-1.961a.5.5,0,0,0-.269-.459.09.09,0,0,0-.016-.016s-.01,0-.016,0a.786.786,0,0,1-.095-.111,3.041,3.041,0,0,1-.285-.459,3.844,3.844,0,0,1-.38-1.234.508.508,0,0,0-.411-.443c-.049-.01-.308,0-.4-.87-.036-.39.148-.5.127-.49a.5.5,0,0,0,.19-.633,4.043,4.043,0,0,1-.316-2.23.507.507,0,0,0,.111-.475,3.374,3.374,0,0,1,.411-.886A4.337,4.337,0,0,1,13.239,6.044Zm5.378,2.547.158.348a.506.506,0,0,0,.459.316,1.27,1.27,0,0,1,.965.364,2.056,2.056,0,0,1,.506.949,3.424,3.424,0,0,1,.095,1.155,1.784,1.784,0,0,1-.206.712.508.508,0,0,0,.142.743.612.612,0,0,1,.016.269,1.388,1.388,0,0,1-.158.569.505.505,0,0,0-.443.459,2.868,2.868,0,0,1-.269.9,2.359,2.359,0,0,1-.19.332,1.224,1.224,0,0,0-.079.111.507.507,0,0,0-.221.411A15.529,15.529,0,0,0,19.44,17.8a.564.564,0,0,0,.032.127,2.338,2.338,0,0,0,1.218,1.234c.516.267,1.1.457,1.629.7a4.3,4.3,0,0,1,1.36.886,2.17,2.17,0,0,1,.506.965H21.212a3.93,3.93,0,0,0-.538-.7,6.563,6.563,0,0,0-2.167-1.376c-.763-.33-1.515-.585-2.088-.87a2,2,0,0,1-1.028-.9c-.038-.607-.047-1.062-.047-1.6.053-.061.14-.107.19-.174a3.793,3.793,0,0,0,.364-.617,5.364,5.364,0,0,0,.38-1.36c.138-.083.3-.079.411-.221a2.752,2.752,0,0,0,.459-1.265.243.243,0,0,0,.016-.032,1.914,1.914,0,0,0-.127-.917c-.028-.065-.121-.081-.158-.142a3.275,3.275,0,0,0,.316-1.139,5.413,5.413,0,0,0-.079-1.613A6.88,6.88,0,0,1,18.618,8.591Zm-11.1.016.19.364a.5.5,0,0,0,.38.285,5.135,5.135,0,0,0,.316,2.23,1.557,1.557,0,0,0-.3,1.107,1.847,1.847,0,0,0,.87,1.534A5.041,5.041,0,0,0,9.4,15.5a3.875,3.875,0,0,0,.38.617c.049.065.136.1.19.158,0,.536-.01,1.016-.047,1.582a2,2,0,0,1-1.028.9c-.573.285-1.325.54-2.088.87a6.563,6.563,0,0,0-2.167,1.376,3.9,3.9,0,0,0-.569.743H1.138a2.169,2.169,0,0,1,.506-.965A4.358,4.358,0,0,1,3.021,19.9c.538-.239,1.109-.429,1.629-.7a2.323,2.323,0,0,0,1.234-1.218.5.5,0,0,0,.032-.142c.051-.627.063-1.044.063-1.55a.507.507,0,0,0-.237-.443,1.088,1.088,0,0,1-.079-.095,2.489,2.489,0,0,1-.206-.348,3.478,3.478,0,0,1-.3-.965.506.506,0,0,0-.443-.427,1.389,1.389,0,0,1-.158-.569.488.488,0,0,1,.032-.269.506.506,0,0,0,.174-.633A2.8,2.8,0,0,1,4.9,9.856,3.175,3.175,0,0,1,7.513,8.607Z" transform="translate(0.002 -5)" fill="#989898"/>
</svg>
