<svg id="icons8_phone_5" xmlns="http://www.w3.org/2000/svg" xmlns:xlink="http://www.w3.org/1999/xlink" width="76.194" height="76.193" viewBox="0 0 76.194 76.193">
  <defs>
    <linearGradient id="linear-gradient" x1="0.5" x2="0.5" y2="1" gradientUnits="objectBoundingBox">
      <stop offset="0" stop-color="#fd843d"/>
      <stop offset="1" stop-color="#fe2f70"/>
    </linearGradient>
  </defs>
  <path id="Path_453" data-name="Path 453" d="M66.669,4.167a4.167,4.167,0,1,1,4.167,4.167A4.167,4.167,0,0,1,66.669,4.167ZM4.762,66.669a4.762,4.762,0,1,0,4.762,4.762A4.762,4.762,0,0,0,4.762,66.669Zm9.524-47.621H4.3A4.26,4.26,0,0,0,.092,22.331a4.179,4.179,0,0,0,4.075,5.051H5.253A3.044,3.044,0,0,1,8.225,29.55a2.986,2.986,0,0,1-2.868,3.785h0A5.358,5.358,0,0,0,0,38.692H0a5.358,5.358,0,0,0,5.357,5.357H8.131a3.709,3.709,0,0,1,3.769,3.38,3.572,3.572,0,0,1-3.567,3.763H6.784a4.326,4.326,0,0,0-4.4,3.943,4.167,4.167,0,0,0,4.161,4.391H20.037a3.709,3.709,0,0,1,3.769,3.38,3.572,3.572,0,0,1-3.567,3.763H18.063a4.9,4.9,0,0,0-4.944,4.294,4.762,4.762,0,0,0,4.739,5.23H60.512A4.9,4.9,0,0,0,65.456,71.9a4.762,4.762,0,0,0-4.739-5.23H58.54A4.9,4.9,0,0,1,53.6,62.375a4.762,4.762,0,0,1,4.739-5.23H70.606a5.512,5.512,0,0,0,5.562-4.831,5.358,5.358,0,0,0-5.332-5.884h-.955a4.326,4.326,0,0,1-4.4-3.943A4.167,4.167,0,0,1,69.645,38.1h1.581A4.9,4.9,0,0,0,76.171,33.8a4.762,4.762,0,0,0-4.739-5.23H62.673A3.094,3.094,0,0,1,59.542,25.9,2.976,2.976,0,0,1,62.5,22.62h1.581a4.9,4.9,0,0,0,4.944-4.294,4.762,4.762,0,0,0-4.739-5.23H58.463a2.471,2.471,0,0,1-2.476-1.981,2.383,2.383,0,0,1,2.349-2.781h.36a4.326,4.326,0,0,0,4.4-3.943A4.167,4.167,0,0,0,58.931,0H7.424a6.147,6.147,0,0,0-6.2,5.342,5.968,5.968,0,0,0,5.922,6.563h7.143a3.571,3.571,0,0,1,3.572,3.572h0A3.571,3.571,0,0,1,14.286,19.048Z" transform="translate(0.001)" fill="#f2f2f2"/>
  <path id="Path_454" data-name="Path 454" d="M61.464,44.906H47.372a5.958,5.958,0,0,0-4.21,1.743l-3.473,3.473A45.761,45.761,0,0,1,23.022,33.454l3.473-3.473a5.949,5.949,0,0,0,1.744-4.208V11.681A3.681,3.681,0,0,0,24.558,8H11.681A3.681,3.681,0,0,0,8,11.681v2.363A43.764,43.764,0,0,0,9.687,26.452,54.93,54.93,0,0,0,46.693,63.458,43.764,43.764,0,0,0,59.1,65.145h2.363a3.681,3.681,0,0,0,3.681-3.681V48.587A3.681,3.681,0,0,0,61.464,44.906Z" transform="translate(1.525 1.524)" fill="url(#linear-gradient)"/>
</svg>
