<svg xmlns="http://www.w3.org/2000/svg" width="25.983" height="24.749" viewBox="0 0 25.983 24.749">
  <path id="icons8_star_6" d="M5.286,25.749a.739.739,0,0,1-.312-.1.577.577,0,0,1-.208-.572l2.288-8.527L.191,10.983a.494.494,0,0,1-.208-.572.5.5,0,0,1,.468-.364L9.29,9.579l3.172-8.267A.69.69,0,0,1,12.981,1a.527.527,0,0,1,.468.312l3.172,8.267,8.839.468a.5.5,0,0,1,.468.364.587.587,0,0,1-.156.572l-6.863,5.563L21.2,25.073a.519.519,0,0,1-.208.572.468.468,0,0,1-.572,0l-7.435-4.783L5.546,25.645A.286.286,0,0,1,5.286,25.749Z" transform="translate(0.036 -1)" fill="#fec732"/>
</svg>