<?xml version="1.0" encoding="utf-8"?>
<svg width="20.840332px" height="20.006592px" viewBox="0 0 20.840332 20.006592" version="1.1" xmlns:xlink="http://www.w3.org/1999/xlink" xmlns="http://www.w3.org/2000/svg">
  <path d="M5.83521 10.8369C3.07263 10.8369 0.833618 13.0759 0.833618 15.8385C0.833618 15.8385 0.833618 18.3393 0.833618 18.3393C0.833618 18.3393 0.833618 19.1729 0.833618 19.1729C0.833496 19.6333 1.20679 20.0066 1.66718 20.0066C2.12762 20.0066 2.50092 19.6333 2.50092 19.1729C2.50092 19.1729 15.8384 19.1729 15.8384 19.1729C15.8383 19.6333 16.2116 20.0066 16.6721 20.0066C17.1324 20.0066 17.5057 19.6333 17.5057 19.1729C17.5057 19.1729 17.5056 18.3393 17.5056 18.3393L17.5056 16.353C17.5056 16.353 19.6335 17.4177 19.6335 17.4177C20.0454 17.6237 20.5462 17.4568 20.7521 17.045C20.958 16.6331 20.7911 16.1323 20.3793 15.9264C20.3793 15.9264 17.5056 14.4904 17.5056 14.4904C17.5056 14.4904 17.5056 14.1713 17.5056 14.1713C17.5056 12.3298 16.0126 10.8369 14.1712 10.8369C14.1712 10.8369 5.83521 10.8369 5.83521 10.8369ZM2.89972 6.10352e-05C1.29663 0.00921631 0 1.31226 0 2.91766C0 3.28192 0.0698853 3.53094 0.0748901 3.55426C0.0748901 3.55426 1.8056 10.5373 1.8056 10.5373C2.92682 9.68365 4.32056 9.16968 5.83521 9.16968C5.83521 9.16968 7.08563 9.16968 7.08563 9.16968C7.08563 9.16968 5.50146 6.00134 5.50146 6.00134C5.22052 5.43951 5.24573 4.78528 5.52747 4.22345C5.80756 3.66571 5.91412 3.00549 5.77496 2.3136C5.55573 1.22412 4.68671 0.324951 3.60303 0.078186C3.36444 0.0238037 3.12872 -0.0012207 2.89972 6.10352e-05C2.89972 6.10352e-05 2.89972 6.10352e-05 2.89972 6.10352e-05Z" id="icons8_recliner" fill="#000941" fill-rule="evenodd" stroke="none" />
</svg>