<svg xmlns="http://www.w3.org/2000/svg" width="17.123" height="16.464" viewBox="0 0 17.123 16.464">
  <path id="icons8_request_money" d="M3,4v9.878H20.123V4ZM5.634,5.317H17.488a1.316,1.316,0,0,0,1.317,1.317v4.61a1.316,1.316,0,0,0-1.317,1.317H5.634a1.316,1.316,0,0,0-1.317-1.317V6.634A1.316,1.316,0,0,0,5.634,5.317Zm5.927.659A2.813,2.813,0,0,0,8.927,8.939,2.813,2.813,0,0,0,11.561,11.9,2.813,2.813,0,0,0,14.2,8.939,2.813,2.813,0,0,0,11.561,5.976Zm0,1.317a1.512,1.512,0,0,1,1.317,1.646,1.512,1.512,0,0,1-1.317,1.646,1.512,1.512,0,0,1-1.317-1.646A1.512,1.512,0,0,1,11.561,7.293Zm-4.939.659a.988.988,0,1,0,.988.988A.988.988,0,0,0,6.622,7.951Zm9.878,0a.988.988,0,1,0,.988.988A.988.988,0,0,0,16.5,7.951ZM10.9,15.2v1.976H8.269l3.293,3.293,3.293-3.293H12.22V15.2Z" transform="translate(-3 -4)" fill="#fe2f70"/>
</svg>
