<svg xmlns="http://www.w3.org/2000/svg" width="21.032" height="21" viewBox="0 0 21.032 21">
    <path id="icons8_room" d="M12.434,1.968a.53.53,0,0,0-.057.014.466.466,0,0,0-.171.071L2.28,5.662a.456.456,0,0,0-.3.428V18.3a.458.458,0,0,0,.053.364.452.452,0,0,0,.3.207h.014a.413.413,0,0,0,.043.014l9.94,4.05a.459.459,0,0,0,.357,0l10-4.093a.4.4,0,0,0,.043-.014.492.492,0,0,0,.114-.086h.014a.456.456,0,0,0,.114-.471V6.09a.456.456,0,0,0-.3-.428l-9.94-3.608L12.7,2.04l-.014-.014a.536.536,0,0,0-.057-.014L12.605,2h-.014l-.029-.014A.443.443,0,0,0,12.434,1.968ZM12.02,3.095V14.447L2.893,17.755V6.4Zm.913,0L22.06,6.4V17.755l-2.282-.827V8.97a.456.456,0,0,0-.3-.428L15.372,7.031a.446.446,0,0,0-.613.428V15.1l-1.825-.656ZM9.682,7a.51.51,0,0,0-.114.029L5.46,8.671a.455.455,0,0,0-.285.428v4.563a.453.453,0,0,0,.2.381.458.458,0,0,0,.428.046L9.91,12.479a.455.455,0,0,0,.285-.428V7.459a.453.453,0,0,0-.153-.344A.458.458,0,0,0,9.682,7Zm5.99,1.112,3.194,1.169V16.6l-3.194-1.155Zm-6.389.014v3.608L6.088,13.006V9.4Zm3.194,7.116,8.77,3.18L12.505,22,3.72,18.425Z" transform="translate(-1.964 -1.968)" fill="#000941"/>
</svg>  