<svg xmlns="http://www.w3.org/2000/svg" width="21.951" height="21.952" viewBox="0 0 21.951 21.952">
  <path id="icons8_paper_plane" d="M21.793.1a.433.433,0,0,0-.474-.039L.238,11.481a.436.436,0,0,0,.072.8L6.3,14.233l-.58,5.933a.431.431,0,0,0,.259.441.41.41,0,0,0,.173.038.433.433,0,0,0,.326-.148l3.779-4.27,5.691,5.61a.437.437,0,0,0,.305.125.469.469,0,0,0,.118-.017.433.433,0,0,0,.3-.312L21.949.551A.434.434,0,0,0,21.793.1ZM7.184,14.152l8.569-6.929-5.84,8.086-3.2,3.608Z" transform="translate(-0.011 -0.009)" fill="#fff"/>
</svg>
