<svg xmlns="http://www.w3.org/2000/svg" width="35.4" height="32.45" viewBox="0 0 35.4 32.45">
  <path id="icons8_shopping_bag" d="M38.331,32.875,35.45,6.95A2.949,2.949,0,0,0,32.5,4H8.9A2.949,2.949,0,0,0,5.95,6.95L3.069,32.875A3.009,3.009,0,0,0,3,33.5a2.949,2.949,0,0,0,2.95,2.95h29.5A2.949,2.949,0,0,0,38.4,33.5,3.009,3.009,0,0,0,38.331,32.875ZM28.075,11.239V12.85a7.375,7.375,0,1,1-14.75,0V11.239a2.209,2.209,0,1,1,2.95-2.077V12.85a4.425,4.425,0,1,0,8.85,0V9.163a2.213,2.213,0,1,1,2.95,2.077Z" transform="translate(-3 -4)" fill="#000941"/>
</svg>