<?xml version="1.0" encoding="utf-8"?>
<svg width="233.00024px" height="68.4939px" viewBox="0 0 233.00024 68.4939" version="1.1" xmlns:xlink="http://www.w3.org/1999/xlink" xmlns="http://www.w3.org/2000/svg">
  <g id="trippbo-white">
    <path d="M109.988 41.9536C108.527 47.1281 103.754 53.1759 96.6543 54.1008C92.7204 54.8074 88.6744 53.7538 85.5852 51.2183C85.5852 51.2183 85.5852 55.2501 85.5852 55.2501C84.4381 54.6531 83.128 54.4445 81.8521 54.6559C80.1388 54.6455 78.4154 54.6387 76.697 54.6557C75.5645 54.6695 75.3538 54.8938 75.3367 56.0397C75.3196 57.1856 75.3607 58.3126 75.3127 59.4481C75.2973 59.8095 75.3761 60.26 74.8399 60.3764C74.8284 55.6286 74.8176 50.882 74.8073 46.1362C74.8073 45.3877 74.8313 44.6391 74.8433 43.889C74.9135 42.9264 75.1157 42.7209 76.2361 42.7072C79.2017 42.6678 82.1708 42.7193 85.1449 42.6814C86.4349 42.6644 87.7147 42.6935 89.0082 42.6814C89.0082 42.6814 89.1093 42.6814 89.1093 42.6814C89.1808 42.6553 89.2559 42.6402 89.332 42.637C89.5573 42.6325 89.7799 42.6868 89.9779 42.7944C89.9779 42.7944 90.0584 42.8305 90.0584 42.8305C92.5764 44.0768 95.6072 43.5961 97.6154 41.6315C97.6583 41.5921 97.7028 41.5494 97.7439 41.5065C97.871 41.3541 98.0376 41.2398 98.2253 41.1758C98.2724 41.1636 98.3206 41.1567 98.3693 41.1552C98.3693 41.1552 98.5303 41.1552 98.5303 41.1552C101.056 41.2563 103.579 41.1707 106.104 41.1929C107.103 41.1929 108.102 41.1261 109.103 41.1929C109.565 41.2549 110.004 41.3319 109.988 41.9536C109.988 41.9536 109.988 41.9536 109.988 41.9536Z" id="Path-1" fill="#FAFAFA" fill-rule="evenodd" stroke="none" />
    <path d="M191.998 42.2503C189.969 47.8354 186.453 52.0126 180.585 53.6893C176.945 54.9285 172.939 54.4464 169.697 52.3792C169.043 51.9556 168.456 51.4358 167.956 50.8377C167.512 50.3017 167.303 50.2177 166.877 50.9078C165.665 53.0025 163.197 54.0242 160.858 53.4C158.519 52.7758 156.89 50.661 156.884 48.2412C156.798 46.1347 156.884 44.0228 156.884 41.9044C157.091 41.3394 157.655 40.987 158.255 41.048C161.567 41.0012 164.884 41.0012 168.205 41.048C168.647 41.048 169.061 41.3066 169.507 41.2192C169.507 41.2192 169.524 41.2192 169.524 41.2192C169.596 41.2047 169.67 41.2007 169.743 41.2071C169.738 41.2912 169.719 41.374 169.687 41.4521C170.264 42.0475 170.912 42.5716 171.614 43.0124C174.265 44.5123 177.582 44.1303 179.822 42.0669C179.781 41.9857 179.76 41.8959 179.759 41.8049C179.834 41.7957 179.91 41.7957 179.985 41.8049C179.985 41.8049 180.023 41.8049 180.023 41.8049C183.395 41.6165 186.77 41.7519 190.132 41.7158C190.804 41.5953 191.493 41.7927 191.998 42.2503C191.998 42.2503 191.998 42.2503 191.998 42.2503Z" id="Path-2" fill="#FAFAFA" fill-rule="evenodd" stroke="none" />
    <path d="M191.886 27.2424C191.586 27.7084 191.101 27.5987 190.675 27.6022C187.619 27.6227 184.564 27.6022 181.51 27.633C181.038 27.5827 180.561 27.6628 180.131 27.8642C180.131 27.8642 180.032 27.7426 180.032 27.7426L179.42 27.7015L179.42 27.7015L179.398 27.6861L179.327 27.6365C179.327 27.6365 179.233 27.5662 179.233 27.5662C177.069 25.7744 174.002 25.5628 171.612 27.0403C171.545 27.0763 171.48 27.114 171.411 27.1466C171.411 27.1466 171.377 27.1654 171.377 27.1654L171.377 27.1654C171.377 27.1654 171.351 27.1773 171.351 27.1773C171.322 27.1928 171.293 27.2065 171.264 27.2167C171.264 27.2167 171.264 27.2167 171.264 27.2167C171.264 27.2167 171.178 27.2476 171.178 27.2476C171.12 27.2678 171.059 27.2816 170.997 27.2887C170.966 27.2913 170.935 27.2913 170.904 27.2886C170.803 27.2883 170.702 27.2662 170.61 27.2236C170.581 27.212 170.553 27.1982 170.526 27.1826C170.148 26.9986 169.727 26.9228 169.309 26.9633C165.863 26.9513 162.418 26.9632 158.969 26.9632C158.321 26.8801 157.68 27.1664 157.309 27.7051C157.224 27.8556 157.051 27.9342 156.881 27.9003C156.881 24.3428 156.881 20.7859 156.881 17.2294C157.398 16.8006 158.074 16.6136 158.738 16.7156C161.224 16.6265 163.706 16.6436 166.198 16.7001C167.255 16.7241 167.461 16.9347 167.66 17.8992C167.797 18.5675 168.069 18.0055 168.174 17.9198C169.65 16.731 171.402 15.9342 173.268 15.6038C179.458 14.3204 185.809 16.9137 189.332 22.1632C190.513 23.6694 191.381 25.3962 191.886 27.2424C191.886 27.2424 191.886 27.2424 191.886 27.2424Z" id="Path-3" fill="#FAFAFA" fill-rule="evenodd" stroke="none" />
    <path d="M152.163 34.7682C152.274 38.6239 151.295 42.4327 149.339 45.7571C148.7 45.954 148.03 46.0319 147.364 45.9867C147.364 45.9867 118.265 45.9867 118.265 45.9867C117.931 45.9867 117.598 45.9867 117.266 45.9986C116.829 45.9676 116.441 46.2766 116.373 46.7095C116.31 47.0041 116.278 47.3331 115.885 47.3947C115.872 47.172 115.851 46.951 115.851 46.7301C115.844 38.5158 115.841 30.302 115.841 22.0887C115.791 21.7026 115.829 21.3103 115.952 20.941C116.332 21.1003 116.332 21.4549 116.355 21.7718C116.392 22.3942 116.392 23.0183 116.355 23.6407C116.355 23.6407 116.339 23.8908 116.339 23.8908C116.338 23.8964 116.338 23.9021 116.339 23.9079C116.415 26.0046 116.425 28.1012 116.339 30.198C116.339 30.198 116.339 30.2099 116.339 30.2168C116.339 30.3179 116.353 30.4206 116.358 30.5217C116.397 31.2703 116.389 32.0206 116.391 32.7709C116.391 34.2371 116.502 34.3468 117.932 34.352C120.341 34.352 122.749 34.352 125.158 34.352C125.578 34.319 126.001 34.3543 126.41 34.4566C126.457 34.4704 126.504 34.4876 126.549 34.5078C126.581 34.5201 126.612 34.5345 126.643 34.5506C126.643 34.6191 126.643 34.6876 126.643 34.7562C126.621 36.45 126.972 38.1276 127.671 39.6708C128.757 42.2202 131.258 43.8772 134.029 43.8842C136.8 43.8913 139.309 42.247 140.409 39.7033C141.211 37.8991 141.55 35.9229 141.394 33.9545C141.358 33.9458 141.324 33.9325 141.293 33.9151C141.324 33.9017 141.356 33.8902 141.388 33.8809C141.435 33.8672 141.482 33.8569 141.529 33.8501C142.104 34.2429 142.797 34.4245 143.49 34.364C145.957 34.3491 148.424 34.3491 150.892 34.364C151.346 34.3675 151.84 34.299 152.163 34.7682C152.163 34.7682 152.163 34.7682 152.163 34.7682Z" id="Path-4" fill="#FAFAFA" fill-rule="evenodd" stroke="none" />
    <path d="M115.879 47.3954C115.898 47.3439 115.918 47.2927 115.934 47.2395C116.093 46.6863 115.695 45.9122 116.189 45.5988C116.574 45.3539 117.256 45.5886 117.804 45.5886C117.804 45.5886 148.025 45.5886 148.025 45.5886C148.468 45.5373 148.917 45.5961 149.332 45.7597C147.627 49.0696 144.798 51.6638 141.352 53.0762C136.496 55.2721 130.822 54.5939 126.621 51.3155C126.621 51.3155 126.621 57.0972 126.621 57.0972C126.037 57.2976 125.494 56.926 124.908 56.9876C123.058 57.1982 121.197 56.8712 119.341 57.0868C118.715 57.1588 118.075 56.9567 117.432 56.9978C116.617 57.0526 116.404 57.2444 116.377 58.0631C116.341 59.5085 116.389 60.9539 116.351 62.3978C116.341 62.7934 116.44 63.254 115.944 63.4853C115.897 63.3575 115.865 63.2247 115.849 63.0897C115.857 57.8572 115.867 52.6258 115.879 47.3954C115.879 47.3954 115.879 47.3954 115.879 47.3954Z" id="Path-5" fill="#FAFAFA" fill-rule="evenodd" stroke="none" />
    <path d="M152.162 34.7642C148.946 34.7642 145.73 34.7488 142.513 34.783C141.867 34.783 141.449 34.6613 141.377 33.9603C141.342 33.9515 141.308 33.9382 141.276 33.9209C141.307 33.9071 141.339 33.8957 141.372 33.8866C141.315 32.5799 141.018 31.2947 140.497 30.0953C139.519 27.586 137.176 25.8715 134.489 25.6998C131.802 25.5281 129.26 26.9304 127.971 29.2948C127.755 29.6787 127.558 30.0712 127.353 30.4603C127.353 30.4603 127.313 30.5991 127.313 30.5991L127.228 30.5991C127.228 30.5991 127.074 30.5786 127.074 30.5786C125.716 30.5179 124.356 30.5356 123.001 30.6318C120.902 30.6318 118.805 30.4346 116.707 30.5769C116.581 30.5882 116.455 30.567 116.34 30.5151C116.202 30.4523 116.081 30.3578 115.987 30.2391C115.987 28.1332 115.987 26.0285 115.987 23.9248C116.071 23.7964 116.19 23.6946 116.33 23.6318C116.494 23.5654 116.667 23.525 116.844 23.5118C118.06 23.3661 119.282 23.4569 120.491 23.4192C122.033 23.373 123.587 23.5169 125.139 23.3986C126.654 23.2856 128.182 23.469 129.705 23.3781C131.449 23.2752 133.193 23.3781 134.937 23.3781C136.791 23.3781 138.648 23.2839 140.498 23.4587C141.148 23.5187 141.771 23.3078 142.405 23.349C144.343 23.469 146.28 23.3661 148.218 23.349C148.61 23.3395 148.992 23.4736 149.292 23.7261C151.267 27.0624 152.262 30.8881 152.162 34.7642C152.162 34.7642 152.162 34.7642 152.162 34.7642Z" id="Path-6" fill="#FAFAFA" fill-rule="evenodd" stroke="none" />
    <path d="M149.31 23.7369C147.772 23.8753 146.226 23.9051 144.684 23.826C143.054 23.7437 141.428 23.826 139.807 23.826C138.015 23.6965 136.216 23.7022 134.425 23.8432C133.677 23.9561 132.883 23.7077 132.111 23.7506C130.545 23.8734 128.974 23.8986 127.405 23.826C125.8 23.7147 124.203 23.8517 122.608 23.8123C120.401 23.6688 118.186 23.7083 115.986 23.9304C115.971 22.9325 115.956 21.9344 115.941 20.9364C116.049 18.7406 117.533 16.8529 119.642 16.2294C121.866 15.5379 124.282 16.3702 125.608 18.285C126.343 19.2887 126.353 19.299 127.222 18.4117C129.353 16.29 132.284 15.1698 135.287 15.3285C141.175 15.2599 146.599 18.5122 149.31 23.7369C149.31 23.7369 149.31 23.7369 149.31 23.7369Z" id="Path-7" fill="#FAFAFA" fill-rule="evenodd" stroke="none" />
    <path d="M232.576 38.9161C232.277 41.2321 231.474 43.4544 230.222 45.4259C229.995 45.6344 229.685 45.7274 229.381 45.6778C219.733 45.6383 210.084 45.6555 200.43 45.6675C200.07 45.7188 199.703 45.6332 199.403 45.4276C198.221 43.4689 197.423 41.3032 197.051 39.0462C196.74 37.6412 196.625 36.2 196.708 34.7633C196.889 34.5111 197.184 34.3667 197.494 34.3796C200.615 34.3419 203.738 34.3094 206.858 34.3984C206.968 34.4042 207.076 34.4334 207.175 34.484C207.247 34.5127 207.315 34.5484 207.38 34.5902C207.423 34.6173 207.463 34.6477 207.5 34.6811C207.46 34.7092 207.417 34.7332 207.372 34.7529C207.455 36.2453 207.733 37.7202 208.199 39.1404C208.817 41.0415 210.226 42.5834 212.064 43.371C213.901 44.1586 215.989 44.1152 217.792 43.2519C219.564 42.3493 220.918 40.7969 221.573 38.9192C221.514 38.8802 221.465 38.8303 221.426 38.772C221.492 38.7415 221.563 38.718 221.635 38.7019C221.674 38.7018 221.717 38.6846 221.761 38.6795C225.146 38.6795 228.529 38.7394 231.913 38.6452C232.167 38.6035 232.424 38.7082 232.576 38.9161C232.576 38.9161 232.576 38.9161 232.576 38.9161Z" id="Path-8" fill="#FAFAFA" fill-rule="evenodd" stroke="none" />
    <path d="M199.415 45.4277C200.095 45.2915 200.789 45.2339 201.482 45.2565C210.347 45.2565 219.211 45.2565 228.076 45.2565C228.797 45.2331 229.519 45.2906 230.228 45.4277C229.127 47.5863 227.52 49.4464 225.544 50.849C221.572 53.7464 216.591 54.8989 211.75 54.0398C206.909 53.1809 202.629 50.3848 199.898 46.2978C199.721 46.017 199.576 45.7172 199.415 45.4277Z" id="Path-9" fill="#FAFAFA" fill-rule="evenodd" stroke="none" />
    <path d="M199.436 24.0719C201.84 19.6746 206.109 16.6027 211.046 15.7188C216.092 14.5809 221.384 15.685 225.552 18.7452C227.496 20.1398 229.095 21.9607 230.224 24.0684C230.071 24.3071 229.802 24.4454 229.519 24.4313C229.186 24.4569 228.854 24.4621 228.52 24.4621C219.392 24.4621 210.264 24.4587 201.136 24.4518C200.56 24.4484 199.899 24.6556 199.436 24.0719Z" id="Path-10" fill="#FAFAFA" fill-rule="evenodd" stroke="none" />
    <path d="M28.5649 24.7377C28.4051 23.2474 28.4356 21.7428 28.6556 20.26C28.9977 18.1293 30.665 16.4571 32.7939 16.1095C35.1499 15.6241 37.5617 16.638 38.8642 18.6611C39.0115 18.8874 39.0715 19.1752 39.3507 19.3467C40.5387 17.9101 42.0297 16.7543 43.7167 15.9622C46.276 14.6252 49.4248 15.3113 51.1967 17.5919C52.8239 19.7699 52.7691 23.6342 49.9206 25.0239C43.3484 25.2826 36.7728 25.0788 30.2007 25.1318C29.6354 25.1318 29.0154 25.2639 28.5649 24.7377C28.5649 24.7377 28.5649 24.7377 28.5649 24.7377Z" id="Path-11" fill="#FAFAFA" fill-rule="evenodd" stroke="none" />
    <path d="M74.8959 20.9389C75.0511 18.6031 76.7168 16.6441 78.9971 16.1159C81.2774 15.5876 83.6346 16.6146 84.8008 18.6444C85.2222 19.3298 85.397 19.3024 85.9041 18.7335C88.1633 16.2931 91.4238 15.0349 94.7364 15.325C99.9081 15.4291 104.691 18.0953 107.499 22.44C107.549 22.5342 107.587 22.6343 107.612 22.7382C107.49 22.9663 107.24 23.0966 106.983 23.0671C105.244 22.9456 103.502 22.9764 101.765 23.0055C100.272 23.0296 98.7781 23.0055 97.2841 23.0243C96.018 23.0432 94.7432 23.0535 93.4719 23.0243C92.0345 22.9849 90.5953 23.0055 89.1561 23.0055C87.8042 23.0055 86.4507 23.0055 85.0989 23.0055C83.6871 22.9952 82.277 23.0055 80.8652 23.0055C79.097 23.0055 77.3271 22.9781 75.5539 23.0758C75.298 23.0955 75.0509 22.9781 74.9045 22.7673C74.83 22.1602 74.8272 21.5465 74.8959 20.9389C74.8959 20.9389 74.8959 20.9389 74.8959 20.9389Z" id="Path-12" fill="#FAFAFA" fill-rule="evenodd" stroke="none" />
    <path d="M110.449 29.0695C110.029 29.291 109.548 29.3704 109.079 29.2958C106.337 29.3061 103.595 29.2958 100.853 29.2958C100.355 29.2761 99.8566 29.2991 99.3625 29.3645C99.3063 29.3785 99.249 29.3877 99.1912 29.3919C99.1338 29.3959 99.0762 29.3924 99.0198 29.3815C99.0484 29.3359 99.0823 29.2938 99.1209 29.2564C99.0369 29.15 98.9495 29.0489 98.869 28.9357C97.3018 26.3238 94.1879 25.0761 91.2521 25.8838C89.663 26.3067 88.2674 27.2631 87.2989 28.5929C87.2989 28.5929 87.2115 28.7352 87.2115 28.7352C87.1856 28.7327 87.1599 28.7286 87.1344 28.7231C87.083 28.7095 87.0333 28.694 86.9802 28.6854C86.1951 28.4957 85.3813 28.4549 84.5811 28.5653C83.5719 28.6905 82.5472 28.5311 81.5207 28.5654C79.67 28.6134 77.8125 28.6699 75.9567 28.6203C75.6865 28.6404 75.4154 28.5969 75.165 28.4934C75.0818 28.4491 75.0088 28.3877 74.9508 28.3133C74.9188 28.2723 74.8902 28.2287 74.8651 28.1831C74.8343 26.5302 74.8652 24.8774 74.8532 23.2246C74.8272 23.0745 74.852 22.9201 74.9234 22.7856C74.9234 22.7856 74.9508 22.7547 74.9508 22.7547C77.5915 22.549 80.2372 22.6655 82.8796 22.645C85.0284 22.6261 87.1841 22.5969 89.3329 22.6022C90.8751 22.6022 92.4174 22.6022 93.9596 22.6227C95.1591 22.6416 96.3791 22.6724 97.5924 22.6039C99.0523 22.5233 100.521 22.549 101.984 22.6039C103.17 22.6416 104.356 22.5782 105.543 22.6176C106.229 22.6399 106.914 22.7685 107.6 22.7394C108.975 24.6304 109.946 26.7856 110.449 29.0695C110.449 29.0695 110.449 29.0695 110.449 29.0695Z" id="Path-13" fill="#FAFAFA" fill-rule="evenodd" stroke="none" />
    <path d="M26.1814 20.2178C26.2867 20.7618 26.3155 21.3179 26.2672 21.87C26.2576 24.1906 24.4532 26.1074 22.1383 26.256C20.9262 26.3618 19.7092 26.403 18.4927 26.3794C18.198 26.3794 17.8776 26.292 17.6206 26.5303C17.6934 27.0198 17.6696 27.5188 17.5504 27.9991C17.057 28.3193 16.4681 28.4593 15.8835 28.395C14.0847 28.395 12.2858 28.4173 10.4887 28.4087C9.46556 28.3318 8.43922 28.3066 7.41356 28.3333C7.21398 28.3345 7.02669 28.237 6.91325 28.0727C6.79335 27.5346 7.14109 26.8131 6.74199 26.489C6.41817 26.2234 5.73805 26.4034 5.21892 26.3622C4.72063 26.3369 4.2245 26.2797 3.73354 26.1908C1.51532 25.9036 -0.10852 23.9573 0.00563999 21.7225C0.00563999 21.1707 0.0587999 20.6171 0.0879199 20.0651C7.96862 19.9383 15.8629 20.0325 23.7505 20.0034C24.3055 20.0034 24.8623 20.0137 25.4174 19.9829C25.6957 19.9202 25.9863 20.0097 26.1814 20.2178C26.1814 20.2178 26.1814 20.2178 26.1814 20.2178Z" id="Path-14" fill="#FAFAFA" fill-rule="evenodd" stroke="none" />
    <path d="M74.8434 60.3821C74.9589 58.7494 74.992 57.1121 74.9427 55.476C74.9702 54.4787 75.0781 54.2868 76.0852 54.2764C78.918 54.2438 81.7509 54.2764 84.5838 54.2542C85.3049 54.2542 85.4402 54.7323 85.5823 55.2481C85.5823 57.9693 85.6492 60.6907 85.5823 63.4102C85.4362 66.1232 83.2881 68.2996 80.5786 68.48C77.8692 68.6603 75.4519 66.7878 74.9479 64.1181C74.7781 62.8802 74.7431 61.6275 74.8434 60.3821C74.8434 60.3821 74.8434 60.3821 74.8434 60.3821Z" id="Path-15" fill="#FAFAFA" fill-rule="evenodd" stroke="none" />
    <path d="M26.1829 20.2248C25.5892 20.3642 24.9799 20.4252 24.3705 20.4066C17.3274 20.3997 10.2843 20.3997 3.24117 20.4066C2.60419 20.368 1.96487 20.4089 1.33793 20.5283C0.868565 20.6752 0.359075 20.4882 0.0959298 20.0723C0.44808 18.155 2.04168 16.7125 3.98304 16.554C4.39115 16.4803 4.80382 16.4344 5.21819 16.4169C6.88497 16.3551 6.88152 16.3603 6.88668 14.7246C6.88668 13.7833 6.90386 12.8386 6.91405 11.9008C7.02436 11.8108 7.17181 11.7813 7.30809 11.8219C8.72879 12.1924 10.2085 12.2792 11.6628 12.0773C13.2354 12.0773 14.8114 12.0533 16.3841 12.0671C17.5164 12.0773 17.7014 12.35 17.5969 13.5021C17.6175 14.2205 17.6912 14.9423 17.6433 15.6573C17.6004 16.3106 17.8523 16.4305 18.4467 16.4254C19.7469 16.3479 21.0515 16.3904 22.344 16.5523C24.3191 16.7388 25.9077 18.2585 26.1829 20.2249C26.1829 20.2249 26.1829 20.2248 26.1829 20.2248Z" id="Path-16" fill="#FAFAFA" fill-rule="evenodd" stroke="none" />
    <path d="M28.5574 24.7392C35.3238 24.7392 42.0902 24.7421 48.8566 24.7478C49.2215 24.7478 49.6516 24.5954 49.9188 25.02C48.6621 25.7077 47.3222 26.2314 45.932 26.5782C44.8477 26.8914 43.7816 27.2642 42.7384 27.6947C40.7934 28.4979 39.4964 30.3617 39.4198 32.4635C39.3461 33.2324 39.293 34.0046 39.2296 34.7736C38.9498 35.0502 38.5571 35.1806 38.1673 35.1264C35.3198 35.1457 32.4723 35.1457 29.6248 35.1263C29.2347 35.1719 28.8442 35.0435 28.5574 34.7753C28.4563 31.4379 28.4974 28.0852 28.5574 24.7392C28.5574 24.7392 28.5574 24.7392 28.5574 24.7392Z" id="Path-17" fill="#FAFAFA" fill-rule="evenodd" stroke="none" />
    <path d="M232.56 30.5833C232.347 30.7115 232.095 30.7555 231.851 30.7066C228.735 30.5833 225.614 30.6535 222.498 30.6656C222.25 30.6656 222.008 30.7427 221.761 30.7547C221.71 30.7599 221.657 30.7599 221.606 30.7547C221.592 30.7015 221.578 30.6484 221.563 30.5953C221.338 30.1566 221.129 29.7094 220.877 29.2827C219.718 27.0566 217.398 25.6791 214.889 25.7268C213.008 25.6267 211.177 26.3498 209.873 27.7079C209.89 27.7302 209.919 27.7507 209.921 27.7747C209.946 27.8094 209.949 27.8559 209.928 27.8933C209.907 27.9309 209.866 27.9526 209.823 27.9488C209.78 27.945 209.743 27.9164 209.729 27.8757C209.706 27.8686 209.684 27.8601 209.662 27.8501C206.037 27.7592 202.411 27.8312 198.789 27.8123C198.467 27.8123 198.104 27.9152 197.871 27.5844C198.212 26.3472 198.736 25.1679 199.425 24.0853C199.425 24.0853 230.211 24.0853 230.211 24.0853C231.274 25.8765 232.041 27.827 232.485 29.8619C232.552 30.0962 232.578 30.3403 232.56 30.5833C232.56 30.5833 232.56 30.5833 232.56 30.5833Z" id="Path-18" fill="#FAFAFA" fill-rule="evenodd" stroke="none" />
    <path d="M115.948 63.4867C115.96 61.5438 115.995 59.5993 115.971 57.6614C115.962 56.9179 116.231 56.5512 116.982 56.6078C118.867 56.7483 120.741 56.5324 122.625 56.6729C123.482 56.6965 124.341 56.6703 125.196 56.5941C125.726 56.5375 126.254 56.7232 126.632 57.0996C126.772 59.5046 126.721 61.9171 126.478 64.314C125.905 66.9093 123.506 68.686 120.855 68.4791C118.205 68.2721 116.111 66.1446 115.948 63.4918C115.948 63.4918 115.948 63.4867 115.948 63.4867Z" id="Path-19" fill="#FAFAFA" fill-rule="evenodd" stroke="none" />
    <path d="M67.5083 34.7718C67.5768 38.4713 67.5871 42.1691 67.4997 45.8686C66.8163 45.3919 65.9786 45.1901 65.1533 45.303C62.7943 45.3203 60.4353 45.3203 58.0763 45.303C57.5728 45.303 57.059 45.303 56.7883 44.7513C56.7883 44.7513 56.7883 34.7768 56.7883 34.7768C57.0276 34.4589 57.4233 34.2998 57.816 34.3639C60.7048 34.3375 63.5941 34.3375 66.4841 34.3639C66.8643 34.3742 67.2856 34.3366 67.5083 34.7718Z" id="Path-20" fill="#FAFAFA" fill-rule="evenodd" stroke="none" />
    <path d="M39.2352 42.2543C39.4071 44.6838 39.3497 47.124 39.0638 49.5426C38.4781 52.1165 36.0565 53.8446 33.4296 53.5636C30.798 53.3885 28.7107 51.2796 28.565 48.6487C28.4879 46.5201 28.5651 44.3848 28.5651 42.2528C28.7354 41.8926 29.1126 41.6772 29.5095 41.7131C30.7248 41.7133 31.9384 41.6652 33.1553 41.7835C34.1172 41.8354 35.0814 41.8251 36.0419 41.7526C36.844 41.727 37.6411 41.857 38.4415 41.7526C38.8186 41.7115 39.0312 41.9837 39.2352 42.2543C39.2352 42.2543 39.2352 42.2543 39.2352 42.2543Z" id="Path-21" fill="#FAFAFA" fill-rule="evenodd" stroke="none" />
    <path d="M167.657 17.8889C167.314 17.0323 166.548 17.07 165.841 17.07C162.853 17.07 159.862 16.9741 156.878 17.2259C156.878 17.2259 156.878 5.72856 156.878 5.72856C157.392 5.78508 157.361 6.19628 157.392 6.53716C157.44 7.13507 157.762 7.33893 158.327 7.33551C160.959 7.31671 163.59 7.32184 166.219 7.33551C166.733 7.33551 167.141 6.9483 167.655 7.05804C167.655 10.674 167.656 14.2843 167.657 17.8889C167.657 17.8889 167.657 17.8889 167.657 17.8889Z" id="Path-22" fill="#FAFAFA" fill-rule="evenodd" stroke="none" />
    <path d="M89.2932 42.9177C87.9584 43.1288 86.6039 43.1863 85.2561 43.089C82.2368 43.1559 79.2106 43.0891 76.1896 43.0891C75.6207 43.0891 74.9901 43.1096 74.8376 43.884C74.8153 40.6649 74.7811 37.4475 74.7742 34.2267C74.7742 30.0636 74.7742 25.8989 74.7931 21.7358C74.7472 21.4616 74.7799 21.1801 74.8873 20.9237C74.9079 21.5319 74.9284 22.1401 74.949 22.7483C74.949 22.7483 74.949 28.2305 74.949 28.2305C75.0357 28.2967 75.1085 28.3795 75.1632 28.4738C75.2836 28.7268 75.3373 29.0064 75.3191 29.2859C75.3397 30.1185 75.3294 30.9511 75.3294 31.7837C75.3294 34.5368 75.1461 34.3313 77.9186 34.333C79.9989 34.333 82.0808 34.333 84.1611 34.333C84.5639 34.3021 84.9691 34.3375 85.3606 34.4375C85.3983 34.4512 85.4394 34.4666 85.4771 34.4821C85.5181 34.4961 85.5576 34.5139 85.5953 34.5352C85.5953 34.6002 85.5953 34.6671 85.5953 34.7321C85.4477 37.7622 86.7073 40.6907 89.0087 42.6678C89.0087 42.6678 89.1098 42.6677 89.1098 42.6677C89.1814 42.6416 89.2565 42.6265 89.3326 42.6233C89.3488 42.7231 89.3351 42.8257 89.2932 42.9177C89.2932 42.9177 89.2932 42.9177 89.2932 42.9177Z" id="Path-23" fill="#FAFAFA" fill-rule="evenodd" stroke="none" />
    <path d="M17.5422 27.9016C17.5696 27.4449 17.597 26.9881 17.6244 26.5314C17.6432 28.9652 17.6724 31.3973 17.6775 33.8295C17.6775 36.873 17.6672 39.9165 17.6553 42.9601C17.6553 43.2358 17.6193 43.5099 17.6004 43.7838C17.412 44.4125 16.8672 44.2857 16.4304 44.2976C14.0819 44.3337 11.7351 44.308 9.38655 44.3148C8.83423 44.2912 8.28101 44.3101 7.73169 44.3714C7.42844 44.4417 7.11189 44.3301 6.91983 44.0853C6.91983 40.9795 6.91983 37.8738 6.91983 34.768C7.23669 34.2867 7.74036 34.3655 8.19941 34.362C10.6935 34.3398 13.1876 34.362 15.6801 34.3501C17.0163 34.3501 17.1585 34.1976 17.1687 32.872C17.1773 31.5977 17.1687 30.3234 17.179 29.0492C17.1219 28.6316 17.2551 28.2104 17.5422 27.9016C17.5422 27.9016 17.5422 27.9016 17.5422 27.9016Z" id="Path-24" fill="#FAFAFA" fill-rule="evenodd" stroke="none" />
    <path d="M170.759 27.2835C170.706 27.2729 170.655 27.2563 170.606 27.2339C170.166 27.651 169.758 28.1008 169.385 28.5792C168.216 30.4186 167.617 32.562 167.662 34.7405C167.716 34.7579 167.767 34.784 167.813 34.8177C167.769 34.8599 167.72 34.8957 167.666 34.9238C167.63 34.9441 167.592 34.9613 167.553 34.9751C167.213 35.0991 166.85 35.1498 166.489 35.124C163.718 35.1354 160.947 35.1354 158.176 35.124C157.716 35.124 157.215 35.1941 156.878 34.7441C156.878 32.462 156.878 30.1801 156.878 27.8981C157.253 26.7668 157.522 26.5734 158.741 26.5717C162.378 26.5717 166.015 26.5717 169.652 26.5717C170.092 26.5717 170.577 26.5049 170.709 27.1142C170.734 27.1679 170.751 27.2249 170.759 27.2836C170.759 27.2836 170.759 27.2835 170.759 27.2835Z" id="Path-25" fill="#FAFAFA" fill-rule="evenodd" stroke="none" />
    <path d="M6.91332 44.0904C10.1165 43.7359 13.3301 44.0115 16.5367 43.9191C16.8944 43.9694 17.259 43.9245 17.5936 43.7891C17.7938 45.7485 17.7293 47.726 17.4018 49.6681C16.7664 52.2037 14.3445 53.8712 11.7491 53.5599C9.0883 53.3351 7.01017 51.1661 6.89965 48.498C6.85168 47.0247 6.90646 45.5602 6.91332 44.0904Z" id="Path-26" fill="#FAFAFA" fill-rule="evenodd" stroke="none" />
    <path d="M193.193 34.7457C193.003 34.9918 192.704 35.1273 192.393 35.107C189.262 35.1481 186.131 35.1619 182.998 35.107C182.831 35.1045 182.668 35.064 182.52 34.9888C182.49 34.9794 182.461 34.968 182.432 34.9546C182.365 34.9243 182.303 34.8826 182.249 34.8312C182.307 34.7943 182.369 34.7671 182.436 34.7508C182.436 34.7508 180.135 27.8672 180.135 27.8672C180.135 27.8672 180.036 27.7457 180.036 27.7457C180.125 27.3346 180.425 27.2472 180.788 27.2472C183.163 27.2472 185.538 27.2472 187.912 27.2472C187.912 27.2472 191.89 27.2472 191.89 27.2472C192.832 29.6315 193.276 32.1834 193.193 34.7457C193.193 34.7457 193.193 34.7457 193.193 34.7457Z" id="Path-27" fill="#FAFAFA" fill-rule="evenodd" stroke="none" />
    <path d="M67.5089 34.7725C67.5089 34.7725 56.7884 34.7725 56.7884 34.7725C56.7884 32.1456 56.7884 29.5221 56.7884 26.9021C57.1305 26.6114 57.5808 26.4816 58.025 26.5457C60.6542 26.4772 63.2851 26.5097 65.9142 26.5131C66.1358 26.5106 66.3573 26.5238 66.5771 26.5525C66.857 26.547 67.1252 26.6651 67.31 26.8755C67.4949 27.0857 67.5777 27.3668 67.5363 27.6439C67.502 29.4702 67.514 31.2998 67.5363 33.1261C67.6075 33.6733 67.5983 34.228 67.5089 34.7725C67.5089 34.7725 67.5089 34.7725 67.5089 34.7725Z" id="Path-28" fill="#FAFAFA" fill-rule="evenodd" stroke="none" />
    <path d="M191.991 42.2523C187.936 41.9268 183.875 42.2316 179.824 42.081C179.783 41.9997 179.762 41.91 179.761 41.8189C179.836 41.8096 179.912 41.8096 179.987 41.8189C179.987 41.8189 180.025 41.8189 180.025 41.8189C180.411 41.3522 180.765 40.8594 181.084 40.3442C181.981 38.6955 182.444 36.8458 182.429 34.9691C182.361 34.9388 182.299 34.8971 182.245 34.8458C182.303 34.809 182.366 34.7818 182.432 34.7653C182.432 34.7653 193.194 34.7653 193.194 34.7653C193.238 37.3124 192.831 39.8473 191.991 42.2523Z" id="Path-29" fill="#FAFAFA" fill-rule="evenodd" stroke="none" />
    <path d="M17.5971 13.504C17.6657 12.8018 17.3298 12.4952 16.6426 12.4969C15.4944 12.4969 14.3428 12.5362 13.1981 12.4728C11.47 12.5562 9.73861 12.5396 8.01248 12.4233C7.60703 12.3514 7.22755 12.1742 6.91228 11.9094C6.81967 10.6096 6.86213 9.30371 7.03912 8.0127C7.52632 5.44543 9.83478 3.63166 12.4457 3.76473C15.1547 3.80171 17.3864 5.90139 17.5868 8.60182C17.7086 10.2335 17.7121 11.8719 17.5972 13.504C17.5972 13.504 17.5971 13.504 17.5971 13.504Z" id="Path-30" fill="#FAFAFA" fill-rule="evenodd" stroke="none" />
    <path d="M56.7848 44.7546C57.1557 44.8672 57.5412 44.925 57.9288 44.9259C60.9174 44.9104 63.906 44.9259 66.8945 44.8779C67.7971 44.8642 67.2645 45.563 67.4957 45.8677C67.6535 47.161 67.5734 48.4722 67.2593 49.7365C66.5674 52.2535 64.1284 53.8776 61.5391 53.5453C58.9127 53.2859 56.8796 51.13 56.7745 48.4931C56.7197 47.2532 56.7779 46.0031 56.7848 44.7546C56.7848 44.7546 56.7848 44.7546 56.7848 44.7546Z" id="Path-31" fill="#FAFAFA" fill-rule="evenodd" stroke="none" />
    <path d="M39.2302 42.2489C38.428 42.0701 37.6003 42.0365 36.7862 42.1495C35.7467 42.2095 34.7002 42.1633 33.6692 42.1839C32.3572 42.2095 31.0265 42.0898 29.7009 42.0812C29.3136 42.0463 28.9236 42.105 28.5637 42.2522C28.4952 39.7637 28.4849 37.275 28.5637 34.7865C28.5637 34.7865 39.2319 34.7865 39.2319 34.7865C39.2308 37.2706 39.2302 39.758 39.2302 42.2488C39.2302 42.2488 39.2302 42.2489 39.2302 42.2489Z" id="Path-32" fill="#FAFAFA" fill-rule="evenodd" stroke="none" />
    <path d="M169.747 41.2059C169.741 41.2901 169.722 41.3729 169.69 41.451C169.087 41.7661 168.491 41.4133 167.902 41.4148C167.902 41.4148 158.45 41.4148 158.45 41.4148C157.896 41.4444 157.358 41.6122 156.885 41.903C156.885 39.5162 156.885 37.13 156.885 34.7444C156.885 34.7444 167.674 34.7444 167.674 34.7444C167.728 34.7617 167.779 34.7877 167.825 34.8214C167.782 34.8637 167.732 34.8995 167.678 34.9276C167.66 37.1623 168.308 39.3515 169.54 41.216C169.608 41.2033 169.678 41.1999 169.747 41.2061C169.747 41.2061 169.747 41.2059 169.747 41.2059Z" id="Path-33" fill="#FAFAFA" fill-rule="evenodd" stroke="none" />
    <path d="M109.985 41.9526C109.064 41.2418 108.003 41.6459 107.008 41.6099C105.14 41.5534 103.263 41.5312 101.397 41.6099C100.379 41.6553 99.359 41.5886 98.3556 41.4113C98.2933 41.3479 98.2484 41.2694 98.2255 41.1835C98.2725 41.1713 98.3207 41.1643 98.3693 41.1629C98.3693 41.1629 98.5302 41.1629 98.5302 41.1629C99.7856 39.2704 100.442 37.0435 100.414 34.7725C100.362 34.7621 100.312 34.7462 100.265 34.7245C100.29 34.6914 100.319 34.661 100.35 34.6336C100.414 34.5676 100.486 34.5101 100.564 34.4624C100.853 34.3611 101.159 34.3198 101.463 34.341C104.279 34.3215 107.096 34.3215 109.913 34.341C110.347 34.341 110.816 34.2981 111.112 34.7332C111.226 37.191 110.843 39.6465 109.985 41.9526C109.985 41.9526 109.985 41.9526 109.985 41.9526Z" id="Path-34" fill="#FAFAFA" fill-rule="evenodd" stroke="none" />
    <path d="M17.5426 27.8924C17.5597 29.9218 17.558 31.9529 17.6043 33.9807C17.6198 34.6302 17.342 34.7725 16.7576 34.769C13.4768 34.7519 10.1942 34.769 6.91339 34.769C6.91339 32.5373 6.91339 30.3056 6.91339 28.0741C7.951 27.8873 9.01105 27.8589 10.0571 27.9901C11.0855 28.0912 12.1346 27.9644 13.1785 27.9901C14.6285 28.0295 16.0856 27.9335 17.5426 27.8924C17.5426 27.8924 17.5426 27.8924 17.5426 27.8924Z" id="Path-35" fill="#FAFAFA" fill-rule="evenodd" stroke="none" />
    <path d="M167.66 7.06243C167.425 7.66427 166.93 7.73281 166.368 7.72944C163.926 7.71748 161.485 7.74823 159.046 7.70712C158.446 7.69683 157.775 8.0775 157.268 7.69341C156.719 7.27853 157.138 6.53614 156.971 5.96177C156.944 5.88301 156.914 5.80577 156.879 5.73024C156.74 2.74744 159.046 0.217359 162.029 0.0791611C165.011 -0.0590966 167.541 2.24684 167.679 5.22954C167.703 5.83826 167.667 6.45379 167.66 7.06242C167.66 7.06242 167.66 7.06243 167.66 7.06243Z" id="Path-36" fill="#FAFAFA" fill-rule="evenodd" stroke="none" />
    <path d="M67.5298 33.1335C67.3585 31.4748 67.4767 29.8109 67.4338 28.1505C67.4081 27.1326 67.3054 26.939 66.3203 26.9287C63.7968 26.903 61.2733 26.9458 58.7498 26.9441C58.096 27.0284 57.4335 27.0168 56.783 26.9099C56.783 24.953 56.7659 22.9962 56.7728 21.0393C56.7972 20.8232 56.846 20.6105 56.9184 20.4053C57.0993 20.1494 57.4055 20.0127 57.7167 20.049C58.5132 20.1341 59.3152 20.1564 60.1152 20.1157C61.6296 20.1362 63.1458 20.1706 64.6636 20.1054C65.5678 19.9843 66.4864 20.0267 67.3756 20.2305C67.584 21.9121 67.6413 23.609 67.5469 25.3009C67.5675 27.9106 67.5383 30.522 67.5298 33.1335C67.5298 33.1335 67.5298 33.1335 67.5298 33.1335Z" id="Path-37" fill="#FAFAFA" fill-rule="evenodd" stroke="none" />
    <path d="M111.113 34.7591C111.113 34.7591 100.414 34.7899 100.414 34.7899C100.363 34.7798 100.313 34.7637 100.265 34.742C100.29 34.7089 100.319 34.6784 100.351 34.651C100.323 34.603 100.308 34.5487 100.308 34.4933C100.365 32.7275 99.9793 30.9754 99.1863 29.3971C99.129 29.4014 99.0714 29.3978 99.0151 29.3869C99.0436 29.3412 99.0776 29.2992 99.1161 29.2617C99.3157 28.9853 99.6555 28.8475 99.991 28.9068C99.991 28.9068 109.629 28.9069 109.629 28.9069C109.906 28.8956 110.182 28.9508 110.434 29.068C110.969 30.9151 111.198 32.8376 111.113 34.7591C111.113 34.7591 111.113 34.7591 111.113 34.7591Z" id="Path-38" fill="#FAFAFA" fill-rule="evenodd" stroke="none" />
    <path d="M68.2873 4.7115C68.735 6.02636 68.6633 7.46269 68.0869 8.72636C67.801 8.99851 67.4133 9.13676 67.0199 9.10672C63.6578 9.15129 60.2974 9.07415 56.9354 9.15129C56.6818 9.15904 56.4354 9.066 56.2503 8.8925C55.6323 7.5263 55.536 5.981 55.9797 4.54865C56.519 4.42345 57.0778 4.40598 57.6239 4.49734C60.8369 4.4887 64.0483 4.49728 67.2613 4.49728C67.6227 4.49051 67.9978 4.40995 68.2873 4.7115Z" id="Path-39" fill="#FAFAFA" fill-rule="evenodd" stroke="none" />
    <path d="M231.798 35.124C228.979 35.1548 226.158 35.1428 223.339 35.124C222.979 35.1427 222.62 35.0784 222.289 34.936C222.289 34.936 222.255 34.9172 222.255 34.9172C222.255 34.8607 222.255 34.8026 222.255 34.7461C222.215 33.3893 221.999 32.0434 221.611 30.7424C221.597 30.6895 221.581 30.6364 221.568 30.5818C221.859 30.3174 222.251 30.1926 222.642 30.2397C225.526 30.2397 228.412 30.2397 231.296 30.2397C231.741 30.2329 232.18 30.3514 232.561 30.5819C232.837 31.6276 232.972 32.7055 232.962 33.7867C232.962 33.8125 232.962 33.8364 232.962 33.862C232.962 33.8878 232.962 33.9031 232.962 33.9237C232.962 33.9715 232.962 34.0211 232.962 34.0707C233.015 35.0009 232.849 35.112 231.798 35.124C231.798 35.124 231.798 35.124 231.798 35.124Z" id="Path-40" fill="#FAFAFA" fill-rule="evenodd" stroke="none" />
    <path d="M232.58 38.9157C230.047 39.1228 227.504 39.1743 224.965 39.0698C223.836 39.1863 222.696 39.1343 221.582 38.9157C221.524 38.8766 221.474 38.8266 221.435 38.7684C221.502 38.7377 221.572 38.7142 221.644 38.6982C222.001 37.4727 222.204 36.2072 222.247 34.9314C222.247 34.8749 222.247 34.8166 222.247 34.7603C225.463 34.7603 228.681 34.7345 231.896 34.7911C232.674 34.8047 232.988 34.5685 232.964 33.8666C232.964 33.8871 232.964 33.9076 232.964 33.9282C232.964 33.9761 232.964 34.0258 232.964 34.0755C233.071 35.6989 232.942 37.3294 232.58 38.9157C232.58 38.9157 232.58 38.9157 232.58 38.9157Z" id="Path-41" fill="#FAFAFA" fill-rule="evenodd" stroke="none" />
    <path d="M68.2865 4.71722C67.8329 4.845 67.3626 4.90285 66.8917 4.88883C63.7296 4.88198 60.5676 4.88198 57.4056 4.88883C56.9055 4.94393 56.402 4.82248 55.9817 4.54563C56.7587 1.8782 59.1869 0.0335377 61.9619 0.0026738C64.7397 -0.105119 67.2636 1.61162 68.1871 4.23687C68.2316 4.39439 68.2648 4.55495 68.2865 4.71716C68.2865 4.71716 68.2865 4.71722 68.2865 4.71722Z" id="Path-42" fill="#FAFAFA" fill-rule="evenodd" stroke="none" />
    <path d="M208.053 30.7426C207.669 31.9924 207.447 33.2868 207.394 34.5935C207.436 34.6208 207.476 34.6512 207.514 34.6846C207.473 34.7125 207.43 34.7365 207.385 34.7563C207.385 34.7563 196.723 34.7684 196.723 34.7684C196.634 33.4175 196.749 32.0607 197.065 30.7443C197.275 30.4759 197.607 30.334 197.946 30.3688C201.081 30.3363 204.217 30.3277 207.351 30.3688C207.575 30.3555 207.798 30.4105 207.99 30.5265C208.029 30.5557 208.065 30.5885 208.098 30.6243C208.115 30.6431 208.13 30.6602 208.146 30.6809C208.117 30.7042 208.086 30.7249 208.053 30.7425C208.053 30.7425 208.053 30.7426 208.053 30.7426Z" id="Path-43" fill="#FAFAFA" fill-rule="evenodd" stroke="none" />
    <path d="M209.937 27.7639C209.963 27.7986 209.966 27.8451 209.945 27.8826C209.923 27.92 209.882 27.9418 209.839 27.938C209.796 27.9341 209.76 27.9056 209.745 27.8648C209.083 28.7116 208.533 29.6407 208.11 30.629C208.127 30.6478 208.143 30.6649 208.158 30.6855C208.127 30.7067 208.094 30.725 208.059 30.7402C208.059 30.7402 197.067 30.7403 197.067 30.7403C197.164 29.6465 197.439 28.5758 197.881 27.5704C198.308 27.4519 198.749 27.3941 199.191 27.3991C202.397 27.3991 205.606 27.3991 208.814 27.3991C209.195 27.3991 209.603 27.3255 209.887 27.6868C209.905 27.7194 209.936 27.7416 209.937 27.7639C209.937 27.7639 209.937 27.7639 209.937 27.7639Z" id="Path-44" fill="#FAFAFA" fill-rule="evenodd" stroke="none" />
    <path d="M67.37 20.2284C66.9519 20.6901 66.3624 20.5021 65.8861 20.5158C63.5008 20.5807 61.1139 20.5687 58.7286 20.538C58.1269 20.4626 57.5219 20.4176 56.9157 20.4029C57.2312 18.1991 58.9396 16.4526 61.1395 16.0847C62.5168 15.8056 63.9487 16.0859 65.1181 16.8636C66.2875 17.6414 67.098 18.8524 67.37 20.2284C67.37 20.2284 67.37 20.2284 67.37 20.2284Z" id="Path-45" fill="#FAFAFA" fill-rule="evenodd" stroke="none" />
    <path d="M56.253 8.88642C57.6752 8.68804 59.1137 8.63409 60.5467 8.72531C63.0602 8.70124 65.5738 8.72522 68.0856 8.72522C67.1651 11.2134 64.7873 12.8588 62.1367 12.8416C59.5494 12.8605 57.2146 11.291 56.253 8.88642C56.253 8.88642 56.253 8.88642 56.253 8.88642Z" id="Path-46" fill="#FAFAFA" fill-rule="evenodd" stroke="none" />
    <path d="M170.713 27.1126C170.713 27.1126 170.607 27.2257 170.607 27.2257C170.656 27.2481 170.707 27.2648 170.759 27.2755C170.806 27.2855 170.855 27.2906 170.903 27.2908C170.934 27.2933 170.965 27.2933 170.996 27.2908C171.057 27.2836 171.118 27.2698 171.177 27.2496C171.177 27.2496 171.263 27.2188 171.263 27.2188C171.263 27.2188 171.263 27.2188 171.263 27.2188C171.29 27.2069 171.321 27.1932 171.35 27.1794C171.35 27.1794 171.379 27.1691 171.379 27.1691L170.713 27.1126ZM179.988 41.7981C179.913 41.7888 179.837 41.7888 179.762 41.7981C179.763 41.889 179.784 41.9788 179.825 42.0602C179.891 41.9677 179.959 41.8803 180.028 41.7895C180.028 41.7895 179.988 41.7981 179.988 41.7981ZM182.246 34.822C182.3 34.8734 182.362 34.9151 182.429 34.9453C182.429 34.8785 182.429 34.8099 182.429 34.7415C182.364 34.7598 182.302 34.7888 182.246 34.827C182.246 34.827 182.246 34.822 182.246 34.822ZM167.662 34.7449C167.662 34.8065 167.662 34.8682 167.662 34.9282C167.716 34.9001 167.765 34.8643 167.809 34.8219C167.764 34.791 167.714 34.7673 167.662 34.7517C167.662 34.7517 167.662 34.7449 167.662 34.7449ZM169.527 41.2174C169.581 41.2961 169.635 41.3749 169.699 41.4503C169.731 41.3721 169.75 41.2894 169.755 41.2053C169.679 41.1981 169.602 41.2021 169.528 41.2174C169.528 41.2174 169.527 41.2174 169.527 41.2174Z" id="Path-47" fill="#FAFAFA" fill-rule="evenodd" stroke="none" />
    <path d="M127.075 30.5836C127.07 30.5886 127.066 30.5944 127.063 30.6008C126.426 31.7693 126.19 33.1142 126.391 34.4296C126.389 34.4399 126.389 34.4503 126.391 34.4604C126.422 34.5754 126.547 34.6627 126.622 34.7603C126.622 34.6918 126.622 34.6232 126.622 34.5547C126.671 33.2101 126.902 31.8782 127.308 30.5955C127.308 30.5955 127.347 30.4568 127.347 30.4568C127.243 30.4625 127.146 30.5077 127.075 30.5835C127.075 30.5835 127.075 30.5836 127.075 30.5836ZM141.373 33.8849C141.34 33.894 141.308 33.9053 141.277 33.919C141.309 33.9364 141.343 33.9496 141.378 33.9586C141.378 33.9586 141.378 33.9586 141.378 33.9586C141.378 33.9586 141.373 33.8849 141.373 33.8849Z" id="Path-48" fill="#FAFAFA" fill-rule="evenodd" stroke="none" />
    <path d="M127.358 30.4556C127.358 30.4556 127.318 30.5943 127.318 30.5943C126.912 31.877 126.681 33.2088 126.633 34.5535C126.633 34.622 126.633 34.6905 126.633 34.759C123.386 34.759 120.14 34.7419 116.892 34.7762C116.162 34.7762 115.905 34.5551 115.941 33.8219C116.001 32.6226 115.977 31.4371 115.991 30.2431C115.991 30.2431 116.333 30.2122 116.333 30.2122C119.155 29.9861 121.987 30.3493 124.801 30.2122C125.672 30.1746 126.547 29.8868 127.358 30.4556C127.358 30.4556 127.358 30.4556 127.358 30.4556Z" id="Path-49" fill="#FAFAFA" fill-rule="evenodd" stroke="none" />
    <path d="M209.878 27.69C209.83 27.7448 209.782 27.8013 209.734 27.8612C209.792 27.8838 209.852 27.8982 209.914 27.9041C209.923 27.8562 209.928 27.8074 209.926 27.7586C209.931 27.7397 209.9 27.7191 209.885 27.6968C209.885 27.6968 209.878 27.69 209.878 27.69ZM208.1 30.6247C208.081 30.6606 208.064 30.7 208.048 30.736C208.083 30.7209 208.117 30.7025 208.148 30.6811C208.139 30.6674 208.122 30.6487 208.107 30.6315C208.107 30.6315 208.1 30.6247 208.1 30.6247ZM207.389 34.5856C207.389 34.6386 207.389 34.6934 207.389 34.7466C207.434 34.7269 207.477 34.7028 207.517 34.6747C207.479 34.6438 207.438 34.6157 207.396 34.5906C207.396 34.5906 207.389 34.5856 207.389 34.5856ZM221.437 38.764C221.476 38.8224 221.526 38.8725 221.584 38.9113C221.607 38.8394 221.626 38.7658 221.646 38.6937C221.574 38.7099 221.504 38.7334 221.437 38.764C221.437 38.764 221.437 38.764 221.437 38.764Z" id="Path-50" fill="#FAFAFA" fill-rule="evenodd" stroke="none" />
    <path d="M87.299 28.6034C87.299 28.6034 87.2116 28.7456 87.2116 28.7456C86.189 30.52 85.633 32.5247 85.5957 34.5723C85.5957 34.6373 85.5957 34.7042 85.5957 34.7693C82.3211 34.7693 79.0464 34.7693 75.7718 34.7898C75.1206 34.7898 74.8927 34.5739 74.915 33.9227C74.9579 32.0582 74.9527 30.1919 74.9681 28.3258C74.9681 28.3258 74.9681 28.2623 74.9681 28.2623C76.764 28.2161 78.5666 28.1973 80.3539 28.1355C82.1086 28.0773 83.8718 28.2024 85.6317 28.0996C86.2364 27.9831 86.8598 28.1715 87.299 28.6034C87.299 28.6034 87.299 28.6034 87.299 28.6034Z" id="Path-51" fill="#FAFAFA" fill-rule="evenodd" stroke="none" />
  </g>
</svg>