<svg xmlns="http://www.w3.org/2000/svg" width="16.031" height="16.728" viewBox="0 0 16.031 16.728">
  <path id="icons8_calendar_1" d="M5.485,0a.7.7,0,0,0-.7.7v.7H2.7a.674.674,0,0,0-.7.7v2.44H18.031V2.091a.674.674,0,0,0-.7-.7H15.243V.7a.7.7,0,0,0-.7-.7h-.7a.7.7,0,0,0-.7.7v.7H6.879V.7a.7.7,0,0,0-.7-.7Zm0,.7h.7V2.788h-.7Zm8.364,0h.7V2.788h-.7ZM2,5.228v10.8a.674.674,0,0,0,.7.7H17.334a.674.674,0,0,0,.7-.7V5.228ZM5.485,7.319H7.228V9.061H5.485Zm2.44,0H9.667V9.061H7.925Zm2.44,0h1.743V9.061H10.364Zm2.44,0h1.743V9.061H12.8ZM5.485,9.758H7.228V11.5H5.485Zm2.44,0H9.667V11.5H7.925Zm2.44,0h1.743V11.5H10.364Zm2.44,0h1.743V11.5H12.8ZM5.485,12.2H7.228V13.94H5.485Zm2.44,0H9.667V13.94H7.925Zm2.44,0h1.743V13.94H10.364Zm2.44,0h1.743V13.94H12.8Z" transform="translate(-2)" fill="#fe2f70"/>
</svg>
