<svg xmlns="http://www.w3.org/2000/svg" width="19.408" height="21.173" viewBox="0 0 19.408 21.173">
    <path id="icons8_time" d="M12.822,2a.883.883,0,0,0-.882.882V3.933a9.7,9.7,0,1,0,3.529,0V2.882A.883.883,0,0,0,14.586,2Zm7.931,1.756a.882.882,0,0,0-.615,1.515l.882.882A.882.882,0,1,0,22.268,4.9l-.882-.882a.882.882,0,0,0-.632-.267ZM13.7,5.529a7.94,7.94,0,1,1-7.94,7.94A7.926,7.926,0,0,1,13.7,5.529ZM13.69,7.281a.882.882,0,0,0-.868.894v3.768a1.76,1.76,0,0,0,0,3.052v1.12a.882.882,0,1,0,1.764,0V14.993a1.76,1.76,0,0,0,0-3.052V8.175a.882.882,0,0,0-.9-.894Z" transform="translate(-4 -2)" fill="#989898"/>
</svg>  