<?xml version="1.0" encoding="utf-8"?>
<svg width="19.222412px" height="19.22229px" viewBox="0 0 19.222412 19.22229" version="1.1" xmlns:xlink="http://www.w3.org/1999/xlink" xmlns="http://www.w3.org/2000/svg">
  <defs>
    <linearGradient x1="0.032154277" y1="0.032226067" x2="0.8529719" y2="0.85304374" id="gradient_1">
      <stop offset="0%" stop-color="#FED100" />
      <stop offset="100%" stop-color="#E36001" />
    </linearGradient>
  </defs>
  <g id="icons8_summer">
    <path d="M9.6113 19.2223C9.38139 19.2223 9.19553 19.0355 9.19553 18.8044C9.19553 18.8044 9.19553 0.41563 9.19553 0.41563C9.19553 0.184512 9.38138 -0.00230028 9.6113 -0.00230028C9.84121 -0.00230028 10.0271 0.184512 10.0271 0.41563C10.0271 0.41563 10.0271 18.8044 10.0271 18.8044C10.0271 19.0355 9.84122 19.2223 9.6113 19.2223Z" id="Path-394" fill="#FFB300" fill-rule="evenodd" stroke="none" />
    <path d="M18.8056 10.0258C18.8056 10.0258 0.41684 10.0258 0.41684 10.0258C0.185722 10.0258 -0.00109013 9.83996 -0.00109013 9.61003C-0.00109013 9.38012 0.185722 9.19426 0.41684 9.19426C0.41684 9.19426 18.8056 9.19426 18.8056 9.19426C19.0367 9.19426 19.2235 9.38011 19.2235 9.61003C19.2235 9.83995 19.0367 10.0258 18.8056 10.0258Z" id="Path-395" fill="#FFB300" fill-rule="evenodd" stroke="none" />
    <path d="M12.4517 18.7722C12.2754 18.7722 12.112 18.6598 12.0544 18.4834C12.0544 18.4834 6.37358 0.995085 6.37358 0.995085C6.30213 0.776092 6.42245 0.539966 6.64219 0.468508C6.86027 0.397881 7.09715 0.517404 7.16858 0.737228C7.16858 0.737228 12.8489 18.2251 12.8489 18.2251C12.9204 18.4441 12.8001 18.6803 12.5803 18.7517C12.5377 18.7655 12.4943 18.7722 12.4517 18.7722Z" id="Path-396" fill="#FFB300" fill-rule="evenodd" stroke="none" />
    <path d="M0.866847 12.868C0.690483 12.868 0.527071 12.7557 0.469394 12.5794C0.397924 12.3605 0.51829 12.1244 0.73812 12.053C0.73812 12.053 18.2265 6.37218 18.2265 6.37218C18.4446 6.30033 18.6816 6.42106 18.753 6.6408C18.8245 6.85972 18.7042 7.09575 18.4843 7.16719C18.4843 7.16719 0.995974 12.8476 0.995974 12.8476C0.952928 12.8614 0.909882 12.868 0.866837 12.868C0.866837 12.868 0.866847 12.868 0.866847 12.868Z" id="Path-397" fill="#FFB300" fill-rule="evenodd" stroke="none" />
    <path d="M15.017 17.4713C14.8875 17.4713 14.7604 17.4116 14.6785 17.2991C14.6785 17.2991 3.86802 2.42269 3.86802 2.42269C3.73218 2.23589 3.77356 1.9747 3.9604 1.8393C4.14724 1.70391 4.4089 1.74444 4.5439 1.93166C4.5439 1.93166 15.3544 16.8077 15.3544 16.8077C15.4902 16.9945 15.4488 17.2557 15.262 17.3911C15.188 17.445 15.1023 17.4713 15.017 17.4713C15.017 17.4713 15.017 17.4713 15.017 17.4713Z" id="Path-398" fill="#FFB300" fill-rule="evenodd" stroke="none" />
    <path d="M2.17784 15.4337C2.04838 15.4337 1.92141 15.3739 1.83955 15.2615C1.70382 15.0747 1.74517 14.8134 1.93185 14.678C1.93185 14.678 16.799 3.86676 16.799 3.86676C16.9857 3.73091 17.2467 3.77187 17.382 3.95914C17.5178 4.14599 17.4764 4.40724 17.2897 4.54267C17.2897 4.54267 2.42299 15.3535 2.42299 15.3535C2.34865 15.4074 2.26303 15.4337 2.17783 15.4337C2.17783 15.4337 2.17784 15.4337 2.17784 15.4337Z" id="Path-399" fill="#FFB300" fill-rule="evenodd" stroke="none" />
    <path d="M17.044 15.4337C16.9588 15.4337 16.8731 15.4078 16.7988 15.3539C16.7988 15.3539 1.93185 4.54267 1.93185 4.54267C1.74559 4.40724 1.70382 4.14599 1.83955 3.95914C1.97486 3.77187 2.23547 3.73091 2.42257 3.86676C2.42257 3.86676 17.2895 14.6776 17.2895 14.6776C17.4758 14.813 17.5175 15.0742 17.3818 15.2611C17.3004 15.374 17.173 15.4337 17.0439 15.4337C17.0439 15.4337 17.044 15.4337 17.044 15.4337Z" id="Path-400" fill="#FFB300" fill-rule="evenodd" stroke="none" />
    <path d="M4.2051 17.4713C4.11982 17.4713 4.03414 17.4454 3.95974 17.3915C3.77331 17.2561 3.73151 16.9949 3.86736 16.8081C3.86736 16.8081 14.6784 1.93065 14.6784 1.93065C14.8138 1.74342 15.0746 1.70246 15.2619 1.83829C15.4483 1.97369 15.4901 2.23489 15.3543 2.42169C15.3543 2.42169 4.54366 17.2991 4.54366 17.2991C4.46215 17.4115 4.33466 17.4713 4.20509 17.4713C4.20509 17.4713 4.2051 17.4713 4.2051 17.4713Z" id="Path-401" fill="#FFB300" fill-rule="evenodd" stroke="none" />
    <path d="M18.3559 12.8681C18.3128 12.8681 18.2698 12.8614 18.2268 12.8476C18.2268 12.8476 0.738374 7.16672 0.738374 7.16672C0.518955 7.09528 0.398598 6.85966 0.469648 6.64034C0.541118 6.421 0.777249 6.30069 0.996239 6.3717C0.996239 6.3717 18.485 12.0526 18.485 12.0526C18.7044 12.124 18.8248 12.3596 18.7538 12.579C18.6957 12.7557 18.5323 12.8681 18.3559 12.8681Z" id="Path-402" fill="#FFB300" fill-rule="evenodd" stroke="none" />
    <path d="M6.77064 18.7722C6.72761 18.7722 6.68458 18.7655 6.64155 18.7517C6.4222 18.6803 6.30189 18.4446 6.3729 18.2252C6.3729 18.2252 12.0545 0.737288 12.0545 0.737288C12.1259 0.517875 12.362 0.397932 12.5809 0.468569C12.8002 0.540037 12.9206 0.775742 12.8495 0.995146C12.8495 0.995146 7.16797 18.483 7.16797 18.483C7.11073 18.6598 6.94695 18.7722 6.77064 18.7722Z" id="Path-403" fill="#FFB300" fill-rule="evenodd" stroke="none" />
    <path d="M10.9245 18.3506C10.7232 18.3506 10.5457 18.2039 10.5136 17.9979C10.5136 17.9979 7.886 1.3618 7.886 1.3618C7.84975 1.13404 8.00477 0.919655 8.23232 0.883713C8.45944 0.84527 8.67323 1.00281 8.70907 1.23099C8.70907 1.23099 11.3366 17.8675 11.3366 17.8675C11.3729 18.0952 11.2179 18.3096 10.9903 18.3456C10.9682 18.3489 10.9462 18.3506 10.9245 18.3506C10.9245 18.3506 10.9245 18.3506 10.9245 18.3506Z" id="Path-404" fill="#FFB300" fill-rule="evenodd" stroke="none" />
    <path d="M1.298 11.3501C1.09627 11.3501 0.918345 11.2034 0.886181 10.9973C0.84984 10.7694 1.00521 10.555 1.23325 10.519C1.23325 10.519 17.86 7.88331 17.86 7.88331C18.088 7.84444 18.3023 8.00245 18.3378 8.23069C18.3741 8.45852 18.2188 8.67297 17.9907 8.70893C17.9907 8.70893 1.36356 11.3451 1.36356 11.3451C1.34142 11.3484 1.31929 11.3501 1.29798 11.3501C1.29798 11.3501 1.298 11.3501 1.298 11.3501Z" id="Path-405" fill="#FFB300" fill-rule="evenodd" stroke="none" />
    <path d="M13.4358 17.5325C13.2837 17.5325 13.137 17.4493 13.063 17.3043C13.063 17.3043 5.41448 2.2947 5.41448 2.2947C5.30956 2.08906 5.39107 1.83704 5.59714 1.73255C5.80279 1.62681 6.05401 1.70957 6.15893 1.91519C6.15893 1.91519 13.8079 16.9248 13.8079 16.9248C13.9128 17.1304 13.8313 17.3825 13.6252 17.4869C13.5646 17.5179 13.4998 17.5325 13.4358 17.5325Z" id="Path-406" fill="#FFB300" fill-rule="evenodd" stroke="none" />
    <path d="M2.10687 13.8521C1.95474 13.8521 1.80804 13.7689 1.73406 13.6238C1.62915 13.4182 1.71065 13.1661 1.9167 13.0616C1.9167 13.0616 16.9262 5.41315 16.9262 5.41315C17.1319 5.30782 17.3835 5.38975 17.4884 5.59582C17.5933 5.80188 17.5118 6.05352 17.3057 6.15802C17.3057 6.15802 2.2962 13.8065 2.2962 13.8065C2.2356 13.8374 2.1704 13.8521 2.10686 13.8521C2.10686 13.8521 2.10687 13.8521 2.10687 13.8521Z" id="Path-407" fill="#FFB300" fill-rule="evenodd" stroke="none" />
    <path d="M15.5686 15.9852C15.4615 15.9852 15.3545 15.9443 15.273 15.8628C15.273 15.8628 3.35847 3.94832 3.35847 3.94832C3.19501 3.78486 3.19501 3.52065 3.35847 3.35719C3.52193 3.19374 3.78614 3.19374 3.9496 3.35719C3.9496 3.35719 15.8641 15.2716 15.8641 15.2716C16.0276 15.4351 16.0276 15.6993 15.8641 15.8628C15.7826 15.9443 15.6756 15.9852 15.5686 15.9852Z" id="Path-408" fill="#FFB300" fill-rule="evenodd" stroke="none" />
    <path d="M3.65403 15.9852C3.54701 15.9852 3.43999 15.9443 3.35847 15.8628C3.19501 15.6993 3.19501 15.4351 3.35847 15.2716C3.35847 15.2716 15.273 3.35719 15.273 3.35719C15.4365 3.19374 15.7007 3.19374 15.8641 3.35719C16.0276 3.52065 16.0276 3.78486 15.8641 3.94832C15.8641 3.94832 3.9496 15.8628 3.9496 15.8628C3.86807 15.9443 3.76106 15.9852 3.65403 15.9852Z" id="Path-409" fill="#FFB300" fill-rule="evenodd" stroke="none" />
    <path d="M17.1154 13.852C17.0519 13.852 16.9867 13.8374 16.9261 13.8065C16.9261 13.8065 1.9167 6.15743 1.9167 6.15743C1.71106 6.05293 1.62915 5.80087 1.73406 5.59522C1.83812 5.38955 2.08973 5.30763 2.29619 5.41255C2.29619 5.41255 17.3056 13.062 17.3056 13.062C17.5112 13.1665 17.5931 13.4186 17.4882 13.6242C17.4147 13.7689 17.2675 13.852 17.1154 13.852Z" id="Path-410" fill="#FFB300" fill-rule="evenodd" stroke="none" />
    <path d="M5.78675 17.5325C5.72321 17.5325 5.658 17.5179 5.59739 17.487C5.39172 17.3825 5.3098 17.1304 5.41472 16.9248C5.41472 16.9248 13.0639 1.91538 13.0639 1.91538C13.168 1.70974 13.4196 1.6274 13.6261 1.73273C13.8318 1.83722 13.9137 2.08925 13.8088 2.29487C13.8088 2.29487 6.15919 17.3043 6.15919 17.3043C6.08562 17.4493 5.9389 17.5325 5.78674 17.5325C5.78674 17.5325 5.78675 17.5325 5.78675 17.5325Z" id="Path-411" fill="#FFB300" fill-rule="evenodd" stroke="none" />
    <path d="M17.9247 11.35C17.9029 11.35 17.8812 11.3484 17.8591 11.3446C17.8591 11.3446 1.23236 8.70972 1.23236 8.70972C1.00431 8.67377 0.848942 8.45935 0.885283 8.23156C0.921205 8.00377 1.1363 7.84577 1.36309 7.88423C1.36309 7.88423 17.9898 10.5195 17.9898 10.5195C18.2179 10.5555 18.3732 10.7699 18.3369 10.9977C18.3043 11.2034 18.1268 11.3501 17.9247 11.3501C17.9247 11.3501 17.9247 11.35 17.9247 11.35Z" id="Path-412" fill="#FFB300" fill-rule="evenodd" stroke="none" />
    <path d="M8.28963 18.3506C8.26789 18.3506 8.24616 18.3489 8.22401 18.3451C7.99581 18.3092 7.84033 18.0948 7.87669 17.8671C7.87669 17.8671 10.5118 1.23028 10.5118 1.23028C10.5478 1.00252 10.7634 0.844964 10.99 0.882998C11.2182 0.918941 11.3736 1.13333 11.3373 1.36109C11.3373 1.36109 8.70214 17.9979 8.70214 17.9979C8.66954 18.2039 8.49149 18.3506 8.28963 18.3506C8.28963 18.3506 8.28963 18.3506 8.28963 18.3506Z" id="Path-413" fill="#FFB300" fill-rule="evenodd" stroke="none" />
    <path d="M9.61124 1.255C4.99675 1.255 1.2562 4.99555 1.2562 9.61004C1.2562 14.2245 4.99675 17.9651 9.61124 17.9651C14.2257 17.9651 17.9663 14.2245 17.9663 9.61004C17.9663 4.99555 14.2257 1.255 9.61124 1.255Z" id="Path-414" fill="url(#gradient_1)" fill-rule="evenodd" stroke="none" />
  </g>
</svg>