<?xml version="1.0" encoding="utf-8"?>
<svg width="11.623047px" height="17.43457px" viewBox="0 0 11.623047 17.43457" version="1.1" xmlns:xlink="http://www.w3.org/1999/xlink" xmlns="http://www.w3.org/2000/svg">
  <path d="M7.05685 12.4532C6.71231 12.4532 6.4342 12.1752 6.4342 11.8306C6.4342 11.4861 6.71231 11.2079 7.05685 11.2079C7.05685 11.2079 8.30219 11.2079 8.30219 11.2079C8.64673 11.2079 8.92484 11.4861 8.92484 11.8306C8.92484 12.1752 8.64673 12.4532 8.30219 12.4532C8.30219 12.4532 7.05685 12.4532 7.05685 12.4532ZM3.32086 12.4532C2.97632 12.4532 2.69821 12.1752 2.69821 11.8306C2.69821 11.4861 2.97632 11.2079 3.32086 11.2079C3.32086 11.2079 4.56619 11.2079 4.56619 11.2079C4.91074 11.2079 5.18887 11.4861 5.18887 11.8306C5.18887 12.1752 4.91074 12.4532 4.56619 12.4532C4.56619 12.4532 3.32086 12.4532 3.32086 12.4532ZM8.08218 16.8534C8.10294 17.1813 8.37689 17.4346 8.70483 17.4346C8.70483 17.4346 10.1702 17.4346 10.1702 17.4346C10.9713 17.4346 11.623 16.7828 11.623 15.9817C11.623 15.9817 11.623 12.4532 11.623 12.4532C11.623 12.4532 10.7928 12.4532 10.7928 12.4532C10.4483 12.4532 10.1702 12.1751 10.1702 11.8306C10.1702 11.4861 10.4483 11.2079 10.7928 11.2079C10.7928 11.2079 11.623 11.2079 11.623 11.2079C11.623 11.2079 11.623 1.45288 11.623 1.45288C11.623 0.651733 10.9713 0 10.1702 0C10.1702 0 8.70483 0 8.70483 0C8.37689 0 8.10291 0.253235 8.08215 0.581146C8.00745 1.76837 7.00705 2.69821 5.81152 2.69821C4.616 2.69821 3.6156 1.76837 3.54086 0.581146C3.52011 0.253204 3.24612 0 2.91821 0C2.91821 0 1.45288 0 1.45288 0C0.651733 0 0 0.651733 0 1.45288C0 1.45288 0 11.2079 0 11.2079C0 11.2079 0.830231 11.2079 0.830231 11.2079C1.17477 11.2079 1.45288 11.4861 1.45288 11.8306C1.45288 12.1751 1.17477 12.4532 0.830231 12.4532C0.830231 12.4532 0 12.4532 0 12.4532C0 12.4532 0 15.9817 0 15.9817C0 16.7828 0.651733 17.4346 1.45288 17.4346C1.45288 17.4346 2.91821 17.4346 2.91821 17.4346C3.24615 17.4346 3.52011 17.1813 3.54086 16.8534C3.6156 15.6662 4.616 14.7364 5.81152 14.7364C7.00702 14.7364 8.00745 15.6662 8.08218 16.8534Z" id="icons8_ticket" fill="#000941" fill-rule="evenodd" stroke="none" />
</svg>