<svg xmlns="http://www.w3.org/2000/svg" width="45.853" height="37.281" viewBox="0 0 45.853 37.281">
  <path id="icons8_night" d="M32.752,2.926,34.3,6.205a7.854,7.854,0,0,1,.456,3.241,7.375,7.375,0,0,1-3.13,6.376,11.93,11.93,0,0,0-19.609,2.644,10.888,10.888,0,0,0,.9,21.741H34.752a8.693,8.693,0,0,0,6.559-14.444A12,12,0,0,0,36.368,3.092ZM38.889,8.1a7.551,7.551,0,0,1,4.6,6.973,7.629,7.629,0,0,1-7.664,7.664v.111a8.61,8.61,0,0,0-1.07-.111.487.487,0,0,0-.055.009,11.874,11.874,0,0,0-.793-3.207A11.869,11.869,0,0,0,39.119,9.446C39.119,9.034,38.908,8.539,38.889,8.1Z" transform="translate(-2 -2.926)" fill="#000941"/>
</svg>
