<svg xmlns="http://www.w3.org/2000/svg" width="30.651" height="25.141" viewBox="0 0 30.651 25.141">
  <path id="icons8_twitter" d="M20.963,5.469a6.651,6.651,0,0,0-6.644,6.644,6.521,6.521,0,0,0,.077.651A16.474,16.474,0,0,1,3.137,6.809a.616.616,0,0,0-.529-.232.61.61,0,0,0-.486.309,6.506,6.506,0,0,0,.44,7.257c-.158-.069-.33-.108-.479-.191a.612.612,0,0,0-.9.536v.077a6.61,6.61,0,0,0,2.891,5.419.473.473,0,0,1-.057,0,.612.612,0,0,0-.689.785,6.658,6.658,0,0,0,4.6,4.347,11.448,11.448,0,0,1-5.878,1.628,11.5,11.5,0,0,1-1.359-.077.613.613,0,0,0-.4,1.13A17.671,17.671,0,0,0,9.858,30.61a17.209,17.209,0,0,0,13.212-5.8,18.44,18.44,0,0,0,4.576-11.986c0-.175-.014-.345-.019-.517a12.834,12.834,0,0,0,2.91-3.044.613.613,0,0,0-.766-.9c-.316.141-.685.156-1.015.268A6.5,6.5,0,0,0,29.79,6.713.612.612,0,0,0,28.89,6a11.482,11.482,0,0,1-3.427,1.321A6.6,6.6,0,0,0,20.963,5.469Zm0,1.225a5.424,5.424,0,0,1,3.964,1.723.617.617,0,0,0,.574.172A12.609,12.609,0,0,0,27.8,7.9a5.455,5.455,0,0,1-1.57,1.436.613.613,0,0,0,.4,1.149,12.66,12.66,0,0,0,1.742-.479,11.639,11.639,0,0,1-1.723,1.532.611.611,0,0,0-.249.536c.01.249.019.5.019.747a17.238,17.238,0,0,1-4.27,11.163,15.919,15.919,0,0,1-12.293,5.4,16.386,16.386,0,0,1-6.836-1.494,12.684,12.684,0,0,0,6.893-2.623.613.613,0,0,0-.364-1.091A5.367,5.367,0,0,1,4.937,21.3h.1a6.684,6.684,0,0,0,1.762-.23.613.613,0,0,0-.038-1.187,5.38,5.38,0,0,1-4.193-4.423,6.506,6.506,0,0,0,1.934.4.613.613,0,0,0,.364-1.13,5.425,5.425,0,0,1-2.413-4.519,5.324,5.324,0,0,1,.421-1.953,17.687,17.687,0,0,0,12.2,5.84.62.62,0,0,0,.5-.215.612.612,0,0,0,.129-.531,5.471,5.471,0,0,1-.153-1.245A5.408,5.408,0,0,1,20.963,6.694Z" transform="translate(0.008 -5.469)" fill="#000941"/>
</svg>
