<svg xmlns="http://www.w3.org/2000/svg" width="39.202" height="27.442" viewBox="0 0 39.202 27.442">
  <g id="Group_1420" data-name="Group 1420" transform="translate(0 -5.88)">
    <g id="icons8_usa_3" transform="translate(0 5.88)">
      <path id="Path_587" data-name="Path 587" d="M.425,5.525H38.647V31.987H.425Z" transform="translate(0.065 -5.035)" fill="#f78f8f"/>
      <path id="Path_588" data-name="Path 588" d="M38.222,6.08V31.562H.98V6.08H38.222m.98-.98H0V32.542H39.2V5.1Z" transform="translate(0 -5.1)" fill="#c74343"/>
      <path id="Path_589" data-name="Path 589" d="M11.63,7.65H38.091V9.61H11.63Zm0,4.9H38.091v1.96H11.63ZM.849,22.351H38.091v1.96H.849Zm0-4.9H38.094v1.96H.852Zm0,9.8H38.094v1.96H.852Z" transform="translate(0.13 -4.71)" fill="#fff"/>
      <path id="Path_590" data-name="Path 590" d="M.425,5.525H19.046V19.246H.425Z" transform="translate(0.065 -5.035)" fill="#8bb7f0"/>
      <path id="Path_591" data-name="Path 591" d="M18.621,6.08V18.821H.98V6.08H18.621m.98-.98H0V19.8H19.6V5.1Z" transform="translate(0 -5.1)" fill="#4e7ab5"/>
      <path id="Path_592" data-name="Path 592" d="M2.32,5.95l.455.968,1.015.155-.735.754L3.229,8.89l-.909-.5-.909.5.173-1.063L.85,7.073l1.015-.155ZM5.26,8.89l.455.968,1.015.155L6,10.767l.173,1.063-.909-.5-.909.5.173-1.063-.735-.754,1.015-.155ZM8.2,5.95l.455.968,1.015.155-.735.754L9.109,8.89l-.909-.5-.909.5.173-1.063L6.73,7.073l1.015-.155Zm2.94,2.94.455.968,1.015.155-.735.754.173,1.063-.909-.5-.909.5.173-1.063-.735-.754,1.015-.155Zm2.94-2.94.455.968,1.015.155-.735.754.173,1.063-.909-.5-.909.5.173-1.063-.735-.754,1.015-.155ZM2.32,11.83l.455.968,1.015.155-.735.754.173,1.063-.909-.5-.909.5.173-1.063L.85,12.954,1.865,12.8Zm5.88,0,.455.968,1.015.155-.735.754.173,1.063-.909-.5-.909.5.173-1.063-.735-.754L7.746,12.8Zm5.845.012.454.968,1.016.155-.735.754.173,1.063-.909-.5-.909.5.174-1.063-.735-.754,1.015-.155ZM5.26,14.771l.455.968,1.015.155L6,16.647l.173,1.063-.909-.5-.909.5.173-1.063-.735-.754,1.015-.155Zm5.88,0,.455.968,1.015.155-.735.754.173,1.063-.909-.5-.909.5.173-1.063-.735-.754,1.015-.155Zm5.88,0,.455.968,1.015.155-.735.754.173,1.063-.909-.5-.909.5.173-1.063-.735-.754,1.015-.155Zm0-5.88.455.968,1.015.155-.735.754.173,1.063-.909-.5-.909.5.173-1.063-.735-.754,1.015-.155Z" transform="translate(0.13 -4.97)" fill="#fff"/>
    </g>
  </g>
</svg>
