<svg xmlns="http://www.w3.org/2000/svg" xmlns:xlink="http://www.w3.org/1999/xlink" width="34" height="34" viewBox="0 0 34 34">
  <defs>
    <clipPath id="clip-path">
      <circle id="Ellipse_120" data-name="Ellipse 120" cx="17" cy="17" r="17" transform="translate(589 2234)" fill="#fff" stroke="#707070" stroke-width="1"/>
    </clipPath>
  </defs>
  <g id="Mask_Group_2" data-name="Mask Group 2" transform="translate(-589 -2234)" clip-path="url(#clip-path)">
    <g id="icons8_usa_3" transform="translate(589 2234)">
      <path id="Path_587" data-name="Path 587" d="M.425,5.525h33.15v22.95H.425Z" fill="#f78f8f"/>
      <path id="Path_588" data-name="Path 588" d="M33.15,5.95v22.1H.85V5.95h32.3M34,5.1H0V28.9H34V5.1Z" fill="#c74343"/>
      <path id="Path_589" data-name="Path 589" d="M10.2,7.65h22.95v1.7H10.2Zm0,4.25h22.95v1.7H10.2ZM.849,20.4h32.3v1.7H.849Zm0-4.25h32.3v1.7H.852Zm0,8.5h32.3v1.7H.852Z" fill="#fff"/>
      <path id="Path_590" data-name="Path 590" d="M.425,5.525h16.15v11.9H.425Z" fill="#8bb7f0"/>
      <path id="Path_591" data-name="Path 591" d="M16.15,5.95V17H.85V5.95h15.3M17,5.1H0V17.85H17V5.1Z" fill="#4e7ab5"/>
      <path id="Path_592" data-name="Path 592" d="M2.125,5.95l.394.84.881.134-.638.654.15.922-.788-.435L1.337,8.5l.15-.922L.85,6.924l.881-.134ZM4.675,8.5l.394.84.881.134-.638.654.15.922-.788-.435-.788.435.15-.922L3.4,9.474l.881-.134Zm2.55-2.55.394.84.881.134-.637.654.15.922-.788-.435L6.437,8.5l.15-.922L5.95,6.924l.881-.134ZM9.775,8.5l.394.84.881.134-.637.654.15.922-.788-.435-.788.435.15-.922L8.5,9.474l.881-.134Zm2.55-2.55.394.84.881.134-.637.654.15.922-.788-.435-.788.435.15-.922-.637-.654.881-.134Zm-10.2,5.1.394.84.881.134-.638.654.15.922-.788-.435-.788.435.15-.922L.85,12.024l.881-.134Zm5.1,0,.394.84.881.134-.637.654.15.922-.788-.435-.788.435.15-.922-.637-.654.881-.134Zm5.069.01.394.84.881.134-.637.654.15.922-.788-.435-.789.435.151-.922-.638-.654L11.9,11.9ZM4.675,13.6l.394.84.881.134-.638.654.15.922-.788-.435-.788.435.15-.922L3.4,14.574l.881-.134Zm5.1,0,.394.84.881.134-.637.654.15.922-.788-.435-.788.435.15-.922L8.5,14.574l.881-.134Zm5.1,0,.394.84.881.134-.637.654.15.922-.788-.435-.788.435.15-.922-.637-.654.881-.134Zm0-5.1.394.84.881.134-.637.654.15.922-.788-.435-.788.435.15-.922L13.6,9.474l.881-.134Z" fill="#fff"/>
    </g>
  </g>
</svg>
