<svg xmlns="http://www.w3.org/2000/svg" xmlns:xlink="http://www.w3.org/1999/xlink" width="30.714" height="21.5" viewBox="0 0 30.714 21.5">
  <defs>
    <clipPath id="clip-path">
      <rect width="30.714" height="21.5" fill="none"/>
    </clipPath>
  </defs>
  <g id="icons8_usa" clip-path="url(#clip-path)">
    <g id="icons8_usa-2" data-name="icons8_usa" transform="translate(0 -6)">
      <path id="Path_436" data-name="Path 436" d="M.5,6.5H30.446V27.232H.5Z" transform="translate(-0.116 -0.116)" fill="#f78f8f"/>
      <path id="Path_437" data-name="Path 437" d="M29.946,6.768V26.732H.768V6.768H29.946M30.714,6H0V27.5H30.714V6Z" fill="#c74343"/>
      <path id="Path_438" data-name="Path 438" d="M9.445,9H30.178v1.536H9.445Zm0,3.839H30.178v1.536H9.445ZM1,20.518H30.178v1.536H1Zm0-3.839H30.18v1.536H1Zm0,7.679H30.18v1.536H1Z" transform="translate(-0.232 -0.696)" fill="#fff"/>
      <path id="Path_439" data-name="Path 439" d="M.5,6.5H15.089V17.25H.5Z" transform="translate(-0.116 -0.116)" fill="#8bb7f0"/>
      <path id="Path_440" data-name="Path 440" d="M14.589,6.768V16.75H.768V6.768H14.589M15.357,6H0V17.518H15.357V6Z" fill="#4e7ab5"/>
      <path id="Path_441" data-name="Path 441" d="M2.152,7l.356.759.8.121-.576.59.136.833L2.152,8.91,1.44,9.3l.136-.833L1,7.88l.8-.121Zm2.3,2.3.356.759.8.121-.576.59.136.833-.712-.393-.712.393.136-.833-.576-.59.8-.121ZM6.759,7l.356.759.8.121-.576.59.136.833L6.759,8.91,6.047,9.3l.136-.833-.576-.59.8-.121Zm2.3,2.3.356.759.8.121-.576.59.136.833-.712-.393-.712.393.136-.833-.576-.59.8-.121Zm2.3-2.3.356.759.8.121-.576.59.136.833-.712-.393-.712.393.136-.833-.576-.59.8-.121ZM2.152,11.607l.356.759.8.121-.576.59.136.833-.712-.393-.712.393.136-.833L1,12.487l.8-.121Zm4.607,0,.356.759.8.121-.576.59.136.833-.712-.393-.712.393.136-.833-.576-.59.8-.121Zm4.58.009.356.759.8.121-.576.59.136.833-.712-.393-.713.393.137-.833-.576-.59.8-.121ZM4.455,13.911l.356.759.8.121-.576.59.136.833-.712-.393-.712.393.136-.833-.576-.59.8-.121Zm4.607,0,.356.759.8.121-.576.59.136.833-.712-.393-.712.393.136-.833-.576-.59.8-.121Zm4.607,0,.356.759.8.121-.576.59.136.833-.712-.393-.712.393.136-.833-.576-.59.8-.121Zm0-4.607.356.759.8.121-.576.59.136.833-.712-.393-.712.393.136-.833-.576-.59.8-.121Z" transform="translate(-0.232 -0.232)" fill="#fff"/>
    </g>
  </g>
</svg>
