<?xml version="1.0" encoding="utf-8"?>
<svg width="19.662842px" height="21.013184px" viewBox="0 0 19.662842 21.013184" version="1.1" xmlns:xlink="http://www.w3.org/1999/xlink" xmlns="http://www.w3.org/2000/svg">
  <path d="M12.3833 14.5579C12.3065 13.7234 12.3368 13.1415 12.3368 12.3797C12.7148 12.1817 13.392 10.9188 13.5052 9.85193C13.8024 9.82764 14.2714 9.5387 14.4089 8.39502C14.4817 7.78076 14.1885 7.43524 14.0086 7.32617C14.4918 5.87329 15.4965 1.37744 12.1528 0.912659C11.8071 0.308533 10.9257 0.00341797 9.78149 0.00341797C5.19855 0.0882568 4.64667 3.46271 5.65143 7.32617C5.47144 7.43524 5.17834 7.78076 5.2511 8.39502C5.39062 9.5387 5.8576 9.82764 6.15472 9.85193C6.26801 10.9188 6.9715 12.1817 7.3515 12.3797C7.3515 13.1415 7.37982 13.7234 7.30304 14.5579C6.39734 16.9948 0.28009 16.3098 -0.00292969 21.0098C-0.00292969 21.0098 19.663 21.0098 19.663 21.0098C19.3799 16.3098 13.2889 16.9948 12.3832 14.5579C12.3832 14.5579 12.3833 14.5579 12.3833 14.5579Z" id="icons8_user" fill="#000941" fill-rule="evenodd" stroke="none" />
</svg>