<svg xmlns="http://www.w3.org/2000/svg" width="21.666" height="15.346" viewBox="0 0 21.666 15.346">
  <path id="icons8_airplane_take_off_3" d="M9.434,4.016a1.807,1.807,0,0,0-1.511.513l-.409.409,3.35,2.9L14.6,6.35,9.968,4.171A1.8,1.8,0,0,0,9.434,4.016ZM22.86,4.9a1.806,1.806,0,0,0-.818.2L6.611,11.222,5,9.8a1.506,1.506,0,0,0-1.668-.217L3,9.752l1.932,3.937a1.8,1.8,0,0,0,2.444.972L13.442,12.3l-.511,7.042h.58a1.8,1.8,0,0,0,1.7-1.194l2.74-7.6L23.515,8.39l.011,0v0A1.8,1.8,0,0,0,22.86,4.9Z" transform="translate(-3 -4.001)" fill="#fff"/>
</svg>
