<svg xmlns="http://www.w3.org/2000/svg" width="18.82" height="21.642" viewBox="0 0 18.82 21.642">
  <path id="icons8_hotel_star" d="M7.821,3a.211.211,0,0,0-.2.147L7.123,4.614,5.575,4.63a.217.217,0,0,0-.127.391l1.241.924L6.228,7.422a.217.217,0,0,0,.333.241l1.263-.893,1.263.893a.217.217,0,0,0,.333-.241L8.957,5.946l1.24-.924a.217.217,0,0,0-.129-.391L8.521,4.614,8.027,3.147A.213.213,0,0,0,7.821,3ZM14.41,3a.213.213,0,0,0-.206.147l-.494,1.467-1.548.017a.217.217,0,0,0-.127.391l1.242.924-.461,1.476a.216.216,0,0,0,.331.241l1.263-.893,1.263.893A.217.217,0,0,0,16,7.422l-.461-1.476,1.24-.924a.217.217,0,0,0-.127-.391L15.11,4.614l-.494-1.467A.213.213,0,0,0,14.41,3ZM21,3a.213.213,0,0,0-.206.147L20.3,4.614l-1.548.017a.217.217,0,0,0-.127.391l1.242.924L19.4,7.422a.216.216,0,0,0,.331.241L21,6.769l1.263.893a.217.217,0,0,0,.333-.241L22.13,5.946l1.24-.924a.217.217,0,0,0-.127-.391L21.7,4.614,21.2,3.147A.213.213,0,0,0,21,3ZM5.941,9.587a.941.941,0,1,0,0,1.882V24.642h5.646v-4.7h5.646v4.7h5.646V11.469a.941.941,0,1,0,0-1.882ZM7.823,12.41H9.7v1.882H7.823Zm3.764,0h1.882v1.882H11.587Zm3.764,0h1.882v1.882H15.351Zm3.764,0H21v1.882H19.114ZM7.823,16.174H9.7v1.882H7.823Zm3.764,0h1.882v1.882H11.587Zm3.764,0h1.882v1.882H15.351Zm3.764,0H21v1.882H19.114ZM7.823,19.937H9.7v1.882H7.823Zm11.292,0H21v1.882H19.114Z" transform="translate(-5 -3)" fill="#fff"/>
</svg>
