<svg xmlns="http://www.w3.org/2000/svg" width="14.398" height="10.519" viewBox="0 0 14.398 10.519">
    <path id="icons8_wi-fi_1" d="M7.261,7A10.049,10.049,0,0,0,.27,9.821l-.207.2,1.6,1.664.21-.2a7.77,7.77,0,0,1,10.785,0l.209.2,1.6-1.664-.209-.2A10.048,10.048,0,0,0,7.261,7Zm0,3.464a6.6,6.6,0,0,0-4.594,1.854l-.209.2,1.6,1.672.209-.2a4.283,4.283,0,0,1,5.978,0l.209.2,1.6-1.672-.207-.2A6.606,6.606,0,0,0,7.261,10.464Zm0,3.464a3.154,3.154,0,0,0-2.2.887l-.207.2,2.4,2.5,2.4-2.5-.207-.2A3.154,3.154,0,0,0,7.261,13.928Z" transform="translate(-0.063 -7)"/>
</svg>
  