<svg xmlns="http://www.w3.org/2000/svg" width="24.715" height="24.686" viewBox="0 0 24.715 24.686">
  <path id="icons8_location" d="M19.221,1a6.354,6.354,0,0,0-4.565,1.9,6.444,6.444,0,0,0-1.371,7.112l.02.039a15.489,15.489,0,0,0,4.624,6.015l.176.137a1.858,1.858,0,0,0,1.136.392,1.824,1.824,0,0,0,1.117-.372A15.422,15.422,0,0,0,25.2,9.993,6.464,6.464,0,0,0,19.221,1Zm0,1.176a5.2,5.2,0,0,1,3.742,1.567,5.229,5.229,0,0,1,1.117,5.8,14.127,14.127,0,0,1-4.467,5.741.676.676,0,0,1-.8,0l-.176-.137A14.438,14.438,0,0,1,14.362,9.6l-.02-.039a5.307,5.307,0,0,1,4.878-7.386Zm-7.386.784a11.369,11.369,0,1,0,11.7,13.46.588.588,0,1,0-1.156-.215,10.477,10.477,0,0,1-1.43,3.625L18.2,19.2c-.392-.078-.823-.176-1.273-.274-1.7-.392-3.311-.764-4.389-.451-2.253.647-3.154,2.43-3.82,3.742a6.1,6.1,0,0,1-.784,1.312,10.137,10.137,0,0,1-3.879-3.272,4.813,4.813,0,0,0,1.117.137A2.8,2.8,0,0,0,7,19.789a2.829,2.829,0,0,0,.784-2.527,5.347,5.347,0,0,1,.274-2.194A4.726,4.726,0,0,1,9.62,13.03a4.273,4.273,0,0,0,1.685-2.488c.333-1.724-.627-3.566-2.9-5.584a10.185,10.185,0,0,1,3.468-.784.624.624,0,0,0,.568-.646A.6.6,0,0,0,11.835,2.959ZM7.269,5.487c2.214,1.861,3.174,3.429,2.9,4.8a3.327,3.327,0,0,1-1.293,1.822,5.836,5.836,0,0,0-1.9,2.508,6.227,6.227,0,0,0-.353,2.645c.02.764.02,1.254-.392,1.606a1.571,1.571,0,0,1-1.038.333,5.848,5.848,0,0,1-2.018-.47A10.214,10.214,0,0,1,7.269,5.487Zm6.144,14.041a15.349,15.349,0,0,1,3.28.536c.431.1.9.2,1.293.274l2.234.51a10.31,10.31,0,0,1-7.856,3.663,10.056,10.056,0,0,1-3.272-.549A10.26,10.26,0,0,0,9.8,22.727c.627-1.234,1.312-2.625,3.1-3.135A2.179,2.179,0,0,1,13.413,19.527Z" transform="translate(-1 -1)" fill="#fe2f70"/>
</svg>
