<svg xmlns="http://www.w3.org/2000/svg" width="33" height="33" viewBox="0 0 33 33">
  <path id="icons8_location_1" d="M20.5,4A16.635,16.635,0,1,0,36.771,17.882c-.161.22-.329.437-.509.644-.163.184-.884,1-1.739,1.937,0,.013,0,.025,0,.037a13.937,13.937,0,0,1-.625,4.125H15a31.566,31.566,0,0,1,0-8.25h4.829a9.733,9.733,0,0,1-.814-2.475H15.444c1.063-4.567,3.135-7.425,5.056-7.425.06,0,.121.01.182.016a9.93,9.93,0,0,1,2.293-2.285A16.43,16.43,0,0,0,20.5,4Zm8.25,0a8.22,8.22,0,0,0-8.25,8.15,8.071,8.071,0,0,0,1.985,5.295l.006.006,0,.006s3.224,3.639,4.471,4.811a2.618,2.618,0,0,0,3.564,0c1.4-1.314,4.475-4.815,4.475-4.815l0,0,0,0A8.076,8.076,0,0,0,37,12.15,8.22,8.22,0,0,0,28.75,4Zm0,2.475a5.708,5.708,0,0,1,5.775,5.675,5.568,5.568,0,0,1-1.378,3.671l0,0c-.013.014-3.221,3.62-4.309,4.642a.113.113,0,0,1-.172,0h0v0c-.886-.832-4.3-4.633-4.31-4.647a5.568,5.568,0,0,1-1.378-3.667A5.708,5.708,0,0,1,28.75,6.475Zm-13.34.97A19.5,19.5,0,0,0,12.917,13.9H8.131A14.1,14.1,0,0,1,15.41,7.445Zm13.34,2.742a2.063,2.063,0,1,0,2.063,2.063A2.063,2.063,0,0,0,28.75,10.188ZM7.1,16.375h5.414a32.925,32.925,0,0,0,0,8.25H7.1a13.955,13.955,0,0,1,0-8.25ZM8.143,27.1h4.789a19.624,19.624,0,0,0,2.478,6.455A14.117,14.117,0,0,1,8.143,27.1Zm7.3,0h10.1c-1.061,4.565-3.128,7.425-5.048,7.425S16.507,31.668,15.445,27.1Zm12.63,0h4.782a14.117,14.117,0,0,1-7.267,6.455A19.545,19.545,0,0,0,28.075,27.1Z" transform="translate(-4 -4)" fill="#000941"/>
</svg>