<svg xmlns="http://www.w3.org/2000/svg" width="56" height="56" viewBox="0 0 56 56"><defs><style>.a,.b{fill:none;}.a{stroke:#fafafa;}.c{fill:#fafafa;}.d{stroke:none;}</style></defs><g transform="translate(-0.495)"><g class="a" transform="translate(0.495)"><circle class="d" cx="28" cy="28" r="28"/><circle class="b" cx="28" cy="28" r="27.5"/></g><g transform="translate(13.508 13.508)"><path class="b" d="M0,0H29.473V29.473H0Z"/><path class="c" d="M14.28,2c3.337,0,3.753.012,5.062.074a9.047,9.047,0,0,1,2.982.571A5.987,5.987,0,0,1,24.5,4.061a6.027,6.027,0,0,1,1.416,2.176,9.072,9.072,0,0,1,.571,2.982c.058,1.309.074,1.725.074,5.062s-.012,3.753-.074,5.062a9.079,9.079,0,0,1-.571,2.982,6.27,6.27,0,0,1-3.592,3.592,9.072,9.072,0,0,1-2.982.571c-1.309.058-1.725.074-5.062.074s-3.753-.012-5.062-.074a9.079,9.079,0,0,1-2.982-.571,6.27,6.27,0,0,1-3.592-3.592,9.04,9.04,0,0,1-.571-2.982C2.016,18.033,2,17.617,2,14.28s.012-3.753.074-5.062a9.04,9.04,0,0,1,.571-2.982A5.993,5.993,0,0,1,4.061,4.061,6.014,6.014,0,0,1,6.237,2.645a9.04,9.04,0,0,1,2.982-.571C10.527,2.016,10.944,2,14.28,2Zm0,6.14a6.14,6.14,0,1,0,6.14,6.14A6.14,6.14,0,0,0,14.28,8.14Zm7.982-.307a1.535,1.535,0,1,0-1.535,1.535A1.535,1.535,0,0,0,22.262,7.833ZM14.28,10.6A3.684,3.684,0,1,1,10.6,14.28,3.684,3.684,0,0,1,14.28,10.6Z" transform="translate(0.456 0.456)"/></g></g></svg>