<svg xmlns="http://www.w3.org/2000/svg" width="136" height="39.971" viewBox="0 0 136 39.971"><defs><style>.a{fill:#fafafa;}</style></defs><g transform="translate(347.21 -330.697)"><path class="a" d="M121.733,577.985c-.853,3.021-3.639,6.552-7.783,7.092a7.963,7.963,0,0,1-6.461-1.683v2.354a3.485,3.485,0,0,0-2.179-.347c-1-.006-2.006-.01-3.009,0-.661.008-.784.139-.794.808s.014,1.327-.014,1.99c-.009.211.037.474-.276.542q-.01-4.158-.019-8.314c0-.437.014-.874.021-1.312.041-.562.159-.682.813-.69,1.731-.023,3.464.007,5.2-.015.753-.01,1.5.007,2.255,0h.059a.434.434,0,0,1,.13-.026.758.758,0,0,1,.377.092l.047.021a3.859,3.859,0,0,0,4.411-.7c.025-.023.051-.048.075-.073a.631.631,0,0,1,.281-.193.38.38,0,0,1,.084-.012l.094,0c1.474.059,2.947.009,4.421.022.583,0,1.166-.039,1.75,0C121.486,577.577,121.742,577.622,121.733,577.985Z" transform="translate(-404.749 -222.8)"/><path class="a" d="M613.489,577.323c-1.184,3.261-3.236,5.7-6.661,6.679a7.386,7.386,0,0,1-6.354-.765,4.535,4.535,0,0,1-1.016-.9c-.259-.313-.381-.362-.63.041a3.126,3.126,0,0,1-5.832-1.557c-.05-1.23,0-2.463,0-3.7a.769.769,0,0,1,.8-.5q2.9-.041,5.807,0c.258,0,.5.151.76.1h.01a.452.452,0,0,1,.128-.007.46.46,0,0,1-.033.143,6.028,6.028,0,0,0,1.125.911,4.093,4.093,0,0,0,4.79-.552.348.348,0,0,1-.037-.153.545.545,0,0,1,.132,0h.022c1.968-.11,3.938-.031,5.9-.052A1.284,1.284,0,0,1,613.489,577.323Z" transform="translate(-848.638 -221.964)"/><path class="a" d="M613.616,429.522c-.175.272-.458.208-.707.21-1.784.012-3.567,0-5.35.018a1.519,1.519,0,0,0-.805.135l-.058-.071-.357-.024h0l-.013-.009-.041-.029-.055-.041a3.824,3.824,0,0,0-4.449-.307c-.039.021-.077.043-.117.062l-.02.011h0l-.015.007c-.017.009-.034.017-.051.023h0l-.05.018a.507.507,0,0,1-.106.024.325.325,0,0,1-.054,0,.415.415,0,0,1-.172-.038.373.373,0,0,1-.049-.024,1.327,1.327,0,0,0-.71-.128c-2.012-.007-4.023,0-6.036,0a1.019,1.019,0,0,0-.969.433.235.235,0,0,1-.25.114q0-3.115,0-6.229a1.372,1.372,0,0,1,1.084-.3c1.451-.052,2.9-.042,4.355-.009.617.014.737.137.853.7.08.39.239.062.3.012a6.566,6.566,0,0,1,2.974-1.352,9.074,9.074,0,0,1,9.377,3.829A8.392,8.392,0,0,1,613.616,429.522Z" transform="translate(-848.827 -82.925)"/><path class="a" d="M368.277,464.3a11.974,11.974,0,0,1-1.649,6.415,3.183,3.183,0,0,1-1.153.134H348.488c-.195,0-.389,0-.583.007a.492.492,0,0,0-.521.415c-.037.172-.056.364-.285.4-.008-.13-.02-.259-.02-.388q-.006-7.193-.006-14.385a1.505,1.505,0,0,1,.065-.67c.222.093.222.3.235.485a9.075,9.075,0,0,1,0,1.091l-.009.146a.033.033,0,0,0,0,.01c.044,1.224.05,2.448,0,3.672,0,0,0,.007,0,.011,0,.059.008.119.011.178.023.437.018.875.019,1.313,0,.856.065.92.9.923,1.406,0,2.812,0,4.218,0a2.278,2.278,0,0,1,.731.061.632.632,0,0,1,.081.03.51.51,0,0,1,.055.025c0,.04,0,.08,0,.12a6.753,6.753,0,0,0,.6,2.869,4.046,4.046,0,0,0,7.436.019,6.914,6.914,0,0,0,.575-3.356.252.252,0,0,1-.059-.023.435.435,0,0,1,.056-.02.574.574,0,0,1,.082-.018,1.758,1.758,0,0,0,1.145.3q2.16-.013,4.321,0C367.8,464.066,368.088,464.026,368.277,464.3Z" transform="translate(-626.676 -113.31)"/><path class="a" d="M347.264,604.494c.011-.03.023-.06.032-.091.093-.323-.139-.775.149-.958.225-.143.623-.006.943-.006l17.642,0a1.584,1.584,0,0,1,.763.1,9.139,9.139,0,0,1-4.658,4.272,8.371,8.371,0,0,1-8.6-1.028v3.376c-.341.117-.658-.1-1-.064-1.08.123-2.166-.068-3.25.058-.365.042-.739-.076-1.114-.052-.476.032-.6.144-.616.622-.021.844.007,1.688-.015,2.531-.006.231.052.5-.238.635a1.014,1.014,0,0,1-.055-.231Q347.254,609.075,347.264,604.494Z" transform="translate(-626.842 -246.133)"/><path class="a" d="M369.165,477.311c-1.877,0-3.754-.009-5.632.011-.377,0-.621-.071-.663-.48a.252.252,0,0,1-.059-.023.418.418,0,0,1,.056-.02,6.229,6.229,0,0,0-.511-2.212,4.04,4.04,0,0,0-7.311-.467c-.126.224-.241.453-.361.68l-.023.081-.05,0-.09-.012a20.6,20.6,0,0,0-2.377.031c-1.225,0-2.449-.115-3.674-.032a.427.427,0,0,1-.214-.036.559.559,0,0,1-.206-.161q0-1.843,0-3.684a.468.468,0,0,1,.2-.171,1,1,0,0,1,.3-.07c.71-.085,1.423-.032,2.129-.054.9-.027,1.807.057,2.713-.012.884-.066,1.776.041,2.665-.012,1.018-.06,2.036,0,3.054,0,1.082,0,2.166-.055,3.246.047.379.035.743-.088,1.113-.064,1.131.07,2.262.01,3.393,0a.939.939,0,0,1,.627.22A12.029,12.029,0,0,1,369.165,477.311Z" transform="translate(-627.564 -126.322)"/><path class="a" d="M367.272,427.491a19.166,19.166,0,0,1-2.7.052c-.951-.048-1.9,0-2.846,0a20.862,20.862,0,0,0-3.141.01c-.437.066-.9-.079-1.351-.054a22.049,22.049,0,0,1-2.746.044c-.937-.065-1.869.015-2.8-.008a23.368,23.368,0,0,0-3.865.069q-.013-.874-.026-1.748a3.02,3.02,0,0,1,2.16-2.748,3.111,3.111,0,0,1,3.482,1.2c.429.586.435.592.942.074a6.206,6.206,0,0,1,4.707-1.8A9.1,9.1,0,0,1,367.272,427.491Z" transform="translate(-627.339 -82.938)"/><path class="a" d="M852.774,539.249a9.316,9.316,0,0,1-1.374,3.8.586.586,0,0,1-.491.147c-5.632-.023-11.265-.013-16.9-.006a.85.85,0,0,1-.6-.14,10.531,10.531,0,0,1-1.373-3.725,9.138,9.138,0,0,1-.2-2.5.537.537,0,0,1,.459-.224c1.822-.022,3.645-.041,5.466.011a.457.457,0,0,1,.185.05.692.692,0,0,1,.12.062.565.565,0,0,1,.07.053.442.442,0,0,1-.075.042,10.013,10.013,0,0,0,.483,2.561,4.05,4.05,0,0,0,5.6,2.4,4.5,4.5,0,0,0,2.207-2.529.313.313,0,0,1-.086-.086.62.62,0,0,1,.122-.041c.023,0,.048-.01.074-.013,1.976,0,3.951.035,5.926-.02A.4.4,0,0,1,852.774,539.249Z" transform="translate(-1064.234 -185.836)"/><path class="a" d="M848.169,602.078a5.273,5.273,0,0,1,1.207-.1q7.761,0,15.522,0a5.643,5.643,0,0,1,1.256.1,8.761,8.761,0,0,1-2.734,3.165,10.534,10.534,0,0,1-14.969-2.657C848.348,602.422,848.263,602.247,848.169,602.078Z" transform="translate(-1078.988 -244.867)"/><path class="a" d="M848.317,427.617a9.663,9.663,0,0,1,6.776-4.88,10.421,10.421,0,0,1,8.466,1.768,9.143,9.143,0,0,1,2.727,3.11.462.462,0,0,1-.412.212c-.194.015-.388.018-.583.018q-7.991,0-15.982-.006C848.973,427.837,848.587,427.958,848.317,427.617Z" transform="translate(-1079.121 -82.867)"/><path class="a" d="M-176.582,428.013a10.308,10.308,0,0,1,.053-2.613,2.924,2.924,0,0,1,2.416-2.422,3.4,3.4,0,0,1,3.544,1.489c.086.132.121.3.284.4a7.376,7.376,0,0,1,2.549-1.975,3.487,3.487,0,0,1,4.367.951c.95,1.271.918,3.526-.745,4.337-3.837.151-7.676.032-11.513.063C-175.957,428.243-176.319,428.32-176.582,428.013Z" transform="translate(-153.963 -82.878)"/><path class="a" d="M101.472,425.817a3.1,3.1,0,0,1,5.781-1.339c.246.4.348.384.644.052a6.279,6.279,0,0,1,5.155-1.989,9.088,9.088,0,0,1,7.449,4.152.721.721,0,0,1,.066.174.369.369,0,0,1-.367.192c-1.015-.071-2.032-.053-3.046-.036-.871.014-1.743,0-2.615.011-.739.011-1.483.017-2.225,0-.839-.023-1.679-.011-2.519-.011-.789,0-1.579,0-2.368,0-.824-.006-1.647,0-2.471,0-1.032,0-2.065-.016-3.1.041a.422.422,0,0,1-.379-.18A4.555,4.555,0,0,1,101.472,425.817Z" transform="translate(-404.971 -82.899)"/><path class="a" d="M122.258,469.731a1.285,1.285,0,0,1-.8.132c-1.6.006-3.2,0-4.8,0a5.1,5.1,0,0,0-.87.04.6.6,0,0,1-.1.016.38.38,0,0,1-.1-.006.39.39,0,0,1,.059-.073c-.049-.062-.1-.121-.147-.187a3.96,3.96,0,0,0-4.445-1.78,4.186,4.186,0,0,0-2.307,1.58l-.051.083a.384.384,0,0,1-.045-.007c-.03-.008-.059-.017-.09-.022a3.769,3.769,0,0,0-1.4-.07c-.589.073-1.187-.02-1.786,0-1.08.028-2.164.061-3.247.032a1.012,1.012,0,0,1-.462-.074.393.393,0,0,1-.125-.105.571.571,0,0,1-.05-.076c-.018-.964,0-1.928-.007-2.892a.4.4,0,0,1,.041-.256l.016-.018c1.541-.12,3.085-.052,4.627-.064,1.254-.011,2.512-.028,3.766-.025.9,0,1.8,0,2.7.012.7.011,1.412.029,2.12-.011.852-.047,1.709-.032,2.563,0,.692.022,1.384-.015,2.077.008.4.013.8.088,1.2.071A9.9,9.9,0,0,1,122.258,469.731Z" transform="translate(-405.008 -122.066)"/><path class="a" d="M-331.935,450.622a3.479,3.479,0,0,1,.05.964,2.575,2.575,0,0,1-2.41,2.559,20.016,20.016,0,0,1-2.128.072c-.172,0-.359-.051-.509.088a2.206,2.206,0,0,1-.041.857,1.489,1.489,0,0,1-.973.231c-1.05,0-2.1.013-3.149.008a17.772,17.772,0,0,0-1.795-.044.352.352,0,0,1-.292-.152c-.07-.314.133-.735-.1-.924-.189-.155-.586-.05-.889-.074a6.8,6.8,0,0,1-.867-.1,2.5,2.5,0,0,1-2.176-2.607c0-.322.031-.645.048-.967,4.6-.074,9.208-.019,13.812-.036.324,0,.649.006.973-.012A.47.47,0,0,1-331.935,450.622Z" transform="translate(0 -108.121)"/><path class="a" d="M101.15,659.549a28.423,28.423,0,0,0,.058-2.863c.016-.582.079-.694.667-.7,1.654-.019,3.308,0,4.962-.013.421,0,.5.279.583.58,0,1.588.039,3.176,0,4.763a3.134,3.134,0,0,1-6.209.413A10.078,10.078,0,0,1,101.15,659.549Z" transform="translate(-404.68 -293.605)"/><path class="a" d="M-331.489,406.375a4.089,4.089,0,0,1-1.058.106q-6.167-.006-12.334,0a4.492,4.492,0,0,0-1.111.071.634.634,0,0,1-.725-.266,2.515,2.515,0,0,1,2.269-2.052,5.33,5.33,0,0,1,.721-.08c.973-.036.971-.033.974-.987,0-.549.01-1.1.016-1.647a.251.251,0,0,1,.23-.046,6.525,6.525,0,0,0,2.542.149c.918,0,1.838-.014,2.756-.006.661.006.769.165.708.837.012.419.055.84.027,1.257-.025.381.122.451.469.448a12.4,12.4,0,0,1,2.275.074A2.5,2.5,0,0,1-331.489,406.375Z" transform="translate(-0.446 -63.874)"/><path class="a" d="M-176.4,478.888q5.924,0,11.848.005c.213,0,.464-.089.62.159a9.777,9.777,0,0,1-2.327.91,17.91,17.91,0,0,0-1.864.652,3.137,3.137,0,0,0-1.937,2.785c-.043.449-.074.9-.111,1.349a.737.737,0,0,1-.62.206q-2.493.017-4.986,0a.779.779,0,0,1-.623-.205C-176.459,482.8-176.435,480.842-176.4,478.888Z" transform="translate(-154.147 -133.753)"/><path class="a" d="M859.243,478.8a.581.581,0,0,1-.414.072c-1.819-.072-3.64-.031-5.459-.024-.145,0-.286.045-.43.052a.458.458,0,0,1-.091,0c-.008-.031-.016-.062-.025-.093-.131-.256-.253-.517-.4-.766a3.858,3.858,0,0,0-3.495-2.075,3.782,3.782,0,0,0-2.928,1.156c.01.013.027.025.028.039a.064.064,0,1,1-.112.059.317.317,0,0,1-.039-.015c-2.116-.053-4.232-.011-6.346-.022-.188,0-.4.06-.536-.133a7.523,7.523,0,0,1,.907-2.042l17.969,0a11.339,11.339,0,0,1,1.327,3.371A1.211,1.211,0,0,1,859.243,478.8Z" transform="translate(-1070.712 -130.253)"/><path class="a" d="M347.815,673.958c.007-1.134.027-2.269.013-3.4-.005-.434.152-.648.59-.615,1.1.082,2.193-.044,3.292.038a12.914,12.914,0,0,0,1.5-.046,1.032,1.032,0,0,1,.838.295,26.489,26.489,0,0,1-.09,4.211,3.111,3.111,0,0,1-6.143-.48Z" transform="translate(-627.352 -306.204)"/><path class="a" d="M-.611,536.854c.04,2.159.046,4.317-.005,6.476A1.937,1.937,0,0,0-1.986,543q-2.066.015-4.132,0c-.294,0-.594,0-.752-.322v-5.821a.625.625,0,0,1,.6-.241q2.53-.023,5.061,0C-.987,536.622-.741,536.6-.611,536.854Z" transform="translate(-307.202 -185.861)"/><path class="a" d="M-169.991,581.028a22.662,22.662,0,0,1-.1,4.256,3.039,3.039,0,0,1-3.287,2.348,3.045,3.045,0,0,1-2.838-2.87c-.045-1.243,0-2.49,0-3.735a.554.554,0,0,1,.551-.315c.709,0,1.417-.028,2.127.041a13.016,13.016,0,0,0,1.684-.018c.468-.015.933.061,1.4,0C-170.234,580.711-170.11,580.87-169.991,581.028Z" transform="translate(-154.325 -225.667)"/><path class="a" d="M599.483,372.156c-.2-.5-.647-.478-1.06-.478-1.744,0-3.49-.056-5.232.091v-6.711c.3.033.282.273.3.472.028.349.216.468.546.466,1.536-.011,3.072-.008,4.607,0,.3,0,.538-.226.838-.162Q599.482,369,599.483,372.156Z" transform="translate(-848.837 -31.016)"/><path class="a" d="M109.5,469.04a10.323,10.323,0,0,1-2.356.1c-1.762.039-3.528,0-5.291,0-.332,0-.7.012-.789.464-.013-1.879-.033-3.757-.037-5.637,0-2.43,0-4.861.011-7.291a.86.86,0,0,1,.055-.474c.012.355.024.71.036,1.065v3.2a.485.485,0,0,1,.125.142.958.958,0,0,1,.091.474c.012.486.006.972.006,1.458,0,1.607-.107,1.487,1.511,1.488,1.214,0,2.429,0,3.643,0a2.159,2.159,0,0,1,.7.061c.022.008.046.017.068.026a.411.411,0,0,1,.069.031c0,.038,0,.077,0,.115a5.739,5.739,0,0,0,1.992,4.632h.059a.432.432,0,0,1,.13-.026A.3.3,0,0,1,109.5,469.04Z" transform="translate(-404.596 -113.292)"/><path class="a" d="M-299.639,490.558q.024-.4.048-.8c.011,1.421.028,2.841.031,4.261,0,1.777-.006,3.554-.013,5.331,0,.161-.021.321-.032.481-.11.367-.428.293-.683.3-1.371.021-2.741.006-4.112.01a6.285,6.285,0,0,0-.966.033.468.468,0,0,1-.474-.167q0-2.72,0-5.44c.185-.281.479-.235.747-.237,1.456-.013,2.912,0,4.367-.007.78,0,.863-.089.869-.863.005-.744,0-1.488.006-2.232A.821.821,0,0,1-299.639,490.558Z" transform="translate(-37.341 -143.577)"/><path class="a" d="M601.255,490.41a.409.409,0,0,1-.089-.029,7.045,7.045,0,0,0-.713.786,6.465,6.465,0,0,0-1.006,3.6.306.306,0,0,1,.088.045.368.368,0,0,1-.086.062.415.415,0,0,1-.066.03,1.5,1.5,0,0,1-.621.087q-2.427.01-4.854,0c-.269,0-.561.041-.758-.222q0-2,0-4c.219-.661.376-.774,1.088-.775q3.185,0,6.371,0c.257,0,.54-.039.617.317A.342.342,0,0,1,601.255,490.41Z" transform="translate(-848.799 -143.789)"/><path class="a" d="M-306.015,593.387c1.87-.207,3.746-.046,5.618-.1a1.2,1.2,0,0,0,.617-.076,12.808,12.808,0,0,1-.112,3.432,3.03,3.03,0,0,1-3.3,2.272,3.094,3.094,0,0,1-2.831-2.955C-306.051,595.1-306.019,594.245-306.015,593.387Z" transform="translate(-37.167 -236.956)"/><path class="a" d="M739.671,498.357a.545.545,0,0,1-.467.211c-1.828.024-3.656.032-5.485,0a.637.637,0,0,1-.279-.069.4.4,0,0,1-.051-.02.376.376,0,0,1-.107-.072.364.364,0,0,1,.109-.047l-1.343-4.019-.058-.071c.052-.24.227-.291.439-.291q2.08,0,4.159,0l2.322,0A10.956,10.956,0,0,1,739.671,498.357Z" transform="translate(-974.121 -147.376)"/><path class="a" d="M-.616,494.443l-6.259,0q0-2.3,0-4.594a.914.914,0,0,1,.722-.208c1.535-.04,3.071-.021,4.606-.019a2.753,2.753,0,0,1,.387.023.555.555,0,0,1,.56.637c-.02,1.066-.013,2.134,0,3.2A3.3,3.3,0,0,1-.616,494.443Z" transform="translate(-307.197 -143.449)"/><path class="a" d="M737.5,543.39c-2.366-.19-4.736-.012-7.1-.1a.348.348,0,0,1-.037-.153.539.539,0,0,1,.132,0h.022a7.733,7.733,0,0,0,.618-.861,6.461,6.461,0,0,0,.785-3.138.376.376,0,0,1-.107-.072.366.366,0,0,1,.109-.047l6.28,0A12.588,12.588,0,0,1,737.5,543.39Z" transform="translate(-972.65 -188.03)"/><path class="a" d="M-299.806,358.9c.04-.41-.156-.589-.557-.588-.67,0-1.342.023-2.01-.014a26.215,26.215,0,0,1-3.026-.029,1.369,1.369,0,0,1-.642-.3,11,11,0,0,1,.074-2.275,3.053,3.053,0,0,1,3.155-2.48,3.05,3.05,0,0,1,3,2.824A19.794,19.794,0,0,1-299.806,358.9Z" transform="translate(-37.14 -20.321)"/><path class="a" d="M-7.062,598.991a2.322,2.322,0,0,0,.668.1c1.745-.009,3.49,0,5.235-.028.527-.008.216.4.351.578A6.236,6.236,0,0,1-.946,601.9a3.06,3.06,0,0,1-3.34,2.224,3.088,3.088,0,0,1-2.782-2.95C-7.1,600.45-7.066,599.72-7.062,598.991Z" transform="translate(-307.01 -242.171)"/><path class="a" d="M-170.117,543.539a4.018,4.018,0,0,0-1.427-.058c-.607.035-1.218.008-1.82.02-.766.015-1.543-.055-2.317-.06a1.417,1.417,0,0,0-.664.1c-.04-1.454-.046-2.908,0-4.362l6.229,0Q-170.117,541.356-170.117,543.539Z" transform="translate(-154.199 -188.178)"/><path class="a" d="M600.665,542.8a.464.464,0,0,1-.033.143c-.352.184-.7-.022-1.044-.021h-5.519a1.943,1.943,0,0,0-.914.285q0-2.09,0-4.179h6.3a.308.308,0,0,1,.088.045.367.367,0,0,1-.086.062,6.565,6.565,0,0,0,1.087,3.671A.444.444,0,0,1,600.665,542.8Z" transform="translate(-848.799 -188.048)"/><path class="a" d="M248.418,541.052c-.538-.415-1.158-.179-1.739-.2-1.091-.033-2.187-.046-3.277,0a8.131,8.131,0,0,1-1.776-.116.3.3,0,0,1-.076-.133.38.38,0,0,1,.084-.012l.094,0a6.6,6.6,0,0,0,1.1-3.731.4.4,0,0,1-.087-.028.359.359,0,0,1,.05-.053.622.622,0,0,1,.125-.1,1.309,1.309,0,0,1,.525-.071q2.467-.017,4.935,0c.253,0,.527-.025.7.229A10.668,10.668,0,0,1,248.418,541.052Z" transform="translate(-531.434 -185.867)"/><path class="a" d="M-299.633,497.943c.01,1.184.009,2.369.036,3.552.009.379-.153.462-.494.46-1.914-.01-3.829,0-5.743,0q0-1.953,0-3.906A6.083,6.083,0,0,1-304,498c.6.059,1.212-.015,1.821,0C-301.333,498.023-300.483,497.967-299.633,497.943Z" transform="translate(-37.346 -150.962)"/><path class="a" d="M599.475,334.855c-.137.351-.426.391-.754.389-1.424-.007-2.848.011-4.271-.013-.35-.006-.741.216-1.037-.008-.32-.242-.076-.675-.173-1.01a1.393,1.393,0,0,0-.054-.135,3.151,3.151,0,1,1,6.3-.292C599.5,334.141,599.479,334.5,599.475,334.855Z" transform="translate(-848.83 -0.036)"/><path class="a" d="M-.67,458.472c-.1-.968-.031-1.939-.056-2.908-.015-.594-.075-.707-.65-.713-1.473-.015-2.946.01-4.419.009a3.959,3.959,0,0,1-1.148-.02c0-1.142-.01-2.284-.006-3.426a1.681,1.681,0,0,1,.085-.37.5.5,0,0,1,.466-.208,8.915,8.915,0,0,0,1.4.039c.884.012,1.769.032,2.655-.006a4.445,4.445,0,0,1,1.583.073,16.557,16.557,0,0,1,.1,2.959C-.648,455.424-.665,456.948-.67,458.472Z" transform="translate(-307.13 -108.435)"/><path class="a" d="M253.382,507.413l-6.249.018a.392.392,0,0,1-.087-.028.358.358,0,0,1,.05-.053.186.186,0,0,1-.025-.092,6.172,6.172,0,0,0-.655-2.973.38.38,0,0,1-.1-.006.393.393,0,0,1,.059-.073.519.519,0,0,1,.511-.207h5.629a1.016,1.016,0,0,1,.47.094A10.277,10.277,0,0,1,253.382,507.413Z" transform="translate(-535.739 -156.429)"/><path class="a" d="M-5.921,357.462a3.176,3.176,0,0,1-.117,2.343.814.814,0,0,1-.623.222c-1.963.026-3.925-.019-5.888.026a.56.56,0,0,1-.4-.151,3.579,3.579,0,0,1-.158-2.535,2.454,2.454,0,0,1,.96-.03c1.876-.005,3.751,0,5.627,0C-6.309,357.333-6.09,357.286-5.921,357.462Z" transform="translate(-301.436 -24.014)"/><path class="a" d="M986.942,514.825c-1.646.018-3.293.011-4.939,0a1.368,1.368,0,0,1-.613-.11l-.02-.011c0-.033,0-.067,0-.1a9.125,9.125,0,0,0-.376-2.341c-.008-.031-.017-.062-.025-.094a.791.791,0,0,1,.627-.2c1.684,0,3.369,0,5.053,0a1.386,1.386,0,0,1,.739.2,7.079,7.079,0,0,1,.234,1.874c0,.015,0,.029,0,.044s0,.024,0,.036c0,.028,0,.057,0,.086C987.653,514.753,987.556,514.818,986.942,514.825Z" transform="translate(-1198.858 -163.623)"/><path class="a" d="M986.713,536.641a36.207,36.207,0,0,1-4.444.09,6.684,6.684,0,0,1-1.974-.09.313.313,0,0,1-.086-.086.61.61,0,0,1,.122-.041,8.93,8.93,0,0,0,.352-2.2c0-.033,0-.067,0-.1,1.877,0,3.755-.015,5.631.018.454.008.637-.13.623-.54,0,.012,0,.024,0,.036,0,.028,0,.057,0,.086A9.81,9.81,0,0,1,986.713,536.641Z" transform="translate(-1198.172 -183.228)"/><path class="a" d="M-4.48,333.448a2.708,2.708,0,0,1-.814.1q-2.768-.006-5.536,0a1.261,1.261,0,0,1-.831-.2A3.678,3.678,0,0,1-8.171,330.7a3.7,3.7,0,0,1,3.633,2.468A2.016,2.016,0,0,1-4.48,333.448Z" transform="translate(-302.877 0)"/><path class="a" d="M838.53,512.834a8.84,8.84,0,0,0-.385,2.246.57.57,0,0,1,.07.053.441.441,0,0,1-.075.042l-6.226.007a7.836,7.836,0,0,1,.2-2.347.577.577,0,0,1,.514-.219c1.831-.019,3.662-.024,5.492,0a.648.648,0,0,1,.373.092.457.457,0,0,1,.063.057c.01.011.019.021.028.033A.354.354,0,0,1,838.53,512.834Z" transform="translate(-1064.304 -164.192)"/><path class="a" d="M841.629,495.184a.064.064,0,1,1-.112.059,7.243,7.243,0,0,0-.954,1.614c.01.011.019.021.028.033a.357.357,0,0,1-.058.032H834.12a5.9,5.9,0,0,1,.475-1.851,2.736,2.736,0,0,1,.764-.1c1.871,0,3.743,0,5.615,0,.222,0,.46-.043.626.168C841.61,495.158,841.628,495.171,841.629,495.184Z" transform="translate(-1066.307 -148.281)"/><path class="a" d="M.036,429.131c-.244.27-.588.16-.866.168-1.392.038-2.785.031-4.177.013a10.538,10.538,0,0,0-1.058-.079A2.989,2.989,0,0,1-3.6,426.708,3.081,3.081,0,0,1,.036,429.131Z" transform="translate(-307.929 -86.624)"/><path class="a" d="M-10.038,382.984a12.438,12.438,0,0,1,2.506-.094c1.467-.014,2.934,0,4.4,0a3.677,3.677,0,0,1-3.472,2.4A3.67,3.67,0,0,1-10.038,382.984Z" transform="translate(-304.342 -47.097)"/><path class="a" d="M658.919,501.5c.031.046.063.092.1.136a.46.46,0,0,0,.033-.143A.45.45,0,0,0,658.919,501.5Zm-1.089-3.778c0,.036,0,.072,0,.107a.366.366,0,0,0,.086-.062A.308.308,0,0,0,657.83,497.726Zm8.513.045a.375.375,0,0,0,.107.072c0-.039,0-.079,0-.119A.366.366,0,0,0,666.343,497.77Zm-1.318,4.072a.539.539,0,0,0-.132,0,.348.348,0,0,0,.037.153c.038-.054.078-.105.118-.158Zm-5.414-8.572-.062.066a.41.41,0,0,0,.089.029.415.415,0,0,0,.084.009.327.327,0,0,0,.054,0,.509.509,0,0,0,.106-.024l.05-.018h0c.016-.007.034-.015.051-.023L660,493.3Z" transform="translate(-907.182 -146.744)"/><path class="a" d="M418.826,515.3a.417.417,0,0,0-.056.02.252.252,0,0,0,.059.023h0Zm-8.346-1.927a.034.034,0,0,0-.007.01,3.551,3.551,0,0,0-.392,2.235.057.057,0,0,0,0,.018c.018.067.091.118.135.175,0-.04,0-.08,0-.12a8.7,8.7,0,0,1,.4-2.311l.023-.081A.236.236,0,0,0,410.48,513.373Z" transform="translate(-683.523 -164.824)"/><path class="a" d="M354.395,511.409l-.023.081a8.7,8.7,0,0,0-.4,2.311c0,.04,0,.08,0,.12-1.895,0-3.79-.01-5.686.01-.426,0-.576-.129-.555-.557.035-.7.021-1.392.029-2.089l.2-.018c1.647-.132,3.3.08,4.943,0C353.411,511.245,353.922,511.077,354.395,511.409Z" transform="translate(-627.275 -162.933)"/><path class="a" d="M904.181,503.2a.308.308,0,0,0,.086.086c.013-.042.024-.085.036-.127A.622.622,0,0,0,904.181,503.2Zm-8.2-2.439c0,.031,0,.063,0,.094a.433.433,0,0,0,.075-.042A.586.586,0,0,0,895.985,500.764Zm.415-2.312c-.011.021-.021.044-.03.065a.358.358,0,0,0,.058-.032C896.419,498.474,896.409,498.463,896.4,498.453Zm1.038-1.713c-.028.032-.056.065-.084.1a.392.392,0,0,0,.105.025.388.388,0,0,0,.007-.085C897.465,496.765,897.447,496.753,897.438,496.74Z" transform="translate(-1122.144 -149.876)"/><path class="a" d="M109,499.32l-.051.083a7.067,7.067,0,0,0-.943,3.4c0,.038,0,.077,0,.115-1.911,0-3.822,0-5.733.012-.38,0-.513-.126-.5-.506.025-1.088.022-2.177.031-3.266v-.037c1.048-.027,2.1-.038,3.143-.074,1.024-.034,2.053.039,3.08-.021A1.093,1.093,0,0,1,109,499.32Z" transform="translate(-405.26 -151.928)"/></g></svg>