<svg xmlns="http://www.w3.org/2000/svg" xmlns:xlink="http://www.w3.org/1999/xlink" width="698.001" height="452.289" viewBox="0 0 698.001 452.289"><defs><style>.a{fill:#ebebff;}.b{fill:url(#a);}.c{fill:url(#b);}.d{fill:url(#c);}.e{fill:url(#d);}.f{fill:url(#e);}.g{fill:url(#f);}.h{fill:url(#g);}.i{fill:url(#h);}.j{fill:url(#i);}.k{fill:url(#j);}.l{fill:url(#k);}.m{fill:url(#l);}.n{fill:url(#m);}.o{fill:url(#n);}.p{fill:url(#o);}.q{fill:url(#p);}.r{fill:url(#q);}.s{fill:url(#u);}.t{fill:url(#v);}.u{fill:#fff;}.v{fill:#fdbfba;}.w{fill:url(#w);}.x{fill:url(#x);}.y{fill:url(#y);}.z{fill:url(#z);}.aa{fill:url(#aa);}.ab{fill:url(#ab);}.ac{fill:url(#ac);}.ad{fill:#473765;}.ae{opacity:0.12;}</style><linearGradient id="a" x1="0.12" y1="0.814" x2="1.46" y2="0.814" gradientUnits="objectBoundingBox"><stop offset="0" stop-color="#79bffd"/><stop offset="1" stop-color="#6568eb"/></linearGradient><linearGradient id="b" x1="1.228" y1="0.949" x2="2.967" y2="0.949" xlink:href="#a"/><linearGradient id="c" x1="2.728" y1="0.011" x2="4.067" y2="0.011" xlink:href="#a"/><linearGradient id="d" x1="6.594" y1="-0.784" x2="8.333" y2="-0.784" xlink:href="#a"/><linearGradient id="e" x1="0.5" x2="0.5" y2="1" gradientUnits="objectBoundingBox"><stop offset="0" stop-color="#56d18f"/><stop offset="1" stop-color="#32c075"/></linearGradient><linearGradient id="f" x1="0.5" x2="5.223" y2="0.034" gradientUnits="objectBoundingBox"><stop offset="0" stop-color="#7e8de9"/><stop offset="1" stop-color="#00020d"/></linearGradient><linearGradient id="g" x1="0.048" y1="0.5" x2="0.952" y2="0.5" gradientUnits="objectBoundingBox"><stop offset="0" stop-color="#ea84de"/><stop offset="1" stop-color="#c352f7"/></linearGradient><linearGradient id="h" y1="0.5" x2="1" y2="0.5" gradientUnits="objectBoundingBox"><stop offset="0" stop-color="#fd843d"/><stop offset="1" stop-color="#fe2f70"/></linearGradient><linearGradient id="i" x1="-0.305" y1="-0.267" x2="1" y2="1.225" gradientUnits="objectBoundingBox"><stop offset="0" stop-color="#d841ff"/><stop offset="1" stop-color="#98cfff"/></linearGradient><linearGradient id="j" x1="0" y1="0.5" x2="1" y2="0.5" xlink:href="#a"/><linearGradient id="k" x1="-0.357" y1="-0.053" x2="1" y2="1.539" xlink:href="#i"/><linearGradient id="l" x1="-0.315" y1="0.5" x2="1.315" y2="0.5" xlink:href="#h"/><linearGradient id="m" x1="-0.471" y1="0.5" x2="1.471" y2="0.5" xlink:href="#h"/><linearGradient id="n" x1="-0.017" y1="0.5" x2="1.017" y2="0.5" xlink:href="#h"/><linearGradient id="o" x1="-0.054" y1="0.5" x2="1.054" y2="0.5" xlink:href="#g"/><linearGradient id="p" x1="-0.072" y1="0.5" x2="1.072" y2="0.5" xlink:href="#g"/><linearGradient id="q" y1="0.5" x2="1" y2="0.5" gradientUnits="objectBoundingBox"><stop offset="0" stop-color="#2b0246"/><stop offset="1" stop-color="#6a4586"/></linearGradient><linearGradient id="u" x1="0" y1="0.5" x2="3.767" y2="0.541" xlink:href="#f"/><linearGradient id="v" x1="-0.014" y1="0.509" x2="0.986" y2="0.509" xlink:href="#h"/><linearGradient id="w" x1="-0.057" y1="1.428" x2="0.636" y2="0.273" xlink:href="#a"/><linearGradient id="x" x1="-18.295" y1="0.5" x2="-17.295" y2="0.5" xlink:href="#q"/><linearGradient id="y" x1="-19.585" y1="0.5" x2="-18.585" y2="0.5" xlink:href="#q"/><linearGradient id="z" x1="0.408" y1="0.712" x2="1.01" y2="-0.388" xlink:href="#a"/><linearGradient id="aa" x1="0.5" x2="0.5" y2="1" gradientUnits="objectBoundingBox"><stop offset="0" stop-color="#fe2f70"/><stop offset="1" stop-color="#da1d58"/></linearGradient><linearGradient id="ab" x1="0.5" x2="0.5" y2="1" gradientUnits="objectBoundingBox"><stop offset="0" stop-color="#fe2f70"/><stop offset="1" stop-color="#be1d4f"/></linearGradient><linearGradient id="ac" x1="0.5" x2="0.5" y2="1" gradientUnits="objectBoundingBox"><stop offset="0" stop-color="#fe2f70"/><stop offset="1" stop-color="#bc335e"/></linearGradient></defs><g transform="translate(-226 -296)"><g transform="translate(226 331.972)"><path class="a" d="M1228.708,546.453c-6.5-5.22-15.836-3.785-24.131-4.618a41.024,41.024,0,0,1-16.086-5.12c-6.113-3.468-12.332-8.736-19.205-7.27-3.539.755-6.444,3.223-9.774,4.639-6.761,2.875-14.606,1.161-21.375-1.692-5.969-2.515-12.222-5.967-18.532-4.5a26.993,26.993,0,0,0-7.01,3.177,205.316,205.316,0,0,1-35.776,15.943Z" transform="translate(-530.707 -414.894)"/><path class="a" d="M676.931,381.8c-10.224-8.211-24.91-5.955-37.957-7.265a64.521,64.521,0,0,1-25.3-8.053c-9.614-5.455-19.4-13.742-30.209-11.436-5.567,1.187-10.136,5.07-15.375,7.3-10.634,4.521-22.974,1.826-33.623-2.662-9.389-3.957-19.225-9.387-29.15-7.086-3.946.915-7.5,3-11.027,5a322.966,322.966,0,0,1-56.274,25.077Z" transform="translate(-301.929 -352.042)"/><path class="a" d="M464.919,575.408c-10.225-8.211-24.91-5.955-37.957-7.265a64.526,64.526,0,0,1-25.3-8.052c-9.615-5.455-19.4-13.743-30.209-11.437-5.567,1.188-10.136,5.07-15.374,7.3-10.635,4.521-22.974,1.827-33.623-2.662-9.389-3.957-19.226-9.387-29.151-7.085-3.946.915-7.5,3-11.027,5A322.894,322.894,0,0,1,226,576.278Z" transform="translate(-226 -421.382)"/></g><g transform="translate(448.145 611.361)"><path class="b" d="M615.769,916.344s-59.453-88.886-39.63-122.075,53.946,60.556,62.332,110.877Z" transform="translate(-572.093 -787.319)"/><path class="c" d="M658.971,921.812s-27.928-73.621-8.467-95.075,28.588,52.086,26.424,90.136Z" transform="translate(-597.706 -800.058)"/></g><g transform="translate(666.289 660.527)"><path class="d" d="M940.971,950.593s39.939-59.711,26.622-82.007-36.239,40.68-41.872,74.484Z" transform="translate(-916.883 -863.917)"/><path class="e" d="M924.224,954.266s18.762-49.456,5.688-63.869-19.2,34.99-17.751,60.551Z" transform="translate(-911.951 -872.475)"/></g><g transform="translate(329.317 669.581)"><path class="f" d="M968.53,956.731c-24.855-7.351-40.462-18.166-58.591-27.346-16.116-8.161-30.632-19.436-47.385-26.195s-37.321-8.209-51.719,2.7c-11.455,8.679-17.127,23.685-29.273,31.366-20.919,13.228-47.965-1.455-67.2-17.033s-42.286-33.651-65.989-26.526c-8.944,2.688-16.416,8.722-24.306,13.719-19.6,12.412-44.369,18.746-66.337,11.3-29.408-9.973-51.074-42.87-82.043-40.576-19.556,1.449-34.772,16.9-48.026,31.349-13.567,14.794-27.134,32.335-40.7,47.129Z" transform="translate(-386.963 -878.024)"/></g><g transform="translate(480.545 296.683)"><path class="g" d="M787.9,312.24V750.162h21.965V312.24a10.982,10.982,0,0,0-10.982-10.982h0A10.982,10.982,0,0,0,787.9,312.24Z" transform="translate(-681.782 -298.566)"/><rect class="h" width="8.783" height="5.27" transform="translate(180.872 8.261) rotate(-70.14)"/><path class="i" d="M831.473,560.527l-35.011,62.91a7.3,7.3,0,0,1-9.927,2.828l-105.459-58.69a7.3,7.3,0,0,1-3.346-3.985l-18.1-52.155a7.3,7.3,0,0,1,5.44-9.546l53.041-10.8a7.3,7.3,0,0,1,5.005.774L828.645,550.6A7.3,7.3,0,0,1,831.473,560.527Z" transform="translate(-635.695 -366.501)"/><path class="j" d="M738.171,706.25l-15.616,44.833a4.814,4.814,0,0,0,2.962,6.129l75.157,26.178a4.813,4.813,0,0,0,3.429-.1l33.62-13.964a4.813,4.813,0,0,0,2.314-6.865L822.084,731.61a4.813,4.813,0,0,0-2.576-2.125l-75.209-26.2A4.813,4.813,0,0,0,738.171,706.25Z" transform="translate(-658.282 -442.451)"/><path class="k" d="M774.495,439.7l-8.7,27.444a2.919,2.919,0,0,0,1.9,3.665L813.7,485.4a2.917,2.917,0,0,0,2.078-.119l20.144-9.037a2.919,2.919,0,0,0,1.286-4.2l-11.407-18.4a2.918,2.918,0,0,0-1.6-1.244l-46.04-14.6A2.918,2.918,0,0,0,774.495,439.7Z" transform="translate(-673.813 -347.419)"/><path class="l" d="M719.636,342.479l8.891,51.919a5.34,5.34,0,0,0,6.165,4.362l87.034-14.9A5.337,5.337,0,0,0,825,381.918l25.157-31.6a5.34,5.34,0,0,0-1.437-7.909L814.735,322.08a5.34,5.34,0,0,0-3.643-.681L724,336.314A5.339,5.339,0,0,0,719.636,342.479Z" transform="translate(-657.305 -305.752)"/><rect class="m" width="10.695" height="17.824" transform="translate(19.934 101.931) rotate(-26.079)"/><rect class="n" width="8.701" height="14.501" transform="translate(4.539 118.239) rotate(-57.225)"/><rect class="o" width="14.501" height="8.701" transform="translate(0 133.819) rotate(-3.446)"/><rect class="p" width="8.783" height="5.27" transform="matrix(0.653, -0.757, 0.757, 0.653, 190.961, 14.866)"/><rect class="q" width="8.783" height="5.27" transform="translate(200.413 23.239) rotate(-19.636)"/><circle class="r" cx="6.864" cy="6.864" r="6.864" transform="translate(110.241 47.994)"/><circle class="r" cx="6.864" cy="6.864" r="6.864" transform="translate(110.241 181.155)"/><circle class="r" cx="4.805" cy="4.805" r="4.805" transform="translate(111.613 296.469)"/><circle class="r" cx="2.746" cy="2.746" r="2.746" transform="translate(114.359 109.769)"/></g><g transform="translate(333.415 502.058)"><path class="s" d="M519.107,630.63V862.814h19.332V630.63c0-7.511-4.327-13.6-9.666-13.6h0C523.435,617.029,519.107,623.118,519.107,630.63Z" transform="translate(-438.387 -617.029)"/><rect class="t" width="168.459" height="86.301" rx="22.05" transform="translate(0 30.598) rotate(-7.881)"/><g transform="translate(30.699 31.592)"><path class="u" d="M464.869,732.92,463.3,721.555l-21.117,2.923-1-7.259,14.018-31.532L468.83,683.8l3.867,27.935,5.719-.791,1.157,8.358-5.719.791,1.573,11.365Zm-2.73-19.723-1.462-10.558c-.4-2.86-.655-5.813-.861-8.923l-.293.04c-1.114,3.293-1.974,6.251-3.171,9.481l-4.938,11.294.021.147Z" transform="translate(-441.175 -672.534)"/><path class="u" d="M540.14,698.387c2.04,14.737-2.5,25.678-14.67,27.363-12.318,1.7-19.276-8.615-21.217-22.1-1.908-13.784,2.445-25.521,14.763-27.226C531.774,674.661,538.333,685.336,540.14,698.387ZM515.471,702.1c1.439,10.935,4.8,15.775,9.125,15.176s5.921-6.349,4.419-17.2c-1.461-10.558-4.506-15.816-8.978-15.2C515.93,685.449,513.865,691.04,515.471,702.1Z" transform="translate(-463.611 -669.825)"/><path class="u" d="M591.662,715.368,590.089,704l-21.116,2.924-1.005-7.259,14.018-31.532,13.638-1.888,3.867,27.935,5.719-.792,1.157,8.358-5.719.791,1.573,11.365Zm-2.73-19.723-1.462-10.558c-.4-2.86-.655-5.813-.861-8.923l-.293.04c-1.113,3.293-1.974,6.251-3.171,9.481l-4.938,11.294.021.147Z" transform="translate(-486.584 -666.248)"/></g></g><g transform="translate(748.657 296)"><path class="v" d="M1052.879,637.865c2.943,1.334,3.378-2.738,3.378-2.738,2.985.319.871-11.123.752-11.745a6.622,6.622,0,0,0,4.756,3.58l-3.569-14.8c.763-7.136-4.576-14.923-4.576-14.923l1.6-11.337,6.8-75.4c1.544-9.621-17.723-14.58-17.7-12.71.191,17.54-2.833,121.336-2.833,121.336l7.545,16.26C1050.729,638.656,1052.879,637.865,1052.879,637.865Z" transform="translate(-1040.708 -368.129)"/><path class="w" d="M1059.346,617.2l1.688,88.715a25,25,0,0,0,.026,8.371l22.5,130.009h29.247l-17.2-131.611,16.344-95.483Z" transform="translate(-1047.106 -411.033)"/><path class="x" d="M1113.529,988.3h-57.634s-4.978-7.468,15.217-14.254a13.567,13.567,0,0,0,2.167-.937l8.421-4.594,30.967-.86C1112.683,967.655,1113.529,988.3,1113.529,988.3Z" transform="translate(-1045.676 -536.542)"/><path class="y" d="M1141.672,988.3h-57.634s-4.983-7.474,15.242-14.262a13.615,13.615,0,0,0,2.122-.911l10.162-5.472h29.247C1140.826,967.655,1141.672,988.3,1141.672,988.3Z" transform="translate(-1055.755 -536.542)"/><path class="z" d="M1144.208,631.943l-12.9,90.322,12.9,125.59H1114.1l-22.079-128.229a16.818,16.818,0,0,1-.237-3.349l2.477-84.335Z" transform="translate(-1058.721 -416.312)"/><path class="v" d="M1108.38,346.895l-2.548,37.2-21.637.987-.048-9.493-.014-2.285-.055-9.217-.007-.269-.3-.042c-19.538-2.879-12.517-50.158-12.517-50.158,20.988-9.41,35.957.5,41.024,14.292S1108.38,346.895,1108.38,346.895Z" transform="translate(-1050.93 -300.984)"/><path class="aa" d="M1049.886,442.416l-9.609,46.675h16.474Z" transform="translate(-1040.277 -348.436)"/><path class="ab" d="M1143.566,444.277c-.686,1.711-1.322,3.473-1.926,5.3-8.749,26.238-10.716,112.276-10.716,112.276l-72.941,1.1c.01-.174-2.746-131.788-2.746-131.788-.8.53,22.235-14.638,22.484-14.84,14.1,8.914,23.861-5.337,23.861-5.337,11.588,3.053,27.693,8.145,34.444,11.238.225.092.461.2.7.307.01.01.021.021.031.021h.01l.089.041a13.651,13.651,0,0,1,8.012,11.5A30.628,30.628,0,0,1,1143.566,444.277Z" transform="translate(-1045.627 -337.178)"/><path class="ac" d="M1173.45,449.992c-.686,1.711-1.322,3.473-1.926,5.3-2.408,5.927-5.53,12.9-9.578,21.028s-23.286-9.243-23.286-9.243l10.869-31.685a12.588,12.588,0,0,1,9.559-8.281,12.1,12.1,0,0,1,6.822.826c.225.092.461.2.7.307.01.01.021.021.031.021h.01l.089.041a13.651,13.651,0,0,1,8.012,11.5A30.631,30.631,0,0,1,1173.45,449.992Z" transform="translate(-1075.511 -342.893)"/><path class="v" d="M1137.376,465.364l-6.172,8.927-18.682,27.016a10.557,10.557,0,0,1-19.014-3.832L1088.365,473l-3.08-18.889-.718-4.377-3.383-20.775s-6.145-6.152-7.173-9.231c0,0-2.044-11.26-1.029-13.311s3.079,0,3.079,0,.539-9.175.539-11.212c0-4.122.345-4.122,1.374-4.122,2.741,0,4.114,4.122,4.239,11.24l2.044,8.188,5.5,5.372-.379-7.415s5.116-1.022,5.116,7.166l-2.037,8.2,8.644,30.281,5.7,19.338,7.746-19.345.566.276Z" transform="translate(-1051.889 -330.052)"/><path class="ad" d="M1100.467,330.116s-6.548-10.614-2.913-15.52c0,0-18.726,13.963-27.7.438-9.411-14.176,10.072-26.861,33.186-13.145,0,0,6.682-2.124,12.521,6.263,0,0,4.757,19.525-9.272,39.271v-6.863s6.992-12.351-1.773-13.6A5.523,5.523,0,0,0,1100.467,330.116Z" transform="translate(-1050.001 -296)"/><path class="ae" d="M1110.353,381.478c-5.213,14.07-14.367,18.434-18.537,19.739l-.014-2.285-.055-9.217-.007-.269-.3-.042C1101.019,388.368,1110.05,381.7,1110.353,381.478Z" transform="translate(-1058.599 -326.612)"/><path class="ae" d="M1161.04,500.685l-6.172,8.927-16.093-19.9Z" transform="translate(-1075.552 -365.373)"/></g></g></svg>