<svg xmlns="http://www.w3.org/2000/svg" xmlns:xlink="http://www.w3.org/1999/xlink" width="68" height="68" viewBox="0 0 68 68"><defs><style>.a{fill:#fff;}.b{fill:none;}.c{fill:#000941;}.d{filter:url(#a);}</style><filter id="a" x="0" y="0" width="68" height="68" filterUnits="userSpaceOnUse"><feOffset input="SourceAlpha"/><feGaussianBlur stdDeviation="3" result="b"/><feFlood flood-opacity="0.161"/><feComposite operator="in" in2="b"/><feComposite in="SourceGraphic"/></filter></defs><g transform="translate(-413.789 -1368.79)"><g class="d" transform="matrix(1, 0, 0, 1, 413.79, 1368.79)"><circle class="a" cx="25" cy="25" r="25" transform="translate(9 9)"/></g><g transform="translate(434.28 1389.28)"><path class="b" d="M0,0H27.019V27.019H0Z"/><path class="c" d="M14.519,18.913,9.792,16.335a4.5,4.5,0,1,1,0-6.152L14.52,7.6A4.5,4.5,0,1,1,15.6,9.58l-4.728,2.578a4.512,4.512,0,0,1,0,2.2L15.6,16.936a4.5,4.5,0,1,1-1.08,1.976ZM6.5,15.51a2.252,2.252,0,1,0-2.252-2.252A2.252,2.252,0,0,0,6.5,15.51ZM18.887,8.755A2.252,2.252,0,1,0,16.635,6.5,2.252,2.252,0,0,0,18.887,8.755Zm0,13.509a2.252,2.252,0,1,0-2.252-2.252A2.252,2.252,0,0,0,18.887,22.264Z" transform="translate(0.252 0.251)"/></g></g></svg>